<?xml version="1.0" standalone="no"?>
<!DOCTYPE svg PUBLIC "-//W3C//DTD SVG 20010904//EN"
 "http://www.w3.org/TR/2001/REC-SVG-20010904/DTD/svg10.dtd">
<svg version="1.0" xmlns="http://www.w3.org/2000/svg"
 width="500.000000pt" height="500.000000pt" viewBox="0 0 500.000000 500.000000"
 preserveAspectRatio="xMidYMid meet">
<metadata>
Created by potrace 1.11, written by Peter Selinger 2001-2013
</metadata>
<g transform="translate(0.000000,500.000000) scale(0.100000,-0.100000)"
fill="#000000" stroke="none">
<path d="M2420 4987 c-26 -8 -122 -97 -380 -353 l-345 -344 210 -210 209 -210
141 139 c153 152 184 169 273 157 67 -9 99 -31 235 -165 l128 -125 207 207
207 207 -335 335 c-214 214 -350 343 -376 355 -44 22 -116 25 -174 7z"/>
<path d="M1407 4002 l-127 -127 210 -210 210 -210 125 125 c69 69 125 129 125
135 0 10 -400 415 -410 415 -3 0 -63 -57 -133 -128z"/>
<path d="M3250 3925 l-205 -205 130 -130 130 -130 207 207 208 208 -127 127
c-70 71 -130 128 -133 128 -3 0 -97 -92 -210 -205z"/>
<path d="M2426 3846 c-31 -12 -179 -154 -648 -623 -639 -639 -638 -638 -638
-723 0 -85 -2 -84 643 -727 558 -557 616 -613 657 -623 58 -15 123 -6 174 24
54 32 1198 1180 1222 1226 25 47 25 153 0 200 -24 46 -1169 1194 -1223 1226
-53 32 -133 40 -187 20z m424 -676 c58 -10 131 -27 162 -39 l57 -22 -50 -112
c-27 -61 -49 -112 -49 -114 0 -1 -28 9 -63 22 -197 74 -451 73 -588 -1 -133
-73 -205 -239 -180 -418 23 -166 86 -255 221 -315 78 -34 260 -53 349 -35 l31
7 0 218 0 219 175 0 175 0 0 -315 0 -314 -37 -10 c-242 -63 -592 -75 -786 -26
-240 61 -421 234 -473 451 -22 91 -22 259 -1 341 68 261 305 442 629 482 97
12 299 3 428 -19z"/>
<path d="M990 3585 l-125 -125 210 -210 210 -210 130 130 130 130 -205 205
c-113 113 -209 205 -215 205 -6 0 -66 -56 -135 -125z"/>
<path d="M3660 3505 l-205 -205 130 -130 130 -130 207 207 208 208 -127 127
c-70 71 -130 128 -133 128 -3 0 -97 -92 -210 -205z"/>
<path d="M364 2958 c-311 -313 -342 -347 -354 -391 -15 -55 -10 -119 13 -167
10 -19 168 -186 352 -370 l335 -335 210 210 210 209 -139 141 c-141 142 -161
172 -161 245 0 73 20 103 161 245 l139 141 -208 207 c-114 114 -210 207 -212
207 -3 0 -159 -154 -346 -342z"/>
<path d="M4070 3095 l-205 -205 132 -132 c72 -73 138 -147 147 -165 9 -19 16
-57 16 -93 0 -36 -7 -74 -16 -93 -9 -18 -75 -92 -147 -165 l-132 -132 208
-208 207 -207 345 345 c360 360 375 378 375 461 0 79 -17 101 -373 457 -188
188 -344 342 -347 342 -3 0 -97 -92 -210 -205z"/>
<path d="M1070 1745 l-205 -205 130 -130 130 -130 210 210 210 210 -125 125
c-69 69 -129 125 -135 125 -6 0 -102 -92 -215 -205z"/>
<path d="M3587 1822 l-127 -127 208 -208 207 -207 130 130 130 130 -205 205
c-113 113 -207 205 -210 205 -3 0 -63 -57 -133 -128z"/>
<path d="M1487 1332 l-207 -207 130 -130 130 -130 205 205 c113 113 205 209
205 215 0 10 -240 255 -250 255 -3 0 -99 -93 -213 -208z"/>
<path d="M3167 1412 l-127 -127 208 -208 207 -207 130 130 130 130 -205 205
c-113 113 -207 205 -210 205 -3 0 -63 -57 -133 -128z"/>
<path d="M1905 920 l-210 -210 335 -335 c184 -184 351 -343 370 -352 57 -27
141 -29 192 -4 29 14 152 130 378 356 l335 335 -207 207 -207 207 -128 -125
c-136 -134 -168 -156 -235 -165 -89 -12 -120 5 -273 157 l-141 139 -209 -210z"/>
</g>
</svg>
