<?xml version="1.0" encoding="UTF-8" standalone="no"?>
<svg
   xmlns:dc="http://purl.org/dc/elements/1.1/"
   xmlns:cc="http://creativecommons.org/ns#"
   xmlns:rdf="http://www.w3.org/1999/02/22-rdf-syntax-ns#"
   xmlns:svg="http://www.w3.org/2000/svg"
   xmlns="http://www.w3.org/2000/svg"
   xmlns:sodipodi="http://sodipodi.sourceforge.net/DTD/sodipodi-0.dtd"
   xmlns:inkscape="http://www.inkscape.org/namespaces/inkscape"
   fill="#7289da"
   height="512"
   width="512"
   version="1.1"
   id="svg4979"
   sodipodi:docname="aiodex.svg"
   inkscape:version="0.92.2 2405546, 2018-03-11">
  <metadata
     id="metadata4985">
    <rdf:RDF>
      <cc:Work
         rdf:about="">
        <dc:format>image/svg+xml</dc:format>
        <dc:type
           rdf:resource="http://purl.org/dc/dcmitype/StillImage" />
        <dc:title></dc:title>
      </cc:Work>
    </rdf:RDF>
  </metadata>
  <defs
     id="defs4983">
    <style
       id="style1516">
      .cls-1, .cls-5, .cls-6 {
        fill: none;
        stroke-linecap: round;
      }

      .cls-1, .cls-5 {
        stroke: #183c87;
      }

      .cls-1 {
        stroke-width: 75px;
      }

      .cls-2, .cls-3 {
        fill: #183c87;
      }

      .cls-2, .cls-5, .cls-6 {
        fill-rule: evenodd;
      }

      .cls-4 {
        fill: #fff;
      }

      .cls-5 {
        stroke-width: 101px;
      }

      .cls-6 {
        stroke: #fff;
        stroke-width: 56px;
      }
    </style>
  </defs>
  <sodipodi:namedview
     pagecolor="#ffffff"
     bordercolor="#666666"
     borderopacity="1"
     objecttolerance="10"
     gridtolerance="10"
     guidetolerance="10"
     inkscape:pageopacity="0"
     inkscape:pageshadow="2"
     inkscape:window-width="1722"
     inkscape:window-height="908"
     id="namedview4981"
     showgrid="false"
     inkscape:zoom="0.68554688"
     inkscape:cx="-46.893391"
     inkscape:cy="148.85674"
     inkscape:window-x="104"
     inkscape:window-y="76"
     inkscape:window-maximized="0"
     inkscape:current-layer="svg4979" />
  <circle
     style="opacity:1;fill:#795548;fill-opacity:1;stroke:none;stroke-width:25.67475319;stroke-miterlimit:4;stroke-dasharray:none;stroke-opacity:1"
     id="path817"
     cx="256"
     cy="256"
     r="256" />
  <path
     style="fill:#fdffff;fill-opacity:1;stroke-width:0.59219068"
     d="m 246.14719,455.79062 c -7.71225,-2.46867 -13.44943,-7.53726 -17.27873,-15.26507 -2.24718,-4.535 -2.45779,-5.37443 -2.72125,-10.84558 -0.3306,-6.86551 0.27255,-9.71921 3.29179,-15.57477 4.71542,-9.14518 14.8282,-15.24087 25.28467,-15.24087 16.47156,0 29.33036,12.71412 29.33036,29.00039 0,8.13266 -2.60654,14.71629 -8.0994,20.45751 -3.17283,3.3163 -6.61934,5.48163 -11.44289,7.18917 -4.90345,1.73582 -13.41,1.86516 -18.36455,0.27922 z m -65.72654,-59.62914 c -19.37943,-11.21759 -38.50739,-22.28037 -42.5066,-24.58397 l -7.27129,-4.18839 1.23441,-1.58397 c 0.67891,-0.87118 2.4316,-3.38276 3.89487,-5.58125 1.46327,-2.19852 2.78508,-3.99729 2.93742,-3.99729 0.15242,0 9.66627,5.43117 21.14213,12.06927 11.47584,6.63813 30.19046,17.4513 41.58805,24.02928 11.39759,6.578 20.78564,12.02274 20.86232,12.09945 0.23177,0.23176 -5.84558,11.90073 -6.26063,12.0209 -0.21196,0.0613 -16.24123,-9.06646 -35.62068,-20.28403 z m 113.10843,19.70196 c 0,-0.42165 -1.19503,-3.14776 -2.65563,-6.05802 -2.08041,-4.14526 -2.4973,-5.43809 -1.92463,-5.96859 0.98094,-0.90867 82.23597,-47.74174 82.41586,-47.50216 0.0777,0.10341 1.0992,1.65369 2.27009,3.44508 1.17089,1.79137 2.94635,4.03973 3.94543,4.99636 0.99909,0.95663 1.81653,1.92687 1.81653,2.1561 0,0.22922 -2.73148,2.00693 -6.06996,3.95045 -20.80649,12.11261 -79.26008,45.74739 -79.50402,45.74739 -0.1616,0 -0.29367,-0.34497 -0.29367,-0.76661 z m -45.59844,-54.15908 -2.5e-4,-26.20443 h 7.10629 7.10631 v 26.2414 26.24138 l -7.10607,-0.0369 -7.10606,-0.0369 -2.2e-4,-26.20443 z m -151.304954,5.11738 c -10.865592,-2.19116 -20.424791,-11.824 -22.737099,-22.91224 -4.097003,-19.64641 13.463405,-37.90342 33.256753,-34.57604 6.14375,1.0328 11.23521,3.71031 15.88534,8.35379 17.90657,17.88103 6.41332,47.91852 -18.92376,49.4571 -2.48615,0.15108 -5.8527,0.007 -7.481234,-0.32261 z m 304.516794,-0.27132 c -5.6201,-1.36161 -9.88864,-3.77878 -14.21246,-8.04821 -8.04624,-7.94501 -10.63193,-19.08494 -6.9284,-29.84945 1.70894,-4.96711 3.56038,-7.82502 7.50829,-11.58999 9.10608,-8.68406 22.14823,-10.62575 33.3261,-4.96148 4.20096,2.12877 10.1593,7.93878 12.34287,12.03556 6.12063,11.48349 4.30876,24.51226 -4.75658,34.20311 -7.0254,7.51019 -17.34737,10.61679 -27.27982,8.21046 z M 139.79013,322.6788 c -0.57459,-1.50454 -2.05243,-4.29466 -3.28409,-6.20029 l -2.23939,-3.46478 5.45933,-3.20886 c 3.00263,-1.76489 13.02826,-7.6202 22.27912,-13.01182 l 16.81978,-9.80294 2.46946,4.26847 c 1.3582,2.34767 3.0367,5.2012 3.73,6.34118 l 1.26056,2.07268 -20.77397,11.8438 c -11.4257,6.51408 -21.65195,12.30601 -22.72504,12.87093 l -1.95106,1.02716 z m 207.33219,-9.74667 c -12.05107,-6.87448 -22.11494,-12.68758 -22.36417,-12.91798 -0.24922,-0.2304 0.87391,-2.62689 2.49582,-5.32551 1.62191,-2.69861 3.1096,-5.41273 3.30593,-6.03136 0.1963,-0.61862 0.64284,-1.12479 0.9922,-1.12479 0.59934,0 41.12631,23.42998 43.38976,25.08504 0.99258,0.7258 0.9047,1.03127 -1.39239,4.83988 -1.34849,2.23587 -2.76995,4.94497 -3.15877,6.02025 -0.38884,1.07527 -0.85329,1.95468 -1.03214,1.95428 -0.17884,-4.3e-4 -10.18516,-5.62534 -22.23624,-12.49981 z m -97.54282,6.10859 c -1.53579,-0.55573 -12.98197,-6.8731 -25.43595,-14.0386 -24.80325,-14.27077 -27.88472,-16.54006 -29.702,-21.87353 -0.87527,-2.56873 -0.99269,-6.32106 -0.99269,-31.71972 0,-33.2754 -0.0895,-32.60564 5.0206,-37.59908 4.24773,-4.15084 48.6721,-29.68352 53.35567,-30.66591 5.91865,-1.24143 7.40106,-0.60778 33.18911,14.18679 25.78358,14.79198 28.78664,16.98497 30.61758,22.35846 0.87527,2.56874 0.99269,6.32108 0.99269,31.71974 0,25.39866 -0.11751,29.15099 -0.99269,31.71972 -1.81729,5.33347 -4.89875,7.60276 -29.702,21.87353 -12.45397,7.1655 -23.90015,13.48287 -25.43594,14.0386 -1.53578,0.55574 -3.99152,1.01041 -5.4572,1.01041 -1.46567,0 -3.9214,-0.45467 -5.45718,-1.01041 z m 29.32539,-26.20942 c 12.4403,-7.18252 22.95188,-13.49586 23.35901,-14.02967 0.56662,-0.74293 0.74024,-7.16742 0.74024,-27.39276 0,-20.22534 -0.17369,-26.64983 -0.74024,-27.39276 -1.11794,-1.46578 -45.7897,-27.08878 -47.22722,-27.08878 -1.43751,0 -46.10927,25.623 -47.22721,27.08878 -0.56662,0.74293 -0.74024,7.16742 -0.74024,27.39276 0,20.22546 0.17369,26.64976 0.74024,27.39253 1.15357,1.51215 45.57718,27.02878 47.11169,27.06065 0.75072,0.0157 11.54339,-5.84826 23.98373,-13.03075 z M 92.184267,251.00192 v -47.65461 l 1.924606,0.43269 c 1.058558,0.23797 4.189757,0.59225 6.958257,0.78729 l 5.03362,0.35462 0.15175,46.35609 c 0.12042,36.79287 -0.002,46.4041 -0.5922,46.58866 -0.40913,0.1278 -3.60857,0.35794 -7.1099,0.51121 l -6.366043,0.27866 z m 317.118063,47.22615 -5.32971,-0.33224 -0.15153,-46.63502 -0.15152,-46.63501 h 4.96316 c 2.72976,0 5.75269,-0.1578 6.71763,-0.35089 l 1.75443,-0.35088 0.36644,27.29924 c 0.20166,15.01457 0.20211,36.3581 0.001,47.43003 -0.36191,19.95508 -0.37591,20.12984 -1.60271,20.01892 -0.68068,-0.0616 -3.63598,-0.26143 -6.5673,-0.44415 z M 156.84094,203.1756 c -11.82887,-6.93318 -21.76337,-12.86209 -22.07665,-13.17537 -0.36467,-0.36467 0.12914,-1.73051 1.37258,-3.79637 1.06818,-1.77472 2.46088,-4.41834 3.09487,-5.87474 0.63399,-1.45639 1.21772,-2.74316 1.29719,-2.85948 0.13855,-0.20278 43.61034,24.42101 45.01709,25.49917 0.48646,0.37282 -0.23373,1.98587 -2.49409,5.58621 -1.74792,2.78412 -3.33947,5.57062 -3.53676,6.19223 -0.19719,0.6216 -0.54059,1.10856 -0.76294,1.08215 -0.22225,-0.0264 -10.0824,-5.72062 -21.91129,-12.6538 z m 172.58825,9.29672 c -0.91004,-1.87279 -2.46551,-4.68104 -3.45659,-6.2405 -0.9911,-1.55949 -1.61269,-3.02515 -1.38135,-3.25706 0.23134,-0.2319 10.32014,-6.05751 22.41958,-12.94579 l 21.99899,-12.52414 2.09594,4.2464 c 1.15279,2.33552 2.71943,5.12201 3.48148,6.1922 0.76206,1.0702 1.28985,2.01293 1.17288,2.09499 -0.5373,0.37697 -44.43611,25.83901 -44.54874,25.83901 -0.0701,0 -0.87214,-1.53229 -1.78219,-3.40511 z M 96.625686,193.31174 c -5.42381,-1.09715 -11.042813,-4.28052 -14.974615,-8.48361 -11.595604,-12.39576 -11.059509,-30.12636 1.256951,-41.57129 11.684616,-10.85778 28.739978,-10.46968 40.122658,0.91301 7.14769,7.14769 10.00001,16.27986 8.05034,25.77451 -1.22768,5.97857 -3.27858,10.15553 -6.9692,14.19364 -5.4102,5.91962 -12.09477,9.09128 -20.08376,9.52923 -2.44277,0.13385 -5.77384,-0.0259 -7.402374,-0.35549 z m 305.057574,-0.0291 c -4.89377,-0.93611 -10.19727,-3.73592 -14.06683,-7.42617 -4.03442,-3.84749 -5.89647,-6.69719 -7.58732,-11.6117 -3.75884,-10.92527 -0.97447,-22.56478 7.29817,-30.50858 11.56207,-11.10246 28.44594,-11.13767 40.26238,-0.0839 6.40641,5.9929 9.72067,14.34888 9.03417,22.77721 -1.46372,17.9702 -17.39015,30.21029 -34.94057,26.85321 z m -146.79462,-25.8149 -6.95825,-0.18755 V 141.03961 114.799 l 7.10458,0.0551 7.10459,0.0551 0.002,26.50052 c 10e-4,14.5753 -0.0649,26.44325 -0.14638,26.3732 -0.0815,-0.0701 -3.27925,-0.21174 -7.10629,-0.3149 z M 137.39209,144.34571 c -0.70353,-1.23502 -2.53635,-3.64378 -4.07292,-5.35282 -1.53657,-1.70905 -2.64192,-3.2592 -2.45631,-3.44479 0.18555,-0.18555 19.39985,-11.33971 42.69836,-24.78693 l 42.36088,-24.449485 3.03892,6.191737 c 1.67142,3.405445 2.94398,6.265887 2.82792,6.356557 -0.58072,0.453616 -81.83865,47.252491 -82.42946,47.473581 -0.37853,0.14168 -1.26388,-0.75287 -1.96739,-1.98785 z m 191.89068,-21.79348 -41.5272,-23.992192 1.65678,-3.077191 c 0.91124,-1.692438 2.11712,-4.276351 2.67973,-5.742015 0.5626,-1.465685 1.20091,-2.869596 1.41842,-3.119827 0.21755,-0.250231 16.23324,8.688829 35.59043,19.864595 19.35722,11.17573 38.59263,22.25973 42.74536,24.6311 4.15274,2.37138 7.55044,4.41073 7.55044,4.53193 0,0.12109 -1.36296,2.02103 -3.02876,4.22188 -1.66582,2.20085 -3.3075,4.61331 -3.6482,5.36107 -0.3407,0.74777 -0.90978,1.34903 -1.26462,1.33618 -0.35487,-0.0134 -19.33244,-10.81984 -42.17238,-24.01553 z m -82.56931,-19.67871 c -8.36324,-2.76921 -14.4633,-8.088767 -18.13039,-15.810627 -1.85231,-3.900424 -2.17956,-5.250372 -2.42903,-10.019843 -0.50986,-9.747543 1.81505,-15.994742 8.40498,-22.584654 6.61091,-6.610929 12.63363,-8.868625 22.50645,-8.436808 4.73897,0.207257 5.98636,0.508205 9.99294,2.410922 10.72804,5.094727 16.99562,14.712903 16.99562,26.081283 0,11.93731 -6.21434,21.805806 -16.9385,26.898677 -4.20652,1.99768 -5.03696,2.17833 -10.83408,2.35689 -4.90136,0.15085 -6.99988,-0.0454 -9.56799,-0.89584 z"
     id="path6992"
     inkscape:connector-curvature="0" />
</svg>
