<?xml version="1.0" encoding="UTF-8" standalone="no"?>
<svg
   xmlns:dc="http://purl.org/dc/elements/1.1/"
   xmlns:cc="http://creativecommons.org/ns#"
   xmlns:rdf="http://www.w3.org/1999/02/22-rdf-syntax-ns#"
   xmlns:svg="http://www.w3.org/2000/svg"
   xmlns="http://www.w3.org/2000/svg"
   xmlns:sodipodi="http://sodipodi.sourceforge.net/DTD/sodipodi-0.dtd"
   xmlns:inkscape="http://www.inkscape.org/namespaces/inkscape"
   fill="#7289da"
   height="512"
   width="512"
   version="1.1"
   id="svg4979"
   sodipodi:docname="altmarkets.svg"
   inkscape:version="0.92.2 2405546, 2018-03-11">
  <metadata
     id="metadata4985">
    <rdf:RDF>
      <cc:Work
         rdf:about="">
        <dc:format>image/svg+xml</dc:format>
        <dc:type
           rdf:resource="http://purl.org/dc/dcmitype/StillImage" />
        <dc:title></dc:title>
      </cc:Work>
    </rdf:RDF>
  </metadata>
  <defs
     id="defs4983">
    <style
       id="style1516">
      .cls-1, .cls-5, .cls-6 {
        fill: none;
        stroke-linecap: round;
      }

      .cls-1, .cls-5 {
        stroke: #183c87;
      }

      .cls-1 {
        stroke-width: 75px;
      }

      .cls-2, .cls-3 {
        fill: #183c87;
      }

      .cls-2, .cls-5, .cls-6 {
        fill-rule: evenodd;
      }

      .cls-4 {
        fill: #fff;
      }

      .cls-5 {
        stroke-width: 101px;
      }

      .cls-6 {
        stroke: #fff;
        stroke-width: 56px;
      }
    </style>
  </defs>
  <sodipodi:namedview
     pagecolor="#ffffff"
     bordercolor="#666666"
     borderopacity="1"
     objecttolerance="10"
     gridtolerance="10"
     guidetolerance="10"
     inkscape:pageopacity="0"
     inkscape:pageshadow="2"
     inkscape:window-width="1722"
     inkscape:window-height="908"
     id="namedview4981"
     showgrid="false"
     inkscape:zoom="0.68554688"
     inkscape:cx="39.448134"
     inkscape:cy="186.21797"
     inkscape:window-x="104"
     inkscape:window-y="76"
     inkscape:window-maximized="0"
     inkscape:current-layer="svg4979" />
  <circle
     style="opacity:1;fill:#795548;fill-opacity:1;stroke:none;stroke-width:25.67475319;stroke-miterlimit:4;stroke-dasharray:none;stroke-opacity:1"
     id="path817"
     cx="256"
     cy="256"
     r="256" />
  <path
     style="fill:#ffffff;fill-opacity:1;stroke-width:0.87949121"
     d="m 158.26843,308.17712 c 0.007,-0.84652 0.36996,-2.10235 0.80565,-2.79077 0.51893,-0.8199 0.0592,-3.28362 -1.3327,-7.14234 -2.4508,-6.79417 -2.57722,-7.8766 -0.91995,-7.8766 0.67861,0 1.69174,1.7387 2.31937,3.98037 0.61295,2.18921 1.41653,4.16708 1.78575,4.39526 0.36921,0.2282 1.37201,-1.5337 2.22843,-3.91532 l 1.55712,-4.33023 6.47706,-0.0338 c 5.26578,-0.0275 6.79599,0.28512 8.18246,1.67158 2.4997,2.49971 2.98073,5.55594 1.36595,8.6786 -1.54867,2.9948 -4.41138,4.11747 -8.44309,3.31113 -2.48852,-0.49767 -2.60613,-0.38327 -2.60613,2.53505 0,2.09672 -0.40418,3.05623 -1.28739,3.05623 -1.02391,0 -1.3389,-1.73781 -1.53911,-8.49134 l -0.25171,-8.49135 -3.07823,8.4907 c -1.69302,4.66989 -3.57293,8.491 -4.17758,8.49135 -0.60465,3.6e-4 -1.09331,-0.69196 -1.0859,-1.53847 z m 17.61402,-6.39647 c 4.01498,-2.14874 3.95552,-6.63768 -0.11679,-8.81711 -4.63135,-2.47862 -8.47316,5.30042 -4.12263,8.34766 2.31745,1.6232 2.12371,1.60174 4.23942,0.46945 z m 121.34559,6.39647 c 0.007,-0.84652 0.36995,-2.10235 0.80566,-2.79077 0.51893,-0.8199 0.0592,-3.28362 -1.3327,-7.14234 -2.45081,-6.79417 -2.57722,-7.8766 -0.91995,-7.8766 0.67859,0 1.69174,1.7387 2.31937,3.98037 0.61294,2.18921 1.41652,4.16708 1.78574,4.39526 0.36922,0.2282 1.38254,-1.56297 2.25182,-3.98036 0.86929,-2.41739 2.09599,-4.39527 2.72601,-4.39527 1.60089,0 1.55025,0.24359 -2.14741,10.32892 -1.8168,4.95531 -3.79798,9.01197 -4.40263,9.01478 -0.60466,0.002 -1.09331,-0.68749 -1.08591,-1.53399 z m 101.11039,0.19862 c -1.58629,-1.91138 -0.38695,-2.64416 2.31372,-1.41366 2.71872,1.23873 5.29099,0.61358 6.45955,-1.56991 0.76164,-1.42313 0.45261,-1.52938 -3.37771,-1.16134 -3.7875,0.36394 -4.40921,0.15955 -6.11622,-2.01055 l -1.90017,-2.41567 v 2.31734 c 0,1.47351 -0.48037,2.31732 -1.31923,2.31732 -1.01065,0 -1.31924,-1.11681 -1.31924,-4.77437 0,-3.16769 -0.4651,-5.23947 -1.38207,-6.15644 -2.9424,-2.94241 -4.77437,-0.70546 -4.77437,5.82977 0,3.94794 -0.29822,5.10104 -1.31924,5.10104 -1.06272,0 -1.31924,-1.36809 -1.31924,-7.03593 v -7.03593 h 4.37719 c 3.6514,0 4.60679,0.35045 5.76198,2.11348 l 1.38479,2.11346 2.10286,-2.10286 c 1.80528,-1.80528 2.86831,-2.08177 7.51195,-1.95378 l 5.40907,0.14908 -0.30142,7.83399 c -0.26853,6.97905 -0.52802,8.01743 -2.37771,9.51473 -2.52452,2.04355 -8.23651,2.24156 -9.81449,0.34023 z m 7.76723,-7.4887 c 2.52773,-2.35492 2.43174,-4.45983 -0.32131,-7.04619 -2.10305,-1.97571 -2.39715,-2.02574 -4.61733,-0.78548 -3.24037,1.81018 -3.7288,6.24382 -0.9057,8.22121 2.61557,1.832 3.52486,1.77139 5.84434,-0.38954 z m -294.3999,1.23491 c -3.74886,-4.7659 -0.91567,-11.75454 4.76527,-11.75454 4.15322,0 5.6046,0.73444 7.07657,3.58088 1.75891,3.40137 1.73693,10.49098 -0.0326,10.49098 -0.72559,0 -1.31925,-0.47492 -1.31925,-1.05538 0,-0.82086 -0.23453,-0.82086 -1.05539,0 -0.58046,0.58046 -2.5306,1.05538 -4.33363,1.05538 -2.49398,0 -3.71429,-0.55436 -5.10104,-2.31732 z m 8.45453,-1.35394 c 1.11955,-1.05177 2.03553,-2.63485 2.03553,-3.51796 0,-1.93933 -3.00629,-5.12365 -4.8372,-5.12365 -2.03962,0 -4.8372,3.27739 -4.8372,5.66683 0,2.01195 2.7982,4.88707 4.75634,4.88707 0.46584,0 1.76298,-0.86054 2.88253,-1.91229 z m 12.65326,1.35394 c -2.46721,-3.13656 -2.33457,-6.92527 0.33594,-9.59577 2.58443,-2.58443 7.51151,-2.91675 9.76935,-0.65892 1.78973,1.78973 0.40438,2.56119 -2.14712,1.19567 -2.46778,-1.32071 -3.37967,-1.18139 -5.38353,0.82245 -2.45069,2.45069 -2.25406,5.79149 0.44494,7.55995 1.86592,1.22261 2.61209,1.275 4.86541,0.34164 3.16064,-1.30918 4.6425,-0.36952 2.21572,1.40497 -2.91446,2.13112 -8.00706,1.59165 -10.10071,-1.06999 z m 13.12854,-4.60369 v -6.92103 l 4.39746,-0.0991 c 5.07988,-0.11444 5.53779,0.64098 1.52008,2.50774 -2.6594,1.23564 -2.85603,1.63969 -3.10308,6.37631 -0.19353,3.71024 -0.60343,5.05707 -1.53911,5.05707 -1.0061,0 -1.27535,-1.46118 -1.27535,-6.92102 z m 40.18175,6.35302 c -0.33256,-0.33256 -0.60464,-3.1112 -0.60464,-6.17477 0,-4.36487 -0.28545,-5.57011 -1.31924,-5.57011 -0.72558,0 -1.31924,-0.39577 -1.31924,-0.87949 0,-0.48372 0.56613,-0.8795 1.25807,-0.8795 0.69194,0 1.38454,-0.89047 1.53911,-1.97884 0.15457,-1.08838 0.8747,-1.97886 1.60028,-1.97886 0.72558,0 1.44571,0.89048 1.60028,1.97886 0.15456,1.08837 0.84717,1.97884 1.53911,1.97884 0.69193,0 1.25806,0.39578 1.25806,0.8795 0,0.48372 -0.57557,0.87949 -1.27905,0.87949 -0.96525,0 -1.34285,1.43929 -1.53911,5.86648 -0.23846,5.37924 -1.18891,7.4231 -2.73363,5.8784 z m 5.7051,-1.46754 c -4.13973,-4.40654 -0.88056,-12.03633 5.14148,-12.03633 3.7522,0 5.69902,1.21295 7.00416,4.36386 1.29537,3.1273 -0.009,7.42871 -2.68735,8.86213 -2.89761,1.55076 -7.41794,0.98219 -9.45829,-1.18966 z m 8.90241,-2.53145 c 1.68564,-2.25991 1.69761,-2.47331 0.26184,-4.66459 -2.02035,-3.08343 -3.62518,-3.55579 -6.24613,-1.83849 -2.87769,1.88555 -2.98818,6.01393 -0.21308,7.96199 2.56207,1.79851 4.02447,1.45425 6.19737,-1.45891 z m 7.71845,2.24966 c -2.46721,-3.13656 -2.33457,-6.92527 0.33594,-9.59577 2.58442,-2.58443 7.5115,-2.91675 9.76935,-0.65892 1.78972,1.78973 0.40437,2.56119 -2.14712,1.19567 -2.46777,-1.32071 -3.37967,-1.18139 -5.38353,0.82245 -2.45069,2.45069 -2.25407,5.79149 0.44493,7.55995 1.86593,1.22261 2.61209,1.275 4.86542,0.34164 3.16063,-1.30918 4.64251,-0.36952 2.21572,1.40497 -2.91447,2.13112 -8.00706,1.59165 -10.10071,-1.06999 z m 14.49764,0.36265 c -1.87914,-2.68284 -1.91796,-12.11719 -0.0498,-12.11719 1.02521,0 1.31924,1.16923 1.31924,5.24602 0,4.12512 0.3337,5.42458 1.56182,6.08186 3.07694,1.64674 4.59461,-0.3664 4.59461,-6.09462 0,-4.06546 0.2944,-5.23326 1.31924,-5.23326 1.06272,0 1.31924,1.36811 1.31924,7.03593 v 7.03593 h -4.3476 c -3.49565,0 -4.61585,-0.38301 -5.71669,-1.95467 z m 10.94377,-4.96634 v -6.92103 l 4.39746,-0.0991 c 5.07989,-0.11444 5.5378,0.64098 1.52008,2.50774 -2.6594,1.23564 -2.85603,1.63969 -3.10308,6.37631 -0.19352,3.71024 -0.60343,5.05707 -1.53911,5.05707 -1.00609,0 -1.27535,-1.46118 -1.27535,-6.92102 z m 9.67441,0 v -6.92103 l 4.39745,-0.0991 c 5.07989,-0.11444 5.5378,0.64098 1.52009,2.50774 -2.6594,1.23564 -2.85603,1.63969 -3.10308,6.37631 -0.19353,3.71024 -0.60343,5.05707 -1.53911,5.05707 -1.0061,0 -1.27535,-1.46118 -1.27535,-6.92102 z m 9.82771,4.88548 c -5.44946,-5.80067 1.35039,-14.44152 9.04195,-11.48999 1.42153,0.54549 3.99711,4.69899 3.99711,6.44593 0,0.55664 -2.4443,0.92316 -6.15644,0.92316 -6.57685,0 -7.54801,0.80664 -3.87143,3.21562 1.83123,1.19988 2.6148,1.29123 3.94577,0.46002 2.00802,-1.25402 4.32312,-1.35503 4.32312,-0.18861 0,1.35378 -3.1469,2.6694 -6.38505,2.6694 -1.98067,0 -3.62519,-0.68385 -4.89503,-2.03553 z m 9.5211,-6.7391 c 0,-0.47257 -0.98943,-1.50751 -2.19874,-2.29988 -2.03678,-1.33455 -2.36066,-1.33455 -4.39745,0 -3.33614,2.18593 -2.6588,3.1591 2.19872,3.1591 2.41861,0 4.39747,-0.38666 4.39747,-0.85922 z m 5.27694,1.7387 v -7.03593 h 4.37718 c 3.6514,0 4.6068,0.35045 5.76198,2.11348 l 1.3848,2.11346 2.11346,-2.11346 c 2.53981,-2.53982 7.48577,-2.85192 9.72407,-0.61363 1.78972,1.78973 0.40437,2.56119 -2.14712,1.19567 -2.46777,-1.32071 -3.37968,-1.18139 -5.38352,0.82245 -2.4507,2.45069 -2.25408,5.79149 0.44493,7.55995 1.86592,1.22261 2.61209,1.275 4.8654,0.34164 3.16064,-1.30918 4.64251,-0.36952 2.21574,1.40497 -2.91447,2.13112 -8.00707,1.59165 -10.10071,-1.06999 l -1.82283,-2.31734 v 2.31734 c 0,1.47351 -0.48036,2.31732 -1.31922,2.31732 -1.01065,0 -1.31924,-1.11681 -1.31924,-4.77437 0,-3.16769 -0.4651,-5.23947 -1.38207,-6.15644 -2.9424,-2.94241 -4.77437,-0.70546 -4.77437,5.82977 0,3.94794 -0.29822,5.10104 -1.31924,5.10104 -1.06272,0 -1.31924,-1.36809 -1.31924,-7.03593 z m 45.88685,5.0004 c -5.44945,-5.80067 1.35039,-14.44152 9.04195,-11.48999 1.42153,0.54549 3.99712,4.69899 3.99712,6.44593 0,0.55664 -2.4443,0.92316 -6.15645,0.92316 -6.57683,0 -7.548,0.80664 -3.87143,3.21562 1.83123,1.19988 2.61482,1.29123 3.94578,0.46002 2.00801,-1.25402 4.32311,-1.35503 4.32311,-0.18861 0,1.35378 -3.1469,2.6694 -6.38505,2.6694 -1.98067,0 -3.62519,-0.68385 -4.89503,-2.03553 z m 9.5211,-6.7391 c 0,-0.47257 -0.98943,-1.50751 -2.19873,-2.29988 -2.03679,-1.33455 -2.36067,-1.33455 -4.39745,0 -3.33615,2.18593 -2.65881,3.1591 2.19873,3.1591 2.41859,0 4.39745,-0.38666 4.39745,-0.85922 z m 2.63848,8.15689 c 0,-0.33976 1.26494,-1.92284 2.811,-3.51796 l 2.81099,-2.90023 -2.81099,-2.90021 c -1.54606,-1.59512 -2.811,-3.1782 -2.811,-3.51796 0,-1.46337 2.50302,-0.41564 4.84367,2.02749 l 2.53431,2.64524 2.72919,-2.64524 c 2.55507,-2.47649 4.84418,-3.43457 4.84418,-2.02749 0,0.33976 -1.26496,1.92284 -2.81101,3.51796 l -2.81099,2.90021 2.81099,2.90023 c 1.54605,1.59512 2.81101,3.1782 2.81101,3.51796 0,1.46337 -2.50302,0.41564 -4.84369,-2.02749 l -2.53429,-2.64524 -2.7292,2.64524 c -2.55507,2.47649 -4.84417,3.43457 -4.84417,2.02749 z m 17.65366,-1.69958 c -2.46722,-3.13656 -2.33458,-6.92527 0.33593,-9.59577 2.58442,-2.58443 7.51151,-2.91675 9.76934,-0.65892 1.78973,1.78973 0.40438,2.56119 -2.14712,1.19567 -2.46777,-1.32071 -3.37967,-1.18139 -5.38352,0.82245 -2.45069,2.45069 -2.25407,5.79149 0.44494,7.55995 1.86591,1.22261 2.61209,1.275 4.8654,0.34164 3.16064,-1.30918 4.64251,-0.36952 2.21573,1.40497 -2.91446,2.13112 -8.00706,1.59165 -10.1007,-1.06999 z m 12.24903,-6.91733 c 0,-7.62226 0.23034,-9.23466 1.31924,-9.23466 0.81215,0 1.31924,0.82473 1.31924,2.14564 0,1.8419 0.46402,2.18428 3.27787,2.4186 4.06257,0.33831 5.48569,2.73972 5.50408,9.28775 0.01,3.52372 -0.2995,4.61732 -1.30627,4.61732 -1.01065,0 -1.31924,-1.11681 -1.31924,-4.77437 0,-3.16769 -0.4651,-5.23947 -1.38207,-6.15644 -2.9424,-2.94241 -4.77437,-0.70546 -4.77437,5.82977 0,3.94794 -0.29822,5.10104 -1.31924,5.10104 -1.0889,0 -1.31924,-1.61239 -1.31924,-9.23465 z m 14.1357,6.91733 c -3.74886,-4.7659 -0.91568,-11.75454 4.76527,-11.75454 4.15322,0 5.6046,0.73444 7.07656,3.58088 1.75891,3.40137 1.73694,10.49098 -0.0326,10.49098 -0.72557,0 -1.31924,-0.47492 -1.31924,-1.05538 0,-0.82086 -0.23452,-0.82086 -1.05538,0 -0.58047,0.58046 -2.5306,1.05538 -4.33362,1.05538 -2.494,0 -3.71431,-0.55436 -5.10106,-2.31732 z m 8.45452,-1.35394 c 1.11955,-1.05177 2.03554,-2.63485 2.03554,-3.51796 0,-1.93933 -3.00631,-5.12365 -4.83721,-5.12365 -2.03962,0 -4.8372,3.27739 -4.8372,5.66683 0,2.01195 2.7982,4.88707 4.75635,4.88707 0.46584,0 1.76297,-0.86054 2.88252,-1.91229 z m 34.73002,1.63573 c -5.44945,-5.80067 1.35039,-14.44152 9.04196,-11.48999 1.42152,0.54549 3.9971,4.69899 3.9971,6.44593 0,0.55664 -2.4443,0.92316 -6.15644,0.92316 -6.57684,0 -7.548,0.80664 -3.87142,3.21562 1.83121,1.19988 2.6148,1.29123 3.94577,0.46002 2.00801,-1.25402 4.32311,-1.35503 4.32311,-0.18861 0,1.35378 -3.14689,2.6694 -6.38505,2.6694 -1.98067,0 -3.62518,-0.68385 -4.89503,-2.03553 z m 9.5211,-6.7391 c 0,-0.47257 -0.98943,-1.50751 -2.19873,-2.29988 -2.03678,-1.33455 -2.36067,-1.33455 -4.39745,0 -3.33614,2.18593 -2.65882,3.1591 2.19872,3.1591 2.4186,0 4.39746,-0.38666 4.39746,-0.85922 z M 54.647808,269.20715 c -5.367677,-2.68227 -8.928341,-6.27912 -12.137023,-12.2604 -2.549223,-4.75198 -2.363148,-18.37755 0.325482,-23.83408 2.429058,-4.9297 7.356284,-10.01383 12.078475,-12.46308 5.331212,-2.76514 16.468253,-3.1734 21.832913,-0.80037 5.461333,2.41581 9.841524,5.85658 12.092828,9.49926 l 1.85161,2.99597 2.713777,-2.28349 c 1.75593,-1.47752 3.427526,-2.14705 4.735989,-1.89691 l 2.022221,0.38657 0.24211,-13.27835 0.2421,-13.27834 2.45811,-0.44744 c 2.41671,-0.43989 2.35274,-0.54003 -3.797139,-5.94425 -3.440394,-3.02325 -5.70205,-5.49682 -5.025914,-5.49682 0.676135,0 4.152007,2.53533 7.724163,5.63406 5.97865,5.18631 6.63512,5.53578 8.26031,4.39745 3.51385,-2.46119 10.33285,-0.47954 11.5504,3.35664 l 0.62654,1.97405 0.72668,-1.9644 c 0.53539,-1.44728 1.43599,-1.96442 3.42111,-1.96442 1.48193,0 2.89903,0.53325 3.14914,1.18499 0.37992,0.99007 1.56883,0.9953 7.22819,0.0318 13.32897,-2.26923 12.49017,-1.97221 12.49017,-4.42281 0,-1.38256 1.15025,-3.39707 2.99028,-5.23709 2.4436,-2.44361 3.66005,-2.99028 6.654,-2.99028 2.01505,0 4.45456,0.42324 5.42111,0.94053 1.28402,0.68719 2.10331,0.65342 3.04166,-0.12534 0.70635,-0.58621 1.48216,-0.86796 1.72402,-0.62609 0.24185,0.24186 -0.1295,0.91217 -0.82523,1.48958 -1.0919,0.90619 -1.09555,1.3746 -0.0266,3.42342 3.78092,7.24727 -1.94646,15.86966 -9.92284,14.93845 -2.77639,-0.32412 -3.20683,-0.0414 -5.25259,3.44938 -1.53472,2.6188 -2.05705,4.48505 -1.67798,5.99536 l 0.55039,2.19294 3.46409,-1.76725 c 6.27149,-3.19948 14.64899,-2.02456 19.92706,2.79472 1.87643,1.71331 1.89158,1.71022 5.88213,-1.20224 2.20047,-1.606 4.02535,-3.46692 4.05528,-4.13538 0.03,-0.66846 1.39519,-2.47987 3.03388,-4.02536 l 2.97944,-2.80997 -1.95414,-10.26637 c -1.0748,-5.64651 -1.66691,-10.26638 -1.31582,-10.26638 0.74324,0 1.00154,1.04364 3.10193,12.53275 1.27251,6.96071 1.85573,8.57504 3.09785,8.57504 2.50354,0 6.94212,4.30369 6.94212,6.73115 0,1.34653 1.02147,3.03684 2.67704,4.42991 1.47238,1.23892 3.45866,3.78469 4.41398,5.65725 1.60239,3.14093 1.71861,4.95483 1.50054,23.41576 l -0.23639,20.01108 h -3.07822 -3.07822 l -0.43974,-18.90906 c -0.24186,-10.39998 -0.79545,-19.50272 -1.23021,-20.2283 -2.23778,-3.73476 -4.45171,-5.32775 -6.71393,-4.83089 -1.26731,0.27835 -3.37402,0.0993 -4.68161,-0.39782 -2.09947,-0.79821 -2.76003,-0.55351 -5.64962,2.09293 l -3.27217,2.99681 -0.43975,19.63817 -0.43974,19.63816 h -3.07823 -3.07821 l -0.44796,-18.90906 c -0.47332,-19.98003 -0.72732,-21.24225 -4.94204,-24.55753 -2.89963,-2.28087 -9.11841,-2.44612 -12.35077,-0.32819 -4.1011,2.68714 -4.68626,5.72712 -4.68626,24.34581 0,9.4085 -0.24023,17.73241 -0.53384,18.49755 -0.64007,1.66801 -5.20134,1.88163 -6.2303,0.2918 -0.39135,-0.60465 -0.90941,-9.55041 -1.15128,-19.8795 l -0.43975,-18.78013 -3.06091,5.73442 c -2.87513,5.38635 -2.97227,5.83239 -1.60033,7.34837 5.63247,6.2238 2.48901,16.2736 -5.48925,17.54938 -3.32157,0.53114 -3.39947,0.62943 -3.6576,4.61489 -0.26021,4.01737 -0.30521,4.07219 -3.34198,4.07219 h -3.07823 l -0.68346,-8.35517 c -0.77185,-9.43554 -0.76787,-8.52688 -0.10859,-24.84562 l 0.48858,-12.093 h -3.08911 c -1.69901,0 -4.1294,-0.39552 -5.40085,-0.87893 -1.94005,-0.7376 -2.26744,-1.33861 -2.03612,-3.73783 0.27253,-2.8266 0.33281,-2.8619 5.33272,-3.12268 l 5.05707,-0.26377 -0.0558,-4.57343 c -0.0424,-3.47518 -0.23839,-4.12084 -0.81634,-2.68869 -1.15096,2.85214 -4.40333,4.71143 -8.24142,4.71143 -5.76128,0 -5.77845,0.081 -5.80986,27.42684 -0.0161,14.0191 -0.40084,25.32936 -0.9069,26.66038 -0.73759,1.94004 -1.33861,2.26743 -3.73784,2.03611 l -2.85891,-0.27564 -0.24121,-14.19799 -0.24121,-14.198 -3.056881,-0.35688 -3.056882,-0.35687 v 13.71935 c 0,14.44767 -0.351595,15.83014 -4.025916,15.83014 -2.501017,0 -3.678508,-1.51578 -4.037516,-5.19752 l -0.291735,-2.99174 -2.768991,2.33865 c -4.797176,4.05161 -9.820997,5.81012 -16.659217,5.83129 -5.219455,0.0162 -7.113554,-0.41928 -11.62092,-2.67163 z m 20.859386,-6.94488 c 11.375963,-5.80358 14.175964,-21.12759 5.525755,-30.24169 -7.959527,-8.38638 -22.631217,-7.74352 -29.166348,1.27796 -9.574316,13.21697 -0.936395,30.68126 15.176184,30.68345 3.319597,4.5e-4 6.265971,-0.59816 8.464409,-1.71972 z M 140.46914,235.3863 c 2.26248,-4.56191 3.71397,-8.70918 3.71397,-10.61172 0,-4.00751 1.36368,-6.52544 3.53409,-6.52544 1.1706,0 2.41341,-1.38175 3.92392,-4.36259 l 2.2107,-4.36261 -2.24625,-3.31002 c -1.23543,-1.82052 -2.36778,-3.43155 -2.51632,-3.5801 -0.14854,-0.14855 -4.47936,0.3855 -9.62404,1.18679 l -9.35396,1.45684 v 6.48585 6.48584 h 4.80626 c 3.84592,0 4.98753,0.33872 5.71354,1.69527 1.89383,3.53867 -1.33889,6.22015 -7.49884,6.22015 h -3.02096 v 8.35517 8.35516 h 3.32196 c 3.29207,0 3.35539,-0.0674 7.03593,-7.48859 z m 89.19742,33.82085 c -5.36766,-2.68227 -8.92833,-6.27912 -12.13701,-12.2604 -2.54923,-4.75198 -2.36316,-18.37755 0.32548,-23.83408 4.5886,-9.31246 11.99601,-14.09005 22.76246,-14.68122 6.28652,-0.34517 7.7597,-0.12167 12.00326,1.8211 5.90156,2.70183 11.03721,7.68061 13.87944,13.45549 1.96898,4.0006 2.1531,5.5194 2.42265,19.98381 0.31064,16.66855 -0.0111,18.20625 -3.80968,18.20625 -2.56778,0 -3.74411,-1.48915 -4.10573,-5.19752 l -0.29174,-2.99174 -2.76898,2.33865 c -4.79718,4.0516 -9.821,5.81012 -16.65922,5.8313 -5.21946,0.0162 -7.11356,-0.41928 -11.62093,-2.67164 z m 20.8594,-6.94488 c 11.37595,-5.80358 14.17596,-21.12759 5.52575,-30.24169 -7.95952,-8.38638 -22.63122,-7.74352 -29.16635,1.27796 -9.57431,13.21697 -0.9364,30.68126 15.17619,30.68345 3.31959,4.5e-4 6.26597,-0.59816 8.46441,-1.71972 z m 24.35569,8.24467 c -0.29361,-0.76515 -0.53384,-12.21013 -0.53384,-25.43332 0,-13.22318 0.24023,-24.66816 0.53384,-25.43331 0.31448,-0.8195 1.56668,-1.39117 3.04728,-1.39117 2.68637,0 4.3343,2.00138 4.3343,5.26388 0,1.82419 0.0583,1.81706 2.90569,-0.3547 4.34176,-3.31163 8.83198,-4.90918 13.79816,-4.90918 3.82659,0 4.55443,-0.28131 5.21358,-2.015 0.42136,-1.10825 1.40099,-2.54191 2.17696,-3.1859 0.92684,-0.76923 1.41085,-2.58221 1.41085,-5.28479 0,-4.48717 1.10472,-6.22465 3.95772,-6.22465 2.68228,0 3.95694,1.68304 3.96327,5.23298 0.004,2.56474 0.48955,3.39767 2.71634,4.66509 1.49092,0.84859 3.17046,1.27876 3.73228,0.95593 0.56181,-0.32281 7.057,-4.76062 14.43373,-9.86178 8.85288,-6.12196 13.41224,-9.8104 13.41224,-10.85024 0,-1.41522 0.94904,-1.57536 9.33582,-1.57536 h 9.3358 l -1.57418,2.4186 c -0.86579,1.33024 -2.19756,2.90073 -2.95949,3.48999 -2.00459,1.55034 -7.74792,1.36477 -10.6403,-0.3438 -2.47034,-1.45927 -2.53884,-1.43745 -8.49085,2.70515 -3.30024,2.29694 -9.82835,6.81774 -14.50692,10.04617 l -8.50648,5.86989 0.49578,4.19524 c 0.47625,4.02989 0.35221,4.33182 -3.14676,7.66032 -3.51538,3.34409 -3.64257,3.65782 -3.64257,8.98445 v 5.51936 l 11.22573,-11.20082 c 11.05936,-11.03481 13.44648,-12.56156 15.8626,-10.14545 2.04551,2.04551 0.97551,3.83071 -7.26505,12.12125 l -8.32043,8.37091 8.3692,13.51232 c 9.29837,15.01249 10.10525,17.92794 5.0968,18.41577 -2.64637,0.25776 -3.0024,-0.16253 -10.9722,-12.9527 l -8.23706,-13.21911 -2.8798,2.79121 -2.87979,2.79121 v 9.32597 c 0,9.7998 -0.56648,11.43675 -3.95771,11.43675 -3.77629,0 -3.95772,-1.05998 -3.95772,-23.12381 0,-18.68921 -0.1702,-21.22697 -1.5391,-22.94737 -1.36582,-1.71656 -1.78666,-1.8079 -3.73784,-0.81132 -1.2093,0.61767 -3.06346,1.12887 -4.12033,1.136 -4.8283,0.0326 -11.49404,4.97069 -14.4008,10.66843 -1.48072,2.90243 -1.70717,5.22525 -1.70717,17.51103 0,8.08222 -0.39095,14.89522 -0.91043,15.86588 -1.12837,2.10838 -5.69706,2.32723 -6.47115,0.31 z m 82.90195,-1.48009 c -16.6376,-8.61274 -19.45628,-30.92565 -5.51613,-43.66615 5.60297,-5.1208 10.86805,-7.11156 18.80837,-7.11156 7.25538,0 13.19618,2.71899 18.49064,8.46281 4.62239,5.0147 7.02583,10.39818 7.27549,16.29638 0.28721,6.78543 -0.0295,6.87392 -24.65076,6.88953 -13.68249,0.009 -20.44817,0.31841 -20.44817,0.93613 0,1.70456 2.45992,5.65304 4.97856,7.99121 4.08715,3.7943 7.68068,5.15748 13.59583,5.15748 4.45186,0 6.33916,-0.49086 10.1445,-2.63847 5.04272,-2.84593 7.26605,-3.24036 8.92333,-1.58308 1.87493,1.87491 1.13237,4.01861 -2.45591,7.09003 -4.44808,3.80739 -8.61405,5.04694 -16.96206,5.04694 -5.77526,0 -7.35746,-0.37287 -12.18369,-2.87125 z m 30.89807,-28.69103 c 0,-3.01799 -5.52717,-10.01407 -9.59286,-12.14227 -8.55313,-4.47715 -19.04131,-1.79772 -24.48742,6.25584 -5.21828,7.71664 -5.57126,7.54602 15.61096,7.54602 17.51427,0 18.46932,-0.0858 18.46932,-1.65959 z m 27.01274,31.01764 c -0.34539,-0.3454 -0.628,-10.6542 -0.628,-22.90845 v -22.28045 h -3.02097 c -1.66154,0 -4.06125,-0.39551 -5.33271,-0.87892 -1.94004,-0.7376 -2.26743,-1.33861 -2.03612,-3.73784 0.2723,-2.82414 0.33676,-2.86211 5.30028,-3.1217 l 5.02465,-0.26281 0.25231,-8.09236 0.25231,-8.09238 h 3.07821 c 2.98379,0 3.0944,0.12142 3.60575,3.95771 0.29013,2.17674 0.58696,3.05146 0.65962,1.94382 0.34575,-5.27139 6.10884,-12.27852 12.19684,-14.82971 6.07508,-2.54578 14.86326,-0.88221 19.67219,3.72388 l 2.27399,2.17807 5.53366,-4.42346 c 3.04351,-2.43289 6.33404,-4.42344 7.31228,-4.42344 1.25191,0 -0.0999,1.48627 -4.56461,5.0189 -5.17332,4.09322 -6.23825,5.35035 -5.77395,6.81605 2.05643,6.49175 2.4241,9.4981 1.60134,13.09354 l -0.87429,3.82071 3.73247,1.98009 c 6.28597,3.33469 7.43504,9.77148 1.86373,10.44003 -1.66672,0.20001 -2.68329,-0.35042 -3.80284,-2.05906 -2.54045,-3.87724 -5.32216,-4.37488 -9.2478,-1.65441 -1.91638,1.32805 -5.07952,2.52593 -7.34395,2.78117 -4.06145,0.45779 -4.3873,0.7672 -3.43133,3.2584 0.78612,2.0486 4.21799,3.5555 11.97206,5.25682 12.43267,2.72784 18.69556,8.93963 18.02497,17.87787 -0.42425,5.65494 -3.72375,10.25659 -9.45303,13.18371 -5.04733,2.57874 -15.36919,2.74125 -20.68697,0.32572 -8.33029,-3.78392 -12.54385,-14.24705 -5.99447,-14.88546 2.33542,-0.22766 3.04272,0.20616 4.69504,2.87966 2.49699,4.04022 5.8627,5.74352 11.34904,5.74352 7.79129,0 12.41381,-3.05411 12.41381,-8.20185 0,-4.89109 -3.99168,-7.66688 -14.03726,-9.76145 -11.14388,-2.32356 -16.26521,-6.62869 -16.26521,-13.67294 0,-2.70729 -0.45138,-3.56 -2.50986,-4.74142 -1.38042,-0.79225 -4.05419,-1.44046 -5.94172,-1.44046 h -3.43184 l -0.23472,22.64689 -0.23472,22.64691 -2.67008,0.26156 c -1.46855,0.14385 -2.95269,-0.021 -3.2981,-0.36646 z m 7.47502,-55.7428 c -0.21299,-1.45116 -0.54021,-2.63847 -0.72716,-2.63847 -0.18697,0 -0.33993,1.18731 -0.33993,2.63847 0,1.45116 0.32722,2.63848 0.72717,2.63848 0.39994,0 0.55291,-1.18732 0.33992,-2.63848 z"
     id="path844"
     inkscape:connector-curvature="0" />
</svg>
