<?xml version="1.0" encoding="utf-8"?>
<!-- Generator: Adobe Illustrator 23.0.2, SVG Export Plug-In . SVG Version: 6.00 Build 0)  -->
<svg version="1.1"
	 id="svg4979" inkscape:version="0.92.2 2405546, 2018-03-11" sodipodi:docname="raisex.svg" xmlns:cc="http://creativecommons.org/ns#" xmlns:dc="http://purl.org/dc/elements/1.1/" xmlns:inkscape="http://www.inkscape.org/namespaces/inkscape" xmlns:rdf="http://www.w3.org/1999/02/22-rdf-syntax-ns#" xmlns:sodipodi="http://sodipodi.sourceforge.net/DTD/sodipodi-0.dtd" xmlns:svg="http://www.w3.org/2000/svg"
	 xmlns="http://www.w3.org/2000/svg" xmlns:xlink="http://www.w3.org/1999/xlink" x="0px" y="0px" viewBox="0 0 512 512"
	 style="enable-background:new 0 0 512 512;" xml:space="preserve">
<style type="text/css">
	.st0{fill:#795548;}
	.st1{fill:#FFFFFF;}
</style>
<sodipodi:namedview  bordercolor="#666666" borderopacity="1" gridtolerance="10" guidetolerance="10" id="namedview4981" inkscape:current-layer="svg4979" inkscape:cx="-46.893391" inkscape:cy="148.85674" inkscape:pageopacity="0" inkscape:pageshadow="2" inkscape:window-height="908" inkscape:window-maximized="0" inkscape:window-width="1722" inkscape:window-x="104" inkscape:window-y="76" inkscape:zoom="0.68554688" objecttolerance="10" pagecolor="#ffffff" showgrid="false">
	</sodipodi:namedview>
<circle id="path817" class="st0" cx="256" cy="256" r="256"/>
<path class="st1" d="M406.2,198.4c0,22.4,0,44.9,0,67.3c0,11.6-1.5,23.1-2.9,34.6c-1.2,9.9-2.9,19.6-4.8,29.4
	c-1.7,8.9-5.2,17-9.1,25.1c-9,18.3-21.3,34.2-36.1,48.1c-10.8,10.2-23,18.6-35.8,26.2c-8.6,5.1-17.1,10-26.3,14
	c-8.3,3.6-16.8,6.2-25.4,9c-7.4,2.4-14.1,0.1-20.9-1.7c-18.6-5-36.2-12.5-52.9-22.3c-15.4-9.1-29.3-20.1-41.5-33.1
	c-10.5-11.3-19.4-23.7-26.5-37.4c-3.9-7.7-7.5-15.5-9.6-23.9c-1.9-7.5-3-15.2-4.2-22.9c-2-12.6-3.1-25.3-4.2-38
	c-0.2-2.8-0.2-5.6-0.2-8.4c0-44.4,0-88.7,0-133.1c0-8.5,2.3-16.2,8-22.7c6.1-6.9,13.8-8.5,22.6-6.8c8.3,1.6,14.9,6,21.3,11.3
	c10.8,8.9,20.8,18.6,30.6,28.6c0.9,1,1.4,1.1,2.6,0.3c13.5-9.4,27-18.6,40.5-27.9c6.7-4.6,13.4-9.2,20.1-13.8c0.9-0.6,1.4-0.7,2.4,0
	c10.8,7.3,21.6,14.6,32.4,21.9c10.8,7.3,21.5,14.6,32.3,22c1.3,0.9,2,1,3.2-0.3c9.6-10.2,19.6-19.9,30.4-28.8
	c6.8-5.7,13.7-11.4,22.8-13.1c9.8-1.8,18.9-0.4,25.8,7.6c3.8,4.5,5.3,10.1,5.4,15.9C406.2,149.5,406.1,174,406.2,198.4
	C406.1,198.4,406.1,198.4,406.2,198.4z M385.9,200.9c0,0,0.1,0,0.1,0c0-22.8,0-45.6,0-68.4c0-1.9,0-3.7-0.5-5.6
	c-1.7-6-3.9-6.9-9.6-4.2c-4,1.9-7.2,4.8-10.5,7.5c-15.5,13-29.4,27.6-43,42.4c-13.3,14.6-24.5,30.7-35.6,46.9
	c-9,13.1-17.4,26.5-25.9,39.8c-8.2,12.8-15.5,26.1-22.3,39.7c-5.2,10.3-10.4,20.7-14.7,31.5c-3.8,9.3-7.1,18.8-10.7,28.2
	c-5.4,14.5-10.7,29.2-15,44.1c-0.7,2.5-0.1,3.9,1.8,5.2c3.9,2.8,8.1,5,12.3,7.1c14.2,6.8,28.9,12,43.9,16.6c0.6,0.2,1.2,0.3,1.9,0.1
	c3.6-1.1,7.2-2,10.7-3.4c6.4-2.5,12.8-5.1,19.1-7.9c6.4-2.9,13-5.3,19.3-8.6c11.7-6.1,22-14.1,31.6-23.1
	c12.4-11.5,22.8-24.5,30.7-39.6c3.7-7,7-14.2,8.8-22c2.4-10.1,3.9-20.3,5.2-30.6c1.2-9.4,2.3-18.7,2.4-28.2
	C386,246,385.9,223.5,385.9,200.9z M126.1,199.9c0,20,0,40.1,0,60.1c0,8.2,0.4,16.3,1.2,24.4c1.1,10.9,2.6,21.8,4.4,32.7
	c2.2,13.3,7,25.6,13.7,37.2c8.5,14.6,19.2,27.4,32,38.6c2,1.7,2.1,1.7,2.8-0.7c2.1-7.6,4.8-15.1,7.4-22.5
	c3.7-10.6,7.7-21.1,11.6-31.6c5.8-15.3,12.4-30.2,19.7-44.8c7.5-14.9,15.3-29.5,24.4-43.5c0.7-1,0.7-1.8,0-2.7
	c-1.8-2.7-3.6-5.5-5.4-8.3c-9.1-14.1-18.5-27.9-28.3-41.6c-9.6-13.4-20.5-25.6-32.1-37.3c-11.2-11.2-22.3-22.5-34.6-32.5
	c-2.9-2.3-5.8-4.6-9.4-5.6c-3.6-1-5.4,0-6.5,3.6c-0.8,2.4-0.9,4.9-0.9,7.5C126.1,155.3,126.1,177.6,126.1,199.9z M253.2,124.2
	c-0.6,0.3-1.1,0.6-1.7,1c-7.9,5.4-15.8,10.8-23.6,16.2c-7.6,5.2-15.3,10.5-23,15.7c-1,0.7-1.1,1-0.2,1.7c0.3,0.3,0.7,0.5,1,0.9
	c8.1,8.9,15.4,18.4,22.5,28.1c9.4,12.9,18.3,26.2,27,39.6c1,1.5,1.4,1.4,2.3,0c5.2-8.2,10.7-16.2,16.2-24.2
	c10-14.5,20.1-28.7,31.8-41.9c0.9-1,0.7-1.4-0.3-2.1c-5.3-3.5-10.6-7.1-15.9-10.7c-11.6-7.8-23.1-15.6-34.7-23.4
	C254.1,124.8,253.7,124.5,253.2,124.2z"/>
</svg>
