<?xml version="1.0" encoding="utf-8"?>
<!-- Generator: Adobe Illustrator 23.0.2, SVG Export Plug-In . SVG Version: 6.00 Build 0)  -->
<svg version="1.1"
	 id="svg4979" xmlns:cc="http://creativecommons.org/ns#" xmlns:dc="http://purl.org/dc/elements/1.1/" xmlns:inkscape="http://www.inkscape.org/namespaces/inkscape" xmlns:rdf="http://www.w3.org/1999/02/22-rdf-syntax-ns#" xmlns:sodipodi="http://sodipodi.sourceforge.net/DTD/sodipodi-0.dtd" xmlns:svg="http://www.w3.org/2000/svg"
	 xmlns="http://www.w3.org/2000/svg" xmlns:xlink="http://www.w3.org/1999/xlink" x="0px" y="0px" viewBox="0 0 512 512"
	 style="enable-background:new 0 0 512 512;" xml:space="preserve">
<style type="text/css">
	.st0{fill:#795548;}
	.st1{fill:#FFFFFF;}
</style>
<sodipodi:namedview  bordercolor="#666666" borderopacity="1" gridtolerance="10" guidetolerance="10" id="namedview4981" inkscape:current-layer="svg4979" inkscape:cx="-46.893391" inkscape:cy="148.85674" inkscape:pageopacity="0" inkscape:pageshadow="2" inkscape:window-height="908" inkscape:window-maximized="0" inkscape:window-width="1722" inkscape:window-x="104" inkscape:window-y="76" inkscape:zoom="0.68554688" objecttolerance="10" pagecolor="#ffffff" showgrid="false">
	</sodipodi:namedview>
<circle id="path817" class="st0" cx="256" cy="256" r="256"/>
<g id="Group-3-Copy" transform="translate(88.000000, 2.000000)">
	<g id="Group-2">
		<rect id="Rectangle-path" x="108.3" y="197.7" class="st1" width="29.6" height="111.2"/>
		<path id="Shape" class="st1" d="M199.8,241.4L189,239c-7.1-1.4-10.8-4.7-10.8-9.5c0-4.7,5.6-8.5,13.2-8.5c6.1-0.8,12,2.5,14.6,8.1
			l21.2-14.2c-7.5-12.1-20.6-19.5-34.8-19.4c-9.7-0.1-19.2,2.7-27.3,8.1c-8.2,5.8-13.2,15.1-13.6,25.1c-0.5,17,10.8,29.8,31,35.5
			c3.3,0.9,7.1,1.9,11.3,2.8c9.4,1.9,10.8,5.2,10.8,8.5c0,6.2-5.6,9.9-14.1,9.5c-9.3,0.2-17.8-5-22.1-13.3l-17.9,15.6
			c7.6,14.6,22.7,23.6,39,23.2c22.6,0.5,41.4-15.2,41.8-34.6C231.3,258.4,220.5,246.1,199.8,241.4z"/>
		<path class="st1" d="M42.2,196c-10.5,0-20.6,3.5-28.8,10.1v-48h-28.3v88.7c-0.2,2.6-0.2,5.1,0,7.7v1.4
			c0.2,15.2,6.2,29.8,16.8,40.8c9,8.7,20.6,14.3,33.1,15.8h7.2c15.1,0.1,29.6-5.7,40.3-16.3c11-11.2,17.1-26.5,16.8-42.2
			c0.1-15.7-5.9-30.8-16.8-42.2C71.6,201.7,57.2,196,42.2,196z M42.7,286.7c-1.6,0.1-3.2-0.1-4.8-0.5h-1c-0.5,0.1-1.1-0.1-1.5-0.5
			c-11.6-2.4-20.4-11.8-22.1-23.5c-0.6-2.7-0.9-5.4-1-8.2c-0.4-8.2,2.5-16.3,8.1-22.4s13.4-9.6,21.7-9.8c21.6,0,29.3,16.8,29.3,32.1
			C71.5,269.9,64.3,286.2,42.7,286.7L42.7,286.7z"/>
		<path class="st1" d="M351,251.9c-0.2-15.2-6.2-29.7-16.8-40.6c-9-8.7-20.7-14.2-33.2-15.8h-7.2c-15.1-0.1-29.6,5.7-40.4,16.3
			c-11.1,11.2-17.1,26.4-16.8,42.1c-0.1,15.7,5.9,30.7,16.8,42.1c10.7,10.6,25.3,16.4,40.4,16.3c10.5,0,20.7-3.5,28.8-10v47.8H351
			V251.9z M292.9,285.4c-21.6,0-29.3-16.7-29.3-32s7.7-32,28.8-32c1.6-0.1,3.2,0.1,4.8,0.5h1c0.5-0.1,1.1,0.1,1.4,0.5
			c13.7,3.1,23.3,15.2,23.1,29.2v1.9c0.6,8.3-2.2,16.4-7.9,22.5C309.1,281.9,301.2,285.3,292.9,285.4z"/>
	</g>
</g>
</svg>
