<?xml version="1.0" encoding="UTF-8" standalone="no"?>
<svg
   xmlns:dc="http://purl.org/dc/elements/1.1/"
   xmlns:cc="http://creativecommons.org/ns#"
   xmlns:rdf="http://www.w3.org/1999/02/22-rdf-syntax-ns#"
   xmlns:svg="http://www.w3.org/2000/svg"
   xmlns="http://www.w3.org/2000/svg"
   xmlns:sodipodi="http://sodipodi.sourceforge.net/DTD/sodipodi-0.dtd"
   xmlns:inkscape="http://www.inkscape.org/namespaces/inkscape"
   fill="#7289da"
   height="512"
   width="512"
   version="1.1"
   id="svg4979"
   sodipodi:docname="cratex.svg"
   inkscape:version="0.92.2 2405546, 2018-03-11">
  <metadata
     id="metadata4985">
    <rdf:RDF>
      <cc:Work
         rdf:about="">
        <dc:format>image/svg+xml</dc:format>
        <dc:type
           rdf:resource="http://purl.org/dc/dcmitype/StillImage" />
        <dc:title />
      </cc:Work>
    </rdf:RDF>
  </metadata>
  <defs
     id="defs4983">
    <style
       id="style1516">
      .cls-1, .cls-5, .cls-6 {
        fill: none;
        stroke-linecap: round;
      }

      .cls-1, .cls-5 {
        stroke: #183c87;
      }

      .cls-1 {
        stroke-width: 75px;
      }

      .cls-2, .cls-3 {
        fill: #183c87;
      }

      .cls-2, .cls-5, .cls-6 {
        fill-rule: evenodd;
      }

      .cls-4 {
        fill: #fff;
      }

      .cls-5 {
        stroke-width: 101px;
      }

      .cls-6 {
        stroke: #fff;
        stroke-width: 56px;
      }
    </style>
  </defs>
  <sodipodi:namedview
     pagecolor="#ffffff"
     bordercolor="#666666"
     borderopacity="1"
     objecttolerance="10"
     gridtolerance="10"
     guidetolerance="10"
     inkscape:pageopacity="0"
     inkscape:pageshadow="2"
     inkscape:window-width="1722"
     inkscape:window-height="908"
     id="namedview4981"
     showgrid="false"
     inkscape:zoom="0.68554688"
     inkscape:cx="594.19011"
     inkscape:cy="275.35172"
     inkscape:window-x="104"
     inkscape:window-y="76"
     inkscape:window-maximized="0"
     inkscape:current-layer="svg4979" />
  <circle
     style="opacity:1;fill:#795548;fill-opacity:1;stroke:none;stroke-width:25.67475319;stroke-miterlimit:4;stroke-dasharray:none;stroke-opacity:1"
     id="path817"
     cx="256"
     cy="256"
     r="256" />
  <path
     style="fill:#ffffff;fill-opacity:1;stroke-width:1.9093399"
     d="m 365.00728,311.68741 c 2.40748,-3.30779 5.28097,-4.73124 9.63583,-4.77335 5.36215,-0.052 6.20536,0.58862 6.20536,4.71335 0,4.46102 -0.63051,4.77335 -9.63583,4.77335 h -9.63585 z m 8.20382,-9.55094 c 0,-0.59922 7.30323,-10.81259 16.22939,-22.69641 8.92617,-11.88382 16.2294,-22.21792 16.2294,-22.96468 0,-0.74676 -6.44402,-9.86688 -14.32006,-20.2669 -7.87603,-10.40002 -14.32005,-19.38019 -14.32005,-19.95593 0,-0.57576 4.70685,-1.04681 10.45968,-1.04681 h 10.45964 l 15.31643,20.34363 c 8.42403,11.189 15.30617,20.85503 15.29362,21.48007 -0.0133,0.62506 -7.53056,11.01729 -16.70673,23.09387 l -16.68391,21.95741 -10.9787,0.57261 c -6.0383,0.31494 -10.97871,0.0824 -10.97871,-0.51686 z m 65.59281,-3.3971 c -2.09498,-2.36281 -6.61408,-7.94902 -10.04242,-12.41381 l -6.23334,-8.11779 5.71619,-7.77284 5.71621,-7.77282 14.49477,19.13983 c 7.97211,10.52691 14.49475,19.61091 14.49475,20.18665 0,0.57575 -4.57585,1.04681 -10.16855,1.04681 -8.14364,0 -10.92705,-0.8555 -13.97761,-4.29603 z M 63.937303,293.26713 c -8.087792,-3.22693 -11.236045,-7.47112 -13.448971,-18.13072 -1.692094,-8.15082 -2.900841,-10.28782 -5.819056,-10.28782 -3.024299,0 -3.683308,-1.36646 -3.683308,-7.63736 0,-6.24744 0.664412,-7.63736 3.650849,-7.63736 2.810738,0 3.961116,-1.86732 4.999129,-8.11469 1.756745,-10.57312 5.62335,-17.93578 10.940517,-20.83259 5.700335,-3.10558 31.437665,-3.18158 38.6973,-0.11436 7.058307,2.98221 9.994817,7.4136 11.611247,17.52214 l 1.2346,7.72076 h -10.6126 c -9.552,0 -10.67358,-0.42933 -11.222745,-4.29601 -0.527817,-3.71648 -1.750674,-4.29602 -9.064783,-4.29602 -7.561691,0 -8.59957,0.54181 -9.826608,5.1299 -0.754572,2.82143 -0.941138,6.97894 -0.941138,6.97894 l 52.635844,0.30187 v -15.27472 -15.27472 l 50.11031,0.16201 c 7.10233,2.47589 10.98857,12.83552 10.98857,23.74319 v 6.26361 l 19.87923,0.006 8.1624,-30.1228 30.90162,-0.20261 8.97998,29.74522 h 24.67975 l -0.012,-14.17294 -18.12677,0.0305 V 219.0244 l 41.05081,0.0687 12.62634,15.20589 h -15.72087 l 0.0248,14.44898 97.32373,0.10918 5.22529,8.36423 -5.59891,7.44834 -96.7444,0.17871 v 30.54943 H 276.9236 l 0.18233,-30.36709 -21.39601,0.0954 8.3542,29.89238 -20.59162,-0.0364 -4.07055,-13.12781 -20.50888,-0.20715 -3.72935,13.36393 -24.11349,-0.14875 8.73003,-30.03191 -12.14006,0.018 c -10.63809,0.0158 -11.45267,0.26929 -8.14051,2.69122 2.9587,2.16345 3.68553,5.06534 3.70628,14.79737 l 0.0257,12.10617 h -19.09338 l -0.6086,-8.55457 c -0.78023,-10.96677 -2.95059,-13.4029 -11.94061,-13.4029 h -7.30829 l -1.14524,21.95741 h -20.25377 l 0.0451,-29.59475 H 69.368687 l 1.276146,4.29601 c 1.445064,4.86471 6.068665,9.06937 9.973016,9.06937 4.895625,0 10.010918,-3.93681 10.010918,-7.70454 0,-3.27437 1.335582,-3.7515 10.501373,-3.7515 10.4333,0 10.50136,0.0378 10.50136,5.82284 0,8.72645 -5.16476,17.04876 -12.476193,20.10367 -7.365948,3.07768 -28.104739,3.42082 -35.218043,0.58269 z m 171.094677,-28.53263 -12.84927,0.0484 -0.68984,1.7861 14.16619,-0.0575 z m -71.6889,-22.78422 c -0.0579,-5.82103 -0.0691,-5.84251 -9.92554,-6.01373 l -9.32722,0.0627 v 6.7873 6.78731 h 19.33536 z m 68.86206,7.478 -4.49211,-14.36149 -3.49811,14.46579 z m 99.00048,32.60437 v -13.36539 h 8.59203 c 7.89193,0 8.59204,0.38894 8.59204,4.77336 0,4.73798 0.12735,4.77334 17.18406,4.77334 9.45122,0 17.18405,0.52077 17.18405,1.15726 0,0.63648 -2.6498,4.50289 -5.88846,8.59202 l -5.88846,7.43478 h -19.88762 -19.88764 z m 96.74155,-39.23682 -5.40812,-6.77795 7.85666,-10.40606 7.85664,-10.40608 h 10.59864 c 5.82923,0 10.31223,0.7187 9.96217,1.59711 -1.08936,2.7337 -23.49486,32.6416 -24.50319,32.70802 -0.52506,0.0346 -3.38833,-2.9872 -6.3628,-6.71504 z m -96.74155,-3.72334 c 0,-4.10536 -0.86838,-4.77815 -6.20535,-4.80778 -4.88367,-0.0271 -7.55,-1.65376 -12.51851,-7.63735 l -6.31317,-7.60292 h 33.21631 33.21632 l 5.10082,7.16001 5.10085,7.16002 -17.20659,0.549 c -16.86229,0.538 -17.20661,0.64306 -17.20661,5.25068 0,4.29949 -0.735,4.7017 -8.59204,4.7017 -7.89193,0 -8.59203,-0.38893 -8.59203,-4.77336 z m 110.74172,-29.29883 c 0,-4.59794 7.52598,-7.93329 17.90087,-7.93329 h 10.9175 l -3.4305,4.71337 c -2.94878,4.05149 -4.97204,4.72175 -14.40918,4.77333 -6.03828,0.0331 -10.97869,-0.66605 -10.97869,-1.55341 z"
     id="path1135"
     inkscape:connector-curvature="0"
     sodipodi:nodetypes="ccssccsssssscscscsscscccssscccssssccscscsccccccsccccccccccccccccccccccccccccscccccsccccccsssssccccccccccccccccccccsssssccccccccscccscccccccsssssscccs" />
</svg>
