<?xml version="1.0" encoding="UTF-8" standalone="no"?>
<svg
   xmlns:dc="http://purl.org/dc/elements/1.1/"
   xmlns:cc="http://creativecommons.org/ns#"
   xmlns:rdf="http://www.w3.org/1999/02/22-rdf-syntax-ns#"
   xmlns:svg="http://www.w3.org/2000/svg"
   xmlns="http://www.w3.org/2000/svg"
   xmlns:sodipodi="http://sodipodi.sourceforge.net/DTD/sodipodi-0.dtd"
   xmlns:inkscape="http://www.inkscape.org/namespaces/inkscape"
   fill="#7289da"
   height="512"
   width="512"
   version="1.1"
   id="svg4979"
   sodipodi:docname="crex24.svg"
   inkscape:version="0.92.2 2405546, 2018-03-11">
  <metadata
     id="metadata4985">
    <rdf:RDF>
      <cc:Work
         rdf:about="">
        <dc:format>image/svg+xml</dc:format>
        <dc:type
           rdf:resource="http://purl.org/dc/dcmitype/StillImage" />
        <dc:title></dc:title>
      </cc:Work>
    </rdf:RDF>
  </metadata>
  <defs
     id="defs4983">
    <style
       id="style1516">
      .cls-1, .cls-5, .cls-6 {
        fill: none;
        stroke-linecap: round;
      }

      .cls-1, .cls-5 {
        stroke: #183c87;
      }

      .cls-1 {
        stroke-width: 75px;
      }

      .cls-2, .cls-3 {
        fill: #183c87;
      }

      .cls-2, .cls-5, .cls-6 {
        fill-rule: evenodd;
      }

      .cls-4 {
        fill: #fff;
      }

      .cls-5 {
        stroke-width: 101px;
      }

      .cls-6 {
        stroke: #fff;
        stroke-width: 56px;
      }
    </style>
  </defs>
  <sodipodi:namedview
     pagecolor="#ffffff"
     bordercolor="#666666"
     borderopacity="1"
     objecttolerance="10"
     gridtolerance="10"
     guidetolerance="10"
     inkscape:pageopacity="0"
     inkscape:pageshadow="2"
     inkscape:window-width="1722"
     inkscape:window-height="908"
     id="namedview4981"
     showgrid="false"
     inkscape:zoom="0.34277344"
     inkscape:cx="215.55155"
     inkscape:cy="149.72626"
     inkscape:window-x="133"
     inkscape:window-y="91"
     inkscape:window-maximized="0"
     inkscape:current-layer="svg4979" />
  <circle
     style="opacity:1;fill:#795548;fill-opacity:1;stroke:none;stroke-width:25.67475319;stroke-miterlimit:4;stroke-dasharray:none;stroke-opacity:1"
     id="path817"
     cx="256"
     cy="256"
     r="256" />
  <path
     style="fill:#ffffff;fill-opacity:1;stroke-width:1.50252163"
     d="M 231.98035,451.93799 C 197.96918,447.61893 169.48341,437.50106 142.58032,420.18395 119.50567,405.33116 97.8964,383.43546 82.476259,359.28322 l -2.677808,-4.19421 7.350588,2.88192 c 10.701771,4.19581 28.049411,6.74237 42.659831,6.26229 7.02429,-0.23082 21.02065,-0.49529 31.10301,-0.58773 10.08233,-0.0924 17.85788,-0.58325 17.27899,-1.09068 -2.67142,-2.3416 -17.72847,-4.82738 -34.89547,-5.76091 -16.77889,-0.91242 -19.67056,-1.48747 -26.6894,-5.30761 -25.85935,-14.07442 -49.315667,-47.41989 -57.225151,-81.35121 -4.1083,-17.62442 -4.237111,-23.2361 -0.340607,-14.83922 7.566458,16.30562 16.731976,23.61386 31.735536,25.30474 9.484762,1.0689 24.513662,5.93574 39.784352,12.88339 12.1293,5.51842 11.74194,4.97626 -4.21002,-5.8926 -22.11821,-15.07024 -42.478003,-36.54481 -49.484326,-52.19377 -4.547337,-10.1567 -5.471598,-37.10235 -1.944549,-56.69116 1.416787,-7.86873 3.097733,-14.62923 3.735404,-15.02335 0.637685,-0.39409 1.553067,2.6072 2.034204,6.66953 1.297442,10.95487 9.428908,33.93076 15.676107,44.29366 6.38819,10.59677 20.17129,25.52863 31.93941,34.60141 8.11523,6.25653 23.93375,15.81454 26.1731,15.81454 0.62617,0 -3.04979,-4.56391 -8.16883,-10.14203 -21.27374,-23.18163 -34.51128,-44.63006 -39.17947,-63.48155 -5.68613,-22.96212 0.0561,-58.19806 12.85496,-78.88239 l 3.71889,-6.01008 0.0468,15.26867 c 0.0886,28.87313 5.67385,46.02963 21.93183,67.37002 4.40703,5.78471 10.85722,13.22219 14.33377,16.52774 l 6.32099,6.01009 -4.10692,-7.51262 c -6.64271,-12.15123 -17.09662,-37.01266 -19.59234,-46.59433 -2.7079,-10.39633 -2.97662,-24.38763 -0.68364,-35.59476 2.01106,-9.82916 13.23845,-33.177864 19.36242,-40.266419 l 4.54322,-5.258819 -2.46248,6.761342 c -4.06641,11.165346 -4.4812,42.577976 -0.79809,60.437916 3.08166,14.94338 8.30433,28.34417 13.73938,35.25371 l 3.05205,3.88006 -0.0506,-3.58331 c -0.0278,-1.9708 -0.68929,-10.67203 -1.46989,-19.33605 -3.33583,-37.02466 5.99854,-68.795414 25.17055,-85.671296 6.19378,-5.451985 20.64458,-13.518848 24.21736,-13.518848 0.81146,0 -2.41222,3.887775 -7.16374,8.6395 -9.74011,9.740524 -16.68394,22.775982 -20.69003,38.840854 -3.63625,14.58173 -3.57907,53.61122 0.10432,71.21885 7.49195,35.8136 33.13451,73.26342 58.73279,85.77666 9.57207,4.67912 11.6675,5.12592 24.04034,5.12592 12.05529,0 14.55131,-0.49851 22.56944,-4.50757 6.52206,-3.26105 9.41557,-5.67468 10.46318,-8.72796 1.62325,-4.73105 -0.8484,-7.59138 -5.57999,-6.45746 -1.44618,0.34658 -2.62942,0.13163 -2.62942,-0.47779 0,-1.06536 13.58347,-14.28609 29.64787,-28.85616 4.21837,-3.82598 9.07726,-9.71521 10.79751,-13.0872 3.6969,-7.24655 3.7658,-7.75313 1.05433,-7.75313 -1.5244,0 -2.02172,-2.08879 -1.87815,-7.88824 0.23927,-9.66516 -3.8438,-16.20474 -13.04994,-20.90138 -5.74608,-2.93143 -7.90272,-3.11613 -27.72235,-2.37425 -21.44946,0.8029 -21.48965,0.79815 -20.52732,-2.42172 2.82988,-9.46851 7.46076,-17.10455 15.44409,-25.46637 5.40294,-5.6591 9.2947,-11.19976 9.91962,-14.12244 1.40375,-6.56523 11.44454,-16.20113 20.03296,-19.2251 11.12791,-3.91814 29.5913,-4.63627 40.21633,-1.56418 10.9628,3.16973 23.66077,10.71811 30.88777,18.36139 14.96909,15.83133 29.9079,42.06032 37.94245,66.61787 37.08698,113.35576 -32.64576,233.43119 -149.29285,257.07316 -13.82893,2.80285 -47.77539,4.76984 -58.59834,3.39544 z"
     id="path844"
     inkscape:connector-curvature="0" />
</svg>
