<?xml version="1.0" encoding="utf-8"?>
<!-- Generator: Adobe Illustrator 21.1.0, SVG Export Plug-In . SVG Version: 6.00 Build 0)  -->
<svg version="1.1"
	 id="svg4979" inkscape:version="0.92.2 2405546, 2018-03-11" sodipodi:docname="mnroi.svg" xmlns:cc="http://creativecommons.org/ns#" xmlns:dc="http://purl.org/dc/elements/1.1/" xmlns:inkscape="http://www.inkscape.org/namespaces/inkscape" xmlns:rdf="http://www.w3.org/1999/02/22-rdf-syntax-ns#" xmlns:sodipodi="http://sodipodi.sourceforge.net/DTD/sodipodi-0.dtd" xmlns:svg="http://www.w3.org/2000/svg"
	 xmlns="http://www.w3.org/2000/svg" xmlns:xlink="http://www.w3.org/1999/xlink" x="0px" y="0px" viewBox="0 0 512 512"
	 style="enable-background:new 0 0 512 512;" xml:space="preserve">
<style type="text/css">
	.st0{fill:#795548;}
	.st1{fill:#FFFFFC;}
</style>
<sodipodi:namedview  bordercolor="#666666" borderopacity="1" gridtolerance="10" guidetolerance="10" id="namedview4981" inkscape:current-layer="svg4979" inkscape:cx="372.73158" inkscape:cy="238.01211" inkscape:pageopacity="0" inkscape:pageshadow="2" inkscape:window-height="908" inkscape:window-maximized="0" inkscape:window-width="1722" inkscape:window-x="104" inkscape:window-y="76" inkscape:zoom="0.48475485" objecttolerance="10" pagecolor="#ffffff" showgrid="false">
	</sodipodi:namedview>
<circle id="path817" class="st0" cx="256" cy="256" r="256"/>
<path class="st1" d="M420.9,98.1c-0.4,0-1-0.1-1.5-0.1c-10.3,1.5-20.6,2.9-30.8,4.7c-41.8,7.5-83.1,17.1-123,32
	c-36.6,13.7-70.8,31.5-98.9,59.6C136,225,120.6,261.4,123.3,305c0.3,4.2,1.1,8.3,1.8,13.1c28.4-51.2,69.9-88,116-120.5
	C170.8,255.9,119,326.8,91,414.2c3.4-7.1,6.6-14.3,9.8-21.5c8-17.8,17.1-34.9,28.3-51c5.5-7.9,11.9-10.8,21.6-10.5
	c31,0.9,61.2-3.2,90-15.8c22.2-9.7,40.9-23.8,56.8-41.9c17.1-19.5,29.7-42,42.4-64.5c1.7-3.1,3.4-6.2,5.7-10.4
	c-4.6,1.3-7.7,2.3-10.9,3c-0.8,0.2-1.9-0.7-2.8-1.2c0.6-0.7,1-1.7,1.8-2.1c2.6-1.3,5.6-2,8-3.6c3.6-2.3,7.6-4.7,10-8
	c4.4-6.2,7.7-13.1,11.5-19.7c10.7-18.4,21.8-36.5,37.3-51.4C406.9,109.6,414,104,420.9,98.1z"/>
</svg>
