<?xml version="1.0" encoding="UTF-8" standalone="no"?>
<svg
   xmlns:dc="http://purl.org/dc/elements/1.1/"
   xmlns:cc="http://creativecommons.org/ns#"
   xmlns:rdf="http://www.w3.org/1999/02/22-rdf-syntax-ns#"
   xmlns:svg="http://www.w3.org/2000/svg"
   xmlns="http://www.w3.org/2000/svg"
   xmlns:sodipodi="http://sodipodi.sourceforge.net/DTD/sodipodi-0.dtd"
   xmlns:inkscape="http://www.inkscape.org/namespaces/inkscape"
   fill="#7289da"
   height="512"
   width="512"
   version="1.1"
   id="svg4979"
   sodipodi:docname="graviex.svg"
   inkscape:version="0.92.2 2405546, 2018-03-11">
  <metadata
     id="metadata4985">
    <rdf:RDF>
      <cc:Work
         rdf:about="">
        <dc:format>image/svg+xml</dc:format>
        <dc:type
           rdf:resource="http://purl.org/dc/dcmitype/StillImage" />
        <dc:title></dc:title>
      </cc:Work>
    </rdf:RDF>
  </metadata>
  <defs
     id="defs4983">
    <style
       id="style1516">
      .cls-1, .cls-5, .cls-6 {
        fill: none;
        stroke-linecap: round;
      }

      .cls-1, .cls-5 {
        stroke: #183c87;
      }

      .cls-1 {
        stroke-width: 75px;
      }

      .cls-2, .cls-3 {
        fill: #183c87;
      }

      .cls-2, .cls-5, .cls-6 {
        fill-rule: evenodd;
      }

      .cls-4 {
        fill: #fff;
      }

      .cls-5 {
        stroke-width: 101px;
      }

      .cls-6 {
        stroke: #fff;
        stroke-width: 56px;
      }
    </style>
  </defs>
  <sodipodi:namedview
     pagecolor="#ffffff"
     bordercolor="#666666"
     borderopacity="1"
     objecttolerance="10"
     gridtolerance="10"
     guidetolerance="10"
     inkscape:pageopacity="0"
     inkscape:pageshadow="2"
     inkscape:window-width="1722"
     inkscape:window-height="908"
     id="namedview4981"
     showgrid="false"
     inkscape:zoom="0.65186405"
     inkscape:cx="-270.95249"
     inkscape:cy="231.28791"
     inkscape:window-x="1985"
     inkscape:window-y="130"
     inkscape:window-maximized="0"
     inkscape:current-layer="svg4979" />
  <rect
     width="512"
     height="512"
     rx="15%"
     id="rect4971"
     style="fill:#795548;fill-opacity:1" />
  <g
     id="Graviex"
     transform="matrix(0.44772341,0,0,0.44772341,31.106751,31.406583)">
    <circle
       r="428"
       cy="500"
       cx="500"
       class="cls-1"
       id="Round"
       style="fill:#ffffff;fill-opacity:1;stroke:#795548;stroke-width:75px;stroke-linecap:round;stroke-opacity:1" />
    <path
       d="M 237,332 586,202 c 0,0 -98.34,-32.07 -197,6 -98.66,38.07 -152,124 -152,124 z m -38,94 480,-179 c 0,0 46.059,35.145 53,50 -46.133,17.977 -513.223,192.086 -544,203 -0.879,-40.031 11,-74 11,-74 z m 1,152 c 14.961,-6.145 553.742,-208.488 576,-216 7.6,4.246 24,61 24,61 L 222,639 c 0,0 -18.992,-42.09 -22,-61 z m 64,123 c 16.422,-4.773 524.043,-192.5 546,-202 0.52,17.012 -9,74 -9,74 L 318,753 c 0,0 -56.215,-50.352 -54,-52 z m 149,97 347,-132 c 0,0 -45.6,78.562 -147,122 -101.4,43.438 -200,10 -200,10 z"
       class="cls-2"
       id="Stripes"
       inkscape:connector-curvature="0"
       style="fill:#795548;fill-opacity:1;fill-rule:evenodd" />
    <circle
       r="52"
       cy="722"
       cx="372"
       class="cls-3"
       data-name="Dot Blue"
       id="Dot_Blue"
       style="fill:#795548;fill-opacity:1" />
    <circle
       r="29"
       cy="722"
       cx="372"
       class="cls-4"
       id="Dot"
       style="fill:#ffffff" />
    <path
       d="m 533,533 c 0,0 -18.582,6.535 -37,6 -219,-15.562 -175.98,-291.84 0,-285 130.531,10.617 139,128 139,128 V 600 C 609.414,718.828 494,723 494,723"
       class="cls-5"
       data-name="G Blue"
       id="G_Blue"
       inkscape:connector-curvature="0"
       style="fill:none;fill-rule:evenodd;stroke:#795548;stroke-width:101px;stroke-linecap:round;stroke-opacity:1" />
    <path
       d="m 533,533 c 0,0 -18.582,6.535 -37,6 -219,-15.562 -175.98,-291.84 0,-285 130.531,10.617 139,128 139,128 V 600 C 609.414,718.828 494,723 494,723"
       class="cls-6"
       id="G"
       inkscape:connector-curvature="0"
       style="fill:none;fill-rule:evenodd;stroke:#ffffff;stroke-width:56.001091;stroke-linecap:round;stroke-miterlimit:4;stroke-dasharray:none" />
  </g>
</svg>
