<?xml version="1.0" encoding="utf-8"?>
<!-- Generator: Adobe Illustrator 21.1.0, SVG Export Plug-In . SVG Version: 6.00 Build 0)  -->
<svg version="1.1"
	 id="svg4979" inkscape:version="0.92.2 2405546, 2018-03-11" sodipodi:docname="aiodex.svg" xmlns:cc="http://creativecommons.org/ns#" xmlns:dc="http://purl.org/dc/elements/1.1/" xmlns:inkscape="http://www.inkscape.org/namespaces/inkscape" xmlns:rdf="http://www.w3.org/1999/02/22-rdf-syntax-ns#" xmlns:sodipodi="http://sodipodi.sourceforge.net/DTD/sodipodi-0.dtd" xmlns:svg="http://www.w3.org/2000/svg"
	 xmlns="http://www.w3.org/2000/svg" xmlns:xlink="http://www.w3.org/1999/xlink" x="0px" y="0px" viewBox="0 0 512 512"
	 style="enable-background:new 0 0 512 512;" xml:space="preserve">
<style type="text/css">
	.st0{fill:#795548;}
	.st1{fill:#FDFFFF;}
</style>
<sodipodi:namedview  bordercolor="#666666" borderopacity="1" gridtolerance="10" guidetolerance="10" id="namedview4981" inkscape:current-layer="svg4979" inkscape:cx="-46.893391" inkscape:cy="148.85674" inkscape:pageopacity="0" inkscape:pageshadow="2" inkscape:window-height="908" inkscape:window-maximized="0" inkscape:window-width="1722" inkscape:window-x="104" inkscape:window-y="76" inkscape:zoom="0.68554688" objecttolerance="10" pagecolor="#ffffff" showgrid="false">
	</sodipodi:namedview>
<circle id="path817" class="st0" cx="256" cy="256" r="256"/>
<g>
	<path class="st1" d="M465.9,255.8c0,115.9-93,209.1-208.8,209.2C142,465.1,47,370.7,46.9,256.2c-0.1-113.9,95.8-209.9,209.9-210
		C371.4,46.1,465.9,140.8,465.9,255.8z M270.3,432.8c86.9,0.7,165.7-83.7,166.4-175.4c0.7-96.6-78.9-179-173.8-179.8
		C161.2,76.8,79,153.2,77.9,249.7c-1.1,97.5,73.7,182.2,162.1,183.1c0.6-1.8,1.7-3.8,1.7-5.7c0-72.9,0-145.9-0.2-218.8
		c-0.1-16.6-8.4-26-25.5-26.3c-9.6-0.2-19.3,0-29.2,0c-2,7.6-3.7,13.9-5.5,20.7c-8.6-0.4-16-0.7-24.1-1.1c0-16.7,0-31.7,0-51.3
		c28.4,2.8,56,3.7,82.8,8.9c10.8,2.1,19.1,2.8,30.3,0.5c27.2-5.6,55.3-6.5,83.1-9.3c0,20.6,0,35.6,0,51.3c-8.8,0-16.2,0-24.5,0
		c-1.4-6.5-2.6-12.3-4-18.7c-5.4-0.3-10.1-0.9-14.9-0.9c-35.4-0.5-39.7,3.7-39.7,38.9c0,52.8,0,105.6,0,158.4
		C270.3,397.1,270.3,415,270.3,432.8z"/>
</g>
</svg>
