<?xml version="1.0" encoding="utf-8"?>
<!-- Generator: Adobe Illustrator 23.0.2, SVG Export Plug-In . SVG Version: 6.00 Build 0)  -->
<svg version="1.1"
	 id="svg4979" xmlns:cc="http://creativecommons.org/ns#" xmlns:dc="http://purl.org/dc/elements/1.1/" xmlns:inkscape="http://www.inkscape.org/namespaces/inkscape" xmlns:rdf="http://www.w3.org/1999/02/22-rdf-syntax-ns#" xmlns:sodipodi="http://sodipodi.sourceforge.net/DTD/sodipodi-0.dtd" xmlns:svg="http://www.w3.org/2000/svg"
	 xmlns="http://www.w3.org/2000/svg" xmlns:xlink="http://www.w3.org/1999/xlink" x="0px" y="0px" viewBox="0 0 512 512"
	 style="enable-background:new 0 0 512 512;" xml:space="preserve">
<style type="text/css">
	.st0{fill:#795548;}
	.st1{fill:#FFFFFF;}
</style>
<sodipodi:namedview  bordercolor="#666666" borderopacity="1" gridtolerance="10" guidetolerance="10" id="namedview4981" inkscape:current-layer="svg4979" inkscape:cx="-46.893391" inkscape:cy="148.85674" inkscape:pageopacity="0" inkscape:pageshadow="2" inkscape:window-height="908" inkscape:window-maximized="0" inkscape:window-width="1722" inkscape:window-x="104" inkscape:window-y="76" inkscape:zoom="0.68554688" objecttolerance="10" pagecolor="#ffffff" showgrid="false">
	</sodipodi:namedview>
<circle id="path817" class="st0" cx="256" cy="256" r="256"/>
<path class="st1" d="M389.9,236.4c0,34.6,0.1,69.3,0.1,103.9c0,12.6-0.1,25.1,0.1,37.7c0,2.5-0.7,3.8-2.9,5.1
	c-34.9,20.1-69.7,40.2-104.5,60.4c-5,2.9-10,5.7-14.9,8.7c-1.8,1.2-3.2,1.1-5.1,0.1c-28-16.3-56.1-32.5-84.2-48.8
	c-11.7-6.8-23.4-13.7-35.2-20.3c-2.8-1.5-3.3-3.3-3.3-6.2c0.1-47.6,0-95.2,0-142.8c0-45.2,0-90.3-0.1-135.5c0-3.9,1-6,4.6-8
	c15.5-8.6,30.7-17.7,46.1-26.5c0.9-0.5,1.8-0.8,2.8-1.2c0.1,1.9,0.2,3.7,0.2,5.6c0,44,0,87.9,0.1,131.9c0,1.4-0.7,3.3,0.5,4.1
	c1.5,1,2.9-0.6,4.2-1.4c21-12.3,42-24.5,62.8-37c3.3-2,5.6-2.1,8.6,0.3c2.9,2.3,6.3,3.9,9.6,5.8c33.3,19.6,66.7,39.2,100.1,58.6
	C382.8,232.9,385.7,235.9,389.9,236.4z M336.4,309.4c0-12.5-0.1-25.1,0.1-37.6c0-2.4-0.7-3.8-2.9-5c-8.5-4.8-16.9-9.8-25.3-14.8
	c-13.3-7.8-26.5-15.6-39.7-23.5c-2.4-1.4-4.4-1.7-7.1-0.1c-21.7,13-43.6,25.7-65.5,38.4c-2,1.2-2.3,2.6-2.3,4.6
	c0,25.2,0.1,50.5,0,75.7c0,2.5,0.7,3.9,2.9,5.1c21.8,12.5,43.6,25.1,65.4,37.8c2.3,1.3,4,1.3,6.3,0c21.6-12.6,43.3-25.1,65-37.5
	c2.3-1.3,3.3-2.7,3.2-5.4C336.3,334.5,336.4,321.9,336.4,309.4z"/>
</svg>
