<?xml version="1.0" encoding="UTF-8" standalone="no"?>
<svg
   xmlns:dc="http://purl.org/dc/elements/1.1/"
   xmlns:cc="http://creativecommons.org/ns#"
   xmlns:rdf="http://www.w3.org/1999/02/22-rdf-syntax-ns#"
   xmlns:svg="http://www.w3.org/2000/svg"
   xmlns="http://www.w3.org/2000/svg"
   xmlns:sodipodi="http://sodipodi.sourceforge.net/DTD/sodipodi-0.dtd"
   xmlns:inkscape="http://www.inkscape.org/namespaces/inkscape"
   fill="#7289da"
   height="512"
   width="512"
   version="1.1"
   id="svg4979"
   sodipodi:docname="discord.svg"
   inkscape:version="0.92.2 2405546, 2018-03-11">
  <metadata
     id="metadata4985">
    <rdf:RDF>
      <cc:Work
         rdf:about="">
        <dc:format>image/svg+xml</dc:format>
        <dc:type
           rdf:resource="http://purl.org/dc/dcmitype/StillImage" />
        <dc:title />
      </cc:Work>
    </rdf:RDF>
  </metadata>
  <defs
     id="defs4983" />
  <sodipodi:namedview
     pagecolor="#ffffff"
     bordercolor="#666666"
     borderopacity="1"
     objecttolerance="10"
     gridtolerance="10"
     guidetolerance="10"
     inkscape:pageopacity="0"
     inkscape:pageshadow="2"
     inkscape:window-width="1722"
     inkscape:window-height="908"
     id="namedview4981"
     showgrid="false"
     inkscape:zoom="0.921875"
     inkscape:cx="17.609997"
     inkscape:cy="242.0557"
     inkscape:window-x="0"
     inkscape:window-y="0"
     inkscape:window-maximized="0"
     inkscape:current-layer="svg4979" />
  <circle
     style="opacity:1;fill:#795548;fill-opacity:1;stroke:none;stroke-width:25.67475319;stroke-miterlimit:4;stroke-dasharray:none;stroke-opacity:1"
     id="path817"
     cx="256"
     cy="256"
     r="256" />
  <g
     id="g2666"
     transform="translate(0,-20)">
    <path
       id="path4973"
       d="m 346,392 -21,-25 c 41,-11 57,-39 57,-39 -52,49 -194,51 -249,0 0,0 14,26 56,39 l -23,25 c -70,-1 -97,-48 -97,-48 0,-104 46,-187 46,-187 47,-33 90,-33 90,-33 l 3,4 c -58,16 -83,42 -83,42 68,-46 208,-42 263,0 1,-1 -33,-28 -86,-42 l 5,-4 c 0,0 43,0 90,33 0,0 46,83 46,187 0,0 -27,47 -97,48 z"
       inkscape:connector-curvature="0"
       style="fill:#ffffff" />
    <ellipse
       style="fill:#795548;fill-opacity:1"
       id="ellipse4975"
       ry="35"
       rx="33"
       cy="279"
       cx="196" />
    <ellipse
       style="fill:#795548;fill-opacity:1"
       id="ellipse4977"
       ry="35"
       rx="33"
       cy="279"
       cx="312" />
  </g>
</svg>
