<?xml version="1.0" encoding="UTF-8" standalone="no"?>
<!-- Generator: Adobe Illustrator 16.0.0, SVG Export Plug-In . SVG Version: 6.00 Build 0)  -->

<svg
   xmlns:dc="http://purl.org/dc/elements/1.1/"
   xmlns:cc="http://creativecommons.org/ns#"
   xmlns:rdf="http://www.w3.org/1999/02/22-rdf-syntax-ns#"
   xmlns:svg="http://www.w3.org/2000/svg"
   xmlns="http://www.w3.org/2000/svg"
   xmlns:sodipodi="http://sodipodi.sourceforge.net/DTD/sodipodi-0.dtd"
   xmlns:inkscape="http://www.inkscape.org/namespaces/inkscape"
   version="1.1"
   id="Layer_1"
   x="0px"
   y="0px"
   width="512px"
   height="512px"
   viewBox="0 0 512 512"
   enable-background="new 0 0 512 512"
   xml:space="preserve"
   sodipodi:docname="twitter.svg"
   inkscape:version="0.92.2 2405546, 2018-03-11"><metadata
   id="metadata5617"><rdf:RDF><cc:Work
       rdf:about=""><dc:format>image/svg+xml</dc:format><dc:type
         rdf:resource="http://purl.org/dc/dcmitype/StillImage" /><dc:title></dc:title></cc:Work></rdf:RDF></metadata><defs
   id="defs5615" /><sodipodi:namedview
   pagecolor="#ffffff"
   bordercolor="#666666"
   borderopacity="1"
   objecttolerance="10"
   gridtolerance="10"
   guidetolerance="10"
   inkscape:pageopacity="0"
   inkscape:pageshadow="2"
   inkscape:window-width="1582"
   inkscape:window-height="954"
   id="namedview5613"
   showgrid="false"
   inkscape:zoom="1.3037281"
   inkscape:cx="175.46975"
   inkscape:cy="305.67832"
   inkscape:window-x="0"
   inkscape:window-y="0"
   inkscape:window-maximized="0"
   inkscape:current-layer="Layer_1" />

<path
   d="M 512,81.298645 C 512,36.056233 475.94626,0 430.70134,0 H 82.541358 C 37.298952,0 0,36.056233 0,81.298645 V 429.45865 C 0,474.70354 37.298952,512 82.541358,512 H 430.70134 C 475.94626,512 512,474.70354 512,429.45865 Z M 405.25172,259.87853 c -6.93434,28.36504 -23.44513,53.80971 -44.86088,73.4198 -41.67457,37.73018 -99.39383,55.81546 -155.16462,52.22525 -53.61457,-3.27581 -106.375422,-29.69973 -138.044863,-73.54657 2.770019,1.61554 5.092662,3.85119 7.737171,5.64567 24.520076,17.7398 57.165052,23.37926 86.317972,15.45941 17.69012,-4.56575 33.7547,-14.46026 46.58455,-27.38453 -8.20938,0.55425 -17.321,-0.90595 -23.26988,-7.08972 -3.70955,-3.53554 -5.24058,-9.34648 -3.00988,-14.07999 2.70039,-5.97623 8.70028,-9.37507 14.36951,-12.05065 -18.6047,2.66067 -38.87966,-6.00978 -47.45562,-23.21024 6.28561,-7.49981 16.3305,-9.89951 25.66211,-10.63519 -10.8601,-3.1652 -22.01227,-7.04 -30.24528,-15.14501 -6.54542,-6.1353 -10.79924,-14.64545 -12.07427,-23.50975 7.68744,-1.43037 15.40474,-3.18011 23.28483,-2.84956 -17.86409,-9.29926 -34.19466,-27.00427 -32.77049,-48.41257 33.88025,12.36007 67.21244,26.45249 99.04214,43.47278 11.1348,6.11416 20.39555,14.96978 29.49591,23.69988 8.81964,-22.90082 18.28419,-45.88987 32.63011,-65.97965 7.68993,-10.56808 16.75929,-20.40296 27.89904,-27.36591 -0.43498,3.46221 -2.2096,6.4845 -3.85496,9.48691 8.3188,-6.27697 17.95481,-11.13475 28.41476,-12.36007 -1.45022,6.25211 -7.37925,9.52543 -12.55145,12.36753 7.80557,-2.30772 15.41467,-5.71278 23.64523,-6.27448 2.19092,-0.0782 5.32503,0.0149 6.10421,2.56744 1.18058,3.18012 -2.03931,5.64692 -4.47872,6.97166 -8.97497,4.63285 -19.35535,5.31263 -28.48563,9.59255 18.76631,-1.76219 37.50029,5.51269 51.73067,17.51983 16.98419,13.98183 28.20971,34.22324 32.30447,55.74711 15.01577,4.03512 31.24567,1.11472 45.33434,-4.87518 -7.08472,16.04475 -25.12529,23.37056 -41.60493,24.79969 13.69473,5.16972 28.7639,6.04957 43.23911,4.51481 -11.47401,12.71921 -29.22999,17.66772 -45.92466,17.27875 z"
   id="path5610"
   inkscape:connector-curvature="0"
   style="stroke-width:1.24271822;fill:#795548;fill-opacity:1" />
</svg>