<?xml version="1.0" encoding="UTF-8" standalone="no"?>
<!-- Generator: Adobe Illustrator 16.0.0, SVG Export Plug-In . SVG Version: 6.00 Build 0)  -->

<svg
   xmlns:dc="http://purl.org/dc/elements/1.1/"
   xmlns:cc="http://creativecommons.org/ns#"
   xmlns:rdf="http://www.w3.org/1999/02/22-rdf-syntax-ns#"
   xmlns:svg="http://www.w3.org/2000/svg"
   xmlns="http://www.w3.org/2000/svg"
   xmlns:sodipodi="http://sodipodi.sourceforge.net/DTD/sodipodi-0.dtd"
   xmlns:inkscape="http://www.inkscape.org/namespaces/inkscape"
   version="1.1"
   id="Layer_1"
   x="0px"
   y="0px"
   width="512px"
   height="512px"
   viewBox="0 0 512 512"
   enable-background="new 0 0 512 512"
   xml:space="preserve"
   sodipodi:docname="twitter.svg"
   inkscape:version="0.92.2 2405546, 2018-03-11"><metadata
   id="metadata5617"><rdf:RDF><cc:Work
       rdf:about=""><dc:format>image/svg+xml</dc:format><dc:type
         rdf:resource="http://purl.org/dc/dcmitype/StillImage" /><dc:title /></cc:Work></rdf:RDF></metadata><defs
   id="defs5615" /><sodipodi:namedview
   pagecolor="#ffffff"
   bordercolor="#666666"
   borderopacity="1"
   objecttolerance="10"
   gridtolerance="10"
   guidetolerance="10"
   inkscape:pageopacity="0"
   inkscape:pageshadow="2"
   inkscape:window-width="1582"
   inkscape:window-height="954"
   id="namedview5613"
   showgrid="false"
   inkscape:zoom="1.3037281"
   inkscape:cx="279.62008"
   inkscape:cy="274.99708"
   inkscape:window-x="0"
   inkscape:window-y="0"
   inkscape:window-maximized="0"
   inkscape:current-layer="Layer_1" />


<path
   inkscape:connector-curvature="0"
   d="M 255.99995,0 C 114.62403,0 0,114.62402 0,256 0,397.37598 114.62403,512 255.99995,512 397.37597,512 512,397.37598 512,256 512,114.62402 397.37597,0 255.99995,0 Z m 129.40803,205.75997 c 3.90402,86.18671 -60.37337,182.27202 -174.16537,182.27202 -34.60264,0 -66.7946,-10.1547 -93.90926,-27.54132 32.51201,3.83999 64.95997,-5.20533 90.7093,-25.36533 -26.79466,-0.49096 -49.42932,-18.21869 -57.25865,-42.56005 9.62135,1.83469 19.09332,1.30135 27.6907,-1.04532 -29.46137,-5.93064 -49.81338,-32.46934 -49.15201,-60.86395 8.27733,4.58665 17.70667,7.33861 27.7546,7.65863 -27.28531,-18.23997 -35.00796,-54.27199 -18.96528,-81.81331 30.208,37.07734 75.37063,61.46134 126.29331,64.02133 -8.9387,-38.3147 20.13864,-75.24264 59.712,-75.24264 17.59998,0 33.53598,7.4453 44.71464,19.34928 13.95203,-2.73067 27.09338,-7.85066 38.91199,-14.86933 -4.58668,14.31471 -14.29328,26.30403 -26.944,33.89867 12.39472,-1.49332 24.21333,-4.77869 35.1787,-9.664 -8.192,12.33069 -18.55998,23.12535 -30.57067,31.76532 z"
   id="path3319"
   style="fill:#795548;fill-opacity:1;stroke-width:21.33333397" /></svg>