<?xml version="1.0" encoding="UTF-8" standalone="no"?>
<svg
   xmlns:dc="http://purl.org/dc/elements/1.1/"
   xmlns:cc="http://creativecommons.org/ns#"
   xmlns:rdf="http://www.w3.org/1999/02/22-rdf-syntax-ns#"
   xmlns:svg="http://www.w3.org/2000/svg"
   xmlns="http://www.w3.org/2000/svg"
   xmlns:sodipodi="http://sodipodi.sourceforge.net/DTD/sodipodi-0.dtd"
   xmlns:inkscape="http://www.inkscape.org/namespaces/inkscape"
   fill="#7289da"
   height="512"
   width="512"
   version="1.1"
   id="svg4979"
   sodipodi:docname="youtube.svg"
   inkscape:version="0.92.2 2405546, 2018-03-11">
  <metadata
     id="metadata4985">
    <rdf:RDF>
      <cc:Work
         rdf:about="">
        <dc:format>image/svg+xml</dc:format>
        <dc:type
           rdf:resource="http://purl.org/dc/dcmitype/StillImage" />
        <dc:title></dc:title>
      </cc:Work>
    </rdf:RDF>
  </metadata>
  <defs
     id="defs4983">
    <style
       id="style1516">
      .cls-1, .cls-5, .cls-6 {
        fill: none;
        stroke-linecap: round;
      }

      .cls-1, .cls-5 {
        stroke: #183c87;
      }

      .cls-1 {
        stroke-width: 75px;
      }

      .cls-2, .cls-3 {
        fill: #183c87;
      }

      .cls-2, .cls-5, .cls-6 {
        fill-rule: evenodd;
      }

      .cls-4 {
        fill: #fff;
      }

      .cls-5 {
        stroke-width: 101px;
      }

      .cls-6 {
        stroke: #fff;
        stroke-width: 56px;
      }
    </style>
  </defs>
  <sodipodi:namedview
     pagecolor="#ffffff"
     bordercolor="#666666"
     borderopacity="1"
     objecttolerance="10"
     gridtolerance="10"
     guidetolerance="10"
     inkscape:pageopacity="0"
     inkscape:pageshadow="2"
     inkscape:window-width="1722"
     inkscape:window-height="908"
     id="namedview4981"
     showgrid="false"
     inkscape:zoom="0.96950969"
     inkscape:cx="-25.536821"
     inkscape:cy="255.84629"
     inkscape:window-x="104"
     inkscape:window-y="76"
     inkscape:window-maximized="0"
     inkscape:current-layer="svg4979" />
  <circle
     style="opacity:1;fill:#795548;fill-opacity:1;stroke:none;stroke-width:25.67475319;stroke-miterlimit:4;stroke-dasharray:none;stroke-opacity:1"
     id="path817"
     cx="256"
     cy="256"
     r="256" />
  <path
     inkscape:connector-curvature="0"
     d="m 255.92834,109.98641 c -52.55509,0 -99.18457,5.90292 -127.51136,10.20091 -23.41223,3.55445 -42.172838,21.60326 -46.470823,45.90409 -3.681392,20.69198 -7.367324,51.07255 -7.367324,88.97459 0,37.88392 3.685932,68.28263 7.367324,88.9746 4.316117,24.30084 23.058593,42.36778 46.470823,45.90411 28.41746,4.29797 75.24643,10.20089 127.51136,10.20089 52.26493,0 99.07576,-5.90292 127.51136,-10.20089 23.43036,-3.53633 42.17284,-21.58513 46.47082,-45.90411 3.66325,-20.7101 7.36731,-51.18136 7.36731,-88.9746 0,-37.81136 -3.68592,-68.26447 -7.36731,-88.97459 -4.29798,-24.30083 -23.0586,-42.34964 -46.47082,-45.90409 -28.32678,-4.29799 -74.97442,-10.20091 -127.51136,-10.20091 z m 0,36.2699 c 47.93067,0 90.82889,3.99876 116.74374,7.93404 11.15298,1.68655 19.52227,10.67695 21.53525,22.10197 3.22802,18.13494 6.80061,44.86133 6.80061,78.77368 0,33.89423 -3.59072,60.63874 -6.80061,78.7737 -2.03111,11.44315 -10.36412,20.41542 -21.53525,22.10196 -26.02366,3.93529 -69.10322,7.93405 -116.74374,7.93405 -47.65865,0 -90.73822,-3.99876 -116.74374,-7.93405 -11.15299,-1.68654 -20.07087,-10.67694 -22.10198,-22.10196 -3.20988,-18.09868 -6.23389,-44.77066 -6.23389,-78.7737 0,-34.02115 3.02401,-60.67499 6.23389,-78.77368 2.03111,-11.42502 10.94899,-20.41542 22.10198,-22.10197 25.91485,-3.93528 68.81306,-7.93404 116.74374,-7.93404 z m -54.40485,36.26991 V 327.60581 L 328.46814,255.066 Z"
     id="path2"
     style="fill:#ffffff;fill-opacity:1;stroke-width:18.13495064" />
</svg>
