<?xml version="1.0" encoding="UTF-8" standalone="no"?>
<svg
   xmlns:dc="http://purl.org/dc/elements/1.1/"
   xmlns:cc="http://creativecommons.org/ns#"
   xmlns:rdf="http://www.w3.org/1999/02/22-rdf-syntax-ns#"
   xmlns:svg="http://www.w3.org/2000/svg"
   xmlns="http://www.w3.org/2000/svg"
   xmlns:sodipodi="http://sodipodi.sourceforge.net/DTD/sodipodi-0.dtd"
   xmlns:inkscape="http://www.inkscape.org/namespaces/inkscape"
   fill="#7289da"
   height="512"
   width="512"
   version="1.1"
   id="svg4979"
   sodipodi:docname="tor.svg"
   inkscape:version="0.92.2 2405546, 2018-03-11">
  <metadata
     id="metadata4985">
    <rdf:RDF>
      <cc:Work
         rdf:about="">
        <dc:format>image/svg+xml</dc:format>
        <dc:type
           rdf:resource="http://purl.org/dc/dcmitype/StillImage" />
        <dc:title></dc:title>
      </cc:Work>
    </rdf:RDF>
  </metadata>
  <defs
     id="defs4983">
    <style
       id="style1516">
      .cls-1, .cls-5, .cls-6 {
        fill: none;
        stroke-linecap: round;
      }

      .cls-1, .cls-5 {
        stroke: #183c87;
      }

      .cls-1 {
        stroke-width: 75px;
      }

      .cls-2, .cls-3 {
        fill: #183c87;
      }

      .cls-2, .cls-5, .cls-6 {
        fill-rule: evenodd;
      }

      .cls-4 {
        fill: #fff;
      }

      .cls-5 {
        stroke-width: 101px;
      }

      .cls-6 {
        stroke: #fff;
        stroke-width: 56px;
      }
    </style>
  </defs>
  <sodipodi:namedview
     pagecolor="#ffffff"
     bordercolor="#666666"
     borderopacity="1"
     objecttolerance="10"
     gridtolerance="10"
     guidetolerance="10"
     inkscape:pageopacity="0"
     inkscape:pageshadow="2"
     inkscape:window-width="1722"
     inkscape:window-height="908"
     id="namedview4981"
     showgrid="false"
     inkscape:zoom="0.9695097"
     inkscape:cx="107.00162"
     inkscape:cy="298.55223"
     inkscape:window-x="63"
     inkscape:window-y="94"
     inkscape:window-maximized="0"
     inkscape:current-layer="svg4979" />
  <circle
     style="opacity:1;fill:#795548;fill-opacity:1;stroke:none;stroke-width:25.67475319;stroke-miterlimit:4;stroke-dasharray:none;stroke-opacity:1"
     id="path817"
     cx="256"
     cy="256"
     r="256" />
  <g
     id="onion"
     transform="matrix(0.46897776,0,0,0.46897776,14.147464,4.4304484)"
     style="fill:#ffffff;fill-opacity:1">
    <path
       id="first-layer"
       d="m 433.1,252.1 v 13.4 c -1.7,42.1 -20,72.8 -54.8,92.2 -3,1.5 -6.1,3 -9.1,4.7 -26.7,14.2 -51.7,32.9 -74.8,56 -60.1,60.2 -90.2,132.8 -90.2,217.8 0,85.1 30.1,157.7 90.2,217.8 60.2,60.2 132.8,90.2 217.8,90.2 1.5,0 2.9,0 4.1,0 v 0 -64.4 c 0,-151.1 0,-428.3 0,-614 v 0 c -28.7,-2.2 -56.4,-7.8 -83.1,-13.6 z"
       style="fill:#ffffff;fill-opacity:1"
       inkscape:connector-curvature="0" />
    <circle
       id="second-layer"
       cx="512"
       cy="645"
       r="235"
       style="fill:#ffffff;fill-opacity:1" />
    <circle
       id="third-layer"
       cx="512"
       cy="648"
       r="162"
       style="fill:#ffffff;fill-opacity:1" />
    <circle
       id="fourth-layer"
       cx="512"
       cy="650"
       r="94"
       style="fill:#ffffff;fill-opacity:1" />
    <path
       id="half"
       d="m 820.1,636.1 q 0,-127.6 -90.2,-217.8 c -23.8,-23.8 -49.7,-43 -77.8,-57.5 -38.1,-17.6 -58.4,-50.5 -61,-98.6 -25.7,4.9 -50.6,5.4 -74.9,3.6 v 0 144.5 75.9 70.4 187.3 66 70 64.4 0 c 83.5,-1 154.6,-31.1 213.7,-90.2 60.2,-60.1 90.2,-132.7 90.2,-217.8 z"
       style="fill:#ffffff;fill-opacity:1"
       inkscape:connector-curvature="0" />
    <path
       id="leafs"
       d="m 443.4,84.4 c -0.3,1.3 -0.7,2.6 -0.9,3.7 q -31,121.9 65.2,161.7 c 18.8,-62.2 -0.9,-116 -59.3,-161.7 -1.4,-1.1 -3.1,-2.4 -4.8,-3.7 z m 81,165.4 C 519,209 540.7,181.9 589.3,169 c -5.3,44.9 -26.9,71.8 -64.9,80.8"
       style="fill:#ffffff;fill-opacity:1"
       inkscape:connector-curvature="0" />
  </g>
</svg>
