<?xml version="1.0" encoding="utf-8"?>
<!-- Generator: Adobe Illustrator 21.1.0, SVG Export Plug-In . SVG Version: 6.00 Build 0)  -->
<svg version="1.1" id="Ebene_1" xmlns="http://www.w3.org/2000/svg" xmlns:xlink="http://www.w3.org/1999/xlink" x="0px" y="0px"
	 viewBox="0 0 2000 800" style="enable-background:new 0 0 2000 800;" xml:space="preserve">
<style type="text/css">
	.st0{font-family:'MyriadPro-Regular';}
	.st1{font-size:12px;}
	.st2{fill:#BBA38A;}
	.st3{fill:#AE977F;}
	.st4{opacity:0.15;}
	.st5{fill:#795548;}
</style>
<text transform="matrix(1 0 0 1 907 405)" class="st0 st1">#bba38a</text>
<polygon class="st2" points="1237,0 0,371 0,0 "/>
<polygon class="st3" points="0,371 0,800 2000,0 1237,0 "/>
<path class="st3" d="M1225,443"/>
<polygon class="st2" points="2000,0 2000,800 598.4,560.6 "/>
<g id="layer101" class="st4">
	<path class="st5" d="M211.1,638.8c-1.4-0.3-2.9-0.8-4.4-1.5c-1.3-0.7-2.7-2-18.8-18.1l-17.4-17.4l11.5-11.5l11.5-11.5l3.6,3.6
		c3.6,3.6,4.9,4.6,7.3,5.8c5,2.5,11.2,2.9,16.5,1c3.5-1.3,5.7-2.8,9.9-7.1c1.6-1.6,3-3,3.2-3c0.1,0,5.3,5.1,11.5,11.3l11.3,11.3
		l-17.4,17.4c-16.1,16-17.6,17.5-18.8,18.1c-2.2,1.1-3.9,1.6-6.2,1.6C212.9,639,211.6,638.9,211.1,638.8z"/>
	<path class="st5" d="M156.5,587.9l-5.7-5.7l11.5-11.5l11.5-11.5l5.7,5.7l5.7,5.7l-11.5,11.5l-11.5,11.5L156.5,587.9z"/>
	<path class="st5" d="M253.4,582.1L242,570.7l5.6-5.6c3.1-3.1,5.7-5.6,5.8-5.6c0.1,0,5.3,5.1,11.5,11.3l11.3,11.3l-5.7,5.7l-5.7,5.7
		L253.4,582.1z"/>
	<path class="st5" d="M211.7,580.8c-0.5-0.1-1.2-0.4-1.7-0.6c-0.6-0.3-10.3-9.8-32.9-32.4c-25.2-25.1-32.2-32.3-32.5-33
		c-1-2.1-1-4.5,0-6.6c0.3-0.7,7.4-7.9,32.5-33c34.5-34.5,32.6-32.7,35.2-33.2c1.4-0.3,2.9,0,4.4,0.7c0.8,0.4,6.4,5.9,33,32.5
		c25.1,25.1,32.2,32.3,32.5,33c1,2.1,1,4.5,0,6.6c-0.3,0.7-7.3,7.8-32.1,32.6c-17.4,17.4-32,32-32.5,32.3
		C216,580.9,213.5,581.3,211.7,580.8z M246.5,544.5l4.8-4.8v-18.7v-18.7h-23.5h-23.5v9.3v9.3h14.1h14.1v4.8v4.8h-19h-19v-19v-19
		h28.4h28.4v-4.6v-4.6l-4.8-4.8l-4.8-4.8h-28.2h-28.2l-4.8,4.8l-4.8,4.8v28.2v28.2l4.8,4.8l4.8,4.8h28.2h28.2L246.5,544.5z"/>
	<path class="st5" d="M137,568.3l-5.6-5.6l11.4-11.4c6.2-6.2,11.5-11.4,11.6-11.4c0.1,0,2.7,2.5,5.7,5.5l5.5,5.5l-11.5,11.5
		L142.6,574L137,568.3z"/>
	<path class="st5" d="M273,562.5l-11.4-11.4l5.6-5.6l5.6-5.6l11.4,11.4l11.4,11.4l-5.6,5.6l-5.6,5.6L273,562.5z"/>
	<path class="st5" d="M106.4,537.9c-9.2-9.2-17-17.2-17.5-17.7c-1.1-1.4-1.8-2.9-2.4-4.8c-0.7-2.1-0.7-5.8,0-7.9
		c1.1-3.6,0.1-2.5,19.3-21.7l17.4-17.4l11.5,11.5l11.5,11.5l-3.4,3.4c-3.7,3.8-4.8,5.1-6.1,7.9c-2.7,5.7-2.7,12.4,0.1,18.2
		c1.2,2.5,2.2,3.7,6,7.5l3.4,3.4l-11.5,11.5c-6.3,6.3-11.5,11.5-11.6,11.5S115.5,547.1,106.4,537.9z"/>
	<path class="st5" d="M292.5,543.3c-6.2-6.2-11.3-11.4-11.3-11.5s1.5-1.8,3.4-3.7c1.9-2,3.8-4.1,4.4-4.9c3.5-5.3,4.5-11.6,2.8-17.4
		c-1.2-4.1-2.7-6.5-7.3-11.1l-3.4-3.4l11.4-11.4l11.4-11.4l17.4,17.4c19.1,19.1,18.1,18,19.2,21.7c0.7,2.1,0.7,5.8,0,7.9
		c-0.6,1.9-1.3,3.4-2.4,4.8c-0.8,1-34,34.4-34.2,34.4C303.8,554.6,298.7,549.5,292.5,543.3z"/>
	<path class="st5" d="M142.8,471.6l-11.4-11.4l5.7-5.7l5.7-5.7l11.5,11.5l11.5,11.5l-5.6,5.6c-3.1,3.1-5.7,5.6-5.7,5.6
		C154.3,483,149.1,477.8,142.8,471.6z"/>
	<path class="st5" d="M267.1,477.4l-5.6-5.6l11.4-11.4l11.4-11.4l5.7,5.7l5.7,5.7l-11.3,11.3c-6.2,6.2-11.4,11.3-11.5,11.3
		C272.8,483,270.2,480.5,267.1,477.4z"/>
	<path class="st5" d="M162.4,452L151,440.6l5.6-5.6l5.6-5.6l11.4,11.4c6.2,6.2,11.4,11.5,11.4,11.6c0,0.2-10.9,11.2-11.1,11.2
		C173.9,463.4,168.7,458.3,162.4,452z"/>
	<path class="st5" d="M247.6,457.9l-5.5-5.5l11.4-11.4l11.4-11.4l5.6,5.6l5.6,5.6l-11.3,11.3c-6.2,6.2-11.4,11.3-11.5,11.3
		S250.7,460.9,247.6,457.9z"/>
	<path class="st5" d="M181.8,432.6l-11.4-11.4l17.1-17c9.4-9.4,17.4-17.3,17.7-17.6c1-0.8,2.7-1.6,4.4-2.1c2.1-0.7,5.8-0.7,7.9,0
		c3.6,1.1,2.5,0.1,21.8,19.3l17.5,17.5l-11.4,11.4l-11.4,11.4l-3.5-3.5c-4.7-4.6-7.3-6.3-11.6-7.4c-1.8-0.5-2.3-0.5-5.2-0.5
		c-2.7,0-3.5,0.1-4.7,0.4c-4.8,1.3-7.1,2.8-11.9,7.5c-1.9,1.9-3.5,3.4-3.6,3.4C193.3,444,188.1,438.9,181.8,432.6z"/>
</g>
</svg>
