<?xml version="1.0" encoding="utf-8"?>
<!-- Generator: Adobe Illustrator 21.1.0, SVG Export Plug-In . SVG Version: 6.00 Build 0)  -->
<svg version="1.1" id="Ebene_1" xmlns="http://www.w3.org/2000/svg" xmlns:xlink="http://www.w3.org/1999/xlink" x="0px" y="0px"
	 viewBox="0 0 2000 800" style="enable-background:new 0 0 2000 800;" xml:space="preserve">
<style type="text/css">
	.st0{font-family:'ArialMT';}
	.st1{font-size:12px;}
	.st2{fill:#BCA389;}
	.st3{fill:#D5C6B6;}
	.st4{fill:#AE977F;}
	.st5{opacity:0.2;}
	.st6{fill:#FFFFFF;}
</style>
<text transform="matrix(1 0 0 1 907 405)" class="st0 st1">#bba38a</text>
<polygon class="st2" points="1237,0 0,371 0,0 "/>
<polygon class="st3" points="0,371 0,800 2000,0 1237,0 "/>
<path class="st4" d="M1225,443"/>
<polygon class="st2" points="2000,0 2000,800 598.4,560.6 "/>
<g class="st5">
	
		<rect x="130.3" y="541.7" transform="matrix(0.7071 -0.7071 0.7071 0.7071 -346.899 262.9062)" class="st6" width="27.3" height="17"/>
	<path class="st6" d="M186.2,444.8l11-11c4-4,10.5-4,14.5,0l11,11l19.4-19.4l-30.3-30.3c-4-4-10.5-4-14.5,0L167,425.4L186.2,444.8z"
		/>
	
		<rect x="256.4" y="536.6" transform="matrix(0.7071 -0.7071 0.7071 0.7071 -311.5002 348.4471)" class="st6" width="17" height="27.3"/>
	
		<rect x="237" y="555.7" transform="matrix(0.7071 -0.7071 0.7071 0.7071 -330.687 340.3605)" class="st6" width="17" height="27.3"/>
	
		<rect x="231.9" y="439.9" transform="matrix(0.7071 -0.7071 0.7071 0.7071 -245.1463 304.9615)" class="st6" width="27.3" height="17"/>
	
		<rect x="251.1" y="459.4" transform="matrix(0.7071 -0.7071 0.7071 0.7071 -253.3282 324.2483)" class="st6" width="27.3" height="17"/>
	
		<rect x="135.3" y="454.2" transform="matrix(0.7071 -0.7071 0.7071 0.7071 -288.7271 238.7074)" class="st6" width="17" height="27.3"/>
	<path class="st6" d="M140.2,527.2l-11-11c-4-4-4-10.5,0-14.5l11-11l-19.4-19.4l-30.3,30.3c-4,4-4,10.5,0,14.5l30.3,30.3
		L140.2,527.2z"/>
	<path class="st6" d="M318.1,501.8l-30.3-30.3l-19.4,19.4l11,11c4,4,4,10.5,0,14.5l-11,11l19.4,19.4l30.3-30.3
		C322.1,512.3,322.1,505.7,318.1,501.8z"/>
	<path class="st6" d="M222.6,573.2l-11,11c-4,4-10.5,4-14.5,0l-11-11l-19.4,19.4l30.3,30.3c4,4,10.5,4,14.5,0l30.3-30.3L222.6,573.2
		z"/>
	
		<rect x="149.5" y="560.9" transform="matrix(0.7071 -0.7071 0.7071 0.7071 -354.8564 282.1175)" class="st6" width="27.3" height="17"/>
	
		<rect x="154.7" y="434.8" transform="matrix(0.7071 -0.7071 0.7071 0.7071 -269.3156 246.7187)" class="st6" width="17" height="27.3"/>
	<path class="st6" d="M264.9,501.8l-53.2-53.2c-4-4-10.5-4-14.5,0L144,501.8c-4,4-4,10.5,0,14.5l53.2,53.2c4,4,10.5,4,14.5,0
		l53.2-53.2C268.9,512.3,268.9,505.7,264.9,501.8z M232,534.7c-1.9,0.7-5.1,1.4-9.3,2.1c-4.4,0.7-9.6,1.2-16.1,1.2
		c-5.4,0-10.5-0.7-14.9-2.1c-4.4-1.4-8.2-3.3-11.4-6.1c-3-2.6-5.6-5.8-7.2-9.6c-1.6-3.7-2.6-8.2-2.6-13.1c0-4.9,0.9-9.3,2.8-13.1
		s4.4-7,7.7-9.6s7.2-4.7,11.7-6.1s9.1-2.1,14.2-2.1c3.5,0,6.5,0.2,9.3,0.5c2.8,0.5,5.1,0.7,7.2,1.2c2.1,0.5,3.7,0.9,4.9,1.4
		c1.4,0.5,2.3,0.9,2.8,1.2l-4.7,10.7c-2.3-0.9-4.9-1.9-7.7-2.6s-6.1-1.2-9.6-1.2c-7.7,0-13.1,1.6-16.6,5.1s-5.1,8.2-5.1,14
		c0,2.8,0.5,5.6,1.2,7.9c0.9,2.3,2.1,4.4,3.7,6.1c1.6,1.6,3.7,3,6.3,4c2.6,0.9,5.4,1.4,8.9,1.4c1.9,0,3.3,0,4.7,0s2.3-0.2,3.5-0.2
		v-20.5H232C232,505.3,232,534.7,232,534.7z"/>
</g>
</svg>
