<?xml version="1.0" encoding="utf-8"?>
<!-- Generator: Adobe Illustrator 21.1.0, SVG Export Plug-In . SVG Version: 6.00 Build 0)  -->
<svg version="1.1" id="Ebene_1" xmlns="http://www.w3.org/2000/svg" xmlns:xlink="http://www.w3.org/1999/xlink" x="0px" y="0px"
	 viewBox="0 0 349 140" style="enable-background:new 0 0 349 140;" xml:space="preserve">
<style type="text/css">
	.st0{fill:#795548;}
</style>
<g>
	<path class="st0" d="M171.1,72.8h6.7v22.3c-0.6,0.2-1.3,0.4-2.4,0.6c-1,0.2-2.2,0.5-3.6,0.7c-1.4,0.2-2.8,0.4-4.4,0.6
		c-1.6,0.2-3.2,0.2-4.9,0.2c-3.4,0-6.4-0.6-9.2-1.7c-2.8-1.1-5.1-2.7-7.1-4.8c-2-2.1-3.5-4.7-4.6-7.8c-1.1-3.1-1.6-6.6-1.6-10.6
		c0-4,0.6-7.5,1.8-10.6c1.2-3.1,2.9-5.7,4.9-7.8c2.1-2.1,4.5-3.7,7.3-4.8c2.8-1.1,5.8-1.7,8.9-1.7c2.2,0,4.1,0.1,5.8,0.4
		c1.7,0.3,3.1,0.6,4.3,1c1.2,0.4,2.2,0.7,2.9,1.1c0.8,0.4,1.3,0.6,1.6,0.8l-2.1,5.6c-1.3-0.9-3.1-1.6-5.3-2.2
		c-2.2-0.6-4.5-0.9-6.8-0.9c-2.4,0-4.7,0.4-6.6,1.3c-2,0.9-3.7,2.1-5.1,3.8c-1.4,1.7-2.5,3.7-3.3,6c-0.8,2.4-1.2,5-1.2,8
		c0,2.8,0.3,5.4,1,7.8c0.7,2.3,1.7,4.4,3,6c1.4,1.7,3,3,5,3.9c2,0.9,4.4,1.4,7.1,1.4c1.9,0,3.6-0.1,4.9-0.3c1.4-0.2,2.3-0.4,2.9-0.6
		V72.8z"/>
	<path class="st0" d="M199.4,59.5c2.6,0,4.7,0.3,6.5,1c1.8,0.7,3.2,1.6,4.3,2.8c1.1,1.2,1.8,2.7,2.3,4.3c0.5,1.7,0.7,3.5,0.7,5.5
		v22.4c-0.6,0.1-1.3,0.2-2.3,0.4c-1,0.2-2.1,0.3-3.3,0.4c-1.2,0.1-2.6,0.3-4,0.4c-1.4,0.1-2.9,0.2-4.3,0.2c-2,0-3.9-0.2-5.6-0.6
		s-3.2-1.1-4.4-2c-1.2-0.9-2.2-2.1-2.9-3.5c-0.7-1.5-1-3.2-1-5.3c0-2,0.4-3.7,1.2-5.1c0.8-1.4,1.9-2.6,3.3-3.4
		c1.4-0.9,3-1.5,4.8-1.9c1.8-0.4,3.8-0.6,5.8-0.6c0.6,0,1.3,0,2,0.1c0.7,0.1,1.3,0.2,2,0.3c0.6,0.1,1.2,0.2,1.6,0.3
		c0.5,0.1,0.8,0.2,1,0.2v-1.8c0-1.1-0.1-2.1-0.3-3.1c-0.2-1-0.6-2-1.2-2.8c-0.6-0.8-1.4-1.4-2.4-1.9s-2.4-0.7-4-0.7
		c-2.1,0-4,0.1-5.5,0.4c-1.6,0.3-2.8,0.6-3.5,0.9l-0.8-5.3c0.8-0.4,2.2-0.7,4.1-1.1C195.1,59.7,197.1,59.5,199.4,59.5z M199.9,91.6
		c1.5,0,2.9,0,4-0.1c1.2-0.1,2.1-0.2,2.9-0.4V80.5c-0.5-0.2-1.2-0.4-2.2-0.6c-1-0.2-2.3-0.2-3.8-0.2c-1,0-2,0.1-3.1,0.2
		c-1.1,0.1-2.1,0.4-3,0.9c-0.9,0.4-1.6,1-2.2,1.8c-0.6,0.8-0.9,1.8-0.9,3c0,2.3,0.7,3.9,2.2,4.8C195.4,91.2,197.4,91.6,199.9,91.6z"
		/>
	<path class="st0" d="M234.5,96.9c-4-0.1-6.8-0.9-8.4-2.6c-1.7-1.6-2.5-4.1-2.5-7.5v-43l6.4-1.1v43.1c0,1.1,0.1,1.9,0.3,2.6
		c0.2,0.7,0.5,1.2,0.9,1.7c0.4,0.4,1,0.7,1.7,0.9c0.7,0.2,1.5,0.4,2.5,0.5L234.5,96.9z"/>
	<path class="st0" d="M245.8,53.9c-1.1,0-2.1-0.4-2.9-1.1c-0.8-0.8-1.2-1.8-1.2-3.1c0-1.3,0.4-2.3,1.2-3.1c0.8-0.8,1.8-1.1,2.9-1.1
		c1.1,0,2.1,0.4,2.9,1.1c0.8,0.8,1.2,1.8,1.2,3.1c0,1.3-0.4,2.3-1.2,3.1C247.9,53.6,246.9,53.9,245.8,53.9z M249,96.3h-6.4V60.4h6.4
		V96.3z"/>
	<path class="st0" d="M270.8,96.9c-4-0.1-6.8-0.9-8.4-2.6c-1.7-1.6-2.5-4.1-2.5-7.5v-43l6.4-1.1v43.1c0,1.1,0.1,1.9,0.3,2.6
		c0.2,0.7,0.5,1.2,0.9,1.7c0.4,0.4,1,0.7,1.7,0.9c0.7,0.2,1.5,0.4,2.5,0.5L270.8,96.9z"/>
	<path class="st0" d="M276.8,78.4c0-3.2,0.5-5.9,1.4-8.3c0.9-2.4,2.1-4.3,3.7-5.9c1.5-1.6,3.3-2.7,5.2-3.5c2-0.8,4-1.2,6.1-1.2
		c4.8,0,8.5,1.5,11.1,4.5c2.6,3,3.9,7.6,3.9,13.7c0,0.3,0,0.6,0,1.1c0,0.4,0,0.8-0.1,1.2h-24.5c0.3,3.7,1.4,6.5,3.2,8.5
		c1.9,1.9,4.8,2.9,8.8,2.9c2.2,0,4.1-0.2,5.7-0.6c1.5-0.4,2.7-0.8,3.5-1.1l0.9,5.4c-0.8,0.4-2.1,0.9-4.1,1.3c-2,0.5-4.2,0.7-6.6,0.7
		c-3.1,0-5.8-0.5-8.1-1.4c-2.3-0.9-4.1-2.2-5.6-3.9c-1.5-1.7-2.6-3.6-3.3-5.9C277.2,83.6,276.8,81.1,276.8,78.4z M301.4,74.9
		c0-2.9-0.7-5.3-2.2-7.1c-1.5-1.9-3.5-2.8-6.2-2.8c-1.5,0-2.8,0.3-3.9,0.9s-2.1,1.3-2.9,2.2c-0.8,0.9-1.4,2-1.8,3.2
		c-0.4,1.2-0.7,2.4-0.9,3.7H301.4z"/>
	<path class="st0" d="M328.1,96.9c-4-0.1-6.8-0.9-8.4-2.6c-1.7-1.6-2.5-4.1-2.5-7.5v-43l6.4-1.1v43.1c0,1.1,0.1,1.9,0.3,2.6
		c0.2,0.7,0.5,1.2,0.9,1.7c0.4,0.4,1,0.7,1.7,0.9c0.7,0.2,1.5,0.4,2.5,0.5L328.1,96.9z"/>
</g>
<g>
	<rect x="38.2" y="84" transform="matrix(0.7071 -0.7071 0.7071 0.7071 -49.0427 56.8389)" class="st0" width="11.7" height="7.3"/>
	<path class="st0" d="M62.2,42.5l4.7-4.7c1.7-1.7,4.5-1.7,6.2,0l4.7,4.7l8.3-8.3l-13-13c-1.7-1.7-4.5-1.7-6.2,0l-13,13L62.2,42.5z"
		/>
	
		<rect x="92.2" y="81.8" transform="matrix(0.7071 -0.7071 0.7071 0.7071 -33.8646 93.4821)" class="st0" width="7.3" height="11.7"/>
	<rect x="84" y="90" transform="matrix(0.7071 -0.7071 0.7071 0.7071 -42.156 90.0477)" class="st0" width="7.3" height="11.7"/>
	
		<rect x="81.8" y="40.4" transform="matrix(0.7071 -0.7071 0.7071 0.7071 -5.5127 74.8697)" class="st0" width="11.7" height="7.3"/>
	<rect x="90" y="48.7" transform="matrix(0.7071 -0.7071 0.7071 0.7071 -8.9472 83.1611)" class="st0" width="11.7" height="7.3"/>
	
		<rect x="40.4" y="46.5" transform="matrix(0.7071 -0.7071 0.7071 0.7071 -24.1253 46.5179)" class="st0" width="7.3" height="11.7"/>
	<path class="st0" d="M42.5,77.8l-4.7-4.7c-1.7-1.7-1.7-4.5,0-6.2l4.7-4.7l-8.3-8.3l-13,13c-1.7,1.7-1.7,4.5,0,6.2l13,13L42.5,77.8z
		"/>
	<path class="st0" d="M118.7,66.9l-13-13l-8.3,8.3l4.7,4.7c1.7,1.7,1.7,4.5,0,6.2l-4.7,4.7l8.3,8.3l13-13
		C120.4,71.4,120.4,68.6,118.7,66.9z"/>
	<path class="st0" d="M77.8,97.5l-4.7,4.7c-1.7,1.7-4.5,1.7-6.2,0l-4.7-4.7l-8.3,8.3l13,13c1.7,1.7,4.5,1.7,6.2,0l13-13L77.8,97.5z"
		/>
	
		<rect x="46.5" y="92.2" transform="matrix(0.7071 -0.7071 0.7071 0.7071 -52.4772 65.1304)" class="st0" width="11.7" height="7.3"/>
	
		<rect x="48.7" y="38.2" transform="matrix(0.7071 -0.7071 0.7071 0.7071 -15.8339 49.9523)" class="st0" width="7.3" height="11.7"/>
	<path class="st0" d="M95.9,66.9L73.1,44.1c-1.7-1.7-4.5-1.7-6.2,0L44.1,66.9c-1.7,1.7-1.7,4.5,0,6.2l22.8,22.8
		c1.7,1.7,4.5,1.7,6.2,0l22.8-22.8C97.6,71.4,97.6,68.6,95.9,66.9z M81.8,81c-0.8,0.3-2.2,0.6-4,0.9c-1.9,0.3-4.1,0.5-6.9,0.5
		c-2.3,0-4.5-0.3-6.4-0.9c-1.9-0.6-3.5-1.4-4.9-2.6c-1.3-1.1-2.4-2.5-3.1-4.1c-0.7-1.6-1.1-3.5-1.1-5.6c0-2.1,0.4-4,1.2-5.6
		c0.8-1.6,1.9-3,3.3-4.1c1.4-1.1,3.1-2,5-2.6c1.9-0.6,3.9-0.9,6.1-0.9c1.5,0,2.8,0.1,4,0.2c1.2,0.2,2.2,0.3,3.1,0.5
		c0.9,0.2,1.6,0.4,2.1,0.6c0.6,0.2,1,0.4,1.2,0.5l-2,4.6c-1-0.4-2.1-0.8-3.3-1.1c-1.2-0.3-2.6-0.5-4.1-0.5c-3.3,0-5.6,0.7-7.1,2.2
		c-1.5,1.5-2.2,3.5-2.2,6c0,1.2,0.2,2.4,0.5,3.4c0.4,1,0.9,1.9,1.6,2.6c0.7,0.7,1.6,1.3,2.7,1.7c1.1,0.4,2.3,0.6,3.8,0.6
		c0.8,0,1.4,0,2,0c0.6,0,1-0.1,1.5-0.1v-8.8h7V81z"/>
</g>
</svg>
