<?xml version="1.0" encoding="utf-8"?>
<!-- Generator: Adobe Illustrator 23.0.3, SVG Export Plug-In . SVG Version: 6.00 Build 0)  -->
<svg version="1.1" id="Ebene_1" xmlns="http://www.w3.org/2000/svg" xmlns:xlink="http://www.w3.org/1999/xlink" x="0px" y="0px"
	 viewBox="0 0 200 132" style="enable-background:new 0 0 200 132;" xml:space="preserve">
<style type="text/css">
	.st0{fill:none;}
	.st1{fill:#795548;}
	.st2{fill:#D5C6B6;}
</style>
<g>
	<path class="st0" d="M122.5,65.1c0,0,0,0,7.5,0l1-23.8c0.1-1.6-1.1-3-2.7-3h-5.8h-5.8c-1.6,0-2.8,1.4-2.7,3l1,23.8
		C122.5,65.1,122.5,65.1,122.5,65.1z"/>
	<path class="st0" d="M76.7,65.1c0,0,0,0,7.5,0l1-23.8c0.1-1.6-1.1-3-2.7-3h-5.8h-5.8c-1.6,0-2.8,1.4-2.7,3l1,23.8
		C76.7,65.1,76.7,65.1,76.7,65.1z"/>
	<path class="st0" d="M30.9,65.1c0,0,0,0,7.5,0l1-23.8c0.1-1.6-1.1-3-2.7-3h-5.8h-5.8c-1.6,0-2.8,1.4-2.7,3l1,23.8
		C30.9,65.1,30.9,65.1,30.9,65.1z"/>
	<path class="st0" d="M168.3,65.1c0,0,0,0,7.5,0l1-23.8c0.1-1.6-1.1-3-2.7-3h-5.8h-5.8c-1.6,0-2.8,1.4-2.7,3l1,23.8
		C168.3,65.1,168.3,65.1,168.3,65.1z"/>
	<path class="st1" d="M185.2,70.3c-1.3-2.6-1.5-5-6.1-5.2l1.3-26.9c0.2-2-1.6-3.6-3.8-3.6h-8.2h-8.2c-2.2,0-4,1.7-3.8,3.6l1.3,26.9
		c-4.6,0.1-4.8,2.6-6.1,5.2c-1.3,2.6-0.6,5.7,2.3,5.7h4.2v19.5c0,0.9,0.8,1.6,1.8,1.6h1.5c1,0,1.8-0.7,1.8-1.6V76h10.4v19.5
		c0,0.9,0.8,1.6,1.8,1.6h1.5c1,0,1.8-0.7,1.8-1.6V76h4.2C185.8,76,186.5,72.9,185.2,70.3z M162.5,38.3h5.8h5.8c1.6,0,2.8,1.4,2.7,3
		l-1,23.8c-7.5,0-7.5,0-7.5,0s0,0-7.5,0l-1-23.8C159.7,39.7,161,38.3,162.5,38.3z"/>
	<path class="st2" d="M133.2,65.1l1.3-26.9c0.2-2-1.6-3.6-3.8-3.6h-8.2h-8.2c-2.2,0-4,1.7-3.8,3.6l1.3,26.9
		c-4.6,0.1-4.8,2.6-6.1,5.2c-1.3,2.6-0.6,5.7,2.3,5.7h4.2v19.5c0,0.9,0.8,1.6,1.8,1.6h1.5c1,0,1.8-0.7,1.8-1.6V76h10.4v19.5
		c0,0.9,0.8,1.6,1.8,1.6h1.5c1,0,1.8-0.7,1.8-1.6V76h4.2c2.9,0,3.6-3.1,2.3-5.7C138.1,67.8,137.9,65.3,133.2,65.1z M116.7,38.3h5.8
		h5.8c1.6,0,2.8,1.4,2.7,3l-1,23.8c-7.5,0-7.5,0-7.5,0s0,0-7.5,0l-1-23.8C113.9,39.7,115.2,38.3,116.7,38.3z"/>
	<path class="st1" d="M87.4,65.1l1.3-26.9c0.2-2-1.6-3.6-3.8-3.6h-8.2h-8.2c-2.2,0-4,1.7-3.8,3.6L66,65.1c-4.6,0.1-4.8,2.6-6.1,5.2
		c-1.3,2.6-0.6,5.7,2.3,5.7h4.2v19.5c0,0.9,0.8,1.6,1.8,1.6h1.5c1,0,1.8-0.7,1.8-1.6V76h10.4v19.5c0,0.9,0.8,1.6,1.8,1.6h1.5
		c1,0,1.8-0.7,1.8-1.6V76h4.2c2.9,0,3.6-3.1,2.3-5.7C92.3,67.8,92.1,65.3,87.4,65.1z M70.9,38.3h5.8h5.8c1.6,0,2.8,1.4,2.7,3
		l-1,23.8c-7.5,0-7.5,0-7.5,0s0,0-7.5,0l-1-23.8C68.1,39.7,69.4,38.3,70.9,38.3z"/>
	<path class="st2" d="M41.6,65.1l1.3-26.9c0.2-2-1.6-3.6-3.8-3.6h-8.2h-8.2c-2.2,0-4,1.7-3.8,3.6l1.3,26.9c-4.6,0.1-4.8,2.6-6.1,5.2
		c-1.3,2.6-0.6,5.7,2.3,5.7h4.2v19.5c0,0.9,0.8,1.6,1.8,1.6h1.5c1,0,1.8-0.7,1.8-1.6V76h10.4v19.5c0,0.9,0.8,1.6,1.8,1.6h1.5
		c1,0,1.8-0.7,1.8-1.6V76h4.2c2.9,0,3.6-3.1,2.3-5.7C46.5,67.8,46.3,65.3,41.6,65.1z M25.1,38.3h5.8h5.8c1.6,0,2.8,1.4,2.7,3
		l-1,23.8c-7.5,0-7.5,0-7.5,0s0,0-7.5,0l-1-23.8C22.3,39.7,23.6,38.3,25.1,38.3z"/>
</g>
</svg>
