<?xml version="1.0" encoding="utf-8"?>
<!-- Generator: Adobe Illustrator 21.1.0, SVG Export Plug-In . SVG Version: 6.00 Build 0)  -->
<svg version="1.1" id="Ebene_1" xmlns="http://www.w3.org/2000/svg" xmlns:xlink="http://www.w3.org/1999/xlink" x="0px" y="0px"
	 viewBox="0 0 140 140" style="enable-background:new 0 0 140 140;" xml:space="preserve">
<style type="text/css">
	.st0{fill:#795548;}
</style>
<g>
	
		<rect x="25.6" y="89.6" transform="matrix(0.7071 -0.7071 0.7071 0.7071 -57.0654 51.6295)" class="st0" width="16.4" height="10.2"/>
	<path class="st0" d="M59.1,31.6l6.6-6.6c2.4-2.4,6.3-2.4,8.7,0l6.6,6.6L92.5,20L74.4,1.8c-2.4-2.4-6.3-2.4-8.7,0L47.5,20L59.1,31.6
		z"/>
	
		<rect x="101.1" y="86.5" transform="matrix(0.7071 -0.7071 0.7071 0.7071 -35.8695 102.8442)" class="st0" width="10.2" height="16.4"/>
	
		<rect x="89.5" y="98" transform="matrix(0.7071 -0.7071 0.7071 0.7071 -47.3322 97.9902)" class="st0" width="10.2" height="16.4"/>
	
		<rect x="86.5" y="28.6" transform="matrix(0.7071 -0.7071 0.7071 0.7071 3.8825 76.7944)" class="st0" width="16.4" height="10.2"/>
	<rect x="98" y="40.3" transform="matrix(0.7071 -0.7071 0.7071 0.7071 -1.0124 88.3559)" class="st0" width="16.4" height="10.2"/>
	
		<rect x="28.6" y="37.2" transform="matrix(0.7071 -0.7071 0.7071 0.7071 -22.2084 37.1411)" class="st0" width="10.2" height="16.4"/>
	<path class="st0" d="M31.6,80.9L25,74.3c-2.4-2.4-2.4-6.3,0-8.7l6.6-6.6L20,47.5L1.8,65.7c-2.4,2.4-2.4,6.3,0,8.7L20,92.5
		L31.6,80.9z"/>
	<path class="st0" d="M138.1,65.7l-18.2-18.2l-11.6,11.6l6.6,6.6c2.4,2.4,2.4,6.3,0,8.7l-6.6,6.6l11.6,11.6l18.2-18.2
		C140.5,72,140.5,68,138.1,65.7z"/>
	<path class="st0" d="M80.9,108.4l-6.6,6.6c-2.4,2.4-6.3,2.4-8.7,0l-6.6-6.6L47.5,120l18.2,18.2c2.4,2.4,6.3,2.4,8.7,0L92.5,120
		L80.9,108.4z"/>
	
		<rect x="37.1" y="101.1" transform="matrix(0.7071 -0.7071 0.7071 0.7071 -61.8207 63.133)" class="st0" width="16.4" height="10.2"/>
	
		<rect x="40.2" y="25.6" transform="matrix(0.7071 -0.7071 0.7071 0.7071 -10.6059 41.9372)" class="st0" width="10.2" height="16.4"/>
	<path class="st0" d="M106.2,65.7L74.4,33.8c-2.4-2.4-6.3-2.4-8.7,0L33.8,65.7c-2.4,2.4-2.4,6.3,0,8.7l31.9,31.9
		c2.4,2.4,6.3,2.4,8.7,0l31.9-31.9C108.6,72,108.6,68,106.2,65.7z M86.5,85.4c-1.1,0.4-3.1,0.8-5.6,1.3c-2.7,0.4-5.7,0.7-9.6,0.7
		c-3.2,0-6.3-0.4-8.9-1.3c-2.7-0.8-4.9-2-6.8-3.6c-1.8-1.5-3.4-3.5-4.3-5.7s-1.5-4.9-1.5-7.8s0.6-5.6,1.7-7.8
		c1.1-2.2,2.7-4.2,4.6-5.7c2-1.5,4.3-2.8,7-3.6c2.7-0.8,5.5-1.3,8.5-1.3c2.1,0,3.9,0.1,5.6,0.3c1.7,0.3,3.1,0.4,4.3,0.7
		c1.3,0.3,2.2,0.6,2.9,0.8c0.8,0.3,1.4,0.6,1.7,0.7l-2.8,6.4c-1.4-0.6-2.9-1.1-4.6-1.5c-1.7-0.4-3.6-0.7-5.7-0.7
		c-4.6,0-7.8,1-9.9,3.1s-3.1,4.9-3.1,8.4c0,1.7,0.3,3.4,0.7,4.8c0.6,1.4,1.3,2.7,2.2,3.6c1,1,2.2,1.8,3.8,2.4
		c1.5,0.6,3.2,0.8,5.3,0.8c1.1,0,2,0,2.8,0c0.8,0,1.4-0.1,2.1-0.1V67.8h9.8C86.5,67.8,86.5,85.4,86.5,85.4z"/>
</g>
</svg>
