<!DOCTYPE svg PUBLIC "-//W3C//DTD SVG 20010904//EN" "http://www.w3.org/TR/2001/REC-SVG-20010904/DTD/svg10.dtd">
<svg version="1.0" xmlns="http://www.w3.org/2000/svg" width="1290px" height="1290px" viewBox="0 0 12900 12900" preserveAspectRatio="xMidYMid meet">
<g id="layer101" fill="#795548" stroke="none">
 <path d="M6328 12890 c-72 -13 -145 -39 -223 -78 -65 -33 -138 -103 -953 -916 l-882 -881 580 -580 580 -580 182 181 c184 182 249 234 368 294 253 128 568 146 833 50 179 -66 286 -142 502 -359 82 -83 154 -151 160 -151 5 0 268 258 583 573 l572 572 -882 881 c-812 810 -889 883 -953 916 -109 56 -196 79 -315 83 -58 2 -126 0 -152 -5z"/>
 <path d="M3567 10312 l-287 -287 580 -580 580 -580 287 288 288 287 -580 580 -580 580 -288 -288z"/>
 <path d="M8467 10022 l-577 -577 283 -283 c155 -155 287 -282 292 -282 6 0 268 258 583 573 l572 572 -288 288 -287 287 -578 -578z"/>
 <path d="M6360 9957 c-25 -7 -63 -21 -85 -32 -28 -13 -519 -497 -1661 -1639 -1272 -1271 -1626 -1631 -1643 -1668 -50 -107 -50 -229 0 -336 17 -37 372 -397 1643 -1668 1745 -1745 1647 -1652 1778 -1677 69 -13 148 -1 224 33 41 19 326 299 1670 1644 1271 1271 1626 1631 1643 1668 50 107 50 229 0 336 -17 37 -370 396 -1623 1650 -880 882 -1619 1616 -1641 1631 -88 60 -214 84 -305 58z m1757 -1839 l243 -243 0 -947 0 -948 -1190 0 -1190 0 0 470 0 470 715 0 715 0 0 245 0 245 -960 0 -960 0 0 -960 0 -960 1435 0 1435 0 0 -232 0 -233 -242 -242 -243 -243 -1425 0 -1425 0 -242 242 -243 243 0 1425 0 1425 242 242 243 243 1425 0 1425 0 242 -242z"/>
 <path d="M2580 9325 l-285 -285 575 -575 c316 -316 579 -575 585 -575 6 0 136 126 290 280 l280 280 -580 580 -580 580 -285 -285z"/>
 <path d="M9457 9032 l-577 -577 285 -285 285 -285 578 578 577 577 -285 285 -285 285 -578 -578z"/>
 <path d="M1034 7788 c-463 -464 -860 -868 -883 -897 -54 -69 -93 -146 -122 -241 -34 -107 -34 -292 0 -400 56 -183 7 -127 975 -1098 l881 -882 580 580 579 579 -170 173 c-189 192 -242 260 -309 399 -138 288 -136 627 7 918 61 124 112 188 302 379 l171 172 -580 580 c-319 319 -582 580 -585 580 -3 0 -384 -379 -846 -842z"/>
 <path d="M10442 8057 c-314 -314 -572 -576 -572 -581 0 -5 78 -89 173 -185 97 -99 193 -207 220 -247 175 -266 227 -586 141 -880 -60 -207 -139 -329 -368 -562 l-170 -173 577 -577 577 -577 878 880 c966 968 917 912 973 1095 34 108 34 293 0 400 -29 95 -68 172 -122 241 -41 52 -1717 1739 -1728 1739 -4 0 -264 -258 -579 -573z"/>
 <path d="M2877 4432 l-577 -577 288 -288 287 -287 580 580 580 580 -285 285 c-157 157 -287 285 -290 285 -3 0 -265 -260 -583 -578z"/>
 <path d="M9160 4725 l-285 -285 578 -577 577 -578 290 290 290 290 -572 572 c-315 315 -577 573 -583 573 -6 0 -138 -128 -295 -285z"/>
 <path d="M3867 3442 l-577 -577 285 -285 285 -285 575 575 c316 316 575 579 575 585 0 10 -550 565 -560 565 -3 0 -265 -260 -583 -578z"/>
 <path d="M8175 3740 l-280 -280 578 -577 577 -578 285 285 285 285 -572 572 c-315 315 -577 573 -583 573 -6 0 -136 -126 -290 -280z"/>
 <path d="M4848 2463 l-578 -578 863 -862 c474 -475 878 -875 897 -889 53 -39 138 -80 220 -105 107 -34 292 -34 400 0 183 56 127 6 1100 978 l885 883 -577 577 -577 577 -178 -175 c-239 -234 -368 -317 -588 -376 -89 -24 -118 -27 -265 -26 -136 0 -178 3 -240 20 -243 67 -360 141 -601 379 -96 96 -177 174 -180 174 -2 0 -264 -260 -581 -577z"/>
 </g>

</svg>