<?xml version="1.0" encoding="utf-8"?>
<!-- Generator: Adobe Illustrator 23.0.3, SVG Export Plug-In . SVG Version: 6.00 Build 0)  -->
<svg version="1.1" id="Ebene_1" xmlns="http://www.w3.org/2000/svg" xmlns:xlink="http://www.w3.org/1999/xlink" x="0px" y="0px"
	 viewBox="0 0 200 132" style="enable-background:new 0 0 200 132;" xml:space="preserve">
<style type="text/css">
	.st0{fill:none;}
	.st1{fill:#795548;}
	.st2{fill:#D5C6B6;}
</style>
<g>
	<g>
		<g>
			<path class="st0" d="M48.5,26.7l7.2,2.9c0.8,0.3,1.3,1.1,1.4,1.9c0.1,0.9-0.4,1.7-1.2,2.1l-7.5,4.1v14.2l36.4,2.3l7.8,0.5
				c0,0,0,0,0,0l34.1,2.1V45.3l-5.8-2.1c-0.7-0.3-1.2-0.8-1.4-1.6c-0.2-0.7,0-1.5,0.5-2.1l6.7-7.1V21.7l-78.4-2.4V26.7z"/>
			<polygon class="st0" points="83.4,58.6 83.4,108.3 91.8,112.2 90.4,59 87.1,58.8 			"/>
			<path class="st1" d="M131.3,33.4V19.6c0-1.2-1-2.2-2.2-2.2l-82.8-2.6c-0.6,0-1.2,0.2-1.6,0.6c-0.4,0.4-0.7,1-0.7,1.6v11.2
				c0,0.9,0.6,1.7,1.4,2.1l4.2,1.7l-4.5,2.5c-0.7,0.4-1.2,1.1-1.2,2V54c0,1.2,0.9,2.2,2.1,2.2L79,58.3v51.4c0,0.9,0.5,1.7,1.3,2
				l12.9,6c0.3,0.1,0.6,0.2,0.9,0.2c0.4,0,0.9-0.1,1.2-0.4c0.6-0.4,1-1.2,1-1.9l-1.5-56.4l34.1,2.1c0,0,0.1,0,0.1,0
				c0.6,0,1.1-0.2,1.5-0.6c0.4-0.4,0.7-1,0.7-1.6V43.7c0-0.9-0.6-1.8-1.5-2.1l-4.1-1.5l5-5.3C131.1,34.5,131.3,33.9,131.3,33.4z
				 M91.8,112.2l-8.4-3.9V58.6l3.6,0.2l3.4,0.2L91.8,112.2z M126.9,32.5l-6.7,7.1c-0.5,0.5-0.7,1.3-0.5,2.1c0.2,0.7,0.7,1.3,1.4,1.6
				l5.8,2.1v11.5l-34.1-2.1c0,0,0,0,0,0l-7.8-0.5l-36.4-2.3V37.7l7.5-4.1c0.8-0.4,1.2-1.2,1.2-2.1c-0.1-0.9-0.6-1.6-1.4-1.9
				l-7.2-2.9v-7.4l78.4,2.4V32.5z"/>
		</g>
		<g>
			<polygon class="st0" points="117.6,109.8 121.2,111.7 124.2,81.4 117.6,80.7 			"/>
			<path class="st2" d="M154.5,45.4c-0.4-0.5-1-0.7-1.7-0.7h-13.8c-1.2,0-2.2,1-2.2,2.2s1,2.2,2.2,2.2h11.3l-1.7,15.9l-7.9,1.5
				c-0.8,0.2-1.5,0.8-1.7,1.6c-0.2,0.8,0,1.7,0.7,2.3l6.4,5.6l-0.5,4.2l-43.1-7V65c0-1.2-1-2.2-2.2-2.2c-1.2,0-2.2,1-2.2,2.2v10.1
				c0,1.1,0.8,2,1.9,2.2l13,2.1v31.8c0,0.8,0.5,1.6,1.2,2l7.8,3.9c0.3,0.2,0.7,0.2,1,0.2c0.4,0,0.7-0.1,1.1-0.3
				c0.6-0.4,1.1-1,1.1-1.7l3.3-33.4l18.7,3c0.1,0,0.2,0,0.4,0c0.5,0,1-0.2,1.3-0.5c0.5-0.4,0.8-0.9,0.9-1.5l0.9-7.7
				c0.1-0.7-0.2-1.5-0.8-1.9l-3.8-3.3l4.9-0.9c1-0.2,1.7-1,1.8-2l2.2-20.1C155.2,46.5,155,45.9,154.5,45.4z M121.2,111.7l-3.6-1.8
				V80.7l6.7,0.7L121.2,111.7z"/>
		</g>
	</g>
	<g>
		<path class="st1" d="M66.9,43.3c-0.5-1.2-1-2.4-1.5-3.7c-0.5-1.3-0.9-2.5-1.4-3.8c-0.4-1.2-0.8-2.4-1.2-3.6
			c-0.4-1.1-0.7-2.1-0.9-3l3.4,0.1c0.2,0.8,0.5,1.7,0.8,2.6c0.3,0.9,0.6,1.9,0.9,2.8c0.3,0.9,0.6,1.8,0.8,2.7
			c0.3,0.9,0.5,1.6,0.8,2.2c0.3-0.6,0.6-1.3,0.9-2.1c0.3-0.8,0.7-1.7,1.1-2.6c0.4-0.9,0.7-1.8,1.1-2.7c0.4-0.9,0.7-1.8,1-2.6
			l3.3,0.1c-0.3,0.9-0.7,1.9-1.2,3c-0.4,1.1-0.9,2.3-1.5,3.5c-0.5,1.2-1.1,2.4-1.7,3.7c-0.6,1.2-1.2,2.4-1.8,3.5L66.9,43.3z"/>
		<path class="st1" d="M90.1,37.2c0,1.2-0.3,2.2-0.6,3.1c-0.4,0.9-0.9,1.6-1.5,2.2c-0.6,0.6-1.4,1-2.2,1.3c-0.9,0.3-1.8,0.4-2.7,0.4
			c-0.9,0-1.8-0.2-2.7-0.6c-0.8-0.3-1.5-0.8-2.1-1.5c-0.6-0.6-1.1-1.4-1.4-2.3c-0.3-0.9-0.5-2-0.4-3.1s0.3-2.2,0.7-3.1
			c0.4-0.9,0.9-1.6,1.6-2.2c0.7-0.6,1.4-1,2.2-1.3c0.8-0.3,1.7-0.4,2.6-0.4c0.9,0,1.8,0.2,2.7,0.6c0.8,0.3,1.5,0.8,2.1,1.5
			c0.6,0.6,1.1,1.4,1.4,2.3C90,35,90.1,36,90.1,37.2z M79.5,36.8c0,0.7,0,1.3,0.2,1.8c0.1,0.6,0.4,1,0.7,1.4s0.7,0.7,1.1,1
			c0.4,0.2,1,0.4,1.5,0.4c0.6,0,1.1-0.1,1.6-0.3c0.5-0.2,0.9-0.5,1.2-0.9c0.3-0.4,0.6-0.8,0.8-1.4c0.2-0.5,0.3-1.1,0.3-1.8
			c0-0.7,0-1.3-0.2-1.9c-0.1-0.6-0.4-1-0.7-1.4c-0.3-0.4-0.7-0.7-1.1-1c-0.5-0.2-1-0.4-1.5-0.4c-0.6,0-1.1,0.1-1.6,0.3
			c-0.5,0.2-0.9,0.5-1.2,0.9C80.3,34,80,34.5,79.9,35C79.7,35.6,79.6,36.2,79.5,36.8z"/>
		<path class="st1" d="M102.8,30.8l-0.1,2.7l-4.2-0.2l-0.4,11.2l-3.1-0.1l0.4-11.2L91.2,33l0.1-2.7L102.8,30.8z"/>
		<path class="st1" d="M104.2,44.7l0.5-13.8l9.3,0.4l-0.1,2.6l-6.2-0.2l-0.1,2.7l5.5,0.2l-0.1,2.6l-5.5-0.2l-0.1,3.3l6.7,0.3
			l-0.1,2.6L104.2,44.7z"/>
	</g>
</g>
</svg>
