<?xml version="1.0" encoding="UTF-8" standalone="no"?>
<svg
   xmlns:dc="http://purl.org/dc/elements/1.1/"
   xmlns:cc="http://creativecommons.org/ns#"
   xmlns:rdf="http://www.w3.org/1999/02/22-rdf-syntax-ns#"
   xmlns:svg="http://www.w3.org/2000/svg"
   xmlns="http://www.w3.org/2000/svg"
   xmlns:sodipodi="http://sodipodi.sourceforge.net/DTD/sodipodi-0.dtd"
   xmlns:inkscape="http://www.inkscape.org/namespaces/inkscape"
   fill="#7289da"
   height="512"
   width="512"
   version="1.1"
   id="svg4979"
   sodipodi:docname="email.svg"
   inkscape:version="0.92.2 2405546, 2018-03-11">
  <metadata
     id="metadata4985">
    <rdf:RDF>
      <cc:Work
         rdf:about="">
        <dc:format>image/svg+xml</dc:format>
        <dc:type
           rdf:resource="http://purl.org/dc/dcmitype/StillImage" />
        <dc:title></dc:title>
      </cc:Work>
    </rdf:RDF>
  </metadata>
  <defs
     id="defs4983" />
  <sodipodi:namedview
     pagecolor="#ffffff"
     bordercolor="#666666"
     borderopacity="1"
     objecttolerance="10"
     gridtolerance="10"
     guidetolerance="10"
     inkscape:pageopacity="0"
     inkscape:pageshadow="2"
     inkscape:window-width="1722"
     inkscape:window-height="908"
     id="namedview4981"
     showgrid="false"
     inkscape:zoom="1.09375"
     inkscape:cx="142.59044"
     inkscape:cy="290.15828"
     inkscape:window-x="2148"
     inkscape:window-y="58"
     inkscape:window-maximized="0"
     inkscape:current-layer="svg4979" />
  <circle
     style="opacity:1;fill:#795548;fill-opacity:1;stroke:none;stroke-width:26.61774826;stroke-miterlimit:4;stroke-dasharray:none;stroke-opacity:1"
     id="path1460"
     cx="256"
     cy="256"
     r="256" />
  <path
     inkscape:connector-curvature="0"
     d="m 278.76458,230.56667 c 0,10.725 -3.62916,24.76771 -9.2625,35.77708 -13.66354,26.8125 -41.47812,26.63646 -41.47812,-1.89583 0,-10.64375 3.65625,-24.36146 9.30312,-34.9375 13.82605,-26.06771 41.4375,-21.99167 41.4375,1.05625 z M 418,250.5 C 418,340.24063 345.24062,413 255.5,413 165.75938,413 93,340.24063 93,250.5 93,160.75937 165.75938,88 255.5,88 345.24062,88 418,160.75937 418,250.5 Z m -67.70833,-16.16875 c 0,-43.95625 -35.62813,-75.84688 -84.71667,-75.84688 -67.26146,0 -104.86667,42.64271 -104.86667,95.78021 0,49.725 33.40729,88.25104 95.11667,88.25104 34.125,0 55.84583,-9.83125 69.36042,-17.44166 l -9.30313,-13.41979 c -13.83958,8.0302 -30.48229,15.38333 -57.63333,15.38333 -46.43438,0 -77.63438,-29.77813 -77.63438,-74.11354 0,-77.37709 86.68021,-91.51458 124.77292,-68.66979 35.53333,22.23541 34.17917,75.53541 7.88125,95.91562 -14.00208,11.18542 -29.77813,10.81979 -24.65938,-10.2375 0,0 16.4125,-60.78854 18.33542,-67.36979 h -18.47083 l -3.66979,12.89167 c -3.76459,-10.63021 -12.7698,-17.53646 -25.87813,-17.53646 -27.32708,0 -50.40208,29.65625 -50.40208,64.76979 0,23.42708 12.36354,37.97083 32.22916,37.97083 17.37396,0 26.40625,-9.83125 32.0125,-18.59271 -4.0625,39.24375 77.52605,21.08438 77.52605,-47.73437 z"
     id="path3885"
     style="stroke-width:13.54166698;fill:#ffffff;fill-opacity:1" />
</svg>
