<?xml version="1.0" encoding="UTF-8" standalone="no"?>
<svg
   xmlns:dc="http://purl.org/dc/elements/1.1/"
   xmlns:cc="http://creativecommons.org/ns#"
   xmlns:rdf="http://www.w3.org/1999/02/22-rdf-syntax-ns#"
   xmlns:svg="http://www.w3.org/2000/svg"
   xmlns="http://www.w3.org/2000/svg"
   xmlns:sodipodi="http://sodipodi.sourceforge.net/DTD/sodipodi-0.dtd"
   xmlns:inkscape="http://www.inkscape.org/namespaces/inkscape"
   fill="#7289da"
   height="512"
   width="512"
   version="1.1"
   id="svg4979"
   sodipodi:docname="linkedin.svg"
   inkscape:version="0.92.2 2405546, 2018-03-11">
  <metadata
     id="metadata4985">
    <rdf:RDF>
      <cc:Work
         rdf:about="">
        <dc:format>image/svg+xml</dc:format>
        <dc:type
           rdf:resource="http://purl.org/dc/dcmitype/StillImage" />
        <dc:title />
      </cc:Work>
    </rdf:RDF>
  </metadata>
  <defs
     id="defs4983" />
  <sodipodi:namedview
     pagecolor="#ffffff"
     bordercolor="#666666"
     borderopacity="1"
     objecttolerance="10"
     gridtolerance="10"
     guidetolerance="10"
     inkscape:pageopacity="0"
     inkscape:pageshadow="2"
     inkscape:window-width="1722"
     inkscape:window-height="908"
     id="namedview4981"
     showgrid="false"
     inkscape:zoom="1.3037281"
     inkscape:cx="0.36405874"
     inkscape:cy="219.68459"
     inkscape:window-x="210"
     inkscape:window-y="76"
     inkscape:window-maximized="0"
     inkscape:current-layer="svg4979" />
  <circle
     style="opacity:1;fill:#795548;fill-opacity:1;stroke:none;stroke-width:26.61774826;stroke-miterlimit:4;stroke-dasharray:none;stroke-opacity:1"
     id="path1460"
     cx="256"
     cy="256"
     r="256" />
  <path
     inkscape:connector-curvature="0"
     d="M 255.5,88 C 165.75938,88 93,160.75937 93,250.5 93,340.24063 165.75938,413 255.5,413 345.24062,413 418,340.24063 418,250.5 418,160.75937 345.24062,88 255.5,88 Z m -27.08333,216.66667 h -27.08334 v -81.25 h 27.08334 z M 214.875,211.35104 c -8.21979,0 -14.89583,-6.71667 -14.89583,-15.01771 0,-8.2875 6.6625,-15.0177 14.89583,-15.0177 8.23333,0 14.89583,6.7302 14.89583,15.0177 0,8.30104 -6.67604,15.01771 -14.89583,15.01771 z m 108.33333,93.31563 h -27.05625 v -38.74271 c 0,-25.47188 -27.11041,-23.31875 -27.11041,0 v 38.74271 h -27.08334 v -81.25 h 27.08334 v 14.80104 c 11.80833,-21.88333 54.16666,-23.50833 54.16666,20.9625 z"
     id="path2680"
     style="stroke-width:13.54166698;fill:#ffffff;fill-opacity:1" />
</svg>
