<?xml version="1.0" encoding="UTF-8" standalone="no"?>
<svg
   xmlns:dc="http://purl.org/dc/elements/1.1/"
   xmlns:cc="http://creativecommons.org/ns#"
   xmlns:rdf="http://www.w3.org/1999/02/22-rdf-syntax-ns#"
   xmlns:svg="http://www.w3.org/2000/svg"
   xmlns="http://www.w3.org/2000/svg"
   xmlns:sodipodi="http://sodipodi.sourceforge.net/DTD/sodipodi-0.dtd"
   xmlns:inkscape="http://www.inkscape.org/namespaces/inkscape"
   fill="#7289da"
   height="512"
   width="512"
   version="1.1"
   id="svg4979"
   sodipodi:docname="twitter-circle.svg"
   inkscape:version="0.92.2 2405546, 2018-03-11">
  <metadata
     id="metadata4985">
    <rdf:RDF>
      <cc:Work
         rdf:about="">
        <dc:format>image/svg+xml</dc:format>
        <dc:type
           rdf:resource="http://purl.org/dc/dcmitype/StillImage" />
        <dc:title></dc:title>
      </cc:Work>
    </rdf:RDF>
  </metadata>
  <defs
     id="defs4983" />
  <sodipodi:namedview
     pagecolor="#ffffff"
     bordercolor="#666666"
     borderopacity="1"
     objecttolerance="10"
     gridtolerance="10"
     guidetolerance="10"
     inkscape:pageopacity="0"
     inkscape:pageshadow="2"
     inkscape:window-width="1722"
     inkscape:window-height="908"
     id="namedview4981"
     showgrid="false"
     inkscape:zoom="1"
     inkscape:cx="305.44762"
     inkscape:cy="201.58052"
     inkscape:window-x="2148"
     inkscape:window-y="58"
     inkscape:window-maximized="0"
     inkscape:current-layer="svg4979" />
  <circle
     style="opacity:1;fill:#795548;fill-opacity:1;stroke:none;stroke-width:26.61774826;stroke-miterlimit:4;stroke-dasharray:none;stroke-opacity:1"
     id="path1460"
     cx="256"
     cy="256"
     r="256" />
  <path
     inkscape:connector-curvature="0"
     d="m 342.08571,250.65714 v 96.85714 H 283.97143 V 289.4 h -58.11429 v 58.11428 H 167.74285 V 250.65714 H 138.68571 L 254.91428,134.42857 371.14286,250.65714 Z M 332.4,193.44363 v -49.32935 h -29.05714 v 20.2722 z"
     id="path4520"
     inkscape:transform-center-x="-336.50939"
     inkscape:transform-center-y="-88.555104"
     style="fill:#795548;fill-opacity:1;stroke-width:9.68571472" />
  <path
     inkscape:connector-curvature="0"
     d="M 255.5,88 C 165.75938,88 93,160.75937 93,250.5 93,340.24063 165.75938,413 255.5,413 345.24062,413 418,340.24063 418,250.5 418,160.75937 345.24062,88 255.5,88 Z m 82.14375,130.60937 c 2.47813,54.70834 -38.32292,115.7 -110.55417,115.7 -21.96458,0 -42.39896,-6.44583 -59.61041,-17.48229 20.6375,2.4375 41.23437,-3.30416 57.57916,-16.10104 -17.00833,-0.31146 -31.37604,-11.56458 -36.34583,-27.01562 6.10729,1.16458 12.11979,0.82604 17.57708,-0.66355 -18.70104,-3.76458 -31.61979,-20.61041 -31.2,-38.63437 5.25417,2.91146 11.23959,4.65833 17.61771,4.86146 -17.31979,-11.57813 -22.22187,-34.45 -12.03854,-51.93229 19.175,23.53541 47.84271,39.01354 80.16667,40.63854 -5.67396,-24.32084 12.78333,-47.76146 37.90312,-47.76146 11.17188,0 21.2875,4.72604 28.38334,12.28229 8.85625,-1.73333 17.19791,-4.98333 24.7,-9.43854 -2.91146,9.08646 -9.07292,16.69687 -17.10313,21.51771 7.86771,-0.94792 15.36979,-3.03334 22.33021,-6.13438 -5.2,7.82709 -11.78125,14.67917 -19.40521,20.16354 z"
     id="path5786"
     style="stroke-width:13.54166698;fill:#ffffff;fill-opacity:1" />
</svg>
