<?xml version="1.0" encoding="UTF-8" standalone="no"?>
<svg
   xmlns:dc="http://purl.org/dc/elements/1.1/"
   xmlns:cc="http://creativecommons.org/ns#"
   xmlns:rdf="http://www.w3.org/1999/02/22-rdf-syntax-ns#"
   xmlns:svg="http://www.w3.org/2000/svg"
   xmlns="http://www.w3.org/2000/svg"
   xmlns:sodipodi="http://sodipodi.sourceforge.net/DTD/sodipodi-0.dtd"
   xmlns:inkscape="http://www.inkscape.org/namespaces/inkscape"
   fill="#7289da"
   height="512"
   width="512"
   version="1.1"
   id="svg4979"
   sodipodi:docname="xing.svg"
   inkscape:version="0.92.2 2405546, 2018-03-11">
  <metadata
     id="metadata4985">
    <rdf:RDF>
      <cc:Work
         rdf:about="">
        <dc:format>image/svg+xml</dc:format>
        <dc:type
           rdf:resource="http://purl.org/dc/dcmitype/StillImage" />
        <dc:title></dc:title>
      </cc:Work>
    </rdf:RDF>
  </metadata>
  <defs
     id="defs4983" />
  <sodipodi:namedview
     pagecolor="#ffffff"
     bordercolor="#666666"
     borderopacity="1"
     objecttolerance="10"
     gridtolerance="10"
     guidetolerance="10"
     inkscape:pageopacity="0"
     inkscape:pageshadow="2"
     inkscape:window-width="1722"
     inkscape:window-height="908"
     id="namedview4981"
     showgrid="false"
     inkscape:zoom="1.3710938"
     inkscape:cx="256"
     inkscape:cy="256"
     inkscape:window-x="2148"
     inkscape:window-y="58"
     inkscape:window-maximized="0"
     inkscape:current-layer="svg4979" />
  <circle
     style="opacity:1;fill:#795548;fill-opacity:1;stroke:none;stroke-width:26.61774826;stroke-miterlimit:4;stroke-dasharray:none;stroke-opacity:1"
     id="path1460"
     cx="256"
     cy="256"
     r="256" />
  <path
     inkscape:connector-curvature="0"
     d="m 342.08571,250.65714 v 96.85714 H 283.97143 V 289.4 h -58.11429 v 58.11428 H 167.74285 V 250.65714 H 138.68571 L 254.91428,134.42857 371.14286,250.65714 Z M 332.4,193.44363 v -49.32935 h -29.05714 v 20.2722 z"
     id="path4520"
     inkscape:transform-center-x="-336.50939"
     inkscape:transform-center-y="-88.555104"
     style="fill:#795548;fill-opacity:1;stroke-width:9.68571472" />
  <path
     inkscape:connector-curvature="0"
     d="M 255.5,88 C 165.75938,88 93,160.75937 93,250.5 93,340.24063 165.75938,413 255.5,413 345.24062,413 418,340.24063 418,250.5 418,160.75937 345.24062,88 255.5,88 Z m -80.04479,203.07083 32.5,-57.32187 -21.85625,-37.46979 h 39.01354 l 21.68021,37.36145 -32.51354,57.43021 z m 146.92708,54.22084 h -38.56667 l -42.04687,-76.36146 63.75417,-113.22188 h 38.95937 l -63.74062,113.22188 z"
     id="path5153"
     style="stroke-width:13.54166698;fill:#ffffff;fill-opacity:1" />
</svg>
