<?xml version="1.0" encoding="utf-8"?>
<!-- Generator: Adobe Illustrator 21.1.0, SVG Export Plug-In . SVG Version: 6.00 Build 0)  -->
<svg version="1.1"
	 id="svg4979" inkscape:version="0.92.2 2405546, 2018-03-11" sodipodi:docname="aiodex.svg" xmlns:cc="http://creativecommons.org/ns#" xmlns:dc="http://purl.org/dc/elements/1.1/" xmlns:inkscape="http://www.inkscape.org/namespaces/inkscape" xmlns:rdf="http://www.w3.org/1999/02/22-rdf-syntax-ns#" xmlns:sodipodi="http://sodipodi.sourceforge.net/DTD/sodipodi-0.dtd" xmlns:svg="http://www.w3.org/2000/svg"
	 xmlns="http://www.w3.org/2000/svg" xmlns:xlink="http://www.w3.org/1999/xlink" x="0px" y="0px" viewBox="0 0 512 512"
	 style="enable-background:new 0 0 512 512;" xml:space="preserve">
<style type="text/css">
	.st0{fill:#795548;}
	.st1{fill:#FDFFFF;}
</style>
<sodipodi:namedview  bordercolor="#666666" borderopacity="1" gridtolerance="10" guidetolerance="10" id="namedview4981" inkscape:current-layer="svg4979" inkscape:cx="-46.893391" inkscape:cy="148.85674" inkscape:pageopacity="0" inkscape:pageshadow="2" inkscape:window-height="908" inkscape:window-maximized="0" inkscape:window-width="1722" inkscape:window-x="104" inkscape:window-y="76" inkscape:zoom="0.68554688" objecttolerance="10" pagecolor="#ffffff" showgrid="false">
	</sodipodi:namedview>
<circle id="path817" class="st0" cx="256" cy="256" r="256"/>
<g>
	<path class="st1" d="M382.8,308.9c-17.1,0-34.2-0.1-51.3,0.1c-4.2,0.1-5.7-1-5.6-5.4c0.3-8.9-0.8-8,7.9-8c33.8,0,67.6,0,101.4-0.1
		c4.2,0,5.6,1.1,5.4,5.4c-0.4,9.1,0.9,8-8.2,8C415.9,309,399.3,309,382.8,308.9C382.8,308.9,382.8,308.9,382.8,308.9z"/>
	<path class="st1" d="M383.7,196.1c17.1,0,34.2,0.1,51.3-0.1c4.1,0,5.8,0.8,5.6,5.3c-0.4,9.1,0.9,8.1-8.2,8.1
		c-33.4,0-66.8,0-100.2-0.1c-6.2,0-6.2,0-6.2-6.2c0-1,0.1-2,0-2.9c-0.3-3.1,1.2-4.2,4.2-4.1c10,0.1,19.9,0,29.9,0
		C368,196.2,375.8,196.2,383.7,196.1C383.7,196.2,383.7,196.1,383.7,196.1z"/>
	<path class="st1" d="M384.1,192.6c-17.3,0-34.5,0-51.8,0c-1.3,0-3.1,0.7-3.8-0.9c-0.6-1.4,0.6-2.7,1.4-3.8c4.2-5.8,10.1-8.5,17-8.5
		c29.9-0.1,59.8-0.1,89.7-0.2c2.9,0,4,1,3.9,3.9c-0.2,11.3,1.2,9.3-9.3,9.4C415.5,192.7,399.8,192.6,384.1,192.6
		C384.1,192.6,384.1,192.6,384.1,192.6z"/>
	<path class="st1" d="M384,312.4c17.3,0,34.5,0.1,51.8-0.1c3.7,0,4.9,1,4.8,4.8c-0.3,9.1,0.8,7.9-7.9,7.9c-29,0-58.1,0-87.1,0
		c-6.9,0-12.2-2.6-15.9-8.4c-0.7-1-1.9-2.1-1.3-3.3c0.6-1.4,2.2-0.8,3.4-0.8c16.3,0,32.5,0,48.8,0
		C381.8,312.4,382.9,312.4,384,312.4z"/>
	<path class="st1" d="M194.1,196.8c1.7-0.9,3.6-0.6,5.4-0.6c37.6,0,75.2,0,112.8,0c6,0,6,0,6,5.9c0,1.1-0.1,2.3,0,3.4
		c0.3,3-1.1,3.9-3.9,3.9c-24.3-0.2-48.5,0.3-72.8-0.5c-1.1-1.2-0.9-2.4-0.3-3.8c2-4.8,1.2-5.9-4-6c-10-0.1-20.1,0-30.1,0
		c-2.9,0-5.9,0.1-8.8-0.1C196.7,198.8,194.9,198.8,194.1,196.8z"/>
	<path class="st1" d="M252.6,180c20.6-0.2,41.2-0.3,61.8-0.5c2.8,0,4,0.9,3.9,3.9c-0.2,10.9,1.2,9.2-9.1,9.2c-36.3,0.1-72.6,0-109,0
		c-2.1,0-4.2,0.4-6.2-0.6c1.3-2.5,3.8-2.1,5.9-2.1c12.1-0.1,24.3-0.2,36.4,0c5.5,0.1,9.9-1.2,12.7-6.2
		C250,182.1,251.5,181.2,252.6,180z"/>
	<path class="st1" d="M72.2,296.4c1.6-0.8,3.3-0.6,5-0.6c34.4,0,68.8,0,103.1,0c5.6,0,5.6,0,5.6,5.6c0,1-0.1,2,0,2.9
		c0.4,3.6-1.3,4.6-4.7,4.5c-15.1-0.2-30.3-0.2-45.5-0.3c-4.6,0-9.3-0.1-13.9-0.2c-1.1-1.5-0.9-3.1-0.4-4.8c1.1-3.8,0.3-4.8-3.6-5
		c-6.3-0.2-12.6,0-18.8-0.1c-7.1,0-14.2,0.1-21.4-0.1C75.7,298.3,73.4,298.9,72.2,296.4z"/>
	<path class="st1" d="M127.8,180.1c18.2-0.1,36.4-0.1,54.7-0.2c2.6,0,3.4,1.2,3.4,3.6c-0.1,10.7,0.9,9-8.4,9c-32.7,0.1-65.3,0-98,0
		c-1.8,0-3.7,0.4-5.3-0.6c1.9-2.1,4.5-2,7-2c10.5-0.1,20.9-0.2,31.4,0c4.9,0.1,8.8-1.2,11.2-5.7
		C124.7,182.4,126.2,181.2,127.8,180.1z"/>
	<path class="st1" d="M252.6,180c-0.3,4.3-3.6,7.2-5.5,10.7c-0.9,1.7-3,1.1-4.7,1.1c-16.1,0.1-32.2,0.1-48.3,0.1
		c-1.1-3.1-0.4-6.4-0.5-9.6c-0.1-2.5,1.8-2.5,3.5-2.5C215.6,179.9,234.1,179.9,252.6,180z"/>
	<path class="st1" d="M72.2,296.4c16.5,0,33,0,49.5,0c5.3,0,5.8,0.9,3.3,5.5c-1.2,2.1-2.1,4.3-3.1,6.4c-15.4,0-30.8,0-46.2,0.2
		c-3.1,0-4.4-1.3-4.2-4.2C71.7,301.6,70.9,298.9,72.2,296.4z"/>
	<path class="st1" d="M72.4,196.9c1.4-0.9,3-0.6,4.5-0.6c34.4,0,68.8,0,103.2,0c1.8,0,4.6-1,5.2,1.4c0.9,3.3,1,7-0.2,10.3
		c-0.4,1.2-2,0.9-3.1,0.9c-14.2,0-28.4-0.1-42.5-0.2c-1.4-1.2-1.1-2.7-0.6-4.2c1.3-4.5,0.6-5.4-4.2-5.4c-9.4-0.1-18.8-0.1-28.2,0.1
		c-1.1,0-2.2,0.1-3.3-0.3c-8.4,0.3-16.8,0.3-25.2,0.2C76,198.9,73.7,199.2,72.4,196.9z"/>
	<path class="st1" d="M194.1,196.8c16.1,0,32.2,0,48.3,0.1c5,0,5.3,0.5,3,4.9c-1.2,2.4-2.5,4.6-3.8,7c-14.8,0-29.7,0-44.5,0.1
		c-2.4,0-3.8-0.8-3.5-3.4C193.8,202.7,193,199.7,194.1,196.8z"/>
	<path class="st1" d="M127.8,180.1c-0.8,3.8-3.6,6.6-5.3,9.9c-1.1,2.1-3.3,1.8-5.2,1.8c-14.4,0-28.8,0-43.2,0
		c2.1-6.8,8.5-11.6,16.5-11.8C103,179.9,115.4,180.1,127.8,180.1z"/>
	<path class="st1" d="M156.5,324.9c-14.9,0-29.8,0-44.7,0c-0.5-0.5-1.1-1.2-0.8-1.8c1.9-3.9,3-8.4,7.5-10.3c13.5,0,27.1,0,40.6,0
		c4.3,0,4.9,1.1,2.9,5C160.7,320.5,159.4,323.4,156.5,324.9z"/>
	<path class="st1" d="M104.2,197c12.1,0,24.3-0.1,36.4-0.1c3.3,0,4.5,1,2.5,4.2c-1.4,2.4-2.8,4.8-3.5,7.6c-14,0-28.1,0-42.1,0
		c-1-3.1,1-8,4.3-10.1C102.6,198,103.5,197.7,104.2,197z"/>
	<path class="st1" d="M117.7,313.3c-0.7,4.5-4.1,7.7-5.9,11.6c-7,0-14,0.3-21,0c-8-0.3-13.9-4-16.8-11.7c2.9-0.9,5.8-0.4,8.7-0.4
		c10.3-0.1,20.7,0,31,0C115,312.8,116.4,312.4,117.7,313.3z"/>
	<path class="st1" d="M341.9,242.3c-4.2,0-8.4-0.1-12.6,0c-2.3,0-3.3-1-3.3-3.3c0.1-12-1.2-9.8,9.2-9.9c6.3-0.1,12.6,0.1,18.9-0.1
		c2.7,0,3.7,1,3.7,3.7c-0.1,11.5,1,9.3-9.2,9.5C346.4,242.4,344.1,242.4,341.9,242.3C341.9,242.3,341.9,242.3,341.9,242.3z"/>
	<path class="st1" d="M258.5,308.8c-4.1,0-8.1-0.1-12.2,0c-2.5,0.1-3.9-0.7-3.8-3.6c0.2-11.4-1.2-9.4,9.1-9.6c6-0.1,12,0.1,18-0.1
		c3.3-0.1,4.8,0.9,4.7,4.5c-0.3,10.2,0.9,8.6-8.7,8.8C263.2,308.9,260.9,308.8,258.5,308.8C258.5,308.8,258.5,308.8,258.5,308.8z"/>
	<path class="st1" d="M341.9,292.1c-3.9,0-7.8-0.1-11.8,0c-3,0.1-4.3-0.8-4.2-4c0.2-10.9-1.1-9.1,9-9.3c6.3-0.1,12.6,0.1,18.9-0.1
		c2.8-0.1,4.1,0.8,4,3.8c-0.2,11.3,1.2,9.3-9.2,9.5C346.4,292.1,344.2,292.1,341.9,292.1C341.9,292.1,341.9,292.1,341.9,292.1z"/>
	<path class="st1" d="M341.8,259.1c-4.2,0-8.4,0-12.6,0c-2.3,0-3.3-0.9-3.3-3.2c0.1-12.1-1.2-9.8,9.1-10c6.3-0.1,12.6,0.1,18.9-0.1
		c2.9-0.1,4,1,3.9,3.9c-0.2,11.1,1,9.2-8.9,9.4C346.6,259.2,344.2,259.1,341.8,259.1C341.8,259.1,341.8,259.1,341.8,259.1z"/>
	<path class="st1" d="M258.1,292.1c-3.9,0-7.9-0.1-11.8,0c-2.6,0.1-3.7-0.8-3.8-3.6c-0.4-9.5-0.5-9.5,9-9.6c6.3,0,12.6,0.1,18.9,0
		c2.9-0.1,4,1.1,3.9,3.9c-0.2,11.1,0.9,9-9.1,9.2C262.8,292.1,260.4,292.1,258.1,292.1z"/>
	<path class="st1" d="M258.1,259.1c-4.1,0-8.1-0.1-12.2,0c-2.5,0-3.5-1-3.4-3.5c0.1-11.4-1.2-9.4,9.1-9.6c5.9-0.1,11.8,0.1,17.6-0.1
		c3.6-0.1,5,1,5.1,4.7c0.2,8.5,0.4,8.5-8.2,8.5C263.4,259.1,260.7,259.1,258.1,259.1C258.1,259.1,258.1,259.1,258.1,259.1z"/>
	<path class="st1" d="M117.7,313.3c-14.6,0-29.2,0-43.8,0c1.3-1.2,2.9-0.8,4.4-0.8c34.1,0,68.3,0,102.4-0.1c4.1,0,5.7,1.2,5.2,5.3
		c-0.2,1.4-0.1,2.8,0,4.2c0.1,2.3-1,3.2-3.3,3.2c-8.7-0.1-17.4-0.1-26.1-0.2c1.2-2.7,2.2-5.5,3.8-7.9c2-3.2,0.8-3.8-2.3-3.8
		C144.6,313.3,131.1,313.2,117.7,313.3z"/>
	<path class="st1" d="M341.7,275.3c-3.9,0-7.8-0.1-11.7,0c-2.8,0.1-4.1-0.7-4-3.8c0.2-10.6-0.8-8.7,8.6-8.9
		c6.4-0.1,12.9,0.1,19.3-0.1c2.8-0.1,4.1,0.8,4,3.8c-0.1,10.7,0.7,8.7-8.6,8.9C346.8,275.3,344.3,275.3,341.7,275.3z"/>
	<path class="st1" d="M258.4,275.3c-4.2,0-8.4-0.1-12.6,0c-2.3,0-3.3-0.8-3.3-3.2c0-11.5-0.8-9.2,8.4-9.4c6.4-0.1,12.9,0.1,19.3-0.1
		c2.9-0.1,4,0.9,4,3.9c-0.1,10.7,0.5,8.5-8.3,8.8C263.5,275.3,260.9,275.3,258.4,275.3C258.4,275.3,258.4,275.3,258.4,275.3z"/>
	<path class="st1" d="M258.4,325c-4.2,0-8.4-0.1-12.6,0c-2.3,0-3.3-0.9-3.3-3.2c0-11.5-0.9-9.2,8.5-9.4c6.5-0.1,12.9,0.1,19.4-0.1
		c2.9-0.1,4,0.9,4,3.9c-0.1,10.7,0.5,8.5-8.3,8.7C263.5,325.1,260.9,325,258.4,325z"/>
	<path class="st1" d="M341.8,225.6c-4.1,0-8.1-0.1-12.2,0c-2.4,0.1-3.7-0.7-3.6-3.3c0.1-11.5-0.8-9.1,8.6-9.3
		c6.3-0.1,12.6,0.1,19-0.1c3-0.1,4.4,0.7,4.3,4c-0.2,10.4,0.6,8.5-8.4,8.7C346.9,225.6,344.4,225.6,341.8,225.6z"/>
	<path class="st1" d="M87.4,279.4c4.1,0,8.1,0,12.2,0c2,0,3.2,0.8,3.1,2.9c0,0.3,0,0.6,0,0.8c0,10.3,0.7,8.7-8.3,8.8
		c-6.2,0.1-12.4-0.1-18.5,0.1c-3.2,0.1-4.5-0.9-4.5-4.3c0.2-9.8-0.7-8.2,8.3-8.4C82.3,279.4,84.8,279.4,87.4,279.4
		C87.4,279.4,87.4,279.4,87.4,279.4z"/>
	<path class="st1" d="M258.1,229.5c4.1,0,8.1,0,12.2,0c2.4,0,3.4,1,3.6,3.5c0.7,9.2,0.7,9.3-8.6,9.3c-6.3,0-12.6-0.1-18.9,0
		c-2.8,0.1-4-0.9-4-3.9c0.2-10.3-0.9-8.8,8.5-8.9C253.4,229.5,255.8,229.5,258.1,229.5z"/>
	<path class="st1" d="M87,262.7c4.1,0,8.1,0.1,12.2,0c2.4-0.1,3.5,0.7,3.7,3.3c0.6,9.3,0.7,9.3-8.6,9.3c-6.3,0-12.6-0.1-18.9,0
		c-3,0.1-3.9-1.1-3.9-3.9c0.1-10.3-0.7-8.5,8.3-8.7C82.2,262.7,84.6,262.7,87,262.7z"/>
	<path class="st1" d="M87.4,225.5c-4.2,0-8.4-0.1-12.6,0c-2.3,0.1-3.1-0.9-3.3-3.2c-0.7-9.4-0.7-9.4,8.4-9.4c6.3,0,12.6,0.1,18.9,0
		c2.9-0.1,4,1,3.9,3.9c-0.1,10.5,0.7,8.5-8.3,8.7C92.1,225.6,89.8,225.5,87.4,225.5z"/>
	<path class="st1" d="M258,225.5c-4.1,0-8.1-0.1-12.2,0c-2.3,0-3.3-0.9-3.3-3.2c0-11.5-0.9-9.2,8.5-9.3c6.3-0.1,12.6,0.1,18.9-0.1
		c2.9-0.1,4,1,4,3.9c-0.1,10.5,0.5,8.5-8.4,8.7C263,225.6,260.5,225.6,258,225.5C258,225.6,258,225.5,258,225.5z"/>
	<path class="st1" d="M87.3,258.6c-3.9,0-7.8-0.1-11.8,0c-2.8,0.1-4-0.9-4-3.8c-0.2-8.8-0.4-8.8,8.4-8.8c6,0,12,0.2,18.1-0.1
		c3.5-0.1,5,0.9,4.9,4.7c-0.3,8.9,0.6,7.8-8,7.9C92.3,258.7,89.8,258.6,87.3,258.6z"/>
	<path class="st1" d="M87.3,229.7c4.1,0,8.1,0.1,12.2,0c2.3,0,3.1,1,3.3,3.3c0.7,9.3,0.7,9.3-8.6,9.3c-6.2,0-12.3-0.1-18.5,0
		c-3.1,0.1-4.2-1.2-4.1-4.2c0.1-10-0.6-8.2,8.2-8.4C82.3,229.6,84.8,229.7,87.3,229.7C87.3,229.7,87.3,229.7,87.3,229.7z"/>
	<path class="st1" d="M104.2,197c-2.2,3.9-4.5,7.8-6.7,11.6c-7.6,0-15.1,0.1-22.7,0.2c-2.3,0-3.4-0.9-3.2-3.2
		c0.2-2.9-0.6-5.9,0.9-8.7C83,197,93.6,197,104.2,197z"/>
</g>
</svg>
