<?xml version="1.0" encoding="utf-8"?>
<!-- Generator: Adobe Illustrator 23.0.2, SVG Export Plug-In . SVG Version: 6.00 Build 0)  -->
<svg version="1.1"
	 id="svg4979" xmlns:cc="http://creativecommons.org/ns#" xmlns:dc="http://purl.org/dc/elements/1.1/" xmlns:inkscape="http://www.inkscape.org/namespaces/inkscape" xmlns:rdf="http://www.w3.org/1999/02/22-rdf-syntax-ns#" xmlns:sodipodi="http://sodipodi.sourceforge.net/DTD/sodipodi-0.dtd" xmlns:svg="http://www.w3.org/2000/svg"
	 xmlns="http://www.w3.org/2000/svg" xmlns:xlink="http://www.w3.org/1999/xlink" x="0px" y="0px" viewBox="0 0 512 512"
	 style="enable-background:new 0 0 512 512;" xml:space="preserve">
<style type="text/css">
	.st0{fill:#795548;}
	.st1{fill:#FDFFFF;}
</style>
<sodipodi:namedview  bordercolor="#666666" borderopacity="1" gridtolerance="10" guidetolerance="10" id="namedview4981" inkscape:current-layer="svg4979" inkscape:cx="-46.893391" inkscape:cy="148.85674" inkscape:pageopacity="0" inkscape:pageshadow="2" inkscape:window-height="908" inkscape:window-maximized="0" inkscape:window-width="1722" inkscape:window-x="104" inkscape:window-y="76" inkscape:zoom="0.68554688" objecttolerance="10" pagecolor="#ffffff" showgrid="false">
	</sodipodi:namedview>
<circle id="path817" class="st0" cx="256" cy="256" r="256"/>
<g>
	<path class="st1" d="M375.7,257.6c-0.4-0.1-0.8-0.1-1.2-0.2c-0.6-4.9-1.2-9.8-1.8-14.7c-2-16.9-4-33.7-6-50.6
		c-0.5-3.9-2-5.8-6.5-5.7c-9,0.2-18.1,0.1-27.1-0.4c-4.5-0.3-6.7,1.1-8.5,5.3c-13.7,32.1-27.7,64-41.3,96
		c-2.4,5.6-6.1,8.7-11.8,10.2c-18.1,4.9-38.1-2.6-47.9-18.3c-10.2-16.3-8.6-37.8,3.9-51.5c13.7-15.1,33.9-19.2,51.6-10.4
		c4.5,2.2,9.6,6.9,13.3,6c4.6-1.1,8-6.9,11.9-10.7c10.6-10.3,10.7-10.6-1.8-18.7c-4.7-3.1-5.4-5.6-3.2-10.7
		c4.5-10.3,3.7-11.3-6.4-15.1c-4.7-1.8-6.6-0.1-7.9,4c-1.3,3.8-2.8,7.5-4.3,11.3c-0.9-0.2-1.9-0.4-2.8-0.7c0.3-2.4,0.2-4.9,0.9-7.1
		c4-11.5,4-11.3-8-13.1c-4.3-0.6-6.3,0.9-7.5,4.6c-1,3-1.6,6.3-3.3,8.8c-1.4,2-4,4.3-6.2,4.6c-31.7,4-53.2,21-65,50.5
		c-1.2,3-2,6.2-2.9,9.3c-11.1-0.2-21.6-0.4-32.1-0.4c-1.9,0-4.8,0.6-5.4,1.8c-4.2,8.3-8,16.8-12.3,26.3c15,0.2,28.6,0.4,42.1,0.6
		c0.5,12.7-8.7,26.6-19.9,30.5c-30.3,10.8-61.6-15.6-56.4-47.7c4.9-30.5,41.4-47.8,68.5-27.1c4.3,3.3,6.7,2.7,9.9-0.8
		c4-4.3,8.3-8.3,12.5-12.5c5.3-5.3,5.1-6.3-0.8-11.2c-12.6-10.7-27.6-14-43.5-16.2c-36.2-5-83.6,27.8-79.1,80.6
		c3.9,46.5,42.5,69.6,78.4,68.9c18.7-0.4,36.1-5.6,47.1-23c1.6-2.6,3.7-4.9,5.6-7.4c6.2,5.2,11.3,9.7,6.7,19
		c-4.7,9.4-3.7,9.7,5.5,14.9c4,2.3,6.2,1.4,7.4-2.9c0.7-2.4,1.5-4.9,2.7-7c0.8-1.3,2.4-2.2,3.7-3.3c0.4,1.8,1.4,3.6,1.1,5.3
		c-0.6,3.1-2.3,5.9-2.9,8.9c-0.3,1.6,0.5,4.3,1.7,5.1c8.1,5.4,12.5,3.8,15.8-5.2c0.4-1.2,1-2.3,1.3-3.6c0.9-3.6,2.7-4,6.5-3.6
		c21.7,2.6,41.2-2.8,58.1-16.9c1.9-1.5,3.4-3.7,4.4-5.9c8.3-18.8,16.5-37.7,24.7-56.5c0.5-1.1,1.4-2,2.5-3.6
		c2.9,22.5,5.9,44.1,8.4,65.7c0.5,4.6,2.5,5.4,6.5,5.4c9,0,18.1,0,27.1,0.4c4,0.2,5.9-1.1,7.5-4.8c17.4-40,35-80,52.4-120
		c2.4-5.5,1.6-6.7-4.3-6.9c-8.6-0.2-17.2,0.1-25.8-0.2c-4-0.2-6,0.9-7.6,4.7c-6.1,14.7-12.6,29.3-18.9,43.9
		C382,243.1,378.9,250.4,375.7,257.6z M260.1,274.2c11.1,0.2,20-8.5,20.2-19.7c0.1-10.7-8.5-19.5-19.4-19.9
		c-10.6-0.3-19.8,8.4-20.2,19C240.4,264.7,249.1,274,260.1,274.2z"/>
</g>
</svg>
