<?xml version="1.0" encoding="utf-8"?>
<!-- Generator: Adobe Illustrator 21.1.0, SVG Export Plug-In . SVG Version: 6.00 Build 0)  -->
<svg version="1.1"
	 id="svg4979" inkscape:version="0.92.2 2405546, 2018-03-11" sodipodi:docname="aiodex.svg" xmlns:cc="http://creativecommons.org/ns#" xmlns:dc="http://purl.org/dc/elements/1.1/" xmlns:inkscape="http://www.inkscape.org/namespaces/inkscape" xmlns:rdf="http://www.w3.org/1999/02/22-rdf-syntax-ns#" xmlns:sodipodi="http://sodipodi.sourceforge.net/DTD/sodipodi-0.dtd" xmlns:svg="http://www.w3.org/2000/svg"
	 xmlns="http://www.w3.org/2000/svg" xmlns:xlink="http://www.w3.org/1999/xlink" x="0px" y="0px" viewBox="0 0 512 512"
	 style="enable-background:new 0 0 512 512;" xml:space="preserve">
<style type="text/css">
	.st0{fill:#795548;}
	.st1{fill:#FFFFFF;}
</style>
<sodipodi:namedview  bordercolor="#666666" borderopacity="1" gridtolerance="10" guidetolerance="10" id="namedview4981" inkscape:current-layer="svg4979" inkscape:cx="-46.893391" inkscape:cy="148.85674" inkscape:pageopacity="0" inkscape:pageshadow="2" inkscape:window-height="908" inkscape:window-maximized="0" inkscape:window-width="1722" inkscape:window-x="104" inkscape:window-y="76" inkscape:zoom="0.68554688" objecttolerance="10" pagecolor="#ffffff" showgrid="false">
	</sodipodi:namedview>
<circle id="path817" class="st0" cx="256" cy="256" r="256"/>
<g id="Monogram">
	<path id="Shape" class="st1" d="M122.6,173.5c0.4-4.3-1.2-8.6-4.4-11.5l-32.8-39.5v-5.9h101.8l78.7,172.5L335,116.7h97v5.9
		l-28,26.9c-2.4,1.8-3.6,4.9-3.1,7.9v197.4c-0.5,3,0.7,6,3.1,7.9l27.4,26.9v5.9H293.7v-5.9l28.3-27.5c2.8-2.8,2.8-3.6,2.8-7.9V194.5
		L246,394.7h-10.7l-91.8-200.2v134.2c-0.8,5.6,1.1,11.3,5.1,15.4l36.9,44.7v5.9H81v-5.9l36.9-44.7c3.9-4.1,5.7-9.8,4.8-15.4V173.5z"
		/>
</g>
</svg>
