<?xml version="1.0" encoding="UTF-8" standalone="no"?>
<svg
   xmlns:dc="http://purl.org/dc/elements/1.1/"
   xmlns:cc="http://creativecommons.org/ns#"
   xmlns:rdf="http://www.w3.org/1999/02/22-rdf-syntax-ns#"
   xmlns:svg="http://www.w3.org/2000/svg"
   xmlns="http://www.w3.org/2000/svg"
   xmlns:sodipodi="http://sodipodi.sourceforge.net/DTD/sodipodi-0.dtd"
   xmlns:inkscape="http://www.inkscape.org/namespaces/inkscape"
   fill="#7289da"
   height="512"
   width="512"
   version="1.1"
   id="svg4979"
   sodipodi:docname="github.svg"
   inkscape:version="0.92.2 2405546, 2018-03-11">
  <metadata
     id="metadata4985">
    <rdf:RDF>
      <cc:Work
         rdf:about="">
        <dc:format>image/svg+xml</dc:format>
        <dc:type
           rdf:resource="http://purl.org/dc/dcmitype/StillImage" />
        <dc:title />
      </cc:Work>
    </rdf:RDF>
  </metadata>
  <defs
     id="defs4983">
    <style
       id="style1516">
      .cls-1, .cls-5, .cls-6 {
        fill: none;
        stroke-linecap: round;
      }

      .cls-1, .cls-5 {
        stroke: #183c87;
      }

      .cls-1 {
        stroke-width: 75px;
      }

      .cls-2, .cls-3 {
        fill: #183c87;
      }

      .cls-2, .cls-5, .cls-6 {
        fill-rule: evenodd;
      }

      .cls-4 {
        fill: #fff;
      }

      .cls-5 {
        stroke-width: 101px;
      }

      .cls-6 {
        stroke: #fff;
        stroke-width: 56px;
      }
    </style>
    <style
       id="style1621">.cls-1{fill:#221e1b;fill-rule:evenodd;}</style>
  </defs>
  <sodipodi:namedview
     pagecolor="#ffffff"
     bordercolor="#666666"
     borderopacity="1"
     objecttolerance="10"
     gridtolerance="10"
     guidetolerance="10"
     inkscape:pageopacity="0"
     inkscape:pageshadow="2"
     inkscape:window-width="1722"
     inkscape:window-height="908"
     id="namedview4981"
     showgrid="false"
     inkscape:zoom="0.68554688"
     inkscape:cx="215.92251"
     inkscape:cy="165.50819"
     inkscape:window-x="1985"
     inkscape:window-y="130"
     inkscape:window-maximized="0"
     inkscape:current-layer="svg4979" />
  <circle
     style="opacity:1;fill:#795548;fill-opacity:1;stroke:none;stroke-width:25.67475319;stroke-miterlimit:4;stroke-dasharray:none;stroke-opacity:1"
     id="path817"
     cx="256"
     cy="255.99998"
     r="256" />
  <path
     id="path1627"
     d="M 255.62716,52.000941 A 199.76824,205.0383 0 0 0 192.51855,451.52909 c 9.98841,1.86399 13.62056,-4.23634 13.62056,-9.87066 0,-5.63431 0,-17.75022 -0.28892,-34.86498 -55.55536,12.37009 -67.27732,-27.49375 -67.27732,-27.49375 -9.08037,-23.68108 -22.16436,-29.99321 -22.16436,-29.99321 -18.119483,-12.70899 1.36207,-12.45482 1.36207,-12.45482 20.05936,1.44035 30.58435,21.18165 30.58435,21.18165 17.83053,31.30647 46.76391,22.28308 58.15566,16.94531 a 42.719034,43.846 0 0 1 12.67124,-27.40904 c -44.36999,-5.16832 -90.80373,-22.7491 -90.80373,-101.333 a 77.059358,79.092252 0 0 1 20.6372,-55.07226 c -2.06371,-5.21068 -8.91527,-26.05342 1.93992,-54.26737 0,0 16.79868,-5.50723 54.93624,21.18165 a 189.20197,194.19329 0 0 1 100.00796,0 c 38.13757,-26.51942 54.85371,-21.18165 54.85371,-21.18165 10.89645,28.21395 4.12744,49.05669 1.98117,54.26737 a 76.89426,78.922799 0 0 1 20.63722,55.07226 c 0,78.75335 -46.72266,96.07995 -91.21649,101.16354 7.18176,6.3545 13.57929,18.85165 13.57929,38.12696 0,27.40903 -0.24765,49.52268 -0.24765,56.25844 0,5.46486 3.59089,11.86172 13.74438,9.82827 A 199.76824,205.0383 0 0 0 255.62716,52.000941 Z"
     class="cls-1"
     inkscape:connector-curvature="0"
     style="fill:#ffffff;fill-opacity:1;fill-rule:evenodd;stroke:none;stroke-width:4.18153143" />
</svg>
