<?xml version="1.0" encoding="UTF-8" standalone="no"?>
<svg
   xmlns:dc="http://purl.org/dc/elements/1.1/"
   xmlns:cc="http://creativecommons.org/ns#"
   xmlns:rdf="http://www.w3.org/1999/02/22-rdf-syntax-ns#"
   xmlns:svg="http://www.w3.org/2000/svg"
   xmlns="http://www.w3.org/2000/svg"
   xmlns:sodipodi="http://sodipodi.sourceforge.net/DTD/sodipodi-0.dtd"
   xmlns:inkscape="http://www.inkscape.org/namespaces/inkscape"
   fill="#7289da"
   height="512"
   width="512"
   version="1.1"
   id="svg4979"
   sodipodi:docname="github.svg"
   inkscape:version="0.92.2 2405546, 2018-03-11">
  <metadata
     id="metadata4985">
    <rdf:RDF>
      <cc:Work
         rdf:about="">
        <dc:format>image/svg+xml</dc:format>
        <dc:type
           rdf:resource="http://purl.org/dc/dcmitype/StillImage" />
        <dc:title></dc:title>
      </cc:Work>
    </rdf:RDF>
  </metadata>
  <defs
     id="defs4983">
    <style
       id="style1516">
      .cls-1, .cls-5, .cls-6 {
        fill: none;
        stroke-linecap: round;
      }

      .cls-1, .cls-5 {
        stroke: #183c87;
      }

      .cls-1 {
        stroke-width: 75px;
      }

      .cls-2, .cls-3 {
        fill: #183c87;
      }

      .cls-2, .cls-5, .cls-6 {
        fill-rule: evenodd;
      }

      .cls-4 {
        fill: #fff;
      }

      .cls-5 {
        stroke-width: 101px;
      }

      .cls-6 {
        stroke: #fff;
        stroke-width: 56px;
      }
    </style>
    <style
       id="style1621">.cls-1{fill:#221e1b;fill-rule:evenodd;}</style>
  </defs>
  <sodipodi:namedview
     pagecolor="#ffffff"
     bordercolor="#666666"
     borderopacity="1"
     objecttolerance="10"
     gridtolerance="10"
     guidetolerance="10"
     inkscape:pageopacity="0"
     inkscape:pageshadow="2"
     inkscape:window-width="1722"
     inkscape:window-height="908"
     id="namedview4981"
     showgrid="false"
     inkscape:zoom="0.65186405"
     inkscape:cx="205.57718"
     inkscape:cy="295.86505"
     inkscape:window-x="1985"
     inkscape:window-y="130"
     inkscape:window-maximized="0"
     inkscape:current-layer="svg4979" />
  <rect
     width="512"
     height="512"
     rx="15%"
     id="rect4971"
     style="fill:#795548;fill-opacity:1" />
  <path
     id="path1627"
     d="M 255.79287,59.937471 A 199.47148,199.47148 0 0 0 192.77801,448.61837 c 9.97357,1.81338 13.60033,-4.12132 13.60033,-9.60266 0,-5.48134 0,-17.2683 -0.28849,-33.91839 -55.47284,12.03423 -67.17738,-26.7473 -67.17738,-26.7473 -9.06688,-23.03814 -22.13144,-29.17889 -22.13144,-29.17889 -18.09256,-12.36394 1.36005,-12.11666 1.36005,-12.11666 20.02956,1.40124 30.53892,20.60656 30.53892,20.60656 17.80404,30.45649 46.69444,21.67809 58.06927,16.48524 a 42.655575,42.655575 0 0 1 12.65241,-26.66488 c -44.30408,-5.028 -90.66884,-22.13146 -90.66884,-98.58179 a 76.944886,76.944886 0 0 1 20.60655,-53.57705 c -2.06065,-5.06921 -8.90203,-25.34606 1.93703,-52.794 0,0 16.77373,-5.3577 54.85464,20.60657 a 188.92091,188.92091 0 0 1 99.85939,0 c 38.08092,-25.79942 54.77223,-20.60657 54.77223,-20.60657 10.88026,27.44794 4.12131,47.72479 1.97823,52.794 a 76.780033,76.780033 0 0 1 20.60656,53.57705 c 0,76.61518 -46.65325,93.47136 -91.08099,98.41693 7.17109,6.18197 13.55912,18.33983 13.55912,37.09181 0,26.66487 -0.24728,48.17813 -0.24728,54.73101 0,5.31649 3.58555,11.53968 13.72396,9.56144 A 199.47148,199.47148 0 0 0 255.79287,59.937471 Z"
     class="cls-1"
     inkscape:connector-curvature="0"
     style="fill:#ffffff;fill-opacity:1;fill-rule:evenodd;stroke:none;stroke-width:4.12131166" />
</svg>
