<?xml version="1.0" encoding="utf-8"?>
<!-- Generator: Adobe Illustrator 23.0.2, SVG Export Plug-In . SVG Version: 6.00 Build 0)  -->
<svg version="1.1"
	 id="svg4979" inkscape:version="0.92.2 2405546, 2018-03-11" sodipodi:docname="gremlinsmarketing.svg" xmlns:cc="http://creativecommons.org/ns#" xmlns:dc="http://purl.org/dc/elements/1.1/" xmlns:inkscape="http://www.inkscape.org/namespaces/inkscape" xmlns:rdf="http://www.w3.org/1999/02/22-rdf-syntax-ns#" xmlns:sodipodi="http://sodipodi.sourceforge.net/DTD/sodipodi-0.dtd" xmlns:svg="http://www.w3.org/2000/svg"
	 xmlns="http://www.w3.org/2000/svg" xmlns:xlink="http://www.w3.org/1999/xlink" x="0px" y="0px" viewBox="0 0 512 512"
	 style="enable-background:new 0 0 512 512;" xml:space="preserve">
<style type="text/css">
	.st0{fill:#795548;}
	.st1{fill:#FFFFFF;}
</style>
<sodipodi:namedview  bordercolor="#666666" borderopacity="1" gridtolerance="10" guidetolerance="10" id="namedview4981" inkscape:current-layer="svg4979" inkscape:cx="157.32324" inkscape:cy="449.64054" inkscape:pageopacity="0" inkscape:pageshadow="2" inkscape:window-height="908" inkscape:window-maximized="0" inkscape:window-width="1722" inkscape:window-x="104" inkscape:window-y="76" inkscape:zoom="0.48475485" objecttolerance="10" pagecolor="#ffffff" showgrid="false">
	</sodipodi:namedview>
<circle id="path817" class="st0" cx="256" cy="256" r="256"/>
<g>
	<path class="st1" d="M344.3,368.9c0-0.9,0-1.2-0.1-1.5c-4.8-13.5-13.9-19.6-28.5-16.7c-16.9,3.4-26.7-3.7-34.7-19.1
		c-15.8-30.6-34.1-59.8-51.2-89.7c-1.4-2.4-2.8-6.3-1.8-8.2c8.9-16.2,18.4-32.1,28.6-49.8c14.3,24.4,27.7,47.4,41.2,70.4
		c8.1-7.9,7.5-14.7,2-23.6c-14.7-23.8-28.2-48.4-43.2-74.2c-12.9,22.2-25.2,43.3-38.3,65.7c-8.1-13.8-15.4-26.1-22.4-38.5
		c-0.8-1.5-0.6-4.3,0.3-5.9c19.7-34.3,39.7-68.5,60.6-104.5c24.3,43.6,47.7,85.6,71.9,129c5.7-9.9,10.9-18.3,15.4-27.1
		c1-1.8,0.2-5.1-0.8-7.3c-5.3-11.3-4.1-21.6,4-29.4c7.7-7.5,18.7-9.1,27.8-4.2c9.5,5.1,14.5,14.9,12.8,25.1
		c-1.7,10.6-10.2,18.2-21.8,20.5c-2.8,0.5-6.2,2.5-7.6,4.8c-16,27-31.8,54.2-47.2,81.5c-1.6,2.9-1.6,8.4,0,11.3
		c15.4,27.4,31.2,54.5,47.2,81.5c1.7,2.9,4.8,5.4,7.8,6.9c11.2,5.3,17,13.8,16.2,25c-0.7,9.9-8.8,19.3-18.5,21.4
		c-10.2,2.2-20.5-2.2-26.1-11c-5.9-9.5-4.7-19.9,3.4-29.4C342.7,370.9,343.6,369.8,344.3,368.9z M370,388.6
		c-0.9-6.7-4.7-10.6-11.3-10.8c-6.3-0.2-11.6,5.8-10.9,11.9c0.8,6.8,5.3,10.4,11.7,10.1C366.1,399.6,369.6,395.2,370,388.6z
		 M364.6,166.8c6.5-1,10.7-4.5,10.4-11.3c-0.3-6.5-4-10.8-11-10.7c-7,0.1-10.6,4.7-10.6,11.1C353.6,162.5,357.9,166.2,364.6,166.8z"
		/>
	<path class="st1" d="M200.2,254.2c-10.9,18.8-21.6,37.2-32.3,55.6c-6.7,11.6-13.2,23.3-20.3,34.7c-1.7,2.7-5.2,5.9-7.9,6
		c-13.6,0.6-27.3,0.3-42.9,0.3c2.2-4.2,3.5-7,5.1-9.7c23.5-40.6,46.9-81.3,70.7-121.7c3.3-5.7,4.2-10.2-0.1-15.5
		c-2.3-2.8-4-6.1-5.7-9.3c-4.3-8-8.3-14.6-19-16.9c-13.8-3-19.5-19-13.8-31.7c5.5-12.3,20.4-17.8,32.3-11.9
		c12.7,6.2,17.8,21.2,10.5,33.2c-2.7,4.5-2.2,7.3,0.2,11.3c35.1,60.3,70,120.7,104.8,181.2c2.6,4.5,5.4,6.9,11.1,7.6
		c14.1,1.7,23.2,16.3,19.7,29.7c-3.4,13.2-17.9,21.1-30.9,16.8c-13.5-4.4-21-19.8-14.3-32.4c3.4-6.4,2-10.6-1.3-15.7
		c-2-3.1-3.3-6.8-5.8-9.2c-2.7-2.6-6.6-5.4-10-5.5c-21.3-0.5-42.7,0.2-64-0.5c-8.5-0.3-10.2,5.7-12.5,10.9c-1.2,2.6-0.2,7.2,1.4,10
		c7.4,12.6,3.4,27.6-9.6,34.4c-12.2,6.3-27.4,0.9-33-11.8c-5.6-12.7,0.4-27.8,14-31.9c7-2.1,10.4-6.3,13.6-11.9
		c14-24.6,27.8-49.4,42.7-73.5C208.3,268.2,208.2,261.9,200.2,254.2z M155.9,144.7c-6.9,0.5-10.8,4.6-10.8,11.1
		c0,6.6,4.3,10.8,11,10.9c6.8,0,10.9-4.4,10.8-11C166.7,149.2,162.9,145,155.9,144.7z M300.3,390.7c-0.5-6.2-4-10.6-10.8-10.8
		c-6.7-0.2-11,3.8-11.3,10.6c-0.3,7,4,11.1,10.5,11.3C295.5,402.2,299.4,398.1,300.3,390.7z M154.8,373.4
		c-6.6,0.6-10.6,4.1-11.1,10.8c-0.4,6.2,5.3,11.9,11.5,11.4c6.7-0.5,10.6-4.6,10.5-11.3C165.6,377.5,161.6,373.9,154.8,373.4z"/>
	<path class="st1" d="M342.7,227.4c23.2,41.7,45.3,81.4,68.5,123.2c-14.7,0-27.3,0.2-39.9-0.2c-1.9-0.1-4.2-3.2-5.5-5.4
		c-14.3-24.4-28.6-48.9-42.6-73.6c-1.3-2.3-2.3-6.2-1.3-8.2C328.2,251.8,335,240.7,342.7,227.4z"/>
</g>
</svg>
