<?xml version="1.0" encoding="UTF-8" standalone="no"?>
<svg
   xmlns:dc="http://purl.org/dc/elements/1.1/"
   xmlns:cc="http://creativecommons.org/ns#"
   xmlns:rdf="http://www.w3.org/1999/02/22-rdf-syntax-ns#"
   xmlns:svg="http://www.w3.org/2000/svg"
   xmlns="http://www.w3.org/2000/svg"
   xmlns:sodipodi="http://sodipodi.sourceforge.net/DTD/sodipodi-0.dtd"
   xmlns:inkscape="http://www.inkscape.org/namespaces/inkscape"
   fill="#7289da"
   height="512"
   width="512"
   version="1.1"
   id="svg4979"
   sodipodi:docname="beam.svg"
   inkscape:version="0.92.2 2405546, 2018-03-11">
  <metadata
     id="metadata4985">
    <rdf:RDF>
      <cc:Work
         rdf:about="">
        <dc:format>image/svg+xml</dc:format>
        <dc:type
           rdf:resource="http://purl.org/dc/dcmitype/StillImage" />
        <dc:title></dc:title>
      </cc:Work>
    </rdf:RDF>
  </metadata>
  <defs
     id="defs4983" />
  <sodipodi:namedview
     pagecolor="#ffffff"
     bordercolor="#666666"
     borderopacity="1"
     objecttolerance="10"
     gridtolerance="10"
     guidetolerance="10"
     inkscape:pageopacity="0"
     inkscape:pageshadow="2"
     inkscape:window-width="1920"
     inkscape:window-height="1054"
     id="namedview4981"
     showgrid="true"
     inkscape:zoom="1.4142136"
     inkscape:cx="289.29828"
     inkscape:cy="216.49482"
     inkscape:window-x="1920"
     inkscape:window-y="0"
     inkscape:window-maximized="1"
     inkscape:current-layer="g5825">
    <inkscape:grid
       type="xygrid"
       id="grid26552"
       empspacing="2"
       dotted="false" />
  </sodipodi:namedview>
  <g
     id="g5825">
    <rect
       style="fill:#795548;fill-opacity:1"
       id="rect4971"
       rx="15.000001%"
       height="512"
       width="512"
       x="0"
       y="0" />
    <path
       style="fill:#f5ffff;fill-opacity:1;stroke-width:1.80362928"
       d="m 137.17512,448.53196 c -15.30238,-7.62552 -23.74236,-16.04329 -25.08894,-25.02293 -0.64186,-4.28007 -0.35565,-10.72079 0.63624,-14.31271 0.99176,-3.59193 13.03652,-22.00506 26.76607,-40.91804 13.72957,-18.91296 25.1975,-35.06644 25.48422,-35.8966 0.28689,-0.83019 -1.91985,-1.9977 -4.90361,-2.59442 -8.25421,-1.65088 -12.07209,-6.76699 -17.29614,-23.17747 -4.9779,-15.63742 -5.14496,-26.41236 -0.52417,-33.81129 1.22437,-1.9606 1.85108,-3.91212 1.39263,-4.33678 -0.45824,-0.4244 -20.26852,-7.07648 -44.02237,-14.7817 -27.697267,-8.98443 -44.575674,-15.39645 -47.055278,-17.87604 -6.755207,-6.75521 -6.967702,-16.75606 -0.767389,-36.11215 4.791512,-14.95807 6.241855,-17.57051 11.169649,-20.11876 8.848724,-4.57586 21.529468,-2.23751 64.299278,11.8569 21.21146,6.99002 39.32496,12.70915 40.25226,12.70915 0.92729,0 1.18347,-1.58336 0.56921,-3.5186 -0.61418,-1.93523 -0.22771,-6.8211 0.85944,-10.85751 1.52288,-5.65549 4.28913,-9.15432 12.05958,-15.25306 11.66569,-9.15601 22.37604,-12.7551 32.74436,-11.00338 l 7.25145,1.22512 0.58296,-48.38326 c 0.65647,-54.48347 1.12844,-56.531265 13.84472,-60.063279 10.00946,-2.780238 33.42791,-2.260792 41.37164,0.917653 C 287.34861,61.423127 288,64.975263 288,118.27364 v 46.44519 l 9.58167,-1.19716 c 11.29073,-1.41066 18.55095,1.09621 31.42368,10.85041 9.63453,7.30042 12.90277,13.07372 13.02221,23.00344 0.0451,3.71999 0.56379,6.7636 1.15353,6.7636 0.58972,0 20.27183,-6.16103 43.738,-13.69117 44.98917,-14.43671 52.52772,-15.55789 62.16185,-9.24541 5.81046,3.80718 14.6568,31.44159 13.30099,41.54993 -1.87408,13.97243 -3.64898,15.02209 -51.85879,30.66976 -24.23588,7.86629 -44.32802,14.52963 -44.6492,14.80735 -0.32126,0.27785 0.76108,3.10578 2.40488,6.28456 5.09106,9.845 3.01797,23.92549 -7.22885,49.0989 -0.70296,1.72698 -4.44064,4.08742 -8.30593,5.24553 -3.86536,1.15803 -7.02791,2.81856 -7.02791,3.69 0,0.87142 7.55373,11.90294 16.78605,24.51442 28.64479,39.12922 33.27301,46.14969 35.29241,53.53482 3.83411,14.0214 -2.79243,25.68941 -20.51494,36.12262 -10.49508,6.17846 -19.38203,7.34901 -28.48494,3.75184 -6.38005,-2.52121 -9.87476,-6.21537 -21.95805,-23.21164 -7.90374,-11.11729 -19.99747,-27.8317 -26.87499,-37.14311 l -12.50455,-16.92987 -2.45886,4.69287 c -4.46872,8.52893 -29.47914,12.95846 -46.49401,8.23454 -3.91072,-1.08574 -9.2559,-4.27084 -11.87813,-7.07797 l -4.76767,-5.10379 -27.38586,37.67458 c -24.5261,33.74049 -28.08848,37.86974 -34.11442,39.54328 -9.87886,2.7436 -13.16665,2.37212 -23.183,-2.6192 z m 63.90975,-87.0241 40.92252,-56.36133 0.49657,27.95416 0.49656,27.95417 h 11.63201 11.632 l 0.49655,-27.88602 0.49656,-27.88596 26.15264,36.16563 c 14.38394,19.89111 33.59687,46.44046 42.69545,58.99858 9.09852,12.55816 17.10872,22.77201 17.8004,22.69743 1.99588,-0.21531 16.97662,-10.57028 17.02051,-11.76513 0.0225,-0.5934 -19.37338,-27.78158 -43.10048,-60.41819 -23.72713,-32.63667 -42.96492,-59.51464 -42.75069,-59.72887 0.21418,-0.21419 11.60647,3.28389 25.31603,7.77363 13.7096,4.48975 25.86263,7.80391 27.00675,7.3649 1.14412,-0.43907 3.42278,-4.99645 5.06363,-10.12756 3.5039,-10.95698 6.58809,-8.76523 -27.09586,-19.25565 -12.07569,-3.76078 -21.95574,-7.29049 -21.95574,-7.8437 0,-0.55348 31.24786,-11.09577 69.43972,-23.4278 38.19184,-12.33203 69.43973,-22.80519 69.43973,-23.27368 0,-3.82628 -6.48298,-20.09841 -7.99482,-20.06697 -1.05884,0.0225 -32.72482,10.14227 -70.36877,22.48941 -37.64399,12.34713 -68.62498,22.26795 -68.8466,22.04627 -0.22152,-0.22151 6.81203,-10.13893 15.63041,-22.03843 8.8184,-11.89951 15.82838,-22.32758 15.57777,-23.17355 -0.25081,-0.84595 -4.14862,-4.27348 -8.6622,-7.61677 l -8.20645,-6.07874 -16.08072,22.31033 -16.08071,22.31033 -0.9018,-73.3115 -0.90182,-73.311495 h -10.82178 -10.82182 l -0.90182,73.948855 -0.90181,73.94879 -3.93974,-6.31269 c -2.16685,-3.472 -9.5101,-13.74151 -16.31829,-22.82116 l -12.3786,-16.50845 -8.48156,6.15511 c -4.66492,3.3853 -8.46083,6.75595 -8.4354,7.4903 0.0225,0.73437 7.25188,11.0748 16.05884,22.97876 8.80695,11.90394 15.86303,21.80372 15.68019,21.99948 -0.18263,0.19558 -15.32274,-4.50491 -33.64422,-10.44595 -84.8992,-27.53003 -106.655324,-34.39701 -107.146911,-33.81917 -1.164527,1.36895 -6.751091,19.83175 -6.159232,20.35542 0.348903,0.30887 31.679623,10.60358 69.623473,22.87724 37.94385,12.27357 68.98882,22.76259 68.98882,23.30879 0,0.54618 -9.88005,4.07019 -21.95575,7.83097 -33.4598,10.42058 -30.50529,8.42762 -27.46583,18.52705 1.42504,4.73509 3.3069,9.32511 4.18183,10.20008 1.26845,1.26841 36.28715,-8.49137 51.72938,-14.41713 2.66475,-1.02254 -17.0558,27.13086 -61.4966,87.79351 -9.08404,12.39995 -17.9336,24.72606 -19.66559,27.39143 l -3.14908,4.84607 8.70003,6.36433 c 8.02682,5.87194 8.88298,6.12495 11.06459,3.27026 1.30047,-1.70172 20.77967,-28.45663 43.2871,-59.45539 z"
       id="path29634"
       inkscape:connector-curvature="0" />
  </g>
</svg>
