<?xml version="1.0" encoding="UTF-8" standalone="no"?>
<svg
   xmlns:dc="http://purl.org/dc/elements/1.1/"
   xmlns:cc="http://creativecommons.org/ns#"
   xmlns:rdf="http://www.w3.org/1999/02/22-rdf-syntax-ns#"
   xmlns:svg="http://www.w3.org/2000/svg"
   xmlns="http://www.w3.org/2000/svg"
   xmlns:sodipodi="http://sodipodi.sourceforge.net/DTD/sodipodi-0.dtd"
   xmlns:inkscape="http://www.inkscape.org/namespaces/inkscape"
   fill="#7289da"
   height="512"
   width="512"
   version="1.1"
   id="svg4979"
   sodipodi:docname="beam.svg"
   inkscape:version="0.92.2 2405546, 2018-03-11">
  <metadata
     id="metadata4985">
    <rdf:RDF>
      <cc:Work
         rdf:about="">
        <dc:format>image/svg+xml</dc:format>
        <dc:type
           rdf:resource="http://purl.org/dc/dcmitype/StillImage" />
        <dc:title />
      </cc:Work>
    </rdf:RDF>
  </metadata>
  <defs
     id="defs4983" />
  <sodipodi:namedview
     pagecolor="#ffffff"
     bordercolor="#666666"
     borderopacity="1"
     objecttolerance="10"
     gridtolerance="10"
     guidetolerance="10"
     inkscape:pageopacity="0"
     inkscape:pageshadow="2"
     inkscape:window-width="1920"
     inkscape:window-height="1028"
     id="namedview4981"
     showgrid="true"
     inkscape:zoom="1"
     inkscape:cx="27.01495"
     inkscape:cy="196.04206"
     inkscape:window-x="0"
     inkscape:window-y="0"
     inkscape:window-maximized="1"
     inkscape:current-layer="g5825">
    <inkscape:grid
       type="xygrid"
       id="grid26552"
       empspacing="2"
       dotted="false" />
  </sodipodi:namedview>
  <g
     id="g5825">
    <circle
       style="opacity:1;fill:#795548;fill-opacity:1;stroke:none;stroke-width:25.67475319;stroke-miterlimit:4;stroke-dasharray:none;stroke-opacity:1"
       id="path817"
       cx="256"
       cy="256"
       r="256" />
    <path
       style="fill:#f5ffff;fill-opacity:1;stroke-width:1.8023324"
       d="m 138.81564,437.68406 c -15.29478,-7.61834 -23.73056,-16.02819 -25.07647,-24.99938 -0.64154,-4.27604 -0.35547,-10.7107 0.63592,-14.29924 0.99127,-3.58855 13.03004,-21.98436 26.75277,-40.87954 13.72274,-18.89517 25.18497,-35.03345 25.47155,-35.86283 0.28675,-0.8294 -1.9189,-1.99582 -4.90117,-2.59197 -8.25011,-1.64933 -12.06609,-6.76063 -17.28755,-23.15567 -4.97542,-15.6227 -5.1424,-26.3875 -0.52391,-33.77947 1.22377,-1.95876 1.85016,-3.90844 1.39194,-4.3327 -0.45801,-0.424 -20.25844,-7.06982 -44.00048,-14.76779 -27.683498,-8.97598 -44.553514,-15.38197 -47.031885,-17.85922 -6.751849,-6.74886 -6.964239,-16.7403 -0.767008,-36.07817 4.78913,-14.944 6.238752,-17.55398 11.164096,-20.09983 8.844325,-4.57156 21.518765,-2.23541 64.267307,11.84574 21.20092,6.98344 39.30541,12.69719 40.23225,12.69719 0.92683,0 1.18288,-1.58187 0.56893,-3.51529 -0.61388,-1.93341 -0.2276,-6.81468 0.85901,-10.84729 1.52213,-5.65017 4.287,-9.14571 12.05359,-15.23871 11.65989,-9.14739 22.36491,-12.7431 32.72808,-10.99303 l 7.24784,1.22397 0.58267,-48.33773 c 0.65615,-54.432209 1.12788,-56.478077 13.83784,-60.006768 10.00448,-2.777622 33.41129,-2.258665 41.35107,0.91679 10.54244,4.216352 11.19351,7.765145 11.19351,61.013378 v 46.40148 l 9.5769,-1.19603 c 11.28512,-1.40933 18.54173,1.09518 31.40806,10.8402 9.62974,7.29355 12.89636,13.06142 13.01574,22.9818 0.0451,3.71649 0.56351,6.75723 1.15295,6.75723 0.58943,0 20.26176,-6.15523 43.71626,-13.67829 44.9668,-14.42312 52.50161,-15.54325 62.13095,-9.23671 5.80757,3.8036 14.64951,31.41201 13.29437,41.51084 -1.87314,13.95928 -3.64716,15.00795 -51.83301,30.6409 -24.22383,7.85889 -44.30598,14.51596 -44.627,14.79342 -0.3211,0.27759 0.7607,3.10285 2.40369,6.27864 5.08853,9.83574 3.01647,23.90298 -7.22526,49.0527 -0.70261,1.72536 -4.43843,4.08358 -8.3018,5.2406 -3.86344,1.15694 -7.02442,2.81591 -7.02442,3.68653 0,0.8706 7.54998,11.89174 16.77771,24.49135 28.63055,39.0924 33.25647,46.10627 35.27486,53.48445 3.83221,14.00821 -2.79104,25.66524 -20.50474,36.08863 -10.48986,6.17265 -19.37239,7.34209 -28.47078,3.74831 -6.37688,-2.51884 -9.86985,-6.20952 -21.94713,-23.1898 -7.89981,-11.10683 -19.98753,-27.80551 -26.86163,-37.10816 l -12.49833,-16.91394 -2.45764,4.68845 c -4.4665,8.52091 -29.46449,12.94627 -46.4709,8.22679 -3.90877,-1.08471 -9.2513,-4.26682 -11.87222,-7.07131 l -4.7653,-5.09898 -27.37225,37.63913 c -24.5139,33.70874 -28.07451,37.83411 -34.09746,39.50607 -9.87395,2.74102 -13.1601,2.36989 -23.17147,-2.61674 z m 63.87797,-86.94221 40.90218,-56.3083 0.49632,27.92786 0.49632,27.92786 h 11.62622 11.62622 l 0.4963,-27.85978 0.49632,-27.85972 26.13964,36.1316 c 14.37679,19.8724 33.58016,46.39677 42.67422,58.94307 9.094,12.54634 17.10022,22.75058 17.79155,22.67607 1.99489,-0.2151 16.96818,-10.56033 17.01205,-11.75406 0.0225,-0.59284 -19.36375,-27.75544 -43.07905,-60.36134 -23.71534,-32.60596 -42.94356,-59.45864 -42.72944,-59.67267 0.21407,-0.21399 11.6007,3.2808 25.30344,7.76632 13.70279,4.48552 25.84978,7.79657 26.99333,7.35797 1.14355,-0.43866 3.42108,-4.99175 5.06111,-10.11803 3.50216,-10.94667 6.58482,-8.75698 -27.08239,-19.23753 -12.06969,-3.75725 -21.94482,-7.28363 -21.94482,-7.83632 0,-0.55296 31.23232,-11.08533 69.4052,-23.40576 38.17285,-12.32043 69.4052,-22.78373 69.4052,-23.25178 0,-3.82268 -6.47975,-20.0795 -7.99084,-20.04809 -1.05832,0.0225 -32.70855,10.13273 -70.33379,22.46825 -37.62527,12.33551 -68.59086,22.247 -68.81237,22.02553 -0.22141,-0.22131 6.80864,-10.12939 15.62264,-22.0177 8.81401,-11.88831 15.82051,-22.30657 15.57002,-23.15174 -0.25068,-0.84516 -4.14655,-4.26946 -8.65789,-7.60961 l -8.20237,-6.07302 -16.07273,22.28934 -16.07271,22.28934 -0.90135,-73.24252 -0.90138,-73.242515 h -10.8164 -10.81644 l -0.90137,73.879275 -0.90136,73.87921 -3.93778,-6.30675 c -2.16577,-3.46873 -9.50537,-13.72858 -16.31018,-22.79969 l -12.37244,-16.49291 -8.47735,6.14931 c -4.6626,3.38212 -8.45662,6.7496 -8.4312,7.48326 0.0225,0.73368 7.24827,11.06438 16.05085,22.95714 8.80257,11.89273 15.85515,21.7832 15.6724,21.97878 -0.18254,0.19539 -15.31513,-4.50068 -33.6275,-10.43613 C 107.305,198.28195 85.559694,191.42143 85.068351,191.99873 c -1.163948,1.36766 -6.747735,19.81309 -6.15617,20.33626 0.34873,0.30858 31.663869,10.59361 69.588859,22.85572 37.92499,12.26202 68.95452,22.74117 68.95452,23.28685 0,0.54567 -9.87514,4.06636 -21.94483,7.82361 -33.44317,10.41077 -30.49013,8.41969 -27.45218,18.50961 1.42433,4.73064 3.30526,9.31634 4.17975,10.19049 1.26782,1.26721 36.26911,-8.48338 51.70367,-14.40357 2.66342,-1.02158 -17.04732,27.10533 -61.46603,87.7109 -9.07953,12.38829 -17.92469,24.7028 -19.65581,27.36566 l -3.14752,4.84151 8.69571,6.35834 c 8.02283,5.86642 8.87856,6.11919 11.05908,3.26719 1.29983,-1.70012 20.76934,-28.42986 43.26559,-59.39945 z"
       id="path29634"
       inkscape:connector-curvature="0" />
  </g>
</svg>
