<?xml version="1.0" encoding="utf-8"?>
<!-- Generator: Adobe Illustrator 23.0.3, SVG Export Plug-In . SVG Version: 6.00 Build 0)  -->
<svg version="1.1"
	 id="svg4979" inkscape:version="0.92.2 2405546, 2018-03-11" sodipodi:docname="kyd.svg" xmlns:cc="http://creativecommons.org/ns#" xmlns:dc="http://purl.org/dc/elements/1.1/" xmlns:inkscape="http://www.inkscape.org/namespaces/inkscape" xmlns:rdf="http://www.w3.org/1999/02/22-rdf-syntax-ns#" xmlns:sodipodi="http://sodipodi.sourceforge.net/DTD/sodipodi-0.dtd" xmlns:svg="http://www.w3.org/2000/svg"
	 xmlns="http://www.w3.org/2000/svg" xmlns:xlink="http://www.w3.org/1999/xlink" x="0px" y="0px" viewBox="0 0 512 512"
	 style="enable-background:new 0 0 512 512;" xml:space="preserve">
<style type="text/css">
	.st0{fill:#FFFFFF;}
	.st1{fill:#795548;}
	.st2{fill-rule:evenodd;clip-rule:evenodd;fill:#FFFFFF;fill-opacity:0.85;}
</style>
<sodipodi:namedview  bordercolor="#666666" borderopacity="1" gridtolerance="10" guidetolerance="10" id="namedview4981" inkscape:current-layer="g5825" inkscape:cx="247.76456" inkscape:cy="370.47199" inkscape:pageopacity="0" inkscape:pageshadow="2" inkscape:window-height="908" inkscape:window-maximized="0" inkscape:window-width="1722" inkscape:window-x="136" inkscape:window-y="157" inkscape:zoom="0.65186408" objecttolerance="10" pagecolor="#ffffff" showgrid="false">
	</sodipodi:namedview>
<g id="g5825">
	<path id="rect11030" class="st0" d="M139.7,61.7h234.6c48.2,0,87.2,39.1,87.2,87.2v215.5c0,48.2-39.1,87.2-87.2,87.2H139.7
		c-48.2,0-87.2-39.1-87.2-87.2V148.9C52.4,100.8,91.5,61.7,139.7,61.7z"/>
	<circle id="path817" class="st1" cx="257" cy="256.7" r="256"/>
	<path class="st2" d="M398.6,294.6c-6.8,4.3-14.8,4.8-20.8,1.4c-7.7-4.4-12-14.6-12-28.7v-42.4c0-20.5-8.1-35.1-21.7-39
		c-23-6.7-40.2,21.4-46.7,32l-40.5,65.7v-80.2c-0.5-18.5-6.5-29.5-17.8-32.8c-7.5-2.2-18.8-1.3-29.8,15.4l-90.7,145.7
		c-12.1-23.1-18.5-48.7-18.4-74.8c0-87.8,70.3-159.1,156.8-159.1s156.7,71.4,156.7,159.1c0,0.2,0,0.3,0,0.4c0,0.2,0,0.3,0,0.4
		C414.5,274.5,409,288.1,398.6,294.6L398.6,294.6z M448.5,256.7L448.5,256.7v-0.4l0-0.4C448,148.9,362.3,62.2,256.9,62.2
		c-105.6,0-191.6,87.2-191.6,194.5c0,107.2,86,194.5,191.6,194.5c48.5,0,94.7-18.4,130.2-51.9c7.1-6.6,7.5-17.8,0.9-25
		c-6.4-7.1-17.3-7.6-24.4-1.2c-0.1,0.1-0.2,0.2-0.3,0.2c-28.8,27.3-66.9,42.4-106.6,42.4c-46.3,0-87.9-20.5-116.6-53l81.8-131.4V292
		c0,29.1,11.3,38.5,20.7,41.2c9.5,2.8,23.9,0.9,39.1-23.8l45-73c1.4-2.4,2.8-4.4,4-6.1v36.9c0,27.2,10.9,48.9,29.9,59.6
		c17.1,9.7,38.6,8.8,56.2-2.3C438.2,311.2,449.7,286.5,448.5,256.7z"/>
</g>
</svg>
