<?xml version="1.0" encoding="UTF-8" standalone="no"?>
<svg
   xmlns:dc="http://purl.org/dc/elements/1.1/"
   xmlns:cc="http://creativecommons.org/ns#"
   xmlns:rdf="http://www.w3.org/1999/02/22-rdf-syntax-ns#"
   xmlns:svg="http://www.w3.org/2000/svg"
   xmlns="http://www.w3.org/2000/svg"
   xmlns:sodipodi="http://sodipodi.sourceforge.net/DTD/sodipodi-0.dtd"
   xmlns:inkscape="http://www.inkscape.org/namespaces/inkscape"
   fill="#7289da"
   height="512"
   width="512"
   version="1.1"
   id="svg4979"
   sodipodi:docname="coinlore.svg"
   inkscape:version="0.92.2 2405546, 2018-03-11">
  <metadata
     id="metadata4985">
    <rdf:RDF>
      <cc:Work
         rdf:about="">
        <dc:format>image/svg+xml</dc:format>
        <dc:type
           rdf:resource="http://purl.org/dc/dcmitype/StillImage" />
        <dc:title></dc:title>
      </cc:Work>
    </rdf:RDF>
  </metadata>
  <defs
     id="defs4983">
    <style
       id="style1516">
      .cls-1, .cls-5, .cls-6 {
        fill: none;
        stroke-linecap: round;
      }

      .cls-1, .cls-5 {
        stroke: #183c87;
      }

      .cls-1 {
        stroke-width: 75px;
      }

      .cls-2, .cls-3 {
        fill: #183c87;
      }

      .cls-2, .cls-5, .cls-6 {
        fill-rule: evenodd;
      }

      .cls-4 {
        fill: #fff;
      }

      .cls-5 {
        stroke-width: 101px;
      }

      .cls-6 {
        stroke: #fff;
        stroke-width: 56px;
      }
    </style>
  </defs>
  <sodipodi:namedview
     pagecolor="#ffffff"
     bordercolor="#666666"
     borderopacity="1"
     objecttolerance="10"
     gridtolerance="10"
     guidetolerance="10"
     inkscape:pageopacity="0"
     inkscape:pageshadow="2"
     inkscape:window-width="1722"
     inkscape:window-height="908"
     id="namedview4981"
     showgrid="false"
     inkscape:zoom="0.96950969"
     inkscape:cx="6.2855067"
     inkscape:cy="185.46386"
     inkscape:window-x="104"
     inkscape:window-y="76"
     inkscape:window-maximized="0"
     inkscape:current-layer="svg4979" />
  <circle
     style="opacity:1;fill:#795548;fill-opacity:1;stroke:none;stroke-width:25.67475319;stroke-miterlimit:4;stroke-dasharray:none;stroke-opacity:1"
     id="path817"
     cx="256"
     cy="256"
     r="256" />
  <path
     style="fill:#ffffff;fill-opacity:1;stroke-width:0.75897503"
     d="m 64.194845,293.90972 c -10.623359,-1.22051 -18.94152,-6.24563 -24.840274,-15.00636 -3.986828,-5.92118 -5.531281,-10.80562 -6.038762,-19.09801 -0.645569,-10.54876 1.853015,-18.70314 8.330578,-27.18771 9.971035,-13.06044 27.233095,-16.66882 44.347223,-9.27014 l 3.962851,1.7132 1.986678,-2.36103 c 2.134587,-2.53681 4.450751,-3.0763 5.169212,-1.20402 0.244185,0.63635 0.676216,6.30362 0.960069,12.59394 0.41614,9.22192 0.31705,11.55995 -0.511629,12.07211 -1.25013,0.77262 -3.76592,-0.44614 -3.76592,-1.82438 0,-1.38297 -5.723886,-10.18672 -8.614541,-13.24978 -5.457335,-5.78282 -14.162649,-7.56815 -20.605998,-4.22596 -3.76847,1.95472 -8.133161,7.58406 -9.869294,12.72886 -1.665077,4.93424 -2.333803,18.35948 -1.213464,24.36121 2.505476,13.42189 11.802077,23.17681 22.087895,23.17681 6.466354,0 14.369478,-4.86317 19.03483,-11.71302 1.924942,-2.82629 4.927471,-3.67831 5.716501,-1.62217 1.14896,2.99414 -7.974847,13.60493 -14.608228,16.98903 -5.710332,2.91319 -13.518765,4.04755 -21.527727,3.12742 z m 58.668645,-1.31896 c -10.81772,-3.86072 -16.06525,-11.3333 -16.13274,-22.97327 -0.0471,-8.12209 1.55555,-12.27145 6.74682,-17.4682 5.582,-5.5879 10.57417,-7.52344 19.40451,-7.52344 10.86039,0 18.96883,4.41793 23.1559,12.61662 2.60358,5.09806 2.71955,15.54705 0.23242,20.94315 -2.30162,4.99366 -8.00628,10.82335 -12.96548,13.24967 -5.57429,2.72725 -14.60672,3.2378 -20.44143,1.15547 z m 12.94808,-4.23047 c 6.69651,-2.79799 8.57632,-20.43205 3.4487,-32.35152 -3.02249,-7.02595 -8.63769,-9.03947 -12.7957,-4.58831 -6.7849,7.26327 -5.05496,31.90896 2.56597,36.55622 2.79256,1.7029 3.52442,1.74431 6.78103,0.38361 z m 209.16651,4.56523 c -6.75018,-1.82054 -12.32748,-6.56431 -15.29285,-13.00733 -2.52493,-5.48607 -2.44747,-15.84776 0.15863,-21.21928 2.32649,-4.79519 6.44409,-8.90888 11.54069,-11.52973 5.38226,-2.76775 15.76408,-3.40412 22.25049,-1.36389 4.92712,1.54977 11.55679,7.06712 13.55712,11.28253 6.62576,13.96274 -1.32763,31.23471 -16.45102,35.72587 -4.57367,1.35823 -10.97331,1.40364 -15.76306,0.11183 z m 14.57685,-6.62685 c 2.62042,-3.06499 3.67819,-7.46536 3.66706,-15.25504 -0.0181,-12.69309 -4.29571,-21.80326 -10.25802,-21.84705 -3.05495,-0.0225 -5.32853,1.68085 -7.3893,5.53584 -1.50749,2.82 -1.69753,4.28006 -1.69753,13.04217 0,8.67736 0.20933,10.32076 1.73667,13.63381 1.96653,4.26572 3.64646,6.3633 5.85308,7.3082 2.56101,1.09666 5.94923,0.0837 8.08804,-2.41793 z m 85.77073,6.26233 c -4.58111,-1.63831 -9.98015,-6.4352 -12.52133,-11.12486 -1.39023,-2.56561 -1.64506,-4.2704 -1.64506,-11.00514 0,-7.16624 0.20367,-8.35511 2.02137,-11.79875 4.66211,-8.83244 11.68585,-13.34267 21.58774,-13.86239 5.4174,-0.28434 6.74181,-0.0853 10.31505,1.55064 4.45094,2.0377 7.98454,5.86131 10.46163,11.32022 1.69177,3.72823 1.98377,8.24025 0.62142,9.60259 -0.64576,0.64576 -5.19372,0.91077 -15.63021,0.91077 h -14.71944 l 0.51781,3.98461 c 0.75906,5.84107 3.59151,11.61834 6.59405,13.44968 5.35355,3.26529 9.72552,2.754 16.54129,-1.93442 4.14891,-2.85395 5.69545,-3.2005 6.37539,-1.42861 0.69994,1.82401 -5.08025,7.52872 -9.60093,9.47555 -5.63026,2.42468 -15.41848,2.82714 -20.91878,0.86011 z m 17.33277,-31.24087 c 1.17544,-2.19633 -0.38856,-7.33123 -3.04076,-9.98343 -4.4096,-4.40959 -9.47154,-2.03979 -11.70455,5.47961 -1.86594,6.28326 -2.13898,6.02494 6.36818,6.02494 6.79152,0 7.64609,-0.15517 8.37713,-1.52112 z m -298.54492,30.76363 c -0.57968,-1.51061 1.48389,-3.43736 3.68142,-3.43736 3.89056,0 4.17799,-1.17885 4.13062,-16.94141 -0.0552,-18.3707 -0.37448,-20.37872 -3.38215,-21.27123 -3.22031,-0.9556 -4.41022,-1.61368 -4.74753,-2.62559 -0.51089,-1.53268 2.94967,-2.35475 12.53752,-2.97835 l 9.29745,-0.60472 v 20.52382 c 0,22.81197 0.10207,23.32054 4.85954,24.21304 2.63714,0.49474 3.56122,1.53694 2.91669,3.28957 -0.26217,0.71293 -3.89256,0.94872 -14.607,0.94872 -11.84908,0 -14.33052,-0.18864 -14.68656,-1.11649 z m 32.66628,0.62781 c -1.3023,-1.30228 -0.41977,-3.20832 1.70118,-3.67416 4.05899,-0.89151 4.20584,-1.52906 4.48034,-19.45127 l 0.25354,-16.55297 -1.8775,-1.73699 c -1.03262,-0.95534 -2.59894,-2.2493 -3.48071,-2.87545 -2.9987,-2.12945 -0.88079,-3.02906 8.55469,-3.63372 l 8.91023,-0.571 1.20831,4.34605 1.20831,4.34605 3.70594,-3.33197 c 4.58304,-4.12054 7.73438,-5.20556 13.96648,-4.80873 5.16944,0.32916 7.63228,1.60867 10.51186,5.46118 1.44582,1.93433 1.59371,3.43136 1.94433,19.68165 l 0.3795,17.58807 2.89612,1.36253 c 1.96554,0.92471 2.81575,1.77982 2.64601,2.66122 -0.22431,1.16478 -1.57843,1.2987 -13.13189,1.2987 -11.55347,0 -12.90757,-0.13392 -13.13189,-1.2987 -0.16975,-0.88139 0.68051,-1.73657 2.64602,-2.66136 2.87263,-1.3516 2.90106,-1.4088 3.50512,-7.05002 0.33495,-3.12805 0.50025,-10.3215 0.36734,-15.98545 -0.28233,-12.03129 -1.15729,-14.3686 -5.37881,-14.3686 -1.35852,0 -3.22393,0.52806 -4.14538,1.17345 -4.57414,3.20385 -7.73384,13.26847 -7.75694,24.70818 -0.0169,8.36262 0.8093,10.78883 3.99311,11.72651 1.699,0.50038 2.44501,1.18325 2.44501,2.23805 0,1.45054 -0.575,1.52714 -12.94852,1.72499 -7.12169,0.11388 -13.184,-0.0284 -13.4718,-0.31624 z m 58.90911,-0.75954 c -0.54978,-1.43269 1.57225,-3.30563 3.74527,-3.30563 0.77582,0 2.38979,-0.50636 3.5866,-1.12526 3.82301,-1.97696 4.13764,-4.35436 4.17026,-31.51067 0.0263,-21.83784 -0.11859,-24.93731 -1.26278,-27.02645 -1.29094,-2.35706 -3.85519,-3.82129 -7.43581,-4.24597 -1.45793,-0.17291 -1.89744,-0.66454 -1.89744,-2.12247 v -1.89744 h 19.34358 c 17.77244,0 19.36422,0.1072 19.59765,1.31986 0.28411,1.47581 -1.65336,2.49534 -6.12129,3.22114 -5.0077,0.81347 -5.46005,2.32071 -5.74461,19.14093 l -0.24777,14.64631 h 4.94869 4.9487 l -1.4159,-3.22565 c -2.26183,-5.15284 -3.43327,-12.04683 -2.5013,-14.72028 0.67715,-1.94246 0.58132,-2.42189 -0.63599,-3.18213 -1.6605,-1.037 -1.93699,-3.91812 -0.376,-3.91812 0.58149,0 1.27612,0.57034 1.54362,1.26743 0.40998,1.06839 0.92928,0.84412 3.30684,-1.42822 3.71198,-3.54768 5.49621,-4.39306 9.27178,-4.39306 3.77556,0 5.55978,0.84538 9.27178,4.39306 2.37756,2.27234 2.89686,2.49661 3.30684,1.42822 0.26749,-0.69709 0.96213,-1.26743 1.54362,-1.26743 1.56735,0 1.28142,2.88305 -0.38942,3.92651 -1.18466,0.73982 -1.31146,1.25647 -0.70011,2.85258 1.01753,2.65656 0.16631,8.64102 -1.97753,13.90298 l -1.77803,4.36411 h 7.56067 c 6.79158,0 7.5348,0.13511 7.30629,1.3282 -0.21997,1.14848 -1.34018,1.35718 -8.27834,1.54235 l -8.02393,0.21414 -1.60828,2.86155 c -3.86901,6.88397 -7.40667,7.22188 -11.53409,1.10173 l -2.66871,-3.95715 -5.50257,-0.0275 -5.50257,-0.0275 v 10.95573 c 0,6.02565 0.31698,11.78944 0.70439,12.80843 0.8735,2.29747 3.03603,2.67639 11.24731,1.97073 8.23911,-0.70805 12.92584,-3.232 17.48633,-9.41692 1.84679,-2.50463 4.01185,-5.83463 4.81123,-7.40001 1.5302,-2.99653 3.92263,-3.81933 4.76004,-1.63706 0.48748,1.27036 -0.28451,7.10641 -2.32486,17.57553 l -1.22033,6.26155 h -31.41742 c -28.45422,0 -31.46261,-0.11774 -31.89641,-1.24822 z m 46.8241,-28.35181 c 0.44434,0 1.07449,0.72071 1.40033,1.60156 0.58201,1.57327 0.61506,1.56705 1.87299,-0.35279 0.70429,-1.07489 1.28053,-2.13712 1.28053,-2.36052 0,-0.22341 -2.04924,-0.40619 -4.55385,-0.40619 -2.50462,0 -4.55385,0.18278 -4.55385,0.40619 0,0.2234 0.57624,1.28563 1.28052,2.36052 1.25793,1.91984 1.29099,1.92606 1.87298,0.35279 0.32585,-0.88085 0.95601,-1.60156 1.40035,-1.60156 z m -5.01027,-5.18835 c 0.4649,-0.75222 2.75426,-0.67021 4.07489,0.146 0.51446,0.31795 1.3623,0.31081 1.8841,-0.0159 1.31116,-0.82089 3.03508,-0.79477 4.23221,0.0641 1.31139,0.94085 2.01663,-0.18618 3.93021,-6.28071 1.5599,-4.9681 2.15544,-10.66759 0.75024,-7.17992 -1.07898,2.67793 -3.54321,3.61127 -5.73792,2.17324 -1.0156,-0.66545 -1.88695,-1.79973 -1.93633,-2.52062 -0.0494,-0.72089 -0.30891,-0.28609 -0.57669,0.96622 -0.27484,1.28525 -0.97623,2.27693 -1.61044,2.27693 -0.63421,0 -1.33561,-0.99168 -1.61044,-2.27693 -0.26779,-1.25231 -0.5273,-1.68711 -0.5767,-0.96622 -0.0494,0.72089 -0.92073,1.85517 -1.93633,2.52062 -2.1844,1.43127 -4.6089,0.52369 -5.80555,-2.17324 -1.50827,-3.39924 -0.0298,5.17638 1.64858,9.5622 1.58901,4.15233 2.41498,5.08793 3.27017,3.7042 z m 0.24532,-13.8785 c 0.4683,-0.46831 0.67083,-1.32216 0.45008,-1.89744 -0.43836,-1.14232 -3.27488,-1.46396 -3.27488,-0.37134 0,0.37106 0.42692,0.62721 0.94872,0.56924 0.52179,-0.058 0.94871,0.23612 0.94871,0.65355 0,0.41744 -0.42325,0.71216 -0.94055,0.65493 -0.5173,-0.0572 -0.7533,0.19893 -0.52444,0.56924 0.56082,0.9074 1.36679,0.84738 2.39236,-0.17818 z m 12.1436,0 c 0.4683,-0.46831 0.67083,-1.32216 0.45007,-1.89744 -0.43835,-1.14232 -3.27487,-1.46396 -3.27487,-0.37134 0,0.37106 0.42692,0.62721 0.94872,0.56924 0.52179,-0.058 0.94872,0.23612 0.94872,0.65355 0,0.41744 -0.42325,0.71216 -0.94056,0.65493 -0.5173,-0.0572 -0.75329,0.19893 -0.52443,0.56924 0.56081,0.9074 1.36677,0.84738 2.39235,-0.17818 z m -13.23044,-5.83412 c 1.66327,0.16225 2.69538,0.81772 3.35662,2.13173 0.79281,1.57547 0.95674,1.65 0.96603,0.43924 0.0157,-2.05013 -2.17709,-4.23412 -4.25124,-4.23412 -1.97065,0 -4.86108,2.70573 -4.81489,4.50722 0.0177,0.68854 0.5146,0.2919 1.18604,-0.94663 0.94917,-1.75083 1.58479,-2.08986 3.55744,-1.89744 z m 11.92359,0.23429 c 2.02372,0 2.82767,0.42711 3.57153,1.89744 0.57432,1.13521 0.96444,1.42136 0.97113,0.71234 0.0166,-1.76017 -2.84927,-4.50722 -4.7022,-4.50722 -2.13773,0 -4.39711,2.11461 -4.38313,4.10226 0.0103,1.45542 0.0925,1.42939 0.97113,-0.30738 0.74387,-1.47033 1.54781,-1.89744 3.57154,-1.89744 z m -3.45788,-3.71705 c 3.03315,-2.05835 2.387,-2.73424 -2.61392,-2.73424 -4.94421,0 -5.65375,0.66701 -2.8409,2.6706 1.35378,0.96429 2.53163,1.78251 2.61745,1.81825 0.0858,0.0357 1.36264,-0.75382 2.83737,-1.75461 z m 79.61672,56.81109 c -0.59922,-1.56153 0.26809,-2.34822 3.49522,-3.17033 3.70735,-0.94446 4.08736,-3.16074 3.61103,-21.05959 -0.38458,-14.45091 -0.48105,-15.21933 -2.07213,-16.50771 -0.91781,-0.74319 -2.49548,-1.35128 -3.50593,-1.35128 -1.01044,0 -2.04393,-0.53878 -2.29662,-1.19731 -0.92437,-2.40888 1.41267,-3.17455 11.32249,-3.70953 l 9.67693,-0.52241 v 3.97938 3.97938 l 2.88298,-3.12284 c 3.42126,-3.70589 5.76307,-4.71949 10.90388,-4.71949 3.33389,0 4.15054,0.32917 6.40187,2.58051 3.50052,3.50051 3.64215,7.85926 0.36197,11.13942 -3.81211,3.81212 -8.27638,2.35965 -11.40161,-3.70957 -1.43847,-2.79349 -3.83554,-1.86242 -5.98593,2.32506 -1.63307,3.1801 -1.89061,4.84257 -2.17509,14.04103 -0.17749,5.73861 -0.0385,11.95612 0.30878,13.81669 0.6021,3.22545 0.78967,3.42136 4.03143,4.21067 2.58348,0.62902 3.39993,1.1836 3.39993,2.30945 0,1.4096 -0.69288,1.4917 -14.24815,1.68821 -12.44403,0.1804 -14.30677,0.0538 -14.71105,-0.99974 z M 172.34878,237.07959 c -2.68173,-1.09403 -5.64079,-4.68935 -6.16669,-7.49264 -0.65062,-3.46805 1.33374,-7.3599 5.02823,-9.86168 5.37448,-3.63941 13.13935,-0.89464 15.58495,5.50908 1.22046,3.19572 1.21413,3.49835 -0.13063,6.24194 -2.5571,5.21697 -9.04153,7.75503 -14.31586,5.6033 z"
     id="path1225"
     inkscape:connector-curvature="0" />
</svg>
