<?xml version="1.0" encoding="UTF-8" standalone="no"?>
<svg
   xmlns:dc="http://purl.org/dc/elements/1.1/"
   xmlns:cc="http://creativecommons.org/ns#"
   xmlns:rdf="http://www.w3.org/1999/02/22-rdf-syntax-ns#"
   xmlns:svg="http://www.w3.org/2000/svg"
   xmlns="http://www.w3.org/2000/svg"
   xmlns:sodipodi="http://sodipodi.sourceforge.net/DTD/sodipodi-0.dtd"
   xmlns:inkscape="http://www.inkscape.org/namespaces/inkscape"
   fill="#7289da"
   height="512"
   width="512"
   version="1.1"
   id="svg4979"
   sodipodi:docname="coinranking.svg"
   inkscape:version="0.92.2 2405546, 2018-03-11">
  <metadata
     id="metadata4985">
    <rdf:RDF>
      <cc:Work
         rdf:about="">
        <dc:format>image/svg+xml</dc:format>
        <dc:type
           rdf:resource="http://purl.org/dc/dcmitype/StillImage" />
        <dc:title></dc:title>
      </cc:Work>
    </rdf:RDF>
  </metadata>
  <defs
     id="defs4983">
    <style
       id="style1516">
      .cls-1, .cls-5, .cls-6 {
        fill: none;
        stroke-linecap: round;
      }

      .cls-1, .cls-5 {
        stroke: #183c87;
      }

      .cls-1 {
        stroke-width: 75px;
      }

      .cls-2, .cls-3 {
        fill: #183c87;
      }

      .cls-2, .cls-5, .cls-6 {
        fill-rule: evenodd;
      }

      .cls-4 {
        fill: #fff;
      }

      .cls-5 {
        stroke-width: 101px;
      }

      .cls-6 {
        stroke: #fff;
        stroke-width: 56px;
      }
    </style>
  </defs>
  <sodipodi:namedview
     pagecolor="#ffffff"
     bordercolor="#666666"
     borderopacity="1"
     objecttolerance="10"
     gridtolerance="10"
     guidetolerance="10"
     inkscape:pageopacity="0"
     inkscape:pageshadow="2"
     inkscape:window-width="1722"
     inkscape:window-height="908"
     id="namedview4981"
     showgrid="false"
     inkscape:zoom="0.96950969"
     inkscape:cx="6.2855067"
     inkscape:cy="185.46386"
     inkscape:window-x="104"
     inkscape:window-y="76"
     inkscape:window-maximized="0"
     inkscape:current-layer="svg4979" />
  <circle
     style="opacity:1;fill:#795548;fill-opacity:1;stroke:none;stroke-width:25.67475319;stroke-miterlimit:4;stroke-dasharray:none;stroke-opacity:1"
     id="path817"
     cx="256"
     cy="256"
     r="256" />
  <path
     style="fill:#ffffff;stroke-width:8.41835308;fill-opacity:1"
     d="m 229.55272,447.3036 c -3.30613,-3.30622 -6.0112,-24.16791 -6.0112,-46.35946 v -40.34832 l -69.3583,-2.44502 c -84.222935,-2.96907 -92.973393,-15.72582 -44.69877,-65.16353 26.95187,-27.60117 29.07903,-32.69041 17.63377,-42.18908 -18.82371,-15.62227 -16.74647,-21.90523 20.65813,-62.48438 18.52038,-20.09226 33.67341,-43.86248 33.67341,-52.82272 0,-19.03802 57.99167,-78.636851 76.51626,-78.636851 17.75944,0 75.01411,60.592861 75.01411,79.387851 0,8.54723 15.15304,31.97946 33.67341,52.07172 37.4046,40.57915 39.48182,46.86211 20.65813,62.48438 -11.43752,9.49228 -9.16337,14.74634 18.75972,43.34215 45.59145,46.68986 34.51381,60.76096 -50.39765,64.01644 l -63.92949,2.451 -2.53259,43.84994 c -2.42717,42.02636 -3.59531,43.95408 -28.09011,46.35347 -14.05671,1.37698 -28.26268,-0.2012 -31.56883,-3.50759 z"
     id="path1180"
     inkscape:connector-curvature="0" />
</svg>
