<?xml version="1.0" encoding="UTF-8" standalone="no"?>
<svg
   xmlns:dc="http://purl.org/dc/elements/1.1/"
   xmlns:cc="http://creativecommons.org/ns#"
   xmlns:rdf="http://www.w3.org/1999/02/22-rdf-syntax-ns#"
   xmlns:svg="http://www.w3.org/2000/svg"
   xmlns="http://www.w3.org/2000/svg"
   xmlns:sodipodi="http://sodipodi.sourceforge.net/DTD/sodipodi-0.dtd"
   xmlns:inkscape="http://www.inkscape.org/namespaces/inkscape"
   fill="#7289da"
   height="512"
   width="512"
   version="1.1"
   id="svg4979"
   sodipodi:docname="coinmarketdaddy.svg"
   inkscape:version="0.92.2 2405546, 2018-03-11">
  <metadata
     id="metadata4985">
    <rdf:RDF>
      <cc:Work
         rdf:about="">
        <dc:format>image/svg+xml</dc:format>
        <dc:type
           rdf:resource="http://purl.org/dc/dcmitype/StillImage" />
        <dc:title></dc:title>
      </cc:Work>
    </rdf:RDF>
  </metadata>
  <defs
     id="defs4983">
    <style
       id="style1516">
      .cls-1, .cls-5, .cls-6 {
        fill: none;
        stroke-linecap: round;
      }

      .cls-1, .cls-5 {
        stroke: #183c87;
      }

      .cls-1 {
        stroke-width: 75px;
      }

      .cls-2, .cls-3 {
        fill: #183c87;
      }

      .cls-2, .cls-5, .cls-6 {
        fill-rule: evenodd;
      }

      .cls-4 {
        fill: #fff;
      }

      .cls-5 {
        stroke-width: 101px;
      }

      .cls-6 {
        stroke: #fff;
        stroke-width: 56px;
      }
    </style>
  </defs>
  <sodipodi:namedview
     pagecolor="#ffffff"
     bordercolor="#666666"
     borderopacity="1"
     objecttolerance="10"
     gridtolerance="10"
     guidetolerance="10"
     inkscape:pageopacity="0"
     inkscape:pageshadow="2"
     inkscape:window-width="1722"
     inkscape:window-height="908"
     id="namedview4981"
     showgrid="false"
     inkscape:zoom="0.96950969"
     inkscape:cx="182.24701"
     inkscape:cy="304.89897"
     inkscape:window-x="104"
     inkscape:window-y="76"
     inkscape:window-maximized="0"
     inkscape:current-layer="svg4979" />
  <circle
     style="opacity:1;fill:#795548;fill-opacity:1;stroke:none;stroke-width:25.67475319;stroke-miterlimit:4;stroke-dasharray:none;stroke-opacity:1"
     id="path817"
     cx="256"
     cy="256"
     r="256" />
  <path
     style="fill:#ffffff;stroke-width:1.61043346;fill-opacity:1"
     d="m 124.67578,416.30056 c -17.29265,-3.39845 -34.005339,-16.72464 -41.780395,-33.31439 -3.794116,-8.09557 -4.329119,-11.2273 -4.329119,-25.34144 0,-20.39386 3.076395,-27.69549 17.71747,-42.05113 5.770874,-5.65838 9.826744,-10.28798 9.013004,-10.28798 -0.81374,0 -5.1589,-2.90837 -9.655916,-6.46306 -19.660205,-15.5405 -25.969191,-43.73769 -15.842157,-70.80459 6.139053,-16.40811 27.312483,-32.24183 43.114923,-32.24183 h 4.77089 v -31.48342 c 0,-35.66495 0.5574,-37.86987 11.59435,-45.865 12.30855,-8.91626 34.74485,-13.02156 53.40564,-9.77192 5.86185,1.02079 11.87806,2.32421 13.36938,2.89648 2.00922,0.77101 2.45963,0.38418 1.73905,-1.49359 -0.78658,-2.04983 1.08346,-2.89697 9.78563,-4.43298 15.14672,-2.67355 14.95577,-2.57629 13.3915,-6.820722 -4.19118,-11.37201 -3.9844,-12.098961 4.21254,-14.810334 12.86216,-4.254508 21.43522,-4.743259 32.67801,-1.862983 5.70386,1.46126 10.83772,3.17059 11.40856,3.798531 0.57084,0.627923 0.52607,4.946333 -0.0995,9.59646 l -1.1374,8.454778 h 7.05032 c 3.87767,0 10.33291,0.82657 14.34495,1.83681 l 7.29466,1.83681 -12.3855,12.45856 c -8.89051,8.94297 -11.797,12.82225 -10.30003,13.74744 1.24799,0.77129 2.36008,0.465 2.76934,-0.76274 1.63035,-4.8911 10.57032,-12.87244 17.99721,-16.06739 17.1077,-7.35954 45.73876,-7.36746 62.82444,-0.0174 4.42019,1.90152 10.57919,6.27153 13.68667,9.71114 l 5.65,6.25385 v 32.79035 32.79034 l 7.39288,1.01332 c 16.89206,2.3153 32.699,13.94835 40.48218,29.79264 4.09282,8.33178 4.46402,10.6275 4.46402,27.60745 0,16.44511 -0.43198,19.33187 -3.85584,25.76693 -5.49987,10.33691 -11.01859,17.17623 -16.84925,20.88127 -2.78401,1.76907 -6.11259,3.90553 -7.39683,4.74769 -1.89055,1.23978 -0.87267,3.09456 5.34781,9.74476 12.02078,12.85119 14.70195,20.20366 14.70195,40.31667 0,15.33377 -0.41242,17.69189 -4.4257,25.30487 -12.52079,23.75137 -28.22316,31.0603 -66.72915,31.0603 h -18.22421 l -0.0947,-56.76778 c -0.0744,-44.64028 -0.50451,-56.09508 -2.01304,-53.6189 -1.05508,1.7319 -5.36063,6.8748 -9.56789,11.42865 l -7.64956,8.27974 v 45.33914 45.33915 h -10.46782 -10.46781 l -0.24286,-35.02693 c -0.1335,-19.26481 -0.0872,-37.01984 0.10308,-39.45562 0.83456,-10.68613 -3.41542,-2.40003 -12.39005,24.15651 -5.31311,15.72185 -11.36845,33.47688 -13.45631,39.45561 l -3.79612,10.87043 h -9.08112 -9.08111 l -11.23466,-32.61128 c -6.17908,-17.9362 -12.11574,-35.32889 -13.1926,-38.6504 -1.07693,-3.32153 -2.62649,-6.03913 -3.44353,-6.03913 -0.86582,0 -1.48553,16.12337 -1.48553,38.6504 v 38.65041 H 213.8427 203.37489 v -42.64376 -42.64376 l -6.352,-3.24055 c -8.69486,-4.4358 -21.47415,-17.56486 -25.80511,-26.51141 l -3.58229,-7.40004 -5.36532,4.45196 c -2.95093,2.44858 -5.41762,4.84992 -5.48158,5.33629 -0.0639,0.48637 2.23898,1.74838 5.11763,2.80447 7.44366,2.73084 20.08675,14.08472 23.80922,21.38137 1.74106,3.41275 3.16555,6.59621 3.16555,7.07436 0,0.47816 -4.95394,0.86938 -11.00875,0.86938 -10.01638,0 -11.64954,-0.48863 -18.11738,-5.42069 -11.66092,-8.89206 -22.49711,-11.10572 -35.41638,-7.23502 -14.45759,4.3316 -25.670901,20.41423 -25.606402,36.72581 0.04558,11.52551 4.010432,20.07384 13.241612,28.54936 14.00517,12.85869 31.47881,13.36501 47.2078,1.36794 4.93536,-3.76439 7.37431,-4.40019 17.71218,-4.61734 6.5938,-0.1385 11.98841,0.16746 11.98802,0.67991 -3.8e-4,0.51244 -2.19768,4.24854 -4.88284,8.30241 -8.14548,12.29742 -21.43389,20.61906 -37.7386,23.63314 -10.63974,1.96686 -11.68099,1.96791 -21.58444,0.0215 z M 392.54652,389.2478 c 25.54311,-13.49578 24.65915,-51.26383 -1.49028,-63.67255 -2.8861,-1.36956 -10.42267,-2.97108 -16.74796,-3.55895 l -11.5005,-1.06887 v 36.35403 36.35401 l 3.62347,0.65289 c 7.06138,1.27235 18.22261,-0.89045 26.11527,-5.06056 z M 271.54267,362.23473 c 4.13741,-11.64731 7.52414,-21.4307 7.52607,-21.74085 0.001,-0.31017 -7.24501,-0.33461 -16.10433,-0.0545 -8.85931,0.28026 -16.10784,0.99515 -16.10784,1.58865 0,3.44474 15.17749,43.72583 16.0761,42.66602 0.5981,-0.7054 4.47259,-10.81216 8.61,-22.45946 z m 11.84188,-34.78565 c 0.70868,-1.10717 3.17756,-7.44826 5.48637,-14.0913 l 4.19785,-12.07824 h 14.32067 14.32065 l 0.83029,4.79342 0.83027,4.79344 5.24535,-7.91902 c 7.13106,-10.76596 8.88229,-18.41677 8.13551,-35.5431 -0.55307,-12.68405 -1.39058,-16.14226 -6.53043,-26.96531 -7.14758,-15.05078 -12.68958,-23.29263 -28.39445,-42.22717 -6.61191,-7.97165 -14.18408,-17.93621 -16.82703,-22.14346 -4.1505,-6.6071 -5.52888,-7.64957 -10.11442,-7.64957 h -5.30907 l 3.04739,8.85739 c 1.67606,4.87156 2.45945,8.85738 1.74088,8.85738 -3.08178,0 -9.7777,-6.97585 -11.6404,-12.12701 -2.29932,-6.35867 -8.47659,-7.89422 -10.17903,-2.5303 -1.65316,5.20859 -10.41481,16.26775 -12.88821,16.26775 -1.93888,0 -1.7967,-1.28686 0.81532,-7.38048 3.67875,-8.58216 4.26937,-13.69464 1.23112,-10.65638 -1.06289,1.06288 -3.92181,1.93252 -6.35317,1.93252 -3.74359,0 -6.9623,3.20873 -21.01615,20.95095 -30.76873,38.8439 -39.03562,56.03896 -39.09222,81.31158 -0.0265,11.89923 0.62903,15.83982 3.66268,22.01221 3.62078,7.36699 14.17167,18.48668 21.0173,22.15036 3.35339,1.79466 3.45324,1.56707 3.45324,-7.87117 v -9.71925 h 14.36901 14.36902 l 1.9514,6.03912 c 1.07327,3.32153 3.35564,9.84377 5.07191,14.4939 l 3.12048,8.45478 h 19.91966 c 14.1749,0 20.29129,-0.58056 21.20821,-2.01304 z m -80.00969,-42.74361 v -12.54798 l 8.89306,-4.36157 c 4.89119,-2.39887 9.23935,-4.36158 9.6626,-4.36158 0.42325,0 0.76954,7.60931 0.76954,16.90956 v 16.90955 h -9.6626 -9.6626 z m 24.1565,-4.88607 c 0,-16.22193 0.26337,-17.68147 3.78805,-20.99273 3.15619,-2.9651 4.90222,-3.3805 10.46781,-2.49055 l 6.67978,1.06816 v 19.92458 19.92459 h -10.46782 -10.46782 z m 25.76694,-1.68856 v -19.1226 l 6.84434,0.14831 c 3.76438,0.0816 8.11255,-0.44944 9.6626,-1.1801 2.60528,-1.22811 2.81826,0.20583 2.81826,18.97422 v 20.30278 h -9.6626 -9.6626 z m 24.1565,-2.58566 v -21.70827 l 8.45477,-4.84877 c 4.65013,-2.66682 8.9983,-4.85556 9.6626,-4.86389 0.66431,-0.008 1.20783,11.94236 1.20783,26.55705 v 26.57215 h -9.6626 -9.6626 z m 24.1565,-2.3675 c 0,-23.93251 0.0278,-24.11697 4.69114,-31.00084 2.58013,-3.80879 6.9283,-8.23426 9.66261,-9.83439 l 4.97145,-2.9093 v 33.91015 33.91015 h -9.66259 -9.66261 z m -110.58546,-2.62126 c -1.39925,-3.6464 1.08687,-5.44775 24.20234,-17.5361 l 20.71072,-10.83076 13.07771,3.28427 13.07771,3.28426 15.32981,-8.21267 c 18.33219,-9.82116 17.16561,-8.9333 14.81981,-11.27911 -3.63115,-3.63116 -1.8523,-4.48237 9.36736,-4.48237 6.20017,0 11.27304,0.45531 11.27304,1.0118 0,2.10896 -9.96068,18.31341 -11.25703,18.31341 -0.74692,0 -1.69603,-0.90587 -2.10912,-2.01304 -0.51706,-1.38583 -5.78264,0.62124 -16.89995,6.44173 -17.54211,9.18423 -21.48774,9.85806 -35.65134,6.08868 l -8.74706,-2.32788 -20.60719,10.39916 c -21.76168,10.98176 -25.01888,11.94454 -26.58681,7.85862 z m 214.45842,28.35831 c 14.32923,-6.16835 23.25824,-20.23816 23.31592,-36.73993 0.0427,-12.2191 -2.97947,-20.04678 -10.9137,-28.26731 -16.47539,-17.06995 -39.67791,-18.02804 -57.46321,-2.37278 -9.89466,8.70963 -13.63889,16.90109 -13.68446,29.93833 -0.0423,12.13591 2.46052,18.69223 10.55755,27.65465 7.43868,8.23372 13.38851,11.43834 23.96914,12.90988 9.70495,1.34977 15.59228,0.59063 24.21876,-3.12284 z m -56.6926,-2.41188 c -3.3791,-4.63807 -5.90326,-4.45752 -6.62892,0.47414 -0.43429,2.95137 0.26878,3.49733 4.50387,3.49733 h 5.0185 z m -202.03971,-1.83823 c 12.67049,-6.31396 18.50648,-14.95519 20.97036,-31.05039 1.86446,-12.17941 1.7731,-13.54125 -1.38876,-20.6998 -4.07666,-9.22973 -11.41356,-17.19671 -20.12908,-21.85775 -9.12679,-4.881 -27.93018,-4.85761 -37.19244,0.0462 -13.057394,6.91317 -23.099175,22.55879 -23.163448,36.08983 -0.14816,31.21313 32.792168,51.48028 60.903368,37.47187 z m 193.54962,-64.349 c 2.15506,-5.66825 2.25647,-5.53168 -4.10731,-5.53168 h -5.67787 l 2.49837,4.83131 c 3.0607,5.91875 5.22374,6.12664 7.28681,0.70037 z m -156.28773,-8.34993 c 0.0219,-1.23382 -2.14601,-2.01304 -5.6007,-2.01304 -6.47742,0 -6.51198,0.0774 -3.03539,6.80038 l 2.60111,5.03002 2.99959,-3.90216 c 1.64978,-2.14619 3.01569,-4.80803 3.03539,-5.9152 z m 233.53838,-0.50034 c -15.36413,-12.78346 -38.08824,-14.46242 -54.06433,-3.99448 -6.29098,4.122 -3.75811,4.56026 4.70912,0.81482 15.82938,-7.00209 33.60981,-5.25238 47.05636,4.63064 8.02431,5.89776 9.79094,4.78271 2.29885,-1.45098 z m -314.91948,-3.76328 c 12.33347,-8.36971 30.81794,-9.31715 45.58318,-2.33637 4.20814,1.98952 8.37585,3.95334 9.26159,4.36402 0.88573,0.41069 0.52339,-0.57351 -0.80523,-2.18711 -1.3286,-1.6136 -6.03911,-4.62314 -10.46781,-6.68789 -15.21919,-7.09548 -38.51535,-3.58401 -48.159996,7.25925 -4.008689,4.50688 -2.454344,4.36734 4.588266,-0.4119 z m 249.74633,-4.00947 c 5.40928,-4.7494 18.06122,-11.45472 21.61338,-11.45472 0.93434,0 1.69879,-1.14743 1.69879,-2.54985 0,-2.89915 0.51389,-3.05249 -11.27303,3.36381 -8.41151,4.57886 -9.80986,4.8216 -27.77839,4.82207 -10.40654,2.6e-4 -18.91835,0.36284 -18.91514,0.8057 0.003,0.44287 2.29718,3.2502 5.09767,6.23849 4.90886,5.23809 5.42997,5.40263 14.50437,4.57979 7.50702,-0.68071 10.55433,-1.85598 15.05235,-5.80529 z m -161.26768,-2.54068 c 1.43048,-2.18318 2.60087,-4.26227 2.60087,-4.6202 0,-0.35793 -7.42812,-0.98437 -16.50695,-1.39209 -9.07881,-0.40771 -17.95633,-1.56263 -19.7278,-2.56649 -8.77192,-4.97088 -16.90956,-8.28761 -16.90956,-6.892 0,0.85851 4.54456,3.72983 10.09903,6.38074 5.55447,2.65089 11.8407,6.67374 13.96942,8.93963 3.34613,3.5618 5.22513,4.11984 13.87223,4.11984 8.85353,0 10.30052,-0.45575 12.60276,-3.96943 z m 172.84995,-13.11548 c 6.56266,-3.2805 9.75964,-5.95497 10.82191,-9.05322 2.12303,-6.1921 0.3674,-6.99443 -6.29495,-2.87687 -16.78682,10.37482 -45.88033,10.59427 -63.46833,0.47877 -7.60982,-4.3767 -7.47704,-3.33128 0.90315,7.11032 6.71079,8.36155 13.28546,10.20561 33.88173,9.50316 12.53394,-0.4275 16.29081,-1.23033 24.15649,-5.16216 z m -170.51983,0.88818 c 6.33356,-1.3583 8.78358,-2.88848 12.10969,-7.5632 2.29334,-3.2232 3.98178,-6.04832 3.75207,-6.27801 -0.22972,-0.22971 -3.65049,0.72951 -7.60174,2.13159 -16.30096,5.78437 -45.91859,2.60072 -57.01638,-6.1288 l -4.1172,-3.2386 v 4.69859 c 0,12.69799 28.65129,21.57319 52.87356,16.37843 z m 164.81155,-13.06421 c 10.88508,-3.26126 20.58969,-13.75333 16.50199,-17.84102 -0.51492,-0.51492 -3.51311,0.81252 -6.66267,2.94988 -7.91517,5.37137 -16.75729,7.44885 -31.85676,7.48478 -15.25341,0.0364 -25.42728,-2.41511 -32.62604,-7.86129 -4.46846,-3.38059 -5.39251,-3.59607 -6.2162,-1.44956 -1.17617,3.06506 2.88445,9.60064 8.08012,13.00497 9.96762,6.53104 37.02043,8.4338 52.77956,3.71224 z m -152.84967,-5.09784 c 7.63473,-3.19 12.46537,-8.24036 12.46537,-13.03235 v -3.9094 l -9.92214,5.11722 c -9.48303,4.89079 -10.75437,5.11725 -28.72826,5.11725 -17.9739,0 -19.24523,-0.22646 -28.72827,-5.11725 l -9.92214,-5.11722 v 4.60495 c 0,4.89444 4.99062,9.55563 13.88096,12.96468 12.03535,4.61503 39.20779,4.28019 50.95448,-0.62788 z m 150.4795,-9.78024 c 10.33432,-2.75138 17.8688,-7.93853 19.1927,-13.21327 0.55134,-2.19681 0.66741,-4.32924 0.2579,-4.73876 -0.40953,-0.40951 -5.05927,1.48068 -10.33275,4.20044 -16.88823,8.70993 -45.88174,8.15469 -59.5797,-1.141 -6.72002,-4.56033 -8.64104,-4.73185 -8.64104,-0.77161 0,13.45576 33.7753,22.40733 59.10289,15.6642 z m -152.55388,-4.88136 c 9.50525,-3.46144 14.53975,-8.36072 14.53975,-14.14919 v -4.63254 l -5.23391,3.90872 c -8.20285,6.12595 -16.81017,8.2513 -33.41649,8.2513 -16.60632,0 -25.21365,-2.12535 -33.4165,-8.2513 l -5.23391,-3.90872 v 4.7701 c 0,5.82036 7.03668,12.31262 15.77495,14.55441 3.28125,0.84181 7.4153,1.90954 9.18678,2.37275 6.09487,1.5937 30.60908,-0.29712 37.79933,-2.91553 z m 45.72602,-5.85124 c 3.24435,-2.55201 4.24327,-4.76795 4.24327,-9.413 0,-11.16214 -10.55702,-16.12091 -19.07023,-8.95752 -6.38236,5.3704 -6.81054,12.07825 -1.13338,17.75538 4.83079,4.83082 10.33146,5.04282 15.96034,0.61514 z m -11.91616,-11.25909 c -1.32953,-2.48425 -1.27775,-3.9276 0.20503,-5.71423 2.98506,-3.59679 8.60855,-2.12925 9.25095,2.41418 0.91995,6.50625 -6.37716,9.05288 -9.45598,3.30005 z m 44.41521,10.64395 c 7.77114,-7.77113 2.59838,-20.20361 -8.40608,-20.20361 -11.27073,0 -16.32237,13.92177 -7.55427,20.81875 5.62889,4.42768 11.12955,4.21568 15.96035,-0.61514 z m -10.15722,-9.19095 c -4.31543,-4.31543 0.0579,-10.50135 6.07429,-8.59182 2.528,0.80236 3.26541,2.16914 2.89554,5.36696 -0.55282,4.77959 -5.60038,6.59431 -8.96983,3.22486 z m 77.79658,6.55206 c 21.64909,-4.00205 32.17379,-14.89184 22.85426,-23.64707 -7.45774,-7.00617 -18.22169,-10.31401 -33.96786,-10.43851 -16.33271,-0.12916 -25.27434,1.82218 -33.25593,7.25744 -7.90369,5.38221 -9.33602,8.42354 -6.41698,13.62537 3.28027,5.84556 10.56898,9.83865 22.80826,12.49544 12.8662,2.79286 16.23576,2.87805 27.97825,0.70733 z m -148.1185,-5.72756 c 12.28432,-4.11225 16.79382,-7.90184 16.79382,-14.11289 0,-6.24216 -2.89673,-9.22073 -13.5507,-13.93348 -23.07604,-10.20764 -63.75011,-1.8194 -63.75011,13.14719 0,6.16787 5.57376,11.42985 15.6743,14.79754 10.50321,3.50195 34.51243,3.55637 44.83269,0.10167 z m 64.39421,-21.41707 c 7.79636,-0.079 8.36468,-0.3947 13.28607,-7.37673 2.82772,-4.01172 5.14131,-7.6352 5.14131,-8.05218 0,-0.41696 -2.81543,-0.75812 -6.25652,-0.75812 -4.95248,0 -6.82543,0.86827 -8.98605,4.1658 -1.50125,2.2912 -3.06954,3.82584 -3.48508,3.41029 -0.41554,-0.41552 0.29307,-6.81949 1.57467,-14.23101 1.73793,-10.05043 1.86034,-13.776233 0.4816,-14.65867 -2.61626,-1.674496 -23.93593,-1.473578 -26.66044,0.251244 -1.87989,1.19011 -1.94846,3.014377 -0.4026,10.711756 1.02473,5.10252 1.8141,11.14938 1.75416,13.43744 -0.10887,4.15229 -0.11225,4.15331 -1.85653,0.53663 -1.36339,-2.82696 -3.10949,-3.62348 -7.94317,-3.62348 -3.40761,0 -6.19564,0.43028 -6.19564,0.95617 0,0.52588 2.25266,4.72237 5.00592,9.32549 l 5.00592,8.36935 10.6958,-1.19064 c 5.88269,-0.65486 14.36094,-1.22785 18.84058,-1.27334 z"
     id="path1022"
     inkscape:connector-curvature="0" />
</svg>
