<?xml version="1.0" encoding="UTF-8" standalone="no"?>
<svg
   xmlns:dc="http://purl.org/dc/elements/1.1/"
   xmlns:cc="http://creativecommons.org/ns#"
   xmlns:rdf="http://www.w3.org/1999/02/22-rdf-syntax-ns#"
   xmlns:svg="http://www.w3.org/2000/svg"
   xmlns="http://www.w3.org/2000/svg"
   xmlns:sodipodi="http://sodipodi.sourceforge.net/DTD/sodipodi-0.dtd"
   xmlns:inkscape="http://www.inkscape.org/namespaces/inkscape"
   fill="#7289da"
   height="512"
   width="512"
   version="1.1"
   id="svg4979"
   sodipodi:docname="coinlib.svg"
   inkscape:version="0.92.2 2405546, 2018-03-11">
  <metadata
     id="metadata4985">
    <rdf:RDF>
      <cc:Work
         rdf:about="">
        <dc:format>image/svg+xml</dc:format>
        <dc:type
           rdf:resource="http://purl.org/dc/dcmitype/StillImage" />
        <dc:title />
      </cc:Work>
    </rdf:RDF>
  </metadata>
  <defs
     id="defs4983" />
  <sodipodi:namedview
     pagecolor="#ffffff"
     bordercolor="#666666"
     borderopacity="1"
     objecttolerance="10"
     gridtolerance="10"
     guidetolerance="10"
     inkscape:pageopacity="0"
     inkscape:pageshadow="2"
     inkscape:window-width="1722"
     inkscape:window-height="908"
     id="namedview4981"
     showgrid="false"
     inkscape:zoom="0.65186406"
     inkscape:cx="132.59549"
     inkscape:cy="266.02287"
     inkscape:window-x="70"
     inkscape:window-y="31"
     inkscape:window-maximized="0"
     inkscape:current-layer="svg4979" />
  <circle
     style="opacity:1;fill:#795548;fill-opacity:1;stroke:none;stroke-width:25.67475319;stroke-miterlimit:4;stroke-dasharray:none;stroke-opacity:1"
     id="path817"
     cx="256"
     cy="256"
     r="256" />
  <path
     inkscape:connector-curvature="0"
     id="path1539"
     d="m 291.09018,86.724848 c 10.70374,2.138081 29.7029,9.086862 42.27981,15.233862 30.23809,14.69934 61.54657,45.16706 75.72904,74.03123 5.61947,10.69042 9.90097,21.38085 9.90097,23.25167 0,4.54344 -24.35104,7.48331 -48.96966,5.87974 -24.08344,-1.60357 -38.26591,-7.75056 -62.08176,-27.26059 -10.16856,-8.55234 -23.28066,-17.90647 -29.16772,-20.84633 -18.46397,-9.35413 -54.85672,-5.34522 -77.86979,8.55234 -14.18246,8.8196 -32.91403,30.46772 -40.67425,46.77062 -6.42225,13.89756 -7.49262,19.51003 -7.49262,40.08911 0,21.91538 0.80278,25.92429 8.83059,41.95993 18.99915,39.02007 62.88454,63.07353 102.756,57.1938 9.09819,-1.33631 16.32322,-5.61249 33.98441,-20.31182 24.35104,-20.04455 36.66035,-26.72607 58.87063,-32.07129 17.3936,-4.0089 44.42057,-4.27617 54.85674,-0.26725 6.42225,2.6726 7.22503,4.0089 5.61946,10.42316 -6.15465,24.85525 -36.39276,62.80627 -65.02529,81.51451 -31.84366,20.84635 -59.67341,29.13142 -96.86895,29.13142 C 174.68689,420.26623 106.71807,368.68491 86.916122,291.71383 69.790123,224.89865 98.42266,152.20373 157.0257,113.18365 197.96754,86.190326 243.72607,77.103461 291.09018,86.724848 Z"
     style="fill:#ffffff;fill-opacity:1;stroke:none;stroke-width:0.26742718" />
</svg>
