<?xml version="1.0" encoding="UTF-8" standalone="no"?>
<svg
   xmlns:dc="http://purl.org/dc/elements/1.1/"
   xmlns:cc="http://creativecommons.org/ns#"
   xmlns:rdf="http://www.w3.org/1999/02/22-rdf-syntax-ns#"
   xmlns:svg="http://www.w3.org/2000/svg"
   xmlns="http://www.w3.org/2000/svg"
   xmlns:sodipodi="http://sodipodi.sourceforge.net/DTD/sodipodi-0.dtd"
   xmlns:inkscape="http://www.inkscape.org/namespaces/inkscape"
   fill="#7289da"
   height="512"
   width="512"
   version="1.1"
   id="svg4979"
   sodipodi:docname="coinlib.svg"
   inkscape:version="0.92.2 2405546, 2018-03-11">
  <metadata
     id="metadata4985">
    <rdf:RDF>
      <cc:Work
         rdf:about="">
        <dc:format>image/svg+xml</dc:format>
        <dc:type
           rdf:resource="http://purl.org/dc/dcmitype/StillImage" />
        <dc:title></dc:title>
      </cc:Work>
    </rdf:RDF>
  </metadata>
  <defs
     id="defs4983" />
  <sodipodi:namedview
     pagecolor="#ffffff"
     bordercolor="#666666"
     borderopacity="1"
     objecttolerance="10"
     gridtolerance="10"
     guidetolerance="10"
     inkscape:pageopacity="0"
     inkscape:pageshadow="2"
     inkscape:window-width="1722"
     inkscape:window-height="908"
     id="namedview4981"
     showgrid="false"
     inkscape:zoom="0.65186406"
     inkscape:cx="447.84527"
     inkscape:cy="266.02287"
     inkscape:window-x="1985"
     inkscape:window-y="130"
     inkscape:window-maximized="0"
     inkscape:current-layer="svg4979" />
  <g
     id="g5825">
    <rect
       style="fill:#795548;fill-opacity:1"
       id="rect4971"
       rx="15%"
       height="512"
       width="512" />
    <rect
       rx="95.25724"
       y="27.902557"
       x="24.544996"
       height="457.25137"
       width="463.57825"
       id="rect5821"
       style="opacity:1;fill:#ffffff;fill-opacity:1;stroke-width:1.24032867" />
  </g>
  <g
     transform="matrix(0.26762441,0,0,-0.26762441,-19.226152,538.38725)"
     id="g1541"
     style="fill:#795548;fill-opacity:1;stroke:none">
    <path
       inkscape:connector-curvature="0"
       d="M 626,1960 C 561,1955 485,1946 458,1941 310,1909 183,1784 146,1635 101,1450 98,733 141,510 177,330 319,197 505,171 c 305,-43 943,-34 1114,15 145,41 262,172 291,324 5,27 15,163 21,301 13,289 -1,726 -27,827 -43,166 -184,287 -365,313 -97,13 -760,20 -913,9 z m 546,-285 c 40,-8 111,-34 158,-57 113,-55 230,-169 283,-277 21,-40 37,-80 37,-87 0,-17 -91,-28 -183,-22 -90,6 -143,29 -232,102 -38,32 -87,67 -109,78 -69,35 -205,20 -291,-32 -53,-33 -123,-114 -152,-175 -24,-52 -28,-73 -28,-150 0,-82 3,-97 33,-157 71,-146 235,-236 384,-214 34,5 61,21 127,76 91,75 137,100 220,120 65,15 166,16 205,1 24,-10 27,-15 21,-39 C 1622,749 1509,607 1402,537 1283,459 1179,428 1040,428 737,427 483,620 409,908 c -64,250 43,522 262,668 153,101 324,135 501,99 z"
       id="path1539"
       style="fill:#795548;fill-opacity:1" />
  </g>
</svg>
