<?xml version="1.0" encoding="utf-8"?>
<!-- Generator: Adobe Illustrator 21.1.0, SVG Export Plug-In . SVG Version: 6.00 Build 0)  -->
<svg version="1.1"
	 id="svg4979" inkscape:version="0.92.2 2405546, 2018-03-11" sodipodi:docname="chopcoin.svg" xmlns:cc="http://creativecommons.org/ns#" xmlns:dc="http://purl.org/dc/elements/1.1/" xmlns:inkscape="http://www.inkscape.org/namespaces/inkscape" xmlns:rdf="http://www.w3.org/1999/02/22-rdf-syntax-ns#" xmlns:sodipodi="http://sodipodi.sourceforge.net/DTD/sodipodi-0.dtd" xmlns:svg="http://www.w3.org/2000/svg"
	 xmlns="http://www.w3.org/2000/svg" xmlns:xlink="http://www.w3.org/1999/xlink" x="0px" y="0px" viewBox="0 0 512 512"
	 style="enable-background:new 0 0 512 512;" xml:space="preserve">
<style type="text/css">
	.st0{fill:#795548;}
	.st1{fill:#FFFFFF;}
</style>
<sodipodi:namedview  bordercolor="#666666" borderopacity="1" gridtolerance="10" guidetolerance="10" id="namedview4981" inkscape:current-layer="g5825" inkscape:cx="191.97143" inkscape:cy="276.04206" inkscape:pageopacity="0" inkscape:pageshadow="2" inkscape:window-height="1028" inkscape:window-maximized="1" inkscape:window-width="1920" inkscape:window-x="0" inkscape:window-y="0" inkscape:zoom="1" objecttolerance="10" pagecolor="#ffffff" showgrid="true">
	<inkscape:grid  dotted="false" empspacing="2" id="grid26552" type="xygrid"></inkscape:grid>
</sodipodi:namedview>
<g id="g5825">
	<circle id="path817" class="st0" cx="256" cy="256" r="256"/>
</g>
<g id="White">
	<polyline id="Bar_Left_4_" class="st1" points="192.5,313.7 192.5,284.3 222.5,253.7 222.5,313.7 	"/>
	<polyline id="Bar_Middle_4_" class="st1" points="236.1,313.7 236.1,273 250.6,283.8 268.6,268.3 268.6,313.7 	"/>
	<polyline id="Bar_Right_4_" class="st1" points="280.6,313.7 315,313.7 315,226.7 280.6,257.7 	"/>
	<path id="Arrow_4_" class="st1" d="M190.9,268.3l-7-8.3l38.8-38l27.9,27l49.1-45.6l-8.2-10l34.7-8.1l-6.8,34.2l-9.8-7.2l-59,58
		l-27.9-24.4l-2.8-2.6c0,0-25.7,27-27.4,26"/>
	<path class="st1" d="M292,367.3l-6.5-24.2c50.1-13.8,93.1-43.7,112.3-77.9c9.9-17.7,12.9-35.4,8.6-51.4
		c-6.1-22.8-26.2-40.6-56.9-50.3c-32.5-10.3-72.2-9.9-111.7,1l-6.6-24.2c44-12.2,88.6-12.4,125.5-0.7c38.8,12.3,64.9,36.2,73.3,67.6
		c6,22.5,2.3,46.9-10.9,70.5C396.6,318,349,351.6,292,367.3z"/>
	<path class="st1" d="M213.7,380.9c-20.7,0-40.6-2.8-58.7-8.5c-38.8-12.3-64.8-36.3-73.2-67.6c-6-22.5-2.3-46.9,10.9-70.5
		c22.7-40.4,70.3-73.9,127.2-89.6l6.5,24.2c-50.1,13.8-93.1,43.7-112.3,77.9c-9.9,17.7-12.9,35.4-8.6,51.4
		c6.1,22.8,26.2,40.6,56.9,50.3c32.5,10.3,72.2,9.9,111.7-1l6.5,24.2C258.1,377.8,235.4,380.9,213.7,380.9z"/>
</g>
</svg>
