<?xml version="1.0" encoding="utf-8"?>
<!-- Generator: Adobe Illustrator 23.0.2, SVG Export Plug-In . SVG Version: 6.00 Build 0)  -->
<svg version="1.1"
	 id="svg4979" xmlns:cc="http://creativecommons.org/ns#" xmlns:dc="http://purl.org/dc/elements/1.1/" xmlns:inkscape="http://www.inkscape.org/namespaces/inkscape" xmlns:rdf="http://www.w3.org/1999/02/22-rdf-syntax-ns#" xmlns:sodipodi="http://sodipodi.sourceforge.net/DTD/sodipodi-0.dtd" xmlns:svg="http://www.w3.org/2000/svg"
	 xmlns="http://www.w3.org/2000/svg" xmlns:xlink="http://www.w3.org/1999/xlink" x="0px" y="0px" viewBox="0 0 512 512"
	 style="enable-background:new 0 0 512 512;" xml:space="preserve">
<style type="text/css">
	.st0{fill:#795548;}
	.st1{fill:#FFFFFF;}
</style>
<sodipodi:namedview  bordercolor="#666666" borderopacity="1" gridtolerance="10" guidetolerance="10" id="namedview4981" inkscape:current-layer="svg4979" inkscape:cx="157.32324" inkscape:cy="449.64054" inkscape:pageopacity="0" inkscape:pageshadow="2" inkscape:window-height="908" inkscape:window-maximized="0" inkscape:window-width="1722" inkscape:window-x="104" inkscape:window-y="76" inkscape:zoom="0.48475485" objecttolerance="10" pagecolor="#ffffff" showgrid="false">
	</sodipodi:namedview>
<circle id="path817" class="st0" cx="256" cy="256" r="256"/>
<path class="st1" d="M260.2,400.9c-60.8,0.9-101.6-28.5-116.1-87.7c-13.7-56-14.6-112.2,18-163.1c27.6-43.1,70.9-52.3,117.9-46.5
	c40.9,5,71.2,26.8,84.9,66.8c2.8,8.1,2.3,23.1-2.7,27c-12.1,9.2-43.5,1.2-48.3-9.2c-15.5-33.4-33.6-44.9-64.6-40.9
	c-29.3,3.8-49.2,22.5-52.4,57.3c-2.9,31.8-2.2,64.4,1.1,96.3c3.5,34.1,22.5,52.2,50.7,55.8c32.2,4.1,52.5-8.8,66.5-42.1
	c4.6-10.9,33.8-19.8,47.7-11.1c5.3,3.3,7.1,18.4,4.8,26.5C355,375.2,316.1,400.1,260.2,400.9z"/>
</svg>
