<?xml version="1.0" encoding="utf-8"?>
<!-- Generator: Adobe Illustrator 21.1.0, SVG Export Plug-In . SVG Version: 6.00 Build 0)  -->
<svg version="1.1"
	 id="svg4979" inkscape:version="0.92.2 2405546, 2018-03-11" sodipodi:docname="chopcoin.svg" xmlns:cc="http://creativecommons.org/ns#" xmlns:dc="http://purl.org/dc/elements/1.1/" xmlns:inkscape="http://www.inkscape.org/namespaces/inkscape" xmlns:rdf="http://www.w3.org/1999/02/22-rdf-syntax-ns#" xmlns:sodipodi="http://sodipodi.sourceforge.net/DTD/sodipodi-0.dtd" xmlns:svg="http://www.w3.org/2000/svg"
	 xmlns="http://www.w3.org/2000/svg" xmlns:xlink="http://www.w3.org/1999/xlink" x="0px" y="0px" viewBox="0 0 512 512"
	 style="enable-background:new 0 0 512 512;" xml:space="preserve">
<style type="text/css">
	.st0{fill:#FFFFFF;}
</style>
<sodipodi:namedview  bordercolor="#666666" borderopacity="1" gridtolerance="10" guidetolerance="10" id="namedview4981" inkscape:current-layer="g5825" inkscape:cx="191.97143" inkscape:cy="276.04206" inkscape:pageopacity="0" inkscape:pageshadow="2" inkscape:window-height="1028" inkscape:window-maximized="1" inkscape:window-width="1920" inkscape:window-x="0" inkscape:window-y="0" inkscape:zoom="1" objecttolerance="10" pagecolor="#ffffff" showgrid="true">
	<inkscape:grid  dotted="false" empspacing="2" id="grid26552" type="xygrid"></inkscape:grid>
</sodipodi:namedview>
<g>
	<path class="st0" d="M449.5,297.2c-18.8,0.2-37.7,0.1-56.6,0c-3,0-6.1,0-9.1-0.1c-6-0.3-9.9-2.9-9.8-9.4c0.1-6.1,3.8-8.6,9.4-8.9
		c4.6-0.3,9.1-0.1,13.7-0.3c10.9-0.6,17.9-7.5,18-17.6s-6.6-17.1-17.6-18.1c-3.3-0.3-6.7-0.2-10-0.3c-10-0.3-13.6-2.8-13.5-9.5
		c0.2-6.6,3.7-8.9,14-9c11.3-0.1,22.5,0,33.8-0.1c3.3,0,6.7,0,10-0.3c11.2-1.1,18.1-11.6,14.6-22.3c-2.9-9-8.4-12.9-19.4-13.4
		c-14.3-0.6-28.6-0.1-42.9-0.3c-6-0.1-10.7-1.9-12.8-8.1c-6.8-20.6-20.6-34.7-40.3-43.4c-6-2.6-8.6-7.2-8.6-13.7
		c0-5.5,0.2-11-0.4-16.4c-1.2-10.4-8.9-16.8-19.4-16.5c-10,0.3-15.4,6-16.2,17.1c-0.3,4.9-0.1,9.7-0.4,14.6
		c-0.3,5.6-2.8,9.3-8.9,9.5c-6.6,0.1-9.2-3.8-9.5-9.8c-0.1-2.7-0.1-5.5-0.1-8.2c0-13.1-0.3-26.2,0-39.2c0.2-8.8-2.6-14.7-11.7-16.4
		c-4.3,0-8.5,0-12.8,0c-9.1,1.7-12.3,7.6-11.7,16.4c0.3,3.9,0,7.9,0,11.8c-0.1,11.8,0.1,23.7-0.1,35.5c-0.1,6-2.6,10-9.2,9.9
		c-6.6,0-9-4.1-9.2-10.1c-0.2-4.9,0-9.7-0.3-14.6c-0.8-10.5-6.1-16.1-15.7-16.5c-10.2-0.5-18,5.4-19.7,15.1
		c-0.7,3.9-0.9,7.9-0.5,11.8c1.3,11.3-3.3,17.8-13.8,22.5c-16.5,7.3-28,20.3-33.8,37.4c-2.8,8.2-7.6,11.5-16.1,11.4
		c-16.7-0.2-33.4,0-50.1-0.1c-8.6,0-14.7,2.8-17,11.7c0,4.9,0,9.7,0,14.6c2.3,7.6,7.5,10.4,15.2,9.9c4.2-0.3,8.5,0,12.8,0
		c14,0.1,28-0.2,42,0.2c5.7,0.2,9.2,3,9.2,9s-3.3,8.8-9.1,9.2c-4.9,0.3-9.7,0-14.6,0.5c-10.9,1-17.7,8.1-17.5,18.3
		c0.1,10.1,7.1,16.8,18.2,17.5c5.2,0.3,10.4-0.1,15.5,0.5c3.6,0.5,6.3,2.3,7.2,6c0.8,3.4,0.6,6.7-2,9.4c-2.6,2.7-6,2.7-9.4,2.7
		c-12.8,0.2-25.6-0.2-38.3,0.3c-7.6,0.3-13.5,3.4-16.6,10.7c-5,11.9,2.8,23.8,16.8,24.9c12.1,1,24.3,0.2,36.5,0.4
		c12,0.2,13.1,0.9,17.3,12c6.7,17.6,18.9,30.6,35.8,38.3c8.1,3.7,11.7,8.3,11.9,17.1c0.3,12.9,7,19.7,17.8,19.8
		c11.8,0.1,16.7-5,18-19.1c0.8-8.4,3.7-11.6,10-11.2c7.4,0.5,8.5,5.7,8.6,11.6c0.1,12.2,0.3,24.3,0,36.5
		c-0.2,8.8,2.6,14.7,11.7,16.5c4.3,0,8.5,0,12.8,0c9.1-1.7,11.9-7.6,11.7-16.4c-0.3-12.4-0.1-24.9,0-37.4c0.1-6.2,2.1-10.9,9.3-10.8
		c7.2,0.1,9.1,4.9,9.2,11c0.1,4.3,0,8.5,0.2,12.8c0.7,11.5,6.1,17.1,16.8,17.4c10.3,0.3,17.7-6.2,18.9-16.8
		c0.6-5.1,0.5-10.3,0.4-15.5c-0.2-7.3,2.9-11.7,9.7-14.7c18.2-7.8,30.7-21.3,37.9-39.7c4-10.3,5.4-11.4,16.8-11.5
		c20-0.2,40.1-0.2,60.1,0c9.1,0.1,16.3-1.9,18.9-11.7c0-4.3,0-8.5,0-12.8C464.2,299.8,458.3,297.1,449.5,297.2z M347.3,319.8
		c0.1,25.6-17.7,43-42.3,43.6c-37.1,1-74.2,1.1-111.2,0c-24.4-0.7-42-18.2-41.9-44c0.2-39.8,0-79.6,0.1-119.5
		c0-21.4,13.8-37.1,34.9-40.8c20.5-3.6,41.1-1.1,61.6-1.6c17.9-0.5,35.9-1,53.8,0.1c21.6,1.3,35.9,7.5,43.9,32.1
		c1.5,4.6,1,8.9,1.1,13.4c0.2,19.1,0.1,38.3,0.1,57.5C347.3,280.3,347.2,300,347.3,319.8z"/>
	<path class="st0" d="M288.8,186.6c-26.7-0.1-53.5-0.1-80.2,0c-11.7,0-18.3,6.6-18.3,18.4c0,22.8,0.4,45.6-0.1,68.4
		c-0.4,16.7,6.6,22.3,22.7,22.6c19.1,0.4,38.3,0,57.4,0.2c2.7,0,7.3-2.5,7.5,3.4c0.2,6-4.6,3.6-7.3,3.7c-21,0.2-41.9,0.2-62.9,0
		c-4.2,0-6.2,0.9-7.4,5.4c-2.1,8.3-5.3,16.2-8.5,25.7c33.3,0,65.4,0,97.6,0c13.5,0,19.5-6.1,19.5-20c0-35.9,0-71.7,0-107.6
		C308.9,192.7,303,186.7,288.8,186.6z M278,259.4c0.1,4.2-1,5.9-5.6,5.8c-15.2-0.2-30.4-0.2-45.6,0c-4.5,0.1-5.7-1.6-5.6-5.8
		c0.2-11.9,0.3-23.7,0-35.6c-0.1-4.6,1-6.5,6-6.3c7.6,0.4,15.2,0.1,22.8,0.1c7.3,0,14.6,0.3,21.9-0.1c5-0.3,6.2,1.6,6.1,6.3
		C277.7,235.7,277.8,247.5,278,259.4z"/>
</g>
</svg>
