<?xml version="1.0" encoding="UTF-8" standalone="no"?>
<svg
   xmlns:dc="http://purl.org/dc/elements/1.1/"
   xmlns:cc="http://creativecommons.org/ns#"
   xmlns:rdf="http://www.w3.org/1999/02/22-rdf-syntax-ns#"
   xmlns:svg="http://www.w3.org/2000/svg"
   xmlns="http://www.w3.org/2000/svg"
   xmlns:sodipodi="http://sodipodi.sourceforge.net/DTD/sodipodi-0.dtd"
   xmlns:inkscape="http://www.inkscape.org/namespaces/inkscape"
   fill="#7289da"
   height="512"
   width="512"
   version="1.1"
   id="svg4979"
   sodipodi:docname="gremlinsmarketing.svg"
   inkscape:version="0.92.2 2405546, 2018-03-11">
  <metadata
     id="metadata4985">
    <rdf:RDF>
      <cc:Work
         rdf:about="">
        <dc:format>image/svg+xml</dc:format>
        <dc:type
           rdf:resource="http://purl.org/dc/dcmitype/StillImage" />
        <dc:title></dc:title>
      </cc:Work>
    </rdf:RDF>
  </metadata>
  <defs
     id="defs4983">
    <style
       id="style1516">
      .cls-1, .cls-5, .cls-6 {
        fill: none;
        stroke-linecap: round;
      }

      .cls-1, .cls-5 {
        stroke: #183c87;
      }

      .cls-1 {
        stroke-width: 75px;
      }

      .cls-2, .cls-3 {
        fill: #183c87;
      }

      .cls-2, .cls-5, .cls-6 {
        fill-rule: evenodd;
      }

      .cls-4 {
        fill: #fff;
      }

      .cls-5 {
        stroke-width: 101px;
      }

      .cls-6 {
        stroke: #fff;
        stroke-width: 56px;
      }
    </style>
  </defs>
  <sodipodi:namedview
     pagecolor="#ffffff"
     bordercolor="#666666"
     borderopacity="1"
     objecttolerance="10"
     gridtolerance="10"
     guidetolerance="10"
     inkscape:pageopacity="0"
     inkscape:pageshadow="2"
     inkscape:window-width="1722"
     inkscape:window-height="908"
     id="namedview4981"
     showgrid="false"
     inkscape:zoom="0.48475485"
     inkscape:cx="157.32324"
     inkscape:cy="449.64054"
     inkscape:window-x="104"
     inkscape:window-y="76"
     inkscape:window-maximized="0"
     inkscape:current-layer="svg4979" />
  <circle
     style="opacity:1;fill:#795548;fill-opacity:1;stroke:none;stroke-width:25.67475319;stroke-miterlimit:4;stroke-dasharray:none;stroke-opacity:1"
     id="path817"
     cx="256"
     cy="256"
     r="256" />
  <path
     style="fill:#ffffff;fill-opacity:1;stroke-width:2.00485158"
     d="m 226.19773,402.48686 c -1.6688,-3.99401 -3.12412,-9.18156 -3.23402,-11.5279 -0.17643,-3.76808 -0.3626,-3.68099 -1.59402,0.74605 -2.0646,7.42222 -5.03863,6.1851 -13.0183,-5.41529 -9.21651,-13.39844 -18.89481,-46.71085 -13.57096,-46.71085 0.9293,0 3.80364,4.11028 6.38741,9.13396 6.09682,11.85413 7.2478,12.34151 8.85934,3.7513 1.37226,-7.31476 5.53305,-8.56032 6.79815,-2.03509 1.30554,6.73382 -1.48323,13.14152 -5.21011,11.97119 -5.62064,-1.76501 3.27661,5.1309 10.8583,8.41585 5.39235,2.33635 7.77447,2.31141 16.12638,-0.16881 11.21988,-3.33194 25.2975,-14.50029 29.93847,-23.75142 6.41565,-12.78866 17.85042,-29.33577 20.28407,-29.35279 1.37833,-0.01 2.50606,0.42561 2.50606,0.96724 0,2.6416 -12.75725,29.08797 -14.03151,29.08797 -2.96063,0 -22.05582,33.74159 -22.05582,38.97307 0,12.76122 -8.6722,17.65781 -12.64279,7.13852 -3.21328,-8.51296 -5.40087,-7.45729 -5.40087,2.60631 0,7.98071 -2.59291,13.4325 -6.38862,13.4325 -0.86734,0 -2.94236,-3.26783 -4.61116,-7.26181 z m -4.64622,-38.56458 c -2.09631,-1.3296 -2.14848,-3.50892 -0.26322,-10.99599 1.29321,-5.13575 2.92081,-9.33433 3.61689,-9.3302 2.16901,0.012 8.68608,17.76625 7.3283,19.96319 -1.53652,2.48611 -7.03974,2.67313 -10.68197,0.363 z m 14.90717,0.31255 c -1.88295,-1.88297 -1.47294,-15.21037 0.56708,-18.43214 1.36772,-2.16005 2.50353,-1.38279 4.98143,3.40893 1.76535,3.41382 3.20973,7.57326 3.20973,9.24325 0,3.34341 -6.74406,7.79414 -8.75824,5.77996 z m 11.76118,-14.65729 c -1.7357,-10.27356 0.15638,-12.47591 5.28401,-6.1508 4.54622,5.60785 4.24395,12.86589 -0.57403,13.78359 -2.48437,0.47323 -3.66322,-1.43721 -4.70998,-7.63279 z m 49.91918,-13.11467 c -2.63582,-10.50196 0.3615,-24.71848 7.22703,-34.27857 6.2993,-8.77161 6.49678,-9.59368 4.43764,-18.47164 -1.18529,-5.11031 -2.76597,-10.87029 -3.51266,-12.79996 -2.22118,-5.74035 4.13462,-4.22127 12.28705,2.93665 l 7.34061,6.44514 -1.45432,-6.94635 c -0.7999,-3.82049 -3.62068,-10.89427 -6.26843,-15.71948 -5.71814,-10.42068 -5.69597,-10.27296 -1.54223,-10.27296 3.97858,0 14.94951,6.43006 25.90534,15.18312 8.12875,6.49437 13.79942,18.29671 11.57554,24.09208 -1.45116,3.78165 -5.94611,3.59586 -7.44404,-0.30767 -2.50334,-6.5236 -5.4986,-0.10966 -5.06916,10.85491 0.34862,8.90122 -0.15879,11.15684 -2.3701,10.53748 -8.4283,-2.36061 -10.81162,-1.17568 -12.67445,6.30139 -2.0647,8.28742 -4.04282,9.1648 -9.50929,4.21771 -3.45693,-3.12847 -3.90924,-2.70754 -8.67848,8.07656 -2.76732,6.25738 -5.03148,12.25353 -5.03148,13.32475 0,4.12466 -3.99689,1.69432 -5.21857,-3.17316 z m -124.10087,-0.91424 c -0.74205,-2.33801 -5.31424,-8.47741 -10.16043,-13.64311 -4.84616,-5.16568 -8.82649,-10.86722 -8.84518,-12.67006 -0.018,-1.80284 -2.25983,-4.73636 -4.98033,-6.5189 -3.91181,-2.56312 -4.60655,-4.15958 -3.32168,-7.63291 1.07851,-2.91549 0.55093,-6.31592 -1.5694,-10.11521 -3.12694,-5.60298 -3.05375,-5.85016 3.48091,-11.75776 3.67122,-3.31895 7.67208,-5.70209 8.89077,-5.29587 1.21871,0.40624 2.16049,4.53287 2.09287,9.17031 -0.12972,8.8924 2.24894,12.31292 5.97281,8.58904 3.93841,-3.93841 5.21548,-2.40776 4.03913,4.84116 -0.87367,5.38387 0.38433,10.39606 5.26941,20.99436 4.07384,8.83831 6.18615,16.26564 5.78464,20.34002 -0.74488,7.55896 -4.72595,9.77217 -6.65352,3.69893 z m 50.43242,-9.50251 c -3.13603,-10.57531 -1.33046,-15.7614 4.41683,-12.68636 2.55657,1.36789 3.14178,4.06263 2.60326,11.98699 -0.3821,5.62232 -1.48253,10.22241 -2.4454,10.22241 -0.96289,0 -3.02149,-4.28537 -4.57469,-9.52304 z m 15.63949,-1.30343 c -1.68847,-9.00026 -0.53776,-14.23417 3.12945,-14.23417 3.33632,0 4.99575,8.72044 3.09816,16.28106 -1.72241,6.86261 -4.7424,5.86998 -6.22761,-2.04689 z m -28.99054,-1.23862 c -2.90178,-7.00547 -0.5243,-11.39351 5.02031,-9.26584 2.28541,0.877 3.08062,3.17454 2.64083,7.63 -0.83971,8.50731 -4.49187,9.28713 -7.66114,1.63584 z m 42.3731,-2.33612 c -3.97267,-9.28546 -3.71988,-12.67795 1.08204,-14.52063 5.08332,-1.95064 6.68105,0.65081 6.68105,10.87818 0,12.88492 -3.17206,14.37326 -7.76309,3.64245 z m -53.45531,2.25815 c -2.00534,-3.24471 0.90104,-12.30656 3.65286,-11.3893 1.33767,0.4459 2.3419,1.86327 2.23164,3.1497 -0.11027,1.28645 -0.33582,4.14337 -0.50122,6.3487 -0.32342,4.31242 -3.25112,5.34079 -5.38328,1.8909 z m -76.68306,-15.61463 c -1.41895,-0.90036 -1.99743,-3.13566 -1.28913,-4.98143 0.87471,-2.27946 0.24703,-3.3482 -1.96642,-3.3482 -4.81429,0 -11.66478,-12.07476 -8.80528,-15.52026 1.71651,-2.06827 1.29389,-3.36502 -1.80383,-5.53475 -5.54957,-3.88707 -12.019063,-19.69839 -14.554839,-35.57176 -2.516931,-15.75531 -0.456024,-23.56729 6.217369,-23.56729 2.4164,0 3.71681,-0.67664 2.88981,-1.50364 -1.4949,-1.4949 -2.50597,-1.77614 -8.108382,-2.25546 -1.611039,-0.13773 -4.856593,-2.28052 -7.212334,-4.76152 -5.454258,-5.7443 -14.36029,-25.52379 -13.040777,-28.96239 1.515969,-3.95058 17.162993,-3.21323 24.31089,1.14561 10.812543,6.59358 34.958733,37.89593 34.958733,45.31939 0,1.91369 -1.86436,3.04712 -5.01213,3.04712 -6.12607,0 -6.28166,1.855 -0.74591,8.89257 l 4.26621,5.42361 -6.66435,6.87588 c -7.13641,7.3629 -7.01197,7.97006 1.00868,4.92063 6.08687,-2.31423 14.66758,0.32606 16.48949,5.07385 0.78406,2.04323 -1.43369,5.89625 -6.20816,10.78574 -6.90703,7.07342 -7.1368,7.68312 -3.27606,8.69272 3.04869,0.79725 4.15194,2.70236 4.15194,7.16967 0,3.34616 0.90218,6.64151 2.00485,7.323 3.79015,2.34245 1.99593,6.91862 -3.91014,9.97277 -6.63128,3.42916 -9.92836,3.75746 -13.70023,1.36414 z m 238.41343,-5.62942 c -8.54524,-10.36685 -8.60745,-15.18202 -0.13754,-10.64909 4.88743,2.61567 4.85295,1.68099 -0.31129,-8.44177 -4.39315,-8.6113 -3.26241,-11.57406 4.44494,-11.64658 1.79464,-0.016 4.28633,-1.26374 5.5371,-2.77081 1.84418,-2.22211 0.70141,-2.95106 -6.04491,-3.85593 -4.57545,-0.61368 -9.73662,-2.53343 -11.4693,-4.26608 -2.86379,-2.86381 -2.81108,-4.14818 0.57973,-14.12376 6.33617,-18.64069 18.64882,-25.82988 28.08199,-16.39672 5.30654,5.30655 5.89569,5.01083 3.29095,-1.65177 -1.05091,-2.68807 -0.36918,-5.19676 2.14577,-7.89623 5.89015,-6.32234 4.70184,-10.30504 -1.59651,-5.35075 -6.61258,5.20145 -12.00569,5.30323 -14.69548,0.27731 -5.30425,-9.91108 0.49839,-24.93847 12.44147,-32.22025 4.34313,-2.64805 5.35767,-3.9864 3.0256,-3.99138 -1.92967,-0.004 -3.50849,-0.76012 -3.50849,-1.68 0,-1.84641 36.06702,-21.06947 37.27145,-19.86501 0.41369,0.41368 -0.13452,3.84408 -1.2184,7.6231 -1.08383,3.77903 -1.97057,9.27772 -1.97057,12.21931 0,3.51106 -2.11901,7.1314 -6.16839,10.53873 -5.54404,4.66494 -5.74061,5.19034 -1.94198,5.19034 5.39045,0 6.80088,3.7614 4.60687,12.28583 -1.15676,4.49437 -3.71714,7.7543 -7.63887,9.72601 l -5.89893,2.96576 5.01213,0.74484 c 6.76798,1.0058 7.95276,3.44983 7.98871,16.47968 0.0349,12.64807 -2.20329,15.93857 -10.84133,15.93857 h -6.06039 l 6.5939,6.02259 c 4.19579,3.83228 6.23557,7.29568 5.60861,9.52305 -0.54191,1.92526 -1.57543,6.43255 -2.2967,10.01622 -1.25117,6.21652 -1.74143,6.51983 -10.67515,6.60438 l -9.36374,0.0886 7.70079,4.06267 c 7.33489,3.86965 7.54007,4.24029 4.31789,7.80076 -3.60516,3.98364 -17.35088,11.01516 -25.56201,13.07602 -4.05822,1.01855 -6.11061,-0.14515 -11.24792,-6.37763 z m -171.6842,1.01985 c -5.51334,-2.44067 -10.39524,-4.72229 -10.84867,-5.07029 -0.45342,-0.348 2.8531,-4.34702 7.34786,-8.88669 8.14954,-8.23101 13.81856,-9.03364 11.46667,-1.62346 -1.3622,4.29186 1.02742,5.07243 4.59796,1.50189 1.32431,-1.3243 10.55033,-2.67355 21.26623,-3.11005 17.85083,-0.72716 19.10874,-0.51175 22.12012,3.78759 l 3.19295,4.55857 v -6.50686 c 0,-6.47985 0.0208,-6.49322 5.01213,-3.22278 4.59478,3.0106 5.01213,3.01445 5.01213,0.0461 0,-4.3888 8.36289,-4.22346 13.9185,0.2752 l 4.33844,3.51307 -6.62241,6.24232 c -9.54911,9.00108 -17.55231,11.11528 -45.71701,12.07707 -22.60207,0.77182 -26.04406,0.42043 -35.0849,-3.58179 z m 20.9168,-25.90757 c -3.35458,-3.35458 -4.70729,-3.67626 -7.10195,-1.68885 -2.06849,1.71667 -3.59203,1.82107 -5.066,0.3471 -3.34371,-3.34371 -1.13837,-9.30077 4.43151,-11.97035 2.81154,-1.34754 6.32815,-4.72265 7.81467,-7.50023 4.07538,-7.61493 9.52358,-8.40488 15.89137,-2.30415 3.06766,2.93901 7.75777,5.20696 10.768,5.20696 7.03745,0 10.79408,6.5564 7.67676,13.39818 -2.27533,4.9938 -6.2123,4.68646 -6.2123,-0.48498 0,-4.69466 -4.85208,-3.31929 -11.02668,3.12561 -6.76908,7.0654 -11.46881,7.57727 -17.17538,1.87071 z m -19.91437,-18.79362 c 0,-6.52924 3.27628,-8.24211 6.00667,-3.14032 2.48526,4.64372 1.16957,8.03412 -3.11772,8.03412 -1.72636,0 -2.88895,-1.96941 -2.88895,-4.8938 z m -16.17829,-2.29123 c -3.58083,-4.31466 -0.0858,-9.66126 6.85745,-10.49058 5.56134,-0.66427 6.25718,0.90962 4.04749,9.15499 -1.40495,5.24263 -7.08502,5.93829 -10.90494,1.33559 z m 75.04123,0.16079 c -1.53756,-4.00683 2.84077,-12.64422 7.73796,-15.2651 2.93539,-1.57098 3.99341,-0.91343 5.68368,3.53231 3.49878,9.20253 1.74985,13.6622 -5.63706,14.3741 -4.59731,0.44306 -6.90094,-0.33858 -7.78458,-2.64131 z m 22.32246,-9.03258 c -1.52826,-2.47276 0.6611,-10.00631 2.90797,-10.00631 0.89336,0 2.74739,1.35327 4.12009,3.00728 1.9912,2.39924 1.9912,3.61531 0,6.01455 -2.90529,3.50065 -5.26841,3.83167 -7.02806,0.98448 z m -71.16115,-1.91399 c -2.75667,-0.87301 -9.07195,-3.94226 -14.03396,-6.82052 -9.18454,-5.32759 -22.45425,-6.80068 -31.04318,-3.44614 -4.30614,1.68183 -11.0587,0.60614 -11.0587,-1.76165 0,-0.8049 3.2411,-4.80071 7.20243,-8.87958 6.14974,-6.33219 7.66972,-7.03643 10.39963,-4.81846 2.72309,2.21245 3.00806,2.0926 1.92171,-0.80822 -1.65118,-4.40901 4.85915,-6.65623 10.5147,-3.62948 2.26979,1.21476 5.04994,1.63816 6.17811,0.9409 1.12819,-0.69725 3.32549,-0.21021 4.88288,1.08231 1.55741,1.29253 3.92265,1.67576 5.25614,0.85163 1.48086,-0.91524 4.2422,0.77327 7.09482,4.33831 3.56666,4.45739 4.67271,5.00762 4.68031,2.32826 0.014,-4.93673 2.97985,-4.36605 9.09611,1.75021 5.80461,5.80461 5.56659,13.62048 -0.55723,18.2983 -3.6549,2.79188 -3.54908,2.7861 -10.53377,0.57413 z m 25.90485,-2.37342 c -1.71551,-3.20544 -1.73117,-6.21781 -0.0614,-11.79127 2.59879,-8.67395 8.31695,-14.68047 9.7943,-10.28822 0.60404,1.79586 1.69498,1.13174 3.29321,-2.00485 1.70324,-3.34267 3.84669,-4.53951 7.45991,-4.1654 3.85056,0.3987 5.67454,-0.80196 7.5837,-4.9921 2.30197,-5.05231 2.72746,-5.22477 5.0509,-2.04726 2.38463,3.26115 2.75436,3.22982 6.14902,-0.52124 4.58173,-5.06275 6.26081,-5.02977 7.61523,0.14956 1.03256,3.94852 1.36694,3.99361 7.20974,0.97218 9.44265,-4.88298 30.26733,-0.8009 30.26733,5.93301 0,4.82929 -10.94621,9.31527 -17.05908,6.99116 -11.76365,-4.47254 -17.97432,-2.62371 -32.01309,9.52982 -18.49301,16.00962 -30.95693,20.33076 -35.28982,12.23467 z m 92.38139,-23.24736 c 0,-0.98099 0.9829,-7.1006 2.18421,-13.59913 3.68502,-19.93403 12.89807,-34.25812 27.88857,-43.35996 7.94729,-4.82542 35.4351,-14.77929 57.14933,-20.6949 10.96794,-2.98799 22.49622,-7.25167 25.61835,-9.47483 7.31001,-5.2052 9.01618,-3.32551 4.87121,5.36659 -4.01453,8.41857 -12.5821,13.05441 -35.51275,19.21564 -20.52339,5.5144 -35.86842,12.02977 -48.47593,20.5824 -7.55665,5.12627 -10.01069,8.3138 -12.61721,16.38834 -3.9012,12.08531 -12.98282,25.79516 -17.68722,26.70116 -1.88021,0.36209 -3.41856,-0.14435 -3.41856,-1.12531 z m -121.44913,-10.5385 c -14.20431,-6.89087 -16.33734,-10.44173 -18.17957,-30.26339 -1.24738,-13.42122 -1.10069,-14.11777 3.21077,-15.24524 4.01487,-1.04992 4.37807,-2.05565 3.26223,-9.03372 -1.49991,-9.37991 -0.008,-12.80915 4.09385,-9.4055 2.4873,2.06428 2.7021,1.1483 1.505,-6.41841 -0.768,-4.85449 -1.4773,-10.08252 -1.57621,-11.61783 -0.30879,-4.79264 4.15673,-4.61423 9.98486,0.3989 l 5.59369,4.81151 6.72279,-6.72281 c 7.69438,-7.69438 10.59885,-8.43786 10.59885,-2.71309 0,5.01616 1.09533,5.01616 7.47234,0 9.5376,-7.50227 30.35736,-4.54917 22.60226,3.20594 -1.33415,1.33415 0.3557,1.72766 5.06038,1.17843 3.88488,-0.45353 12.08916,-0.19667 18.23174,0.57076 9.44897,1.18058 11.02241,1.95341 10.22047,5.01997 -0.75546,2.88893 0.58139,3.8691 6.58686,4.82943 7.83681,1.25315 17.33201,11.1602 12.30294,12.83656 -1.45689,0.48564 -0.32485,3.17577 2.99593,7.11947 4.57581,5.43413 4.8524,6.43407 1.93794,7.00567 -1.86984,0.36671 -4.9352,-0.48668 -6.8119,-1.89643 -1.8767,-1.40977 -0.0291,0.66732 4.10602,4.61575 4.135,3.94842 7.51819,8.6361 7.51819,10.41705 0,3.63959 -2.23996,4.2059 -5.14507,1.30079 -4.99675,-4.99675 -18.92794,-2.28469 -24.83686,4.83512 -4.08667,4.92416 -6.68901,3.71978 -5.17845,-2.3966 1.09787,-4.4453 0.8681,-5.02787 -1.18605,-3.00728 -4.13012,4.06263 -6.28505,2.88422 -4.89002,-2.67405 0.77696,-3.09565 0.52994,-4.70412 -0.61384,-3.99721 -1.05269,0.65059 -2.31031,0.0495 -2.79473,-1.33565 -0.6311,-1.80469 -2.17757,-1.38203 -5.45592,1.49115 l -4.57517,4.0097 0.92063,-6.46715 c 0.70717,-4.96778 0.34694,-5.99104 -1.5538,-4.41358 -2.98158,2.47449 -5.82147,-0.9396 -3.67309,-4.41575 0.84797,-1.37206 0.30185,-1.90647 -1.38531,-1.3556 -1.53183,0.50015 -3.96209,3.32373 -5.40061,6.27465 -1.4385,2.95092 -3.40761,5.3653 -4.37581,5.3653 -2.06333,0 -5.03717,-7.89803 -4.34056,-11.5279 0.91609,-4.77367 -1.55395,-2.46635 -6.62732,6.1907 -2.80315,4.78322 -5.12665,10.87296 -5.16334,13.53275 l -0.0668,4.83598 -3.943,-4.73301 c -2.44293,-2.93242 -3.99687,-7.89009 -4.08462,-13.03153 l -0.14155,-8.29853 -3.85346,8.67975 c -2.90473,6.54275 -3.34063,9.63798 -1.77053,12.57176 3.40571,6.36362 0.0319,8.64857 -5.33098,3.61044 l -4.80061,-4.50996 v 4.29744 c 0,2.3636 1.72595,7.70842 3.83546,11.87739 5.38637,10.64493 7.25145,20.62575 3.84204,20.56023 -1.46597,-0.0283 -8.1485,-2.71124 -14.8501,-5.96237 z m -56.11102,-10.09403 c -6.36055,-3.34583 -15.12255,-9.2977 -19.47109,-13.22634 -9.77274,-8.82909 -18.8894,-12.76792 -29.552144,-12.76792 -13.453416,0 -28.032756,-9.02444 -28.032756,-17.35197 0,-5.85497 1.931674,-5.91062 9.11205,-0.26253 4.167084,3.27781 9.088453,4.64518 18.815251,5.22769 11.491429,0.6882 14.467349,1.75677 23.322719,8.37456 12.17985,9.10227 30.98275,18.82594 42.29383,21.87169 10.29757,2.77285 14.26457,6.926 10.70843,11.21091 -3.93695,4.74372 -14.62976,3.53429 -27.19629,-3.07609 z"
     id="path825"
     inkscape:connector-curvature="0" />
</svg>
