<?xml version="1.0" encoding="UTF-8" standalone="no"?>
<svg
   xmlns:dc="http://purl.org/dc/elements/1.1/"
   xmlns:cc="http://creativecommons.org/ns#"
   xmlns:rdf="http://www.w3.org/1999/02/22-rdf-syntax-ns#"
   xmlns:svg="http://www.w3.org/2000/svg"
   xmlns="http://www.w3.org/2000/svg"
   xmlns:sodipodi="http://sodipodi.sourceforge.net/DTD/sodipodi-0.dtd"
   xmlns:inkscape="http://www.inkscape.org/namespaces/inkscape"
   fill="#7289da"
   height="512"
   width="512"
   version="1.1"
   id="svg4979"
   sodipodi:docname="ihostmn.svg"
   inkscape:version="0.92.2 2405546, 2018-03-11">
  <metadata
     id="metadata4985">
    <rdf:RDF>
      <cc:Work
         rdf:about="">
        <dc:format>image/svg+xml</dc:format>
        <dc:type
           rdf:resource="http://purl.org/dc/dcmitype/StillImage" />
        <dc:title></dc:title>
      </cc:Work>
    </rdf:RDF>
  </metadata>
  <defs
     id="defs4983">
    <style
       id="style1516">
      .cls-1, .cls-5, .cls-6 {
        fill: none;
        stroke-linecap: round;
      }

      .cls-1, .cls-5 {
        stroke: #183c87;
      }

      .cls-1 {
        stroke-width: 75px;
      }

      .cls-2, .cls-3 {
        fill: #183c87;
      }

      .cls-2, .cls-5, .cls-6 {
        fill-rule: evenodd;
      }

      .cls-4 {
        fill: #fff;
      }

      .cls-5 {
        stroke-width: 101px;
      }

      .cls-6 {
        stroke: #fff;
        stroke-width: 56px;
      }
    </style>
  </defs>
  <sodipodi:namedview
     pagecolor="#ffffff"
     bordercolor="#666666"
     borderopacity="1"
     objecttolerance="10"
     gridtolerance="10"
     guidetolerance="10"
     inkscape:pageopacity="0"
     inkscape:pageshadow="2"
     inkscape:window-width="1722"
     inkscape:window-height="908"
     id="namedview4981"
     showgrid="false"
     inkscape:zoom="0.96950969"
     inkscape:cx="391.18294"
     inkscape:cy="269.67415"
     inkscape:window-x="104"
     inkscape:window-y="76"
     inkscape:window-maximized="0"
     inkscape:current-layer="svg4979" />
  <circle
     style="opacity:1;fill:#795548;fill-opacity:1;stroke:none;stroke-width:25.67475319;stroke-miterlimit:4;stroke-dasharray:none;stroke-opacity:1"
     id="path817"
     cx="256"
     cy="256"
     r="256" />
  <path
     style="fill:#ffffff;stroke-width:2.81038761;fill-opacity:1"
     d="M 222.14633,423.12967 C 158.90586,413.032 110.19196,377.89662 82.180264,322.17779 57.064448,272.21925 59.861289,201.73472 88.86179,153.7946 c 22.27836,-36.82794 57.28752,-65.870137 95.41802,-79.15498 30.52084,-10.633607 74.7485,-12.355953 104.89659,-4.084926 51.60231,14.156878 92.15131,46.576826 115.17477,92.085156 23.7288,46.90255 24.96787,107.81667 3.19979,157.30346 l -6.34619,14.42718 -15.75152,-0.37524 c -14.75499,-0.3515 -19.05982,-2.22068 -13.3053,-5.77718 4.52182,-2.79465 17.3712,-32.92413 21.49011,-50.39047 C 412.55989,197.58888 361.08792,115.10964 279.57971,95.059306 184.68023,71.71485 91.463311,145.14361 91.463311,243.24221 c 0,43.52302 14.281349,78.11057 44.891149,108.72035 30.57216,30.57216 65.20275,44.89116 108.56938,44.89116 26.05151,0 53.05781,-7.00028 75.76276,-19.63833 l 14.22863,-7.92002 -0.25265,15.50444 c -0.24226,14.87686 -0.66286,15.71487 -10.38927,20.70482 -24.57018,12.60526 -76.95043,21.64502 -102.12705,17.62504 z m 142.76361,-6.48947 c -32.26783,-19.67484 -17.68732,-70.37345 20.23886,-70.37345 21.37299,0 37.91921,16.55538 37.91921,37.94023 0,29.72851 -32.69273,47.96039 -58.15807,32.43322 z M 117.17807,310.40483 c 0.54114,-1.33106 14.68503,-26.05584 31.43084,-54.94398 l 30.44693,-52.52386 h 17.70585 17.70585 l 6.41987,16.15972 c 3.53092,8.88785 6.76669,16.61386 7.19057,17.16891 0.42386,0.55505 4.73497,-1.81363 9.5802,-5.26371 4.85423,-3.45652 9.80901,-5.17143 11.03574,-3.8196 1.2244,1.34935 5.10338,14.31693 8.6199,28.81684 l 6.3937,26.36346 -8.13385,15.07993 -8.13385,15.07991 -17.77118,0.009 -17.77118,0.0112 9.14829,-16.15972 c 5.03155,-8.88785 12.08009,-20.87714 15.66339,-26.64284 3.58329,-5.76573 6.5151,-11.0812 6.5151,-11.81218 0,-0.73095 -7.71551,3.79574 -17.14557,10.05937 -9.43005,6.26362 -18.08557,10.3144 -19.23452,9.00175 -1.1489,-1.31265 -5.01238,-9.78178 -8.5855,-18.8203 -4.4505,-11.25793 -7.21103,-15.24098 -8.76512,-12.64674 -1.2477,2.0828 -10.25387,17.69833 -20.0137,34.70118 l -17.74518,30.91427 -17.77028,0.84401 c -9.77363,0.46419 -17.32747,-0.24507 -16.7863,-1.57609 z m 63.17026,-28.19803 c -0.75849,-1.22729 1.32639,-6.50447 4.6331,-11.72707 l 6.0122,-9.49562 3.50545,8.21409 c 1.92798,4.51773 3.56248,9.7949 3.6322,11.72704 0.13884,3.84846 -15.49998,4.97549 -17.78295,1.28156 z m 88.43803,-8.30753 c -1.51713,-5.79642 -5.46676,-21.28869 -8.77698,-34.42724 -3.31019,-13.13857 -6.47751,-24.34873 -7.03844,-24.91148 -0.56095,-0.56275 -5.5298,1.7641 -11.04193,5.1708 l -10.02204,6.19395 -4.46225,-10.67963 c -4.34769,-10.40552 -4.25656,-11.06324 3.55087,-25.62509 l 8.01306,-14.94548 19.52615,0.7816 19.52615,0.7816 8.63756,34.74541 8.63755,34.74542 20.88245,-35.44801 20.88247,-35.44801 h 17.86639 c 9.82652,0 17.31918,0.9485 16.65034,2.10779 -0.66884,1.15929 -14.75535,25.82044 -31.30333,54.80255 l -30.08725,52.69478 h -19.34117 -19.3412 z m 26.79621,-54.80256 c -3.49281,-13.03333 -2.20436,-16.15972 6.6598,-16.15972 4.63714,0 8.43116,0.56005 8.43116,1.24455 0,1.6917 -11.59322,21.23855 -12.59658,21.23855 -0.43988,0 -1.56238,-2.84552 -2.49438,-6.32338 z"
     id="path1084"
     inkscape:connector-curvature="0" />
</svg>
