<?xml version="1.0" encoding="utf-8"?>
<!-- Generator: Adobe Illustrator 21.1.0, SVG Export Plug-In . SVG Version: 6.00 Build 0)  -->
<svg version="1.1"
	 id="svg4979" inkscape:version="0.92.2 2405546, 2018-03-11" sodipodi:docname="gremlinsmarketing.svg" xmlns:cc="http://creativecommons.org/ns#" xmlns:dc="http://purl.org/dc/elements/1.1/" xmlns:inkscape="http://www.inkscape.org/namespaces/inkscape" xmlns:rdf="http://www.w3.org/1999/02/22-rdf-syntax-ns#" xmlns:sodipodi="http://sodipodi.sourceforge.net/DTD/sodipodi-0.dtd" xmlns:svg="http://www.w3.org/2000/svg"
	 xmlns="http://www.w3.org/2000/svg" xmlns:xlink="http://www.w3.org/1999/xlink" x="0px" y="0px" viewBox="0 0 512 512"
	 style="enable-background:new 0 0 512 512;" xml:space="preserve">
<style type="text/css">
	.st0{fill:#795548;}
	.st1{fill:#FFFFFF;}
</style>
<sodipodi:namedview  bordercolor="#666666" borderopacity="1" gridtolerance="10" guidetolerance="10" id="namedview4981" inkscape:current-layer="svg4979" inkscape:cx="157.32324" inkscape:cy="449.64054" inkscape:pageopacity="0" inkscape:pageshadow="2" inkscape:window-height="908" inkscape:window-maximized="0" inkscape:window-width="1722" inkscape:window-x="104" inkscape:window-y="76" inkscape:zoom="0.48475485" objecttolerance="10" pagecolor="#ffffff" showgrid="false">
	</sodipodi:namedview>
<circle id="path817" class="st0" cx="256" cy="256" r="256"/>
<g>
	<path class="st1" d="M323.9,222.3c13.8-14.8,26.9-30.4,41.8-44c6.1-5.6,15.7-9.4,24-10c19-1.5,38.1-0.5,59.8-0.5
		c-30.9,29.5-59.8,57.2-91.8,87.8c33.2,32.5,61.5,60.3,92.3,90.4c-25.5,0-48.4,0.6-71.3-0.5c-4.7-0.2-9.8-5.7-13.7-9.7
		c-13.9-14.6-27.3-29.6-41-44.5c-2,1-4.1,2.1-6.1,3.1c0,48.6,0,97.3,0,145.9c-1.6,0.7-3.3,1.4-4.9,2.1c-17.4-17.3-35-34.4-51.8-52.3
		c-2.9-3.1-2.5-9.9-2.5-14.9c-0.1-78.9-0.2-157.9,0.1-236.8c0-5.5,0.6-12.5,3.8-16.2c15.5-17.9,32-34.9,48.1-52.2
		c2,1.1,4.1,2.1,6.1,3.2c0,48.7,0,97.3,0,146C319.2,220.3,321.5,221.3,323.9,222.3z"/>
	<path class="st1" d="M189.9,440.4c0-48.5,0-96.9,0-151.4c-17,16.7-31,29.2-43.4,43c-9.7,10.9-20.3,15.7-35,14.7
		c-17.1-1.2-34.3-0.3-51-0.3c28.6-28.8,56.5-56.9,84.8-85.3C114.1,229,87.8,196.2,60,167.8c0.5-1.5-0.5,1.5,0,0
		c28.3,2.9,66.5-14.3,92.6,20.6c9.3,12.3,20.6,23.1,31.1,34.6c1.8-1,3.6-2,5.4-3c0-48.7,0-97.4,0-146.2c1.5-0.8,3-1.5,4.5-2.3
		c17.4,17.3,35.1,34.3,51.7,52.4c3.2,3.5,3,11,3,16.6c0.2,77.8,0.4,155.5-0.3,233.3c-0.1,8.2-4.5,17.6-9.8,24.3
		c-12.9,16.3-27.4,31.3-41.3,46.8C194.6,443.4,192.2,441.9,189.9,440.4z"/>
</g>
</svg>
