<?xml version="1.0" encoding="UTF-8" standalone="no"?>
<svg
   xmlns:dc="http://purl.org/dc/elements/1.1/"
   xmlns:cc="http://creativecommons.org/ns#"
   xmlns:rdf="http://www.w3.org/1999/02/22-rdf-syntax-ns#"
   xmlns:svg="http://www.w3.org/2000/svg"
   xmlns="http://www.w3.org/2000/svg"
   xmlns:sodipodi="http://sodipodi.sourceforge.net/DTD/sodipodi-0.dtd"
   xmlns:inkscape="http://www.inkscape.org/namespaces/inkscape"
   fill="#7289da"
   height="512"
   width="512"
   version="1.1"
   id="svg4979"
   sodipodi:docname="kyd.svg"
   inkscape:version="0.92.2 2405546, 2018-03-11">
  <metadata
     id="metadata4985">
    <rdf:RDF>
      <cc:Work
         rdf:about="">
        <dc:format>image/svg+xml</dc:format>
        <dc:type
           rdf:resource="http://purl.org/dc/dcmitype/StillImage" />
        <dc:title />
      </cc:Work>
    </rdf:RDF>
  </metadata>
  <defs
     id="defs4983" />
  <sodipodi:namedview
     pagecolor="#ffffff"
     bordercolor="#666666"
     borderopacity="1"
     objecttolerance="10"
     gridtolerance="10"
     guidetolerance="10"
     inkscape:pageopacity="0"
     inkscape:pageshadow="2"
     inkscape:window-width="1722"
     inkscape:window-height="908"
     id="namedview4981"
     showgrid="false"
     inkscape:zoom="0.65186408"
     inkscape:cx="-54.036398"
     inkscape:cy="370.47199"
     inkscape:window-x="136"
     inkscape:window-y="157"
     inkscape:window-maximized="0"
     inkscape:current-layer="g5825" />
  <g
     id="g5825">
    <rect
       style="fill:#795548;fill-opacity:1"
       id="rect4971"
       rx="15.000001%"
       height="512"
       width="512"
       x="0"
       y="0" />
    <rect
       style="opacity:1;fill:#ffffff;fill-opacity:1;stroke:#000000;stroke-width:0;stroke-miterlimit:4;stroke-dasharray:none;stroke-opacity:1;paint-order:stroke fill markers"
       id="rect11030"
       width="409.03757"
       height="389.94846"
       x="54.14122"
       y="64.552345"
       rx="87.230209" />
    <path
       style="fill:#795548;fill-opacity:1;stroke-width:1.86142159"
       d="M 52.182433,263.77431 V 58.087247 H 258.80021 465.41801 V 263.77431 469.4614 H 258.80021 52.182433 Z M 229.92747,439.04082 c 3.34825,-5.11013 49.55309,-192.51432 49.9431,-202.56641 0.37229,-9.59615 -4.58147,-14.58207 -14.48807,-14.58207 -9.93557,0 -12.94113,2.53653 -16.54194,13.96064 -5.3965,17.12142 -44.32027,180.4265 -45.37191,190.35816 -1.3902,13.12982 2.06455,17.19035 14.62589,17.19035 7.35924,0 9.49023,-0.78536 11.83293,-4.36067 z m 214.08419,-86.37997 0.95747,-36.76674 -147.54425,-62.35807 -1.33651,41.88244 98.13692,37.87649 -98.19799,40.2408 1.52432,41.9444 z M 221.5718,196.38069 122.93268,156.5273 221.5718,117.2655 219.96644,74.84004 73.588776,137.88122 v 37.72675 l 145.656234,62.89186 z"
       id="path13654"
       inkscape:connector-curvature="0"
       sodipodi:nodetypes="cccccccccccsccsccccccccccccccccc" />
  </g>
</svg>
