<?xml version="1.0" encoding="utf-8"?>
<!-- Generator: Adobe Illustrator 23.0.2, SVG Export Plug-In . SVG Version: 6.00 Build 0)  -->
<svg version="1.1"
	 id="svg4979" xmlns:cc="http://creativecommons.org/ns#" xmlns:dc="http://purl.org/dc/elements/1.1/" xmlns:inkscape="http://www.inkscape.org/namespaces/inkscape" xmlns:rdf="http://www.w3.org/1999/02/22-rdf-syntax-ns#" xmlns:sodipodi="http://sodipodi.sourceforge.net/DTD/sodipodi-0.dtd" xmlns:svg="http://www.w3.org/2000/svg"
	 xmlns="http://www.w3.org/2000/svg" xmlns:xlink="http://www.w3.org/1999/xlink" x="0px" y="0px" viewBox="0 0 512 512"
	 style="enable-background:new 0 0 512 512;" xml:space="preserve">
<style type="text/css">
	.st0{fill:#795548;}
	.st1{fill:#FFFFFF;}
</style>
<sodipodi:namedview  bordercolor="#666666" borderopacity="1" gridtolerance="10" guidetolerance="10" id="namedview4981" inkscape:current-layer="svg4979" inkscape:cx="157.32324" inkscape:cy="449.64054" inkscape:pageopacity="0" inkscape:pageshadow="2" inkscape:window-height="908" inkscape:window-maximized="0" inkscape:window-width="1722" inkscape:window-x="104" inkscape:window-y="76" inkscape:zoom="0.48475485" objecttolerance="10" pagecolor="#ffffff" showgrid="false">
	</sodipodi:namedview>
<circle id="path817" class="st0" cx="256" cy="256" r="256"/>
<path class="st1" d="M288,324.3c0.7-0.3,1.4-0.5,2.1-0.8C289.5,324.3,288.8,324.6,288,324.3z"/>
<g>
	<path class="st1" d="M278.1,309.6c-2.5,1-5,2.1-7.6,3c-10.3,3.5-20.7,7-31.1,10.3c-2.8,0.9-4.8,2-5.9,4.9c-1,2.5-2.7,4.7-4.9,6.4
		c-7.2,5.5-17.6,4.3-23.1-4.9c-3-5-3.4-10.3-1.5-15.7c3.7-1.2,4.6-4.6,6.1-7.6c8.5-7.1,18.5-2.5,22.4,4.5c0.3,0.5,0.6,1,0.9,1.5
		c1.6,3.1,1.9,3.1,4.9,2.1c15.7-5.2,31.4-10.4,47.1-15.6c1.5-0.5,2.2-1.4,2.3-2.9c0.3-4.3,1.2-8.4,3.5-12.2c1.3-2.3,1.2-2.7-0.7-4.5
		c-4.1-3.9-8.3-7.7-12.4-11.5c-10-9.3-20-18.5-29.9-27.8c-3.4-3.2-6.6-6.6-9.9-9.9c0.7-2.8,1.5-5.6,2.2-8.4c0.3,0.2,0.7,0.3,1,0.6
		c15.7,14.5,31.4,29,47.1,43.6c3,2.8,5.9,5.6,8.9,8.4c0.7,0.7,1.6,1.4,2.5,1.2c1.5-0.4,3.1-0.8,4.3-1.7c1-0.7,0.6-2.2,0.6-3.3
		c0-0.6,0-1.2,0-1.8c0-18.5,0-37,0-55.4c0-1.2,0-2.3,0-3.5c0-1-0.3-1.9-1.3-2.4c-0.7-0.4-1.3-0.8-2-1.2c-4.2-2.5-6.1-6.4-6.3-11.1
		c-0.1-1.4-0.1-2.7,0-4.1c0-1.5-0.5-2.6-1.6-3.6c-1.3-1.2-2.6-2.4-3.9-3.5c-7.8-6.7-15.7-13.4-23.5-20.1c-2.8-2.4-5.5-4.9-8.4-7.2
		c-3.8-3.1-7.8-2.1-10,2.2c-1.1,2.2-1.6,4.8-3.3,6.8c-1.2-0.1-2.3-0.3-2.7-1.6c-0.6-1.9-2-2-3.6-2c0-1.8,0.9-3.4,1.6-4.9
		c1.2-2.7,1.9-5.4,0.5-8.4c-1.1-2.3-1-4.9-0.1-7.4c1.7-4.8,5.7-7.8,10-7.5c4.1,0.2,8.3,4,9.4,8.4c0.1,0.6,0.3,1.2,0.2,1.7
		c-0.5,3.2,1.5,5,3.6,6.8c10.7,9.1,21.3,18.2,32,27.3c0.6,0.5,1.2,1,1.8,1.5c1.6,1.4,3.2,1.8,5.3,0.7c2.4-1.2,5.1-1.8,7.9-1
		c5.4,1.4,8.9,4.5,10.6,9.8c0.3,1.1,0.9,2.3,0.7,3.4c-0.6,4.3,1.9,6.2,5.1,8.2c11.6,7.2,23.1,14.5,34.6,21.8c1,0.6,2,1.2,3,1.8
		c1.2,0.6,2.3,0.4,3.3-0.4c0.5-0.3,0.9-0.8,1.3-1.1c9.6-8.8,19.2-17.7,28.8-26.4c2.2-2,3.5-4,2.9-7.1c-0.2-1.1,0-2.3,0.2-3.5
		c0.9-5,5.2-9.4,10-10.3c4.9-0.9,10.1,1.6,12.7,6.4c2.2,4,2.3,8.3,0.5,12.4c-2.7,6.1-8.4,8.7-14.9,6.8c-2.2-0.6-3.7-0.3-5.3,1.2
		c-4.7,4.4-9.4,8.7-14.2,13.1c-3.6,3.3-7.2,6.6-10.8,9.8c-1.6,1.5-3.2,2.9-4.6,4.5c-1.6,1.7-1.6,2.6-0.5,4.7
		c0.4,0.7,0.9,1.3,1.3,1.9c7.9,11.8,15.7,23.7,23.6,35.5c2.5,3.7,4.9,7.5,7.3,11.3c1.6,2.4,3.2,4.6,6.3,5.7c3.1,1.1,4.7,4,4.5,7.5
		c-0.2,3.8-2.9,6.9-6.4,7.3c-3.7,0.4-7.9-2.2-7.9-6.1c0-5.2-2.8-8.7-5.3-12.6c-10.2-15.4-20.4-30.9-30.5-46.4c-2-3-4.3-5.4-7.4-7.3
		c-12.5-7.9-25-15.8-37.5-23.8c-0.7-0.4-1.3-0.8-2-1.2c-1.4-1-2.6-1-4.2,0.1c-2.3,1.5-3.4,3.2-3.4,6.1c0.1,19.1,0.1,38.2,0.1,57.3
		c0,0.8,0,1.6,0,2.3c0,1.3,0.8,2.1,1.9,2.7c1.6,0.7,3.3,1.3,4.7,2.2c7,4.9,9.9,11.8,9.5,20.2c-0.1,2.5-0.5,5-1.6,7.4
		c-0.9,1.8-0.5,3.4,0.9,4.8c6.4,6.5,12.8,13.1,19.1,19.7c1.2,1.2,2.4,1.8,4.1,0.9c4.1-2.2,7.9-1.5,11.4,1.3c3.7,3,4.7,7,4.1,11.5
		c-0.7,5.5-5.3,9.7-10.6,9.9c-5.3,0.1-10.1-3.9-11.1-9.3c-0.1-0.8-0.2-1.6-0.2-2.3c0.1-1.9-0.8-3.3-2.1-4.6
		c-0.8-0.9-1.6-1.7-2.4-2.6c-5.6-5.7-11.3-11.3-16.9-16.9c-2.7-2.7-2.7-2.6-6.3-1c-6.5,2.9-12.8,2.9-19-0.8
		c-2.4-1.4-4.2-3.4-5.9-5.6c-2-2.7-2.1-2.6-5.4-1.6c-2.2,0.7-4.5,1.3-6.7,1.9C279.3,309.1,278.7,309.4,278.1,309.6z"/>
	<path class="st1" d="M238.2,161.6c1.6,0,3,0.1,3.6,2c0.4,1.3,1.5,1.5,2.7,1.6c-1.1,2.9-2.1,5.8-3.3,8.7c-3.5,8.2-7,16.4-10.6,24.6
		c-1,2.3-0.9,4,0.7,5.9c2.2,2.6,3.4,5.6,3.8,9c0.3,2.2,1.3,4,3,5.5c0.9,0.8,1.5,1.7,2.3,2.6c-0.7,2.8-1.5,5.6-2.2,8.4
		c-0.9-0.7-1.9-1.3-2.8-2.1c-1.8-1.6-2.6-2.4-4.7,0.1c-0.7,0.9-1.6,1.7-2.6,2.3c-3.8,2.8-8.4,4.4-12.6,2.3c-4.3-2.1-6.3-0.4-8.6,2.7
		c-1,1.4-2.4,2.6-3.6,3.8c-6.2,6.7-12.4,13.4-18.7,20c-1.6,1.6-1.9,3.1-0.9,5.2c3.5,7.1,3.9,14.5,1.2,22.1c-0.5,1.3-0.3,2.2,0.8,3
		c6.8,5.2,13.6,10.4,20.4,15.6c1.1,0.9,2.3,1.3,3.8,1.3c-1.5,2.9-2.4,6.4-6.1,7.6c-5.8-4.3-11.5-8.6-17.3-12.9
		c-0.8-0.6-1.5-1.3-2.3-1.9c-1.4-1-2.8-2.3-4.4-2.7c-1.9-0.4-2.9,1.7-4.3,2.6c-5.5,3.5-11.4,5-17.8,3.5c-0.8-0.2-1.5-0.3-2.3-0.6
		c-2.4-0.9-4.1,0.1-5.4,2.2c-4.2,6.8-8.6,13.5-12.8,20.2c-1.1,1.8-2.2,3.7-3.4,5.4c-1.5,2.1-2.7,4.2-1.4,7c0.5,1,0.3,2.3,0.1,3.5
		c-0.6,5.5-5.2,9.1-10.6,8.6c-4.9-0.5-8.9-5.9-8.2-11c0.6-4.7,3.2-8.1,7.9-8.9c2.9-0.5,4.3-2,5.7-4.3c4.9-8,9.9-15.8,14.9-23.8
		c0.4-0.7,0.8-1.3,1.3-2c1.4-2,1.5-3.7-0.1-5.8c-3-3.9-4.7-8.5-5.1-13.5c-0.1-0.6-0.3-1.2-0.2-1.7c0.9-4-1.1-5.8-4.6-7.4
		c-9-4.2-17.9-8.7-26.8-13.1c-1.6-0.8-3.2-1.4-4.8-2.2c-2.6-1.5-4.9-1.5-7.5,0.3c-7.1,5-18.1-0.2-18.8-10.8
		c-0.3-4.1,0.9-7.6,3.7-10.7c5.2-5.9,15.8-5.9,20.4,3.5c0.9,1.7,1.4,3.6,1.4,5.6c0,1.3,0.7,2.2,1.8,2.7c1.2,0.6,2.4,1.2,3.7,1.8
		c10,4.9,19.9,9.8,29.9,14.8c1,0.5,2.1,1,3.2,1.4c0.8,0.3,1.6,0.1,2.1-0.5c0.8-0.9,1.4-1.8,2.1-2.8c6.7-9.8,19.7-12.1,29.1-7.1
		c0.3,0.2,0.7,0.4,1,0.6c2.2,1.1,2.8,1,4.6-0.8c2.2-2.2,4.3-4.5,6.5-6.8c6-6.4,11.9-12.9,17.9-19.3c1.3-1.4,2-2.9,1.1-4.7
		c-1.9-4.1-1.5-8.3-0.4-12.5c0.6-2.3,0.4-2.6-1.7-3.6c-11.2-5.4-22.4-10.9-33.7-16.3c-4-1.9-8.1-3.8-12.2-5.7
		c-1.4-0.7-2.5-0.6-3.8,0.4c-1.2,1-2.5,1.9-3.9,2.6c-6.2,3.1-12.9,1.7-17.5-3.5c-5.7-6.5-5.1-17.1,0.5-23c7.5-8.1,20.1-4.6,23.9,4
		c1,2.3,2,4.7,1.8,7.3c-0.2,2.3,1,3.5,3,4.4c5.3,2.5,10.6,5,15.8,7.6c10.7,5.2,21.4,10.3,32.1,15.6c1.5,0.7,2.8,1,4.4,0.3
		c2.1-1,4.4-1.6,6.8-1.5c1.9,0.1,2.8-0.9,3.5-2.5c2.5-5.7,4.9-11.5,7.5-17.1C233,172.8,234.8,166.8,238.2,161.6z"/>
	<path class="st1" d="M278.1,309.6c0.6-0.2,1.2-0.5,1.9-0.7C279.5,309.6,278.9,309.8,278.1,309.6z"/>
</g>
</svg>
