<?xml version="1.0" encoding="utf-8"?>
<!-- Generator: Adobe Illustrator 23.0.2, SVG Export Plug-In . SVG Version: 6.00 Build 0)  -->
<svg version="1.1"
	 id="svg4979" inkscape:version="0.92.2 2405546, 2018-03-11" sodipodi:docname="gremlinsmarketing.svg" xmlns:cc="http://creativecommons.org/ns#" xmlns:dc="http://purl.org/dc/elements/1.1/" xmlns:inkscape="http://www.inkscape.org/namespaces/inkscape" xmlns:rdf="http://www.w3.org/1999/02/22-rdf-syntax-ns#" xmlns:sodipodi="http://sodipodi.sourceforge.net/DTD/sodipodi-0.dtd" xmlns:svg="http://www.w3.org/2000/svg"
	 xmlns="http://www.w3.org/2000/svg" xmlns:xlink="http://www.w3.org/1999/xlink" x="0px" y="0px" viewBox="0 0 512 512"
	 style="enable-background:new 0 0 512 512;" xml:space="preserve">
<style type="text/css">
	.st0{fill:#795548;}
	.st1{fill:#FFFFFF;}
</style>
<sodipodi:namedview  bordercolor="#666666" borderopacity="1" gridtolerance="10" guidetolerance="10" id="namedview4981" inkscape:current-layer="svg4979" inkscape:cx="157.32324" inkscape:cy="449.64054" inkscape:pageopacity="0" inkscape:pageshadow="2" inkscape:window-height="908" inkscape:window-maximized="0" inkscape:window-width="1722" inkscape:window-x="104" inkscape:window-y="76" inkscape:zoom="0.48475485" objecttolerance="10" pagecolor="#ffffff" showgrid="false">
	</sodipodi:namedview>
<circle id="path817" class="st0" cx="256" cy="256" r="256"/>
<g>
	<path class="st1" d="M284.8,219.6c-11.5,0.5-22.2-10-21.8-22.5c0.4-11.4,10-20.9,21.8-20.8c12.2,0,21.9,9.8,21.8,21.8
		C306.5,210.3,297,219.7,284.8,219.6z"/>
	<path class="st1" d="M227.2,176.3c12.2,0.1,21.8,9.7,21.7,21.9c-0.1,12.1-9.7,21.6-21.9,21.5c-12.3-0.1-21.8-9.7-21.7-21.9
		C205.4,185.7,215,176.2,227.2,176.3z"/>
	<path class="st1" d="M227.2,277.4c-12.2,0-21.9-9.6-21.9-21.7c0-12,9.7-21.7,21.7-21.7c12.1,0,21.9,9.8,21.9,21.8
		C248.9,267.9,239.3,277.4,227.2,277.4z"/>
	<path class="st1" d="M140.3,219.5c-12.1,0-21.6-9.6-21.6-21.8c0-12,9.5-21.5,21.6-21.5c12.1,0,21.7,9.5,21.7,21.6
		C162.1,209.9,152.4,219.5,140.3,219.5z"/>
	<path class="st1" d="M82.8,234c12.3,0.2,21.7,9.9,21.5,22.1c-0.2,12-10,21.4-22.2,21.2C70,277.1,60.8,267.2,61,254.6
		C61.3,243.2,71.2,233.8,82.8,234z"/>
	<path class="st1" d="M371.5,219.6c-12.2,0-21.6-9.5-21.6-21.7c0-12.1,9.6-21.5,21.8-21.5c12,0,21.4,9.6,21.4,21.6
		C393.2,210.2,383.7,219.6,371.5,219.6z"/>
	<path class="st1" d="M82.8,176.3c12.2,0.1,21.6,9.7,21.5,21.8c-0.1,12.1-9.7,21.5-21.9,21.4c-12.1-0.1-21.4-9.7-21.3-22.2
		C61.1,185.5,70.8,176.2,82.8,176.3z"/>
	<path class="st1" d="M248.9,313.6c0,12.1-9.8,21.7-22,21.6c-11.9,0-21.6-9.9-21.6-21.9c0-12,9.8-21.7,21.8-21.7
		C239.2,291.7,248.9,301.5,248.9,313.6z M227,295.6c-9.9,0.1-17.9,8.2-17.8,18c0.1,9.8,7.8,17.8,18,17.9c9.8,0.1,18-8.3,17.8-18.1
		C244.9,303.3,236.9,295.5,227,295.6z"/>
	<path class="st1" d="M263.2,313.5c0-12.2,9.6-21.9,21.7-21.8c12,0,21.8,9.8,21.7,21.7c0,12.2-9.7,21.8-21.9,21.8
		C272.8,335.2,263.2,325.6,263.2,313.5z M284.8,295.6c-9.9,0.1-18,8.2-17.9,17.9c0.2,9.8,7.7,17.8,18,17.9
		c9.9,0.1,17.9-8.3,17.8-18.3C302.6,303.3,294.7,295.5,284.8,295.6z"/>
	<path class="st1" d="M284.9,277.4c-12.3,0-21.7-9.5-21.7-21.8c0-12.1,9.7-21.7,21.7-21.7c12,0,21.7,9.7,21.8,21.7
		C306.7,267.7,297.1,277.4,284.9,277.4z M284.8,237.8c-9.9,0-18,8.2-17.9,18c0.2,10,7.9,17.8,18,17.9c9.9,0.1,17.8-8.2,17.8-18.1
		C302.7,245.6,294.8,237.8,284.8,237.8z"/>
	<path class="st1" d="M61,313.3c0-12,9.5-21.5,21.5-21.6c12-0.1,21.7,9.7,21.7,21.7c0,12.1-9.5,21.6-21.7,21.6
		C70.4,335,61,325.5,61,313.3z M64.6,313.4c0,9.9,8.3,18.2,18.1,18.1c9.9-0.2,17.9-8.2,17.9-18.1c0-9.9-8-18-17.9-18
		C72.8,295.3,64.6,303.5,64.6,313.4z"/>
	<path class="st1" d="M139.6,234c11.6-0.7,21.7,8.6,22.4,20.7c0.7,11.6-8.5,21.9-20.3,22.6c-12.1,0.8-22.3-8.4-23-20.6
		C118.1,244.7,127.2,234.8,139.6,234z M140.4,273.7c9.8,0,17.9-8.2,18-18c0.1-9.8-8.2-18.2-18.1-18.1c-9.8,0-17.9,8.1-18,18
		C122.2,265.3,130.6,273.7,140.4,273.7z"/>
	<path class="st1" d="M140.3,335c-12,0-21.5-9.5-21.5-21.5c0-12.1,9.6-21.8,21.6-21.8c12,0,21.7,9.7,21.7,21.7
		C162.1,325.5,152.4,335,140.3,335z M158.4,313.5c0-9.9-8.3-18.1-18.1-18.1c-9.8,0.1-18,8.2-18,18c0,9.9,8.4,18.2,18.1,18.1
		C150.3,331.4,158.4,323.2,158.4,313.5z"/>
	<path class="st1" d="M407.7,313.4c0-12.2,9.6-21.6,21.7-21.6c12.1,0.1,21.5,9.6,21.5,21.8c0,11.9-9.6,21.5-21.6,21.5
		C417.2,335.2,407.7,325.6,407.7,313.4z M411.4,313.3c-0.2,10,7.8,18.1,17.8,18.3c9.7,0.2,18-8,18.1-17.8c0.1-10-7.8-18.1-17.9-18.3
		C419.7,295.3,411.5,303.4,411.4,313.3z"/>
	<path class="st1" d="M393.2,313.6c0,12.1-9.6,21.6-21.8,21.5c-12-0.1-21.5-9.7-21.4-21.9c0-11.9,9.7-21.5,21.7-21.4
		C383.8,291.9,393.2,301.4,393.2,313.6z M389.6,313.5c0-9.8-8.1-17.9-17.9-18c-9.9-0.1-18.1,8.1-18.1,18.1c0,9.8,8.1,18,17.9,18
		C381.4,331.6,389.6,323.4,389.6,313.5z"/>
	<path class="st1" d="M407.7,255.7c0-12.2,9.5-21.6,21.8-21.5c12.2,0.1,21.5,9.6,21.5,21.8c0,12-9.7,21.5-21.9,21.4
		C417.1,277.3,407.7,267.7,407.7,255.7z M411.4,255.8c0.1,10,8.2,18,18.1,17.9c9.9-0.1,17.9-8.2,17.8-18.1
		c-0.1-10-8.3-18.1-18.2-17.9C419.2,237.9,411.3,245.9,411.4,255.8z"/>
	<path class="st1" d="M371.5,234.2c12.2,0,21.7,9.4,21.7,21.6c0,12.1-9.4,21.6-21.4,21.7c-12.2,0.1-21.8-9.4-21.8-21.5
		C349.9,243.7,359.3,234.2,371.5,234.2z M371.6,237.8c-9.9-0.1-18,7.9-18.1,17.8c-0.1,10,7.9,18.1,17.9,18.2
		c9.9,0,17.9-7.9,18.1-17.8C389.7,246,381.7,237.8,371.6,237.8z"/>
	<path class="st1" d="M429.3,219.6c-12.2,0-21.6-9.5-21.6-21.7c0-12.1,9.5-21.5,21.8-21.5c12.1,0,21.5,9.6,21.5,21.9
		C450.9,210.2,441.3,219.6,429.3,219.6z M429.4,216c10-0.1,18-8.2,17.9-18.2c-0.1-9.9-8.2-17.9-18.1-17.8c-10,0.1-18,8.2-17.9,18.2
		C411.5,208.2,419.5,216,429.4,216z"/>
</g>
</svg>
