<?xml version="1.0" encoding="UTF-8" standalone="no"?>
<svg
   xmlns:dc="http://purl.org/dc/elements/1.1/"
   xmlns:cc="http://creativecommons.org/ns#"
   xmlns:rdf="http://www.w3.org/1999/02/22-rdf-syntax-ns#"
   xmlns:svg="http://www.w3.org/2000/svg"
   xmlns="http://www.w3.org/2000/svg"
   xmlns:sodipodi="http://sodipodi.sourceforge.net/DTD/sodipodi-0.dtd"
   xmlns:inkscape="http://www.inkscape.org/namespaces/inkscape"
   fill="#7289da"
   height="512"
   width="512"
   version="1.1"
   id="svg4979"
   sodipodi:docname="mnode.svg"
   inkscape:version="0.92.2 2405546, 2018-03-11">
  <metadata
     id="metadata4985">
    <rdf:RDF>
      <cc:Work
         rdf:about="">
        <dc:format>image/svg+xml</dc:format>
        <dc:type
           rdf:resource="http://purl.org/dc/dcmitype/StillImage" />
        <dc:title></dc:title>
      </cc:Work>
    </rdf:RDF>
  </metadata>
  <defs
     id="defs4983" />
  <sodipodi:namedview
     pagecolor="#ffffff"
     bordercolor="#666666"
     borderopacity="1"
     objecttolerance="10"
     gridtolerance="10"
     guidetolerance="10"
     inkscape:pageopacity="0"
     inkscape:pageshadow="2"
     inkscape:window-width="1722"
     inkscape:window-height="908"
     id="namedview4981"
     showgrid="false"
     inkscape:zoom="0.921875"
     inkscape:cx="414.15257"
     inkscape:cy="270.47924"
     inkscape:window-x="1985"
     inkscape:window-y="130"
     inkscape:window-maximized="0"
     inkscape:current-layer="g5825" />
  <g
     id="g5825">
    <rect
       style="fill:#795548;fill-opacity:1"
       id="rect4971"
       rx="15.000001%"
       height="512"
       width="512"
       x="0"
       y="0" />
    <rect
       rx="0"
       y="79.630653"
       x="73.76796"
       height="356.53763"
       width="360.21698"
       id="rect5821"
       style="opacity:1;fill:#ffffff;fill-opacity:1;stroke-width:0.96545613"
       ry="53.152542" />
    <g
       transform="matrix(0.13980826,0,0,-0.13980826,61.292407,464.83703)"
       id="g6562"
       style="fill:#795548;fill-opacity:1;stroke:none">
      <path
         inkscape:connector-curvature="0"
         d="m 4,2363 c 2,-395 3,-725 3,-733 0,-8 -1,-246 -3,-528 l -4,-513 32,5 c 18,3 65,8 103,11 39,3 105,13 149,21 43,8 95,14 116,14 21,0 62,5 90,12 47,11 54,16 70,52 10,23 27,50 39,60 11,11 21,25 21,33 0,36 132,203 161,203 13,0 11,19 -8,68 -15,39 -19,42 -43,37 -33,-7 -82,4 -74,16 3,5 -2,9 -11,9 -9,0 -23,6 -31,14 -11,11 -21,12 -50,3 -31,-9 -38,-9 -49,7 -7,9 -26,19 -42,20 -24,3 -29,9 -36,42 -15,83 -16,137 0,161 14,21 14,23 -2,23 -12,0 -16,6 -12,19 2,10 0,26 -5,35 -7,12 -5,24 6,41 8,13 17,35 20,50 3,15 13,33 22,39 13,10 15,22 10,59 -4,26 -12,49 -17,53 -6,4 -6,10 1,19 7,8 7,15 1,19 -5,3 -10,32 -10,64 0,68 -13,106 -46,140 -32,31 -32,74 -2,127 12,22 22,56 21,75 0,19 4,38 10,42 7,5 3,14 -10,27 -16,15 -20,28 -17,56 2,20 0,34 -4,32 -4,-3 -9,5 -10,16 -1,12 -4,36 -7,52 -4,17 -3,23 1,13 7,-15 10,-15 42,0 44,21 55,47 17,40 -29,-6 -30,-5 -15,24 10,19 9,20 -17,14 l -29,-6 28,21 c 32,24 28,34 -20,54 -20,9 -43,25 -51,36 -23,33 -44,7 -37,-48 3,-25 3,-48 0,-53 -10,-16 -33,0 -46,31 -10,25 -9,44 6,110 10,43 20,77 22,75 3,-2 28,7 57,20 31,14 78,25 117,28 35,2 71,7 80,10 10,4 35,-11 72,-43 67,-58 113,-72 161,-48 83,41 308,71 369,48 35,-14 82,-17 85,-6 11,28 24,45 37,45 20,0 56,-50 50,-71 -7,-20 3,-24 80,-34 28,-4 53,-12 57,-18 4,-6 20,1 43,21 34,31 46,35 90,34 20,0 88,14 215,44 72,18 77,18 138,16 24,-1 41,-6 38,-11 -3,-5 -15,-7 -27,-4 -17,5 -16,2 8,-24 29,-31 72,-85 86,-110 6,-10 -5,-8 -34,7 -33,17 -47,20 -64,12 -13,-6 -37,-8 -55,-6 -39,7 -89,-12 -113,-43 -10,-13 -27,-23 -38,-23 -10,0 -19,-4 -19,-8 0,-16 -37,-52 -53,-52 -9,0 -19,-5 -22,-10 -4,-6 -3,-10 2,-9 4,1 17,0 28,-1 13,-1 7,-5 -15,-11 -19,-4 -59,-5 -88,-2 -52,6 -60,1 -43,-26 6,-10 25,-12 70,-9 34,2 56,1 50,-3 -8,-4 -7,-8 2,-12 8,-3 -8,-6 -36,-7 -27,-1 -44,-4 -37,-7 6,-2 10,-8 7,-12 -2,-5 11,-17 30,-27 19,-10 35,-22 35,-26 0,-5 6,-8 13,-8 18,0 47,-32 47,-53 0,-9 -9,-22 -20,-30 -11,-8 -17,-16 -14,-20 3,-3 -4,-11 -16,-17 -18,-9 -28,-9 -46,0 -26,14 -39,40 -25,49 5,4 4,10 -3,16 -16,13 -39,18 -32,6 4,-5 0,-12 -6,-14 -10,-4 -9,-8 2,-16 12,-9 13,-12 1,-20 -9,-6 -11,-19 -7,-42 6,-30 5,-32 -7,-16 -15,18 -33,24 -22,8 3,-5 7,-22 9,-38 16,-107 20,-129 26,-138 9,-12 22,-90 21,-125 -1,-14 -8,-30 -16,-36 -10,-8 -11,-14 -4,-21 17,-17 1,-33 -31,-33 -21,0 -28,4 -24,14 6,15 -9,35 -62,89 -17,18 -29,38 -26,46 2,7 -12,28 -32,47 -20,18 -36,37 -36,43 0,10 -25,9 -36,-2 -12,-11 -32,-8 -48,8 -8,9 -31,22 -50,30 -30,13 -35,13 -30,1 4,-12 -3,-11 -40,2 -24,9 -42,20 -40,24 3,4 -2,8 -11,8 -10,0 -32,7 -51,16 -32,15 -35,15 -64,-6 -33,-23 -36,-30 -19,-47 9,-9 6,-22 -10,-53 -26,-50 -26,-50 0,-50 16,0 19,-4 14,-20 -5,-16 -2,-20 17,-21 65,-4 144,5 176,18 32,13 35,13 23,0 -10,-13 -9,-15 8,-10 12,3 36,-2 53,-10 18,-8 54,-18 80,-22 26,-4 45,-11 42,-16 -3,-5 4,-9 15,-9 12,0 21,-4 21,-8 0,-5 10,-14 23,-20 22,-11 22,-11 1,-11 -12,-1 -27,5 -33,13 -13,15 -68,29 -83,20 -5,-3 -4,-11 3,-20 6,-7 15,-11 20,-8 16,10 89,-29 89,-47 0,-9 7,-19 15,-23 8,-3 20,-17 25,-31 5,-14 17,-25 25,-25 9,0 14,-4 11,-8 -3,-4 -1,-24 3,-44 8,-35 3,-58 -15,-61 -5,-1 -8,-12 -6,-24 1,-13 -5,-34 -14,-48 -9,-14 -14,-31 -11,-39 4,-10 -2,-16 -16,-18 -16,-2 -23,-13 -29,-41 -14,-67 -53,-122 -106,-147 -26,-12 -56,-27 -66,-32 -15,-8 -18,-7 -13,6 4,10 1,16 -8,16 -8,0 -15,-5 -15,-11 0,-5 -4,-8 -9,-5 -5,3 -11,0 -14,-8 -8,-20 -47,-8 -47,14 0,9 -11,29 -25,44 -24,26 -47,38 -27,14 6,-7 10,-16 10,-21 0,-4 3,-21 7,-37 9,-42 -3,-56 -27,-31 -15,17 -23,19 -38,11 -10,-5 -30,-10 -43,-10 -14,0 -30,-6 -36,-14 -10,-12 -16,-12 -42,2 -16,10 -29,25 -29,37 0,30 -12,42 -45,49 -24,5 -30,12 -30,34 0,35 12,52 36,52 10,0 19,6 20,13 2,50 7,95 13,108 11,25 -49,42 -113,33 -37,-5 -51,-3 -51,6 0,26 -132,-24 -144,-55 -18,-48 14,-125 47,-112 9,3 18,-1 21,-9 3,-8 -1,-17 -9,-20 -13,-5 -13,-10 1,-35 8,-17 22,-33 30,-36 10,-4 14,-16 12,-37 -3,-28 0,-31 32,-37 19,-3 51,-15 70,-27 44,-28 112,-29 171,-3 30,13 64,19 106,18 55,-1 63,-4 67,-23 9,-34 35,-22 56,24 11,23 22,42 25,42 3,0 3,-5 0,-11 -4,-6 3,-13 15,-16 16,-4 18,-8 9,-14 -11,-6 -10,-9 3,-14 9,-4 14,-13 12,-20 -9,-23 17,-28 39,-7 12,11 32,23 44,26 17,6 22,2 25,-16 2,-13 11,-24 22,-26 25,-5 96,18 96,31 0,6 3,8 6,4 3,-3 16,-2 29,3 40,15 228,11 255,-5 14,-8 74,17 103,43 15,14 27,22 27,18 0,-5 6,-3 14,3 16,14 46,4 46,-15 0,-17 8,-17 40,1 14,8 19,14 13,15 -7,0 -13,7 -13,15 0,8 8,15 18,14 10,0 12,-3 4,-6 -22,-9 -2,-23 26,-18 16,3 21,2 12,-2 -35,-17 -57,-39 -57,-55 0,-9 4,-15 9,-12 5,3 16,0 25,-8 14,-11 16,-11 11,2 -4,11 1,15 18,15 26,-2 46,-15 23,-15 -8,-1 -3,-7 11,-15 14,-8 37,-12 51,-9 20,4 30,-1 43,-20 20,-31 20,-40 1,-33 -8,4 -17,2 -20,-3 -9,-14 29,-12 43,2 7,7 12,8 12,2 0,-16 -45,-33 -60,-24 -7,4 -12,19 -12,33 0,19 -5,23 -19,20 -11,-3 -19,-11 -19,-18 0,-7 -6,-16 -12,-18 -8,-4 -7,-6 3,-6 21,-1 33,-55 18,-82 -5,-11 -8,-23 -5,-27 8,-13 -42,-65 -64,-69 -11,-2 -20,2 -20,9 0,7 -6,6 -17,-4 -21,-18 -64,-18 -85,-1 -12,11 -18,9 -33,-7 -23,-26 -31,-25 -38,2 -6,20 -7,20 -42,-10 -28,-25 -41,-30 -65,-26 -22,5 -31,2 -36,-10 -9,-23 -27,-20 -19,4 6,20 -9,28 -20,10 -3,-5 -13,-10 -22,-10 -9,0 -27,-10 -40,-22 -20,-18 -23,-19 -23,-5 0,22 -14,22 -36,0 -13,-13 -19,-14 -22,-5 -5,16 -29,16 -35,0 -3,-10 -7,-10 -19,0 -9,7 -20,12 -24,10 -18,-4 -54,14 -54,28 0,8 -7,14 -16,14 -9,0 -23,8 -29,17 -12,17 -14,17 -34,-1 -12,-11 -21,-16 -21,-11 0,4 -7,2 -16,-6 -13,-10 -17,-10 -24,0 -5,10 -19,12 -43,7 -30,-6 -35,-3 -40,15 -4,17 -9,19 -23,11 -13,-7 -21,-6 -29,4 -16,23 -41,7 -58,-37 -15,-39 -37,-53 -37,-23 0,13 -2,13 -13,2 -22,-22 -25,-41 -10,-71 8,-15 11,-36 8,-46 -3,-10 1,-24 10,-31 23,-19 18,-47 -11,-67 -14,-10 -34,-26 -44,-36 -10,-11 -23,-24 -30,-30 -6,-7 -25,-25 -41,-42 -16,-16 -29,-24 -29,-18 0,11 -13,8 -93,-20 -16,-6 -35,-21 -44,-34 -17,-25 -39,-30 -46,-10 -2,6 -11,-3 -21,-20 -9,-18 -21,-33 -26,-33 -5,0 -12,-9 -15,-20 -3,-11 -13,-20 -21,-20 -8,0 -17,-7 -20,-15 -4,-8 -12,-15 -19,-15 -6,0 -31,-13 -53,-30 -24,-17 -55,-30 -71,-30 -15,0 -40,-9 -54,-20 -14,-11 -39,-23 -56,-26 -21,-5 -31,-12 -31,-25 0,-11 5,-19 10,-19 16,0 12,-27 -5,-33 -18,-7 -48,-76 -40,-94 7,-21 169,-14 173,7 2,15 -55,57 -71,52 -4,-1 -7,0 -7,2 0,8 73,49 84,48 6,0 50,-3 98,-6 75,-5 87,-4 82,9 -4,8 -2,15 3,15 14,0 30,40 38,94 5,30 14,50 24,54 27,10 59,50 63,78 2,22 11,30 40,38 51,15 182,113 204,153 l 18,32 23,-21 c 12,-11 33,-26 45,-33 15,-7 22,-19 21,-32 -1,-12 5,-24 13,-27 11,-4 15,-2 11,7 -4,11 3,12 31,7 21,-4 52,-13 70,-20 27,-10 36,-9 57,4 13,9 31,16 40,16 9,0 15,9 15,24 0,37 10,56 30,56 9,0 25,9 34,19 20,21 35,19 79,-13 16,-12 27,-29 27,-44 0,-22 -3,-24 -30,-19 -17,4 -40,0 -57,-8 -15,-8 -40,-15 -55,-15 -18,0 -28,-5 -28,-15 0,-8 -7,-15 -15,-15 -9,0 -12,-6 -9,-15 4,-8 2,-15 -4,-15 -6,0 -12,6 -15,13 -6,18 -47,-20 -64,-61 l -13,-32 -29,32 c -16,18 -32,31 -34,28 -3,-3 -7,-41 -10,-85 -3,-64 -1,-84 12,-99 12,-14 13,-20 4,-23 -16,-6 -17,-34 -1,-31 6,2 13,-6 15,-17 3,-16 2,-17 -6,-5 -6,8 -11,10 -11,4 0,-5 6,-19 14,-29 12,-16 16,-17 30,-6 13,11 17,11 22,-3 3,-9 10,-13 15,-10 5,3 7,9 4,14 -6,10 9,80 25,115 14,34 19,65 9,71 -12,7 -11,61 1,85 14,25 31,24 53,-2 11,-12 28,-20 45,-19 15,1 30,2 35,1 10,-1 -18,-54 -37,-70 -9,-7 -13,-18 -9,-25 4,-6 9,-20 10,-31 2,-11 12,-31 23,-45 36,-45 44,-69 34,-98 -9,-26 -13,-27 -68,-24 -42,2 -65,-1 -84,-14 -15,-10 -31,-19 -37,-20 -5,0 -12,-2 -15,-3 -3,-2 -13,-4 -24,-6 -22,-4 -46,-25 -29,-25 6,0 30,7 53,15 52,18 66,12 19,-9 -30,-13 46,-14 707,-15 l 742,-1 15,24 c 17,25 152,109 208,127 19,7 51,27 72,46 21,19 53,41 72,50 l 35,17 v 98 c 0,55 -4,97 -8,94 -4,-2 -14,-1 -22,4 -13,8 -13,13 2,37 12,20 14,33 7,46 -13,23 -7,63 9,60 9,-2 12,107 12,497 v 500 h -43 c -24,0 -48,-5 -55,-12 -9,-9 -17,-8 -37,2 -22,12 -27,11 -45,-5 -21,-19 -17,-43 4,-26 7,6 16,8 19,4 12,-11 7,-23 -8,-23 -14,0 -13,-4 2,-25 14,-19 25,-24 48,-20 16,2 35,-1 42,-7 17,-13 17,-48 1,-48 -9,0 -8,-4 2,-10 13,-8 10,-14 -14,-37 -19,-19 -27,-22 -23,-10 5,13 1,17 -22,17 -16,0 -45,7 -64,15 -39,16 -62,12 -71,-11 -4,-9 2,-18 16,-23 19,-7 19,-8 -10,-20 -17,-7 -35,-10 -41,-7 -5,4 -12,2 -16,-4 -3,-5 -1,-10 4,-10 6,0 11,-4 11,-8 0,-4 -20,-9 -45,-10 -33,-1 -47,3 -52,14 -8,22 7,32 21,13 10,-15 14,-15 31,-3 10,8 17,16 14,18 -8,8 -54,10 -66,3 -18,-11 -73,23 -73,45 0,10 -5,18 -12,18 -6,0 -23,13 -37,28 -25,28 -58,47 -73,44 -5,-1 -8,7 -8,17 0,10 -7,22 -16,25 -8,3 -13,10 -10,15 3,5 -1,11 -9,15 -8,3 -15,16 -15,29 0,13 -8,31 -17,40 -17,14 -18,13 -20,-20 -2,-40 -10,-53 -22,-34 -6,9 -11,10 -15,2 -10,-15 -23,-6 -42,30 -13,25 -13,33 -2,46 11,14 10,15 -10,9 -23,-8 -32,8 -10,17 7,3 2,6 -12,6 -14,1 -42,9 -61,19 -35,18 -35,18 -15,34 21,16 21,16 -4,12 -33,-6 -119,68 -157,137 -23,41 -36,52 -74,64 -25,9 -66,34 -91,58 -64,60 -91,78 -106,72 -7,-2 -11,-1 -8,4 3,5 -5,16 -17,24 -28,18 -28,42 -2,91 18,34 47,47 59,27 9,-14 103,-61 110,-54 3,4 6,1 6,-5 0,-7 7,-12 15,-12 7,0 18,-6 22,-13 4,-8 33,-31 63,-52 30,-21 77,-60 103,-86 57,-57 88,-71 82,-38 -4,19 -1,20 23,14 15,-3 137,-7 272,-8 235,-2 245,-1 270,19 14,12 44,31 68,43 36,18 42,26 42,53 0,19 -9,41 -21,54 l -21,23 21,34 c 11,19 21,46 21,60 0,14 5,29 11,32 6,4 7,19 4,36 -4,18 -3,29 4,29 6,0 11,-9 11,-21 0,-31 24,-17 28,16 2,16 -2,34 -10,40 -7,5 -13,30 -14,58 0,26 -6,53 -14,60 -10,9 -11,9 -6,-1 5,-8 -4,-19 -23,-30 -17,-9 -31,-21 -31,-25 0,-5 -6,-5 -12,0 -8,4 -6,-4 3,-18 24,-36 14,-113 -17,-138 -13,-11 -24,-23 -24,-28 0,-6 -9,-18 -20,-28 -24,-22 -27,-15 -34,72 -3,35 -12,74 -23,90 -17,25 -18,52 -16,323 2,162 5,305 8,318 5,22 5,22 -130,22 h -135 v -36 c 0,-19 4,-43 9,-52 5,-9 12,-36 16,-60 6,-39 4,-45 -24,-71 -17,-16 -31,-36 -31,-45 0,-27 -30,-65 -46,-59 -20,8 -17,59 5,80 19,19 30,79 34,185 l 2,58 h -42 -42 l 1,-37 c 1,-52 -17,-92 -46,-103 -13,-5 -26,-14 -28,-20 -7,-21 -56,0 -67,28 -5,15 -10,20 -11,12 -1,-19 -43,-51 -56,-42 -5,4 -9,27 -10,50 0,24 -7,47 -14,52 -7,5 -11,19 -8,34 l 5,26 h -337 c -298,0 -339,-2 -344,-16 -4,-11 -17,-15 -43,-13 -41,4 -40,6 -26,-64 4,-20 -1,-35 -15,-50 -11,-12 -25,-32 -31,-44 -22,-43 -71,-22 -71,29 0,16 -5,37 -11,47 -15,23 -5,65 21,91 20,20 17,20 -605,20 H 0 Z"
         id="path6554"
         style="fill:#795548;fill-opacity:1" />
      <path
         inkscape:connector-curvature="0"
         d="m 3000,3056 c 0,-14 -4,-28 -10,-31 -5,-3 -9,-26 -8,-51 2,-46 -9,-64 -43,-64 -9,0 -19,-10 -23,-22 -7,-26 2,-269 10,-277 8,-8 70,64 86,99 8,19 18,28 27,25 35,-14 41,13 41,181 v 164 h -40 c -36,0 -40,-3 -40,-24 z"
         id="path6556"
         style="fill:#795548;fill-opacity:1" />
      <path
         inkscape:connector-curvature="0"
         d="m 499,2009 c -22,-19 -22,-21 -6,-30 9,-6 15,-14 13,-18 -6,-10 36,-82 55,-94 9,-6 28,-7 45,-2 19,5 24,9 14,13 -8,3 -23,13 -34,23 -18,18 -18,19 -1,25 11,5 22,1 30,-9 7,-10 21,-17 31,-17 16,0 17,2 4,10 -8,5 -11,10 -7,10 10,0 -41,91 -57,102 -21,14 -63,8 -87,-13 z"
         id="path6558"
         style="fill:#795548;fill-opacity:1" />
      <path
         inkscape:connector-curvature="0"
         d="M 1,135 0,0 h 38 39 l 15,74 15,75 -23,5 C 69,158 53,178 36,215 22,245 9,270 7,270 5,270 3,209 1,135 Z"
         id="path6560"
         style="fill:#795548;fill-opacity:1" />
    </g>
  </g>
</svg>
