<?xml version="1.0" encoding="UTF-8" standalone="no"?>
<svg
   xmlns:dc="http://purl.org/dc/elements/1.1/"
   xmlns:cc="http://creativecommons.org/ns#"
   xmlns:rdf="http://www.w3.org/1999/02/22-rdf-syntax-ns#"
   xmlns:svg="http://www.w3.org/2000/svg"
   xmlns="http://www.w3.org/2000/svg"
   xmlns:sodipodi="http://sodipodi.sourceforge.net/DTD/sodipodi-0.dtd"
   xmlns:inkscape="http://www.inkscape.org/namespaces/inkscape"
   fill="#7289da"
   height="512"
   width="512"
   version="1.1"
   id="svg4979"
   sodipodi:docname="mnode.svg"
   inkscape:version="0.92.2 2405546, 2018-03-11">
  <metadata
     id="metadata4985">
    <rdf:RDF>
      <cc:Work
         rdf:about="">
        <dc:format>image/svg+xml</dc:format>
        <dc:type
           rdf:resource="http://purl.org/dc/dcmitype/StillImage" />
        <dc:title />
      </cc:Work>
    </rdf:RDF>
  </metadata>
  <defs
     id="defs4983" />
  <sodipodi:namedview
     pagecolor="#ffffff"
     bordercolor="#666666"
     borderopacity="1"
     objecttolerance="10"
     gridtolerance="10"
     guidetolerance="10"
     inkscape:pageopacity="0"
     inkscape:pageshadow="2"
     inkscape:window-width="1722"
     inkscape:window-height="908"
     id="namedview4981"
     showgrid="false"
     inkscape:zoom="0.92187499"
     inkscape:cx="544.44337"
     inkscape:cy="170.5808"
     inkscape:window-x="30"
     inkscape:window-y="118"
     inkscape:window-maximized="0"
     inkscape:current-layer="g5825" />
  <g
     id="g5825">
    <circle
       style="opacity:1;fill:#795548;fill-opacity:1;stroke:none;stroke-width:25.67475319;stroke-miterlimit:4;stroke-dasharray:none;stroke-opacity:1"
       id="path817"
       cx="256"
       cy="256"
       r="256" />
    <path
       style="fill:#ffffff;stroke-width:0.34068912;fill-opacity:1"
       d="m 198.73597,414.69209 c -6.58817,-0.20682 -7.32735,-0.29374 -9.38284,-1.1029 -3.34211,-1.31567 -4.70671,-2.24054 -5.44611,-3.69098 -0.3667,-0.71938 -1.01141,-1.63652 -1.43267,-2.03803 -0.71066,-0.67733 -0.96272,-0.70961 -3.49037,-0.44699 -8.78067,0.91234 -15.60789,-0.5013 -14.95698,-3.09696 0.24237,-0.96637 -0.36915,-1.36697 -2.50141,-1.63846 -1.69078,-0.21529 -3.87016,-1.28059 -5.43767,-2.65799 -2.16735,-1.90447 -3.84714,-1.90549 -10.64147,-0.007 -4.17823,1.16779 -4.82084,1.05142 -7.28824,-1.3198 -2.41468,-2.32058 -4.99199,-3.63771 -8.09778,-4.13826 -5.19865,-0.83789 -5.82499,-1.91747 -7.64443,-13.17644 -0.60948,-3.77154 -0.92038,-7.28552 -1.04752,-11.83916 -0.21394,-7.66453 0.15755,-9.85446 2.27749,-13.42577 1.80582,-3.04203 1.77622,-3.3009 -0.40681,-3.55969 -2.27793,-0.27 -2.80724,-0.80552 -2.64969,-2.68075 0.25848,-3.07639 0.016,-5.36753 -0.75723,-7.1563 -1.22184,-2.82649 -1.02849,-4.06082 1.36761,-8.73005 1.15278,-2.24646 2.49498,-5.50168 2.99539,-7.26466 1.20169,-4.23377 2.22546,-6.211 4.41078,-8.51879 0.99797,-1.05392 1.89894,-2.31923 2.00216,-2.81181 0.10324,-0.49261 0.26569,-1.2729 0.36099,-1.73394 0.24906,-1.20454 -0.44467,-7.06287 -1.20089,-10.14136 -0.73336,-2.98552 -1.88534,-5.85194 -2.58552,-6.43352 -0.71893,-0.59711 -0.56882,-1.90975 0.37788,-3.30404 1.03417,-1.52314 1.07475,-2.52504 0.15283,-3.77301 -0.86883,-1.17608 -1.65658,-5.44348 -1.67644,-9.08118 -0.0268,-4.90809 -0.68798,-12.19858 -1.36518,-15.0523 -1.29009,-5.43632 -2.91082,-8.47792 -7.09958,-13.32364 -2.78947,-3.22697 -3.89197,-5.20978 -4.47965,-8.05668 -0.83791,-4.05895 0.16883,-8.37253 3.58797,-15.37302 2.82051,-5.77489 3.85362,-9.39291 4.23338,-14.82595 0.31471,-4.50189 0.72052,-6.2006 1.75584,-7.34973 1.20715,-1.33985 0.86778,-2.13899 -2.49794,-5.88229 -2.30773,-2.56661 -2.80531,-4.45412 -2.49297,-9.45697 0.28332,-4.53816 0.0731,-5.94041 -0.89008,-5.94041 -0.87517,0 -1.51487,-1.5621 -1.81443,-4.43074 -0.12722,-1.21845 -0.53809,-4.17317 -0.91297,-6.56599 -0.78502,-5.01028 -0.73655,-6.16203 0.17964,-4.27093 0.33638,0.69434 0.82569,1.44024 1.08733,1.65755 0.75884,0.63029 2.56078,0.1026 6.65526,-1.94867 4.32454,-2.16662 7.10948,-4.52266 7.10948,-6.01456 0,-1.2189 -1.16769,-1.49261 -4.16964,-0.97742 -2.97579,0.5107 -4.25011,0.50237 -4.43822,-0.0291 -0.17269,-0.48774 0.70583,-2.87703 1.99152,-5.41627 1.2763,-2.5207 0.98842,-2.62729 -4.15111,-1.53693 -2.37482,0.50383 -4.37467,0.85919 -4.44411,0.7897 -0.0695,-0.0695 1.57063,-1.40954 3.6446,-2.97787 3.72906,-2.81994 5.09646,-4.34644 5.09646,-5.68949 0,-1.10437 -2.15662,-2.7039 -6.25279,-4.63757 -5.34258,-2.52205 -7.49023,-3.97072 -10.50629,-7.08683 -2.47231,-2.55431 -2.7018,-2.70705 -3.91635,-2.60675 -1.15767,0.0956 -1.37103,0.26968 -2.077851,1.69505 -1.097938,2.21405 -1.251881,4.53295 -0.761932,11.47747 0.352371,4.99488 0.346523,6.2512 -0.03454,7.37578 -0.514051,1.5174 -1.626064,2.13367 -3.156402,1.74927 -1.43731,-0.36101 -3.732138,-2.92238 -5.100076,-5.69239 -1.702776,-3.44816 -2.128781,-6.22029 -1.60793,-10.46365 0.720688,-5.87143 4.144195,-20.52262 5.623356,-24.06557 0.358919,-0.85972 0.727127,-1.22607 1.232274,-1.22607 0.747282,0 5.203071,-1.64355 11.029551,-4.06832 6.30197,-2.62266 13.13219,-4.12457 22.53998,-4.95636 3.35512,-0.29666 7.97533,-0.84955 10.26712,-1.22866 4.16411,-0.68881 4.16797,-0.68883 5.69999,-0.0109 2.30833,1.0219 5.03098,2.92133 9.41544,6.56858 10.27935,8.55097 15.46847,11.3789 21.62258,11.78371 3.49812,0.23011 5.29509,-0.18874 10.68868,-2.49138 9.64242,-4.11652 26.01938,-7.6829 42.22845,-9.19601 8.52236,-0.79556 20.66117,-0.54971 23.92376,0.48455 5.38333,1.70652 7.00453,2.09641 10.2648,2.46863 2.6056,0.29745 3.79149,0.297 4.87844,-0.002 1.35854,-0.3736 1.5123,-0.55121 2.8507,-3.29296 0.78361,-1.60518 2.07438,-3.57732 2.89333,-4.42065 1.24803,-1.28514 1.68392,-1.52259 2.79512,-1.52259 2.64545,0 6.32267,3.54982 8.64997,8.35025 0.88145,1.81807 0.98007,2.34284 0.88888,4.7299 -0.0965,2.52617 -0.0522,2.72212 0.74881,3.31365 1.19477,0.88228 3.81661,1.49179 10.80333,2.51144 6.95716,1.01534 11.63638,2.22285 13.44151,3.46871 1.1465,0.79126 1.36734,0.83174 2.49892,0.45797 1.31655,-0.43485 3.82441,-2.23576 7.97284,-5.72538 1.39395,-1.17257 3.49821,-2.6068 4.67615,-3.18715 2.01747,-0.99401 2.46299,-1.07169 7.68208,-1.3394 7.67257,-0.39357 16.31624,-2.09267 43.17145,-8.48634 11.29242,-2.68848 11.97881,-2.78543 19.58172,-2.76578 8.24355,0.0213 12.43016,0.67447 12.43016,1.93934 0,1.06961 -2.24195,1.4945 -5.39511,1.02245 -1.72394,-0.25808 -1.80105,-0.23823 -1.4712,0.37857 0.19146,0.35802 1.85302,2.33025 3.69232,4.38272 7.76081,8.66017 15.77439,19.23153 15.77439,20.80919 0,0.9359 -1.8649,0.39352 -7.02289,-2.04246 -2.59935,-1.22763 -5.54088,-2.40565 -6.53669,-2.61781 -1.6542,-0.35244 -2.06584,-0.30197 -4.76771,0.58463 -2.86446,0.93995 -3.1868,0.97122 -10.27907,0.99736 -6.64104,0.0245 -7.54352,0.0989 -9.70573,0.80048 -4.36434,1.41614 -6.87545,2.99581 -10.92765,6.87432 -3.78719,3.62485 -5.63767,4.73838 -7.87433,4.73838 -1.63904,0 -3.04976,0.87877 -3.2828,2.04496 -0.65609,3.2831 -7.31381,9.18606 -10.37516,9.19899 -0.93952,0.004 -1.99445,0.51316 -3.0426,1.46863 -1.26283,1.15115 -0.98278,1.59851 1.02165,1.63199 2.75223,0.046 5.12516,0.43955 5.26857,0.8739 0.24625,0.74595 -4.001,1.80796 -8.75921,2.19021 -3.3936,0.27263 -5.9786,0.26501 -9.87188,-0.0291 -6.7565,-0.51036 -9.77839,-0.50625 -10.40502,0.0142 -1.20849,1.00379 0.12767,4.35828 2.22781,5.59298 1.13995,0.6702 1.61587,0.69609 10.95036,0.59579 5.8766,-0.0631 9.83772,0.0231 9.95741,0.21699 0.10926,0.17703 -0.0293,0.51141 -0.30831,0.74306 -0.74725,0.62064 -0.61954,1.19948 0.36352,1.64774 1.94147,0.88533 0.55657,1.23307 -7.00052,1.75781 -2.71591,0.18858 -5.28128,0.43648 -5.70083,0.55092 l -0.7628,0.20803 0.87834,0.69148 c 0.66423,0.52291 0.83639,0.90807 0.70613,1.58006 -0.23853,1.23047 2.15227,3.47164 5.91359,5.54348 3.41754,1.8825 5.33633,3.35093 6.16882,4.72097 0.35273,0.58047 1.00624,1.08302 1.55539,1.19612 2.63434,0.54256 3.57634,0.97957 5.13552,2.38255 1.96971,1.77238 3.57451,4.15761 4.17522,6.20576 0.57407,1.95742 -0.19422,3.93778 -2.30127,5.9316 -0.8675,0.82092 -2.09173,1.97906 -2.7205,2.57364 -0.87064,0.82332 -1.12449,1.32638 -1.06481,2.11012 0.10384,1.36368 -0.70604,2.20297 -3.41238,3.53636 -2.82562,1.39218 -4.88518,1.4432 -7.60843,0.18848 -3.44969,-1.58945 -6.41082,-5.05769 -6.41082,-7.50872 0,-0.48879 0.40946,-1.37571 0.90987,-1.97094 0.87019,-1.035 0.88603,-1.12165 0.36257,-1.9859 -0.7076,-1.16833 -4.19397,-3.10976 -5.59383,-3.115 -1.05945,-0.004 -1.08456,0.0311 -1.02166,1.42652 0.0573,1.26981 -0.0585,1.50921 -1.02918,2.13017 -1.44772,0.92605 -1.39577,1.55652 0.23632,2.86919 2.20547,1.77378 2.25227,2.11317 0.53205,3.85944 -1.8597,1.88787 -2.14726,3.18714 -1.56967,7.09278 0.23563,1.59336 0.51038,3.47216 0.61057,4.17511 0.25528,1.79126 -0.30215,1.64674 -2.36613,-0.61338 -1.67456,-1.8337 -3.53442,-3.13073 -3.92653,-2.73828 -0.10554,0.10562 0.0562,0.76878 0.35938,1.47365 0.84539,1.96509 1.09377,3.23371 2.78629,14.23297 2.017,13.10771 2.58578,15.87223 3.86623,18.79199 1.82815,4.16865 4.08771,18.0365 3.71312,22.78898 -0.20961,2.65932 -1.32416,5.20047 -2.99872,6.83695 -1.56639,1.53079 -1.69761,2.51402 -0.5388,4.03721 1.16465,1.53083 1.35276,2.4058 0.76267,3.54783 -0.81778,1.58264 -2.61034,2.24918 -6.42849,2.39025 -2.68762,0.0994 -3.49878,0.0131 -4.20009,-0.44686 -0.79749,-0.52297 -0.85042,-0.70593 -0.64236,-2.22 0.40956,-2.98034 -1.25606,-5.47442 -9.59714,-14.37062 -5.00575,-5.33884 -6.51974,-7.59635 -6.88089,-10.25982 -0.36934,-2.72382 -1.62725,-4.54703 -6.90991,-10.01513 -3.06231,-3.16982 -5.00123,-5.46958 -5.43087,-6.44161 -0.45615,-1.03213 -0.93432,-1.57859 -1.50709,-1.72247 -1.40296,-0.3524 -3.29552,0.18049 -5.17332,1.45664 -3.12581,2.12432 -5.66274,1.62262 -9.794,-1.93686 -3.01206,-2.59515 -13.49503,-7.56487 -14.28642,-6.77282 -0.0965,0.0966 -0.0291,0.68569 0.14944,1.30918 0.40203,1.40287 0.22238,1.71824 -0.97884,1.71824 -1.26658,0 -6.79442,-1.83959 -9.75328,-3.24577 -3.0775,-1.46254 -4.24808,-2.39542 -4.24808,-3.38532 0,-0.83058 -0.73589,-1.19449 -2.43314,-1.20326 -1.37965,-0.007 -5.15502,-1.25678 -9.4862,-3.13996 -5.23647,-2.27681 -6.2072,-2.22319 -10.3625,0.57256 -1.62635,1.09422 -3.71467,2.70145 -4.64077,3.5716 -2.18517,2.0532 -2.24691,3.07008 -0.32157,5.29644 1.03295,1.19443 1.36222,1.86505 1.36222,2.77442 0,1.50673 -1.27183,4.76107 -3.57771,9.1545 -0.98386,1.87455 -2.06554,4.15646 -2.40373,5.0709 -0.59709,1.61441 -0.59639,1.67621 0.0239,2.13018 0.36969,0.27054 1.48179,0.46752 2.63944,0.46752 3.38703,0 3.94449,0.67202 3.13885,3.7836 -0.6052,2.33748 -0.33217,3.21692 1.12555,3.62535 0.50967,0.1428 4.45142,0.24213 8.75939,0.22071 11.78489,-0.0585 20.24123,-1.26366 27.18533,-3.87409 4.98098,-1.87243 5.12213,-1.83589 3.07333,0.79596 -0.68333,0.87778 -1.15604,1.68238 -1.05048,1.78802 0.10553,0.10562 1.14645,0.0474 2.31312,-0.12925 2.74414,-0.41567 5.93384,0.14092 10.07522,1.7581 4.30816,1.6823 8.29618,2.80053 14.08371,3.949 6.39856,1.26974 8.30575,1.96614 8.45748,3.08822 0.16747,1.23819 0.41755,1.37768 3.06692,1.71064 2.53001,0.31791 3.80044,0.86153 3.80044,1.62617 0,0.78131 1.76631,2.24918 4.51229,3.74986 1.45161,0.79331 2.63929,1.611 2.63929,1.81713 0,0.25453 -0.90116,0.3256 -2.80955,0.22153 -3.09849,-0.16897 -4.40966,-0.68528 -6.49783,-2.55875 -3.88038,-3.48136 -15.55291,-5.44065 -15.55291,-2.61062 0,1.06871 1.12158,2.85755 2.21613,3.53456 0.92086,0.56957 1.45372,0.65492 2.97305,0.47622 2.26274,-0.26615 4.75037,0.3957 8.41055,2.23772 5.0029,2.51776 7.43785,4.83815 8.02814,7.65039 0.11467,0.54625 0.81425,1.54317 1.55468,2.21539 3.74966,3.40425 4.49478,4.28846 5.62881,6.67953 1.39379,2.93874 2.9225,4.43252 4.87396,4.76246 0.76337,0.12909 1.49887,0.41307 1.63444,0.63106 0.13555,0.21801 0.20518,1.39332 0.15477,2.61176 -0.0504,1.21845 0.221,3.97914 0.60316,6.13489 1.27299,7.18051 0.76512,10.06335 -2.04836,11.62718 -1.63423,0.90837 -2.154,2.06189 -1.83326,4.0687 0.33568,2.10036 -0.68847,5.81826 -2.62974,9.54654 -1.71546,3.29461 -1.8138,3.62153 -1.85786,6.17514 -0.0557,3.23119 -0.43266,3.79049 -2.96145,4.39364 -0.96786,0.23087 -2.07558,0.62519 -2.46158,0.87628 -1.17868,0.76667 -2.09133,2.82485 -3.19753,7.2109 -1.27028,5.03664 -2.24243,7.6947 -4.17474,11.41449 -2.7202,5.2364 -7.17621,10.35992 -11.51429,13.23902 -1.0265,0.68126 -5.48249,2.99702 -9.90217,5.14612 -7.06644,3.4361 -8.11045,3.85279 -8.65486,3.4544 -0.55636,-0.40714 -0.57535,-0.599 -0.18773,-1.89391 0.40256,-1.34467 0.38124,-1.48148 -0.31956,-2.0494 -1.20452,-0.97614 -3.74603,0.004 -3.74603,1.44298 0,0.92943 -0.78459,1.34784 -2.12056,1.13088 -1.14946,-0.1867 -1.28205,-0.11055 -2.11955,1.21723 -1.04484,1.65646 -2.18296,2.19192 -4.19214,1.97224 -2.49209,-0.27243 -4.84926,-2.4226 -4.84926,-4.42344 0,-1.64871 -2.35574,-5.61559 -5.01477,-8.44443 -2.48846,-2.64739 -5.40644,-5.00543 -5.75827,-4.6533 -0.0924,0.0925 0.52427,1.18026 1.37045,2.41723 0.84619,1.23698 1.63078,2.82482 1.74352,3.52855 0.11276,0.70372 0.59563,3.26807 1.07299,5.69856 1.05017,5.34696 0.99089,8.12679 -0.19382,9.08688 -0.70903,0.57459 -0.86612,0.58312 -2.00024,0.10886 -0.67694,-0.28307 -2.15826,-1.40456 -3.29178,-2.4922 -2.40637,-2.30892 -3.34566,-2.64225 -5.36765,-1.90478 -0.80357,0.29307 -2.30394,0.83633 -3.33408,1.20724 -1.03018,0.3709 -3.19791,0.81164 -4.81716,0.9795 -4.14017,0.42911 -5.56104,0.94084 -7.52907,2.71171 -2.17712,1.959 -3.26476,1.99437 -6.64593,0.21618 -4.36749,-2.2969 -6.86712,-5.49487 -6.88232,-8.80501 -0.004,-0.89643 -0.24466,-2.19797 -0.53455,-2.89238 -1.07414,-2.57287 -2.75748,-3.68829 -7.32904,-4.85645 -5.07757,-1.29747 -5.84824,-2.189 -5.84486,-6.7614 0.005,-6.27988 1.78122,-8.88802 6.49364,-9.53303 3.30357,-0.45212 3.66622,-0.96812 3.94768,-5.61709 0.37891,-6.2582 1.20077,-12.84342 1.95784,-15.68734 0.70325,-2.6417 0.70383,-2.67984 0.0547,-3.57869 -0.90031,-1.24643 -3.86382,-2.66243 -6.92604,-3.30938 -2.97617,-0.62875 -10.51867,-0.72785 -14.1329,-0.18564 -2.64437,0.39669 -6.72809,0.47533 -7.93134,0.15277 -0.46505,-0.12469 -0.98063,-0.69027 -1.27751,-1.40138 l -0.49777,-1.19234 -2.80911,0.15762 c -6.28523,0.3527 -18.76268,5.89869 -22.273,9.89997 -3.88615,4.42963 -1.15475,18.60168 4.16891,21.63074 1.14706,0.65267 1.64781,0.72919 3.6005,0.55035 2.12223,-0.1944 2.32487,-0.15097 3.15012,0.67493 0.5998,0.6003 0.87849,1.24197 0.87112,2.00585 -0.0131,1.3599 -0.49254,2.04093 -2.0457,2.90602 -1.76073,0.98069 -1.7236,1.99866 0.21257,5.82522 1.59393,3.15026 4.09946,6.16191 6.38524,7.67515 1.40232,0.92835 1.68491,2.02499 1.63082,6.32876 -0.0693,5.51807 -0.0131,5.58201 6.04629,6.88791 4.1719,0.8991 8.59085,2.59419 12.40775,4.75953 6.01506,3.41241 12.65688,4.81777 19.33341,4.09085 4.68542,-0.51011 6.91541,-1.06443 12.28306,-3.05322 8.38267,-3.10587 11.40631,-3.58299 21.4814,-3.38958 6.46111,0.12404 7.4153,0.21676 8.83218,0.85821 1.89566,0.85819 2.32784,1.55653 2.32784,3.76136 0,2.3886 -1.3406,4.92464 -3.17036,5.99741 -2.03967,1.19585 -5.23485,2.17386 -7.94362,2.43139 -1.28579,0.12226 -3.33392,0.51036 -4.55137,0.86239 -2.20513,0.63765 -6.81732,1.3703 -8.5996,1.366 -0.51543,0 -2.26399,0.45786 -3.88571,1.02022 -3.29222,1.14166 -4.36895,1.17731 -20.37798,0.67468 z M 155.84186,265.38757 c 1.19317,-0.36884 2.25818,-0.81436 2.36665,-0.99006 0.10855,-0.1757 -0.53856,-0.69263 -1.43797,-1.14875 -3.59233,-1.82185 -8.42384,-6.13225 -8.19668,-7.31266 0.15159,-0.78787 2.53489,-1.84828 4.10527,-1.82659 1.47153,0.0204 3.32753,1.0383 4.1312,2.26584 0.84446,1.28984 3.35906,2.58902 5.42396,2.8023 2.44131,0.25217 2.68051,-0.26593 0.73981,-1.60226 -1.43335,-0.98699 -1.5346,-1.15213 -1.34063,-2.18693 0.17563,-0.93685 -0.17123,-1.86359 -2.1276,-5.68492 -2.88391,-5.63303 -6.19162,-10.78657 -7.93476,-12.36264 -1.57083,-1.42033 -3.15346,-1.91346 -6.13149,-1.91057 -2.57795,0.002 -5.14902,0.62297 -7.64441,1.84485 -2.06477,1.01101 -5.97768,4.5425 -5.97768,5.39499 0,0.32157 0.57467,0.95263 1.27708,1.40237 2.1991,1.40809 3.04198,2.58388 3.25905,4.54636 0.3547,3.20646 5.38603,12.08945 8.77415,15.49111 2.43764,2.44737 5.67924,2.8339 10.71405,1.27756 z m 278.38579,5.50816 c -4.79664,-1.08242 -4.86647,-1.12638 -7.63911,-4.81004 -1.39527,-1.85377 -3.62069,-5.20986 -4.94532,-7.45796 -3.90426,-6.62613 -6.25899,-8.75098 -11.94453,-10.77851 -3.63158,-1.29504 -9.21084,-4.26194 -12.65618,-6.73019 -1.62786,-1.16616 -4.98389,-3.95978 -7.45789,-6.20804 -8.44184,-7.67156 -12.82219,-10.98274 -15.51254,-11.72617 -0.61062,-0.16874 -1.61588,-0.19305 -2.23381,-0.054 -1.58705,0.35707 -1.98154,0.14192 -1.76121,-0.96058 0.23035,-1.15259 -0.7914,-2.46147 -3.62457,-4.64331 -3.49467,-2.69127 -4.1999,-5.67141 -2.52426,-10.66709 2.52961,-7.54165 6.92295,-12.7684 10.73249,-12.7684 1.16072,0 1.60994,0.25261 3.29636,1.85372 3.97351,3.77244 16.79481,10.07346 19.87089,9.76553 0.94493,-0.0946 1.12814,0.0235 1.41866,0.91388 0.46595,1.42812 1.23481,2.21536 2.16364,2.21536 1.62696,0 3.48471,1.08802 5.17122,3.02862 1.67685,1.92945 5.13197,4.72444 13.38283,10.8259 5.79909,4.28841 11.84238,9.40279 17.50463,14.81394 2.62555,2.50917 5.90532,5.48236 7.2884,6.60708 1.38302,1.12472 3.14267,2.93837 3.91031,4.03033 1.34839,1.91819 1.39255,2.06605 1.30444,4.37023 -0.0608,1.58818 -0.36745,3.04172 -0.91812,4.35112 -0.45482,1.08143 -0.99804,3.02581 -1.20715,4.32084 -0.72818,4.50929 -1.30537,5.9377 -3.18718,7.88783 -1.57645,1.63368 -1.94843,1.84382 -3.79124,2.14181 -2.62313,0.42418 -3.52922,0.38026 -6.64076,-0.32188 z"
       id="path3453"
       inkscape:connector-curvature="0" />
  </g>
</svg>
