<?xml version="1.0" encoding="UTF-8" standalone="no"?>
<svg
   xmlns:dc="http://purl.org/dc/elements/1.1/"
   xmlns:cc="http://creativecommons.org/ns#"
   xmlns:rdf="http://www.w3.org/1999/02/22-rdf-syntax-ns#"
   xmlns:svg="http://www.w3.org/2000/svg"
   xmlns="http://www.w3.org/2000/svg"
   xmlns:sodipodi="http://sodipodi.sourceforge.net/DTD/sodipodi-0.dtd"
   xmlns:inkscape="http://www.inkscape.org/namespaces/inkscape"
   fill="#7289da"
   height="512"
   width="512"
   version="1.1"
   id="svg4979"
   sodipodi:docname="mnroi.svg"
   inkscape:version="0.92.2 2405546, 2018-03-11">
  <metadata
     id="metadata4985">
    <rdf:RDF>
      <cc:Work
         rdf:about="">
        <dc:format>image/svg+xml</dc:format>
        <dc:type
           rdf:resource="http://purl.org/dc/dcmitype/StillImage" />
        <dc:title></dc:title>
      </cc:Work>
    </rdf:RDF>
  </metadata>
  <defs
     id="defs4983">
    <style
       id="style1516">
      .cls-1, .cls-5, .cls-6 {
        fill: none;
        stroke-linecap: round;
      }

      .cls-1, .cls-5 {
        stroke: #183c87;
      }

      .cls-1 {
        stroke-width: 75px;
      }

      .cls-2, .cls-3 {
        fill: #183c87;
      }

      .cls-2, .cls-5, .cls-6 {
        fill-rule: evenodd;
      }

      .cls-4 {
        fill: #fff;
      }

      .cls-5 {
        stroke-width: 101px;
      }

      .cls-6 {
        stroke: #fff;
        stroke-width: 56px;
      }
    </style>
  </defs>
  <sodipodi:namedview
     pagecolor="#ffffff"
     bordercolor="#666666"
     borderopacity="1"
     objecttolerance="10"
     gridtolerance="10"
     guidetolerance="10"
     inkscape:pageopacity="0"
     inkscape:pageshadow="2"
     inkscape:window-width="1722"
     inkscape:window-height="908"
     id="namedview4981"
     showgrid="false"
     inkscape:zoom="0.48475485"
     inkscape:cx="372.73158"
     inkscape:cy="238.01211"
     inkscape:window-x="104"
     inkscape:window-y="76"
     inkscape:window-maximized="0"
     inkscape:current-layer="svg4979" />
  <circle
     style="opacity:1;fill:#795548;fill-opacity:1;stroke:none;stroke-width:25.67475319;stroke-miterlimit:4;stroke-dasharray:none;stroke-opacity:1"
     id="path817"
     cx="256"
     cy="256"
     r="256" />
  <path
     style="fill:#fffffc;fill-opacity:1;stroke-width:1.62054503"
     d="M 223.57032,449.96035 C 152.94762,439.007 91.165428,387.51664 66.606332,319.14381 56.162649,290.06844 52.644283,247.16935 58.285514,217.68876 71.184469,150.27994 117.30083,93.638928 179.79951,68.44291 c 24.47443,-9.866737 37.50831,-12.455979 67.26872,-13.363226 20.85816,-0.635852 29.94672,-0.218741 41.32389,1.896557 121.32664,22.557527 193.76403,145.566569 153.62627,260.879389 -10.60593,30.47006 -24.45567,52.5246 -47.42846,75.52579 -25.76955,25.80142 -56.34779,43.36568 -91.61289,52.6228 -13.5552,3.55825 -20.57838,4.35293 -42.94444,4.85906 -14.70645,0.33281 -31.11448,-0.0735 -36.46228,-0.90293 z m 72.60234,-17.00937 c 67.78796,-14.90456 122.55717,-69.85745 138.35222,-138.81621 3.54688,-15.48513 4.18193,-22.06891 4.1111,-42.62225 -0.0742,-21.52597 -0.63786,-26.46989 -4.92489,-43.19513 C 414.94197,135.09271 355.62233,81.153132 281.59147,69.994419 c -19.9585,-3.008351 -34.37459,-3.027795 -53.97651,-0.07278 -39.15805,5.903072 -72.51923,22.20307 -100.85936,49.279071 -30.430903,29.07352 -49.319603,65.4833 -55.606377,107.18666 -13.880034,92.07329 44.748497,181.0728 135.265867,205.33683 28.81434,7.72396 58.37043,8.12792 89.75757,1.22682 z m -55.99175,-25.74793 -12.55922,-11.93899 v -60.12681 c 0,-33.06976 0.57184,-60.12682 1.27076,-60.12682 1.75181,0 16.87622,15.84009 21.28948,22.29691 l 3.60971,5.2812 6.88438,-9.35176 c 6.93373,-9.41883 16.10763,-18.22635 18.98449,-18.22635 0.97096,0 1.37997,22.49314 1.09106,60.00251 l -0.46217,60.0025 -12.15409,12.06194 c -6.68474,6.63407 -12.88333,12.06253 -13.77463,12.06329 -0.89129,7.5e-4 -7.27219,-5.37119 -14.17977,-11.93762 z m -82.873,-76.68896 c -17.45403,-16.71186 -33.02111,-32.20834 -34.59353,-34.43658 -2.55394,-3.61917 -2.94537,-9.92918 -3.66921,-59.1499 -0.7809,-53.10226 -0.94461,-55.38995 -4.5184,-63.14203 -2.03946,-4.42395 -4.88715,-9.34635 -6.3282,-10.93869 -3.38019,-3.73508 -2.59862,-3.65896 9.59419,0.93445 15.17117,5.71541 42.59512,19.82082 56.35095,28.98388 13.14246,8.7545 26.42095,19.09188 25.5905,19.92234 -0.28369,0.2837 -6.37124,-2.27437 -13.52786,-5.68462 -13.8177,-6.58437 -33.42731,-13.01976 -39.67318,-13.01976 -3.37401,0 -3.06037,0.60161 3.03264,5.81697 8.49202,7.26887 15.19115,16.90496 19.05172,27.4042 2.50785,6.82038 3.13069,15.02736 3.93547,51.85744 1.04193,47.68166 1.23658,48.82428 12.07896,70.89883 2.95502,6.01628 5.15627,10.9387 4.89167,10.9387 -0.2646,0 -14.76167,-13.67336 -32.21572,-30.38523 z m 161.31548,29.57495 c 0.39749,-0.8913 2.60099,-5.63139 4.89664,-10.53355 9.83109,-20.99316 10.00586,-22.07344 11.14178,-68.87317 1.32014,-54.3887 2.89385,-60.43688 20.23843,-77.78146 6.93532,-6.93531 8.20798,-8.91768 5.72502,-8.91768 -5.4471,0 -29.55718,8.21338 -40.99719,13.96617 -13.41261,6.74475 -14.87832,6.86125 -7.67683,0.61008 9.90669,-8.5994 34.20928,-24.38706 48.88851,-31.7594 12.05012,-6.05194 37.21003,-16.8483 39.26337,-16.8483 0.34062,0 -2.04842,5.19728 -5.30895,11.5495 l -5.92826,11.5495 -0.81026,54.48773 c -0.55259,37.15963 -1.41058,55.51842 -2.69791,57.72878 -1.03819,1.78259 -9.42452,10.5098 -18.63627,19.39377 -9.21175,8.88398 -23.96487,23.10426 -32.7847,31.60063 -8.81984,8.49637 -15.71086,14.71869 -15.31338,13.8274 z M 246.19988,191.39359 c -11.05282,-12.94711 -20.68525,-21.71058 -29.6467,-26.97214 l -7.56776,-4.44327 45.37526,0.002 45.37527,0.002 -8.12674,4.66153 c -8.90524,5.1081 -20.87442,16.06761 -30.90708,28.2999 l -6.45763,7.8734 -8.04462,-9.42339 z"
     id="path1164"
     inkscape:connector-curvature="0" />
</svg>
