<?xml version="1.0" encoding="UTF-8" standalone="no"?>
<svg
   xmlns:dc="http://purl.org/dc/elements/1.1/"
   xmlns:cc="http://creativecommons.org/ns#"
   xmlns:rdf="http://www.w3.org/1999/02/22-rdf-syntax-ns#"
   xmlns:svg="http://www.w3.org/2000/svg"
   xmlns="http://www.w3.org/2000/svg"
   xmlns:sodipodi="http://sodipodi.sourceforge.net/DTD/sodipodi-0.dtd"
   xmlns:inkscape="http://www.inkscape.org/namespaces/inkscape"
   fill="#7289da"
   height="512"
   width="512"
   version="1.1"
   id="svg4979"
   sodipodi:docname="mntop.svg"
   inkscape:version="0.92.2 2405546, 2018-03-11">
  <metadata
     id="metadata4985">
    <rdf:RDF>
      <cc:Work
         rdf:about="">
        <dc:format>image/svg+xml</dc:format>
        <dc:type
           rdf:resource="http://purl.org/dc/dcmitype/StillImage" />
        <dc:title />
      </cc:Work>
    </rdf:RDF>
  </metadata>
  <defs
     id="defs4983" />
  <sodipodi:namedview
     pagecolor="#ffffff"
     bordercolor="#666666"
     borderopacity="1"
     objecttolerance="10"
     gridtolerance="10"
     guidetolerance="10"
     inkscape:pageopacity="0"
     inkscape:pageshadow="2"
     inkscape:window-width="1722"
     inkscape:window-height="908"
     id="namedview4981"
     showgrid="true"
     inkscape:zoom="1"
     inkscape:cx="-95.13814"
     inkscape:cy="211.83777"
     inkscape:window-x="81"
     inkscape:window-y="118"
     inkscape:window-maximized="0"
     inkscape:current-layer="g5825">
    <inkscape:grid
       type="xygrid"
       id="grid26552"
       empspacing="2"
       dotted="false" />
  </sodipodi:namedview>
  <g
     id="g5825">
    <circle
       style="opacity:1;fill:#795548;fill-opacity:1;stroke:none;stroke-width:25.67475319;stroke-miterlimit:4;stroke-dasharray:none;stroke-opacity:1"
       id="path817"
       cx="256"
       cy="256"
       r="256" />
    <path
       style="fill:#ffffff;fill-opacity:0.93303576;stroke-width:2.30717659"
       d="m 142.56969,391.56016 v -33.43984 h -10.38672 c -10.33174,0 -10.38668,-0.0433 -10.38668,-8.07169 v -8.07168 h 28.85197 28.85197 v 8.07168 c 0,8.02896 -0.0576,8.07169 -10.3867,8.07169 H 158.72681 V 391.56016 425 h -8.07855 -8.07857 z m 88.68269,29.06651 c -31.52864,-14.30743 -31.54862,-59.9918 -0.036,-74.93437 9.66772,-4.58371 27.19522,-4.81159 35.52821,-0.46197 15.07917,7.87107 23.544,22.1359 23.544,39.67595 0,29.66317 -31.02411,48.43357 -59.03946,35.72045 z m 29.00796,-15.21613 c 9.34292,-4.8273 13.87442,-12.23019 13.87442,-22.66581 0,-12.88876 -11.90601,-24.62441 -24.98179,-24.62441 -25.33098,0 -34.85392,33.24757 -13.28676,46.38805 8.59131,5.2345 15.51362,5.49049 24.39413,0.90217 z m 76.19468,-21.92207 v -41.51152 h 17.53943 c 28.06208,0 40.16456,8.78257 40.16456,29.14679 0,17.11377 -13.05323,28.50809 -32.65866,28.50809 h -8.88821 V 412.31591 425 h -8.07856 -8.07856 z m 37.9198,-3.62404 c 1.99491,-1.99321 3.62706,-6.0702 3.62706,-9.06002 0,-8.02816 -5.99124,-12.68409 -16.32192,-12.68409 h -9.06782 v 12.68409 12.68406 h 9.06782 c 5.16589,0 10.6285,-1.55941 12.69486,-3.62404 z M 132.54686,318.03146 H 91 L 91.402084,103 192.01266,236.73913 c 2.90657,3.78918 3.85456,3.2044 6.11394,0.33934 l 56.38218,-74.05784 V 105.67556 L 382.74816,221.26167 V 106.57158 H 424 V 321.61552 L 296.65738,198.86128 v 120.0662 l -41.95079,-0.0126 -0.19781,-86.00509 c 0,0 -43.07017,58.50505 -60.44449,82.16414 v 0 0 0 l -61.51743,-82.1641"
       id="path25919"
       inkscape:connector-curvature="0"
       sodipodi:nodetypes="ccsscccsscccccccccscccssccccssscccccccsscccsccccccccccccccccccccc" />
  </g>
</svg>
