<?xml version="1.0" encoding="UTF-8" standalone="no"?>
<svg
   xmlns:dc="http://purl.org/dc/elements/1.1/"
   xmlns:cc="http://creativecommons.org/ns#"
   xmlns:rdf="http://www.w3.org/1999/02/22-rdf-syntax-ns#"
   xmlns:svg="http://www.w3.org/2000/svg"
   xmlns="http://www.w3.org/2000/svg"
   xmlns:sodipodi="http://sodipodi.sourceforge.net/DTD/sodipodi-0.dtd"
   xmlns:inkscape="http://www.inkscape.org/namespaces/inkscape"
   fill="#7289da"
   height="512"
   width="512"
   version="1.1"
   id="svg4979"
   sodipodi:docname="mntop.svg"
   inkscape:version="0.92.2 2405546, 2018-03-11">
  <metadata
     id="metadata4985">
    <rdf:RDF>
      <cc:Work
         rdf:about="">
        <dc:format>image/svg+xml</dc:format>
        <dc:type
           rdf:resource="http://purl.org/dc/dcmitype/StillImage" />
        <dc:title></dc:title>
      </cc:Work>
    </rdf:RDF>
  </metadata>
  <defs
     id="defs4983" />
  <sodipodi:namedview
     pagecolor="#ffffff"
     bordercolor="#666666"
     borderopacity="1"
     objecttolerance="10"
     gridtolerance="10"
     guidetolerance="10"
     inkscape:pageopacity="0"
     inkscape:pageshadow="2"
     inkscape:window-width="1722"
     inkscape:window-height="908"
     id="namedview4981"
     showgrid="true"
     inkscape:zoom="1"
     inkscape:cx="313.86186"
     inkscape:cy="211.83777"
     inkscape:window-x="1985"
     inkscape:window-y="130"
     inkscape:window-maximized="0"
     inkscape:current-layer="g5825">
    <inkscape:grid
       type="xygrid"
       id="grid26552"
       empspacing="2"
       dotted="false" />
  </sodipodi:namedview>
  <g
     id="g5825">
    <rect
       style="fill:#795548;fill-opacity:1"
       id="rect4971"
       rx="15.000001%"
       height="512"
       width="512"
       x="0"
       y="0" />
    <path
       style="fill:#ffffff;fill-opacity:0.93303576;stroke-width:2.5738318"
       d="m 126.1765,393.06178 v -37.32056 h -11.58224 c -11.52095,0 -11.58223,-0.0483 -11.58223,-9.00841 v -9.00842 h 32.1729 32.17289 v 9.00842 c 0,8.96072 -0.0643,9.00841 -11.58223,9.00841 h -11.58226 v 37.32056 37.32057 h -9.0084 -9.00843 z m 98.89026,32.43971 c -35.15766,-15.96782 -35.17994,-66.9539 -0.0401,-83.63057 10.78049,-5.11566 30.32546,-5.36998 39.61758,-0.51558 16.81482,8.78449 26.25397,24.70479 26.25397,44.28037 0,33.10561 -34.59506,54.05434 -65.83504,39.86585 z m 32.34681,-16.98198 c 10.41832,-5.38751 15.4714,-13.64952 15.4714,-25.2962 0,-14.3845 -13.27641,-27.48209 -27.85725,-27.48209 -28.24661,0 -38.86567,37.10599 -14.81609,51.77143 9.58019,5.84196 17.29928,6.12765 27.20194,1.00686 z m 84.96486,-24.46614 v -46.32898 h 19.55823 c 31.2921,0 44.78759,9.80181 44.78759,32.5293 0,19.09984 -14.55567,31.8165 -36.41773,31.8165 h -9.91126 v 14.15608 14.15608 h -9.00841 -9.00842 z m 42.28445,-4.04462 c 2.22452,-2.22452 4.04453,-6.77464 4.04453,-10.11145 0,-8.95983 -6.68085,-14.15608 -18.2006,-14.15608 h -10.11155 v 14.15608 14.15607 h 10.11155 c 5.76048,0 11.85186,-1.74038 14.15607,-4.04462 z M 115,311 H 68.671026 L 69.11939,71.01393 181.31045,220.27362 c 3.24112,4.22892 4.29823,3.57627 6.81767,0.37872 L 251,138 V 74 L 394,203 V 75 h 46 V 315 L 298,178 V 312 L 251.22059,311.98607 251,216 c 0,0 -48.02763,65.29462 -67.40177,91.69936 v 0 0 0 L 115,216"
       id="path25919"
       inkscape:connector-curvature="0"
       sodipodi:nodetypes="ccsscccsscccccccccscccssccccssscccccccsscccsccccccccccccccccccccc" />
  </g>
</svg>
