<?xml version="1.0" encoding="UTF-8" standalone="no"?>
<svg
   xmlns:dc="http://purl.org/dc/elements/1.1/"
   xmlns:cc="http://creativecommons.org/ns#"
   xmlns:rdf="http://www.w3.org/1999/02/22-rdf-syntax-ns#"
   xmlns:svg="http://www.w3.org/2000/svg"
   xmlns="http://www.w3.org/2000/svg"
   xmlns:sodipodi="http://sodipodi.sourceforge.net/DTD/sodipodi-0.dtd"
   xmlns:inkscape="http://www.inkscape.org/namespaces/inkscape"
   fill="#7289da"
   height="512"
   width="512"
   version="1.1"
   id="svg4979"
   sodipodi:docname="mntrend.svg"
   inkscape:version="0.92.2 2405546, 2018-03-11">
  <metadata
     id="metadata4985">
    <rdf:RDF>
      <cc:Work
         rdf:about="">
        <dc:format>image/svg+xml</dc:format>
        <dc:type
           rdf:resource="http://purl.org/dc/dcmitype/StillImage" />
        <dc:title></dc:title>
      </cc:Work>
    </rdf:RDF>
  </metadata>
  <defs
     id="defs4983">
    <style
       id="style1516">
      .cls-1, .cls-5, .cls-6 {
        fill: none;
        stroke-linecap: round;
      }

      .cls-1, .cls-5 {
        stroke: #183c87;
      }

      .cls-1 {
        stroke-width: 75px;
      }

      .cls-2, .cls-3 {
        fill: #183c87;
      }

      .cls-2, .cls-5, .cls-6 {
        fill-rule: evenodd;
      }

      .cls-4 {
        fill: #fff;
      }

      .cls-5 {
        stroke-width: 101px;
      }

      .cls-6 {
        stroke: #fff;
        stroke-width: 56px;
      }
    </style>
  </defs>
  <sodipodi:namedview
     pagecolor="#ffffff"
     bordercolor="#666666"
     borderopacity="1"
     objecttolerance="10"
     gridtolerance="10"
     guidetolerance="10"
     inkscape:pageopacity="0"
     inkscape:pageshadow="2"
     inkscape:window-width="1722"
     inkscape:window-height="908"
     id="namedview4981"
     showgrid="false"
     inkscape:zoom="0.48475485"
     inkscape:cx="334.50045"
     inkscape:cy="462.16645"
     inkscape:window-x="104"
     inkscape:window-y="76"
     inkscape:window-maximized="0"
     inkscape:current-layer="svg4979" />
  <circle
     style="opacity:1;fill:#795548;fill-opacity:1;stroke:none;stroke-width:25.67475319;stroke-miterlimit:4;stroke-dasharray:none;stroke-opacity:1"
     id="path817"
     cx="256"
     cy="256"
     r="256" />
  <path
     style="fill:#ffffff;stroke-width:1.40465891;fill-opacity:1"
     d="m 413.07235,339.01085 c -6.00226,-2.22803 -10.81623,-5.81184 -15.86258,-11.80907 -6.04732,-7.18684 -8.13942,-14.06375 -8.44096,-27.74613 -0.29481,-13.3773 -2.26863,-19.13938 -9.62346,-28.09318 -6.74253,-8.2084 -16.03464,-19.98942 -37.19597,-47.15896 -27.52029,-35.33393 -31.26376,-37.79068 -41.22935,-27.05768 -3.10821,3.34757 -25.53542,38.06789 -42.83034,66.30711 -5.60653,9.15436 -7.03258,17.31945 -4.71333,26.98712 2.15807,8.99591 1.09267,20.27602 -2.59845,27.51121 -4.2537,8.33793 -14.22102,16.77822 -22.83447,19.33614 -9.21594,2.73684 -12.95343,2.75527 -21.86818,0.10788 -11.05133,-3.28189 -17.83139,-9.04978 -23.01496,-19.5791 -4.34474,-8.82542 -4.48689,-9.64623 -3.48138,-20.1018 2.03874,-21.19936 1.67909,-23.17928 -7.04888,-38.80444 -9.98254,-17.87113 -14.11341,-23.36628 -17.56517,-23.36628 -3.40218,0 -9.75146,8.6131 -18.93705,25.68896 -6.70324,12.46123 -6.94419,13.30235 -6.52354,22.77177 1.0828,24.37519 0.9199,26.61813 -2.40157,33.06531 -4.54745,8.82689 -10.63448,14.71567 -18.87571,18.26094 -32.566456,14.00972 -64.228578,-20.04004 -48.146259,-51.77696 4.498575,-8.87753 11.642628,-14.75832 23.374676,-19.24138 11.262949,-4.30381 15.776497,-8.79568 25.060993,-24.94061 10.64325,-18.50767 12.00338,-23.41006 9.91551,-35.73896 -2.04322,-12.06518 -1.27465,-19.40772 2.87401,-27.45699 7.05343,-13.68513 18.47548,-20.68165 33.71679,-20.65307 14.97913,0.0281 27.01087,7.35217 33.74898,20.54397 3.61119,7.06998 3.70795,8.40459 2.52955,34.89549 -0.437,9.82438 -0.42978,9.84587 8.63195,25.66097 4.98813,8.7056 10.84297,17.52761 13.01074,19.60447 l 3.94142,3.77612 3.38098,-3.4509 c 3.44629,-3.51756 12.79432,-17.85251 36.14237,-55.42327 l 13.09371,-21.06989 -0.15092,-9.83261 c -0.083,-5.40794 -0.32004,-13.96436 -0.52675,-19.01426 -0.62151,-15.18399 7.15778,-27.52202 21.74755,-34.49182 14.67727,-7.01161 32.04475,-3.19104 43.82495,9.64079 7.09659,7.7301 10.30093,17.46699 10.09656,30.67997 -0.19429,12.5631 2.50259,18.04076 18.93998,38.46918 7.45956,9.27075 21.88773,27.2074 32.0626,39.85922 18.93941,23.54999 23.44959,27.64499 32.03016,29.08178 16.74276,2.80351 28.29476,10.78321 33.65757,23.24941 2.53932,5.90281 3.04016,9.23372 2.59525,17.25998 -0.30928,5.57929 -1.64564,12.19626 -3.04399,15.07215 -3.18918,6.55899 -10.98837,14.35818 -17.54737,17.54736 -6.57133,3.19519 -23.0396,3.98242 -29.91566,1.43006 z"
     id="path890"
     inkscape:connector-curvature="0" />
</svg>
