<?xml version="1.0" encoding="UTF-8" standalone="no"?>
<svg
   xmlns:dc="http://purl.org/dc/elements/1.1/"
   xmlns:cc="http://creativecommons.org/ns#"
   xmlns:rdf="http://www.w3.org/1999/02/22-rdf-syntax-ns#"
   xmlns:svg="http://www.w3.org/2000/svg"
   xmlns="http://www.w3.org/2000/svg"
   xmlns:sodipodi="http://sodipodi.sourceforge.net/DTD/sodipodi-0.dtd"
   xmlns:inkscape="http://www.inkscape.org/namespaces/inkscape"
   fill="#7289da"
   height="512"
   width="512"
   version="1.1"
   id="svg4979"
   sodipodi:docname="nodecheck.svg"
   inkscape:version="0.92.2 2405546, 2018-03-11">
  <metadata
     id="metadata4985">
    <rdf:RDF>
      <cc:Work
         rdf:about="">
        <dc:format>image/svg+xml</dc:format>
        <dc:type
           rdf:resource="http://purl.org/dc/dcmitype/StillImage" />
        <dc:title></dc:title>
      </cc:Work>
    </rdf:RDF>
  </metadata>
  <defs
     id="defs4983">
    <style
       id="style1516">
      .cls-1, .cls-5, .cls-6 {
        fill: none;
        stroke-linecap: round;
      }

      .cls-1, .cls-5 {
        stroke: #183c87;
      }

      .cls-1 {
        stroke-width: 75px;
      }

      .cls-2, .cls-3 {
        fill: #183c87;
      }

      .cls-2, .cls-5, .cls-6 {
        fill-rule: evenodd;
      }

      .cls-4 {
        fill: #fff;
      }

      .cls-5 {
        stroke-width: 101px;
      }

      .cls-6 {
        stroke: #fff;
        stroke-width: 56px;
      }
    </style>
  </defs>
  <sodipodi:namedview
     pagecolor="#ffffff"
     bordercolor="#666666"
     borderopacity="1"
     objecttolerance="10"
     gridtolerance="10"
     guidetolerance="10"
     inkscape:pageopacity="0"
     inkscape:pageshadow="2"
     inkscape:window-width="1722"
     inkscape:window-height="908"
     id="namedview4981"
     showgrid="false"
     inkscape:zoom="0.68554688"
     inkscape:cx="-46.84219"
     inkscape:cy="149.02113"
     inkscape:window-x="104"
     inkscape:window-y="76"
     inkscape:window-maximized="0"
     inkscape:current-layer="svg4979" />
  <circle
     style="opacity:1;fill:#795548;fill-opacity:1;stroke:none;stroke-width:25.67475319;stroke-miterlimit:4;stroke-dasharray:none;stroke-opacity:1"
     id="path817"
     cx="256"
     cy="256"
     r="256" />
  <path
     style="fill:#fdffff;stroke-width:2.11985064;fill-opacity:1"
     d="m 53.463802,357.1145 c 0.673009,-4.37218 5.54193,-47.53762 10.819678,-95.92319 5.583195,-51.18559 10.991955,-91.76012 12.93422,-97.02835 2.158132,-5.85367 5.481045,-10.16254 9.399882,-12.18912 7.94635,-4.1092 21.852408,-3.98774 30.823258,0.26921 4.56078,2.16421 29.76758,28.75718 69.21547,73.02167 34.1234,38.28982 62.24421,68.95333 62.49064,68.14113 0.24677,-0.81218 2.87842,-23.89411 5.84871,-51.29319 2.97032,-27.39907 6.51443,-54.02986 7.87584,-59.17951 3.57367,-13.51799 16.69073,-26.39934 31.25893,-30.69715 l 11.51393,-3.39678 h 74.86997 74.86996 l -0.20987,7.94946 c -0.11532,4.37217 -0.83076,13.19607 -1.5899,19.60857 l -1.38024,11.65918 -71.01496,1.05993 -71.01499,1.0599 -6.71177,58.29595 c -3.69152,32.06271 -6.79178,61.87309 -6.88953,66.24534 l -0.17786,7.94938 h 70.20408 70.20417 l -1.47238,16.42884 c -0.80976,9.03588 -1.97921,18.57525 -2.59871,21.19855 l -1.12646,4.76963 -87.21404,-0.008 -87.21393,-0.009 -7.69908,-4.75874 c -4.23451,-2.617 -35.23026,-35.63971 -68.87952,-73.3836 l -61.18036,-68.62514 -1.5198,7.14953 c -0.83591,3.93223 -4.45655,34.81349 -8.04577,68.62514 -3.58931,33.81159 -6.98483,63.62203 -7.54565,66.24535 l -1.01963,4.76963 H 76.763821 52.239632 Z m 69.223798,5.29964 c 0.60651,-13.41159 11.91981,-94.98617 13.17033,-94.96471 1.76681,0.032 84.82565,92.42401 85.98947,95.65375 0.41983,1.16566 -19.56497,1.96077 -49.2865,1.96077 h -49.99316 z m 68.74365,-159.58078 c -23.29756,-26.18887 -42.67859,-48.57424 -43.06885,-49.7452 -0.4615,-1.38568 16.84176,-2.12911 49.55435,-2.12911 h 50.26404 l -1.21959,7.94946 c -0.67062,4.37217 -3.30945,26.0742 -5.86376,48.22657 -2.55431,22.15248 -5.24332,40.96058 -5.97555,41.79582 -0.73229,0.83518 -20.39302,-19.9087 -43.69064,-46.09754 z"
     id="path7051"
     inkscape:connector-curvature="0" />
</svg>
