<?xml version="1.0" encoding="utf-8"?>
<!-- Generator: Adobe Illustrator 21.1.0, SVG Export Plug-In . SVG Version: 6.00 Build 0)  -->
<svg version="1.1"
	 id="svg4979" inkscape:version="0.92.2 2405546, 2018-03-11" sodipodi:docname="gremlinsmarketing.svg" xmlns:cc="http://creativecommons.org/ns#" xmlns:dc="http://purl.org/dc/elements/1.1/" xmlns:inkscape="http://www.inkscape.org/namespaces/inkscape" xmlns:rdf="http://www.w3.org/1999/02/22-rdf-syntax-ns#" xmlns:sodipodi="http://sodipodi.sourceforge.net/DTD/sodipodi-0.dtd" xmlns:svg="http://www.w3.org/2000/svg"
	 xmlns="http://www.w3.org/2000/svg" xmlns:xlink="http://www.w3.org/1999/xlink" x="0px" y="0px" viewBox="0 0 512 512"
	 style="enable-background:new 0 0 512 512;" xml:space="preserve">
<style type="text/css">
	.st0{fill:#795548;}
	.st1{fill:#FFFFFF;stroke:#FFFFFF;stroke-miterlimit:10;}
	.st2{fill:none;}
</style>
<sodipodi:namedview  bordercolor="#666666" borderopacity="1" gridtolerance="10" guidetolerance="10" id="namedview4981" inkscape:current-layer="svg4979" inkscape:cx="157.32324" inkscape:cy="449.64054" inkscape:pageopacity="0" inkscape:pageshadow="2" inkscape:window-height="908" inkscape:window-maximized="0" inkscape:window-width="1722" inkscape:window-x="104" inkscape:window-y="76" inkscape:zoom="0.48475485" objecttolerance="10" pagecolor="#ffffff" showgrid="false">
	</sodipodi:namedview>
<circle id="path817" class="st0" cx="256" cy="256" r="256"/>
<g id="OBJECTS">
	<path class="st1" d="M434.9,256c-0.3,13.6-3.2,27.5-10.9,38.8c-11.1,16.2-31,24.8-50.6,25.9c-19.6,1.1-39-4.5-57.2-11.9
		c-24.1-9.8-48.9-23.3-74.6-19.2c-29.2,4.7-50.7,31.8-58,60.5c-7.2,28.7-3,58.9,1.4,88.1c-10-32.4-24.9-63.7-28.6-97.4
		s6.9-72.1,36.3-89c19.5-11.2,43.5-11,65.6-7c22.1,4,43.6,11.4,65.9,13.6c9.3,0.9,18.9,0.9,27.8-1.9c8.9-2.9,17.1-9.1,20.7-17.7
		c6.7-15.9-3.7-33.7-15.4-46.4c-31.4-33.8-75.2-54.2-120.2-64.2c-38-8.5-77.2-10-116.1-9.6c-9.9,0-19.9,0.2-29.8,0.6l12-5.5
		c32.8-13.2,68.2-20,103.5-20.8c32.6-0.8,65,3.8,96.1,13.4c34.1,10.6,66.9,27.7,91.7,53.4S435.7,220.2,434.9,256z"/>
	<line class="st2" x1="198.8" y1="441" x2="198.8" y2="441"/>
</g>
</svg>
