<?xml version="1.0" encoding="UTF-8" standalone="no"?>
<svg
   xmlns:dc="http://purl.org/dc/elements/1.1/"
   xmlns:cc="http://creativecommons.org/ns#"
   xmlns:rdf="http://www.w3.org/1999/02/22-rdf-syntax-ns#"
   xmlns:svg="http://www.w3.org/2000/svg"
   xmlns="http://www.w3.org/2000/svg"
   xmlns:sodipodi="http://sodipodi.sourceforge.net/DTD/sodipodi-0.dtd"
   xmlns:inkscape="http://www.inkscape.org/namespaces/inkscape"
   fill="#7289da"
   height="512"
   width="512"
   version="1.1"
   id="svg4979"
   sodipodi:docname="poslist.svg"
   inkscape:version="0.92.2 2405546, 2018-03-11">
  <metadata
     id="metadata4985">
    <rdf:RDF>
      <cc:Work
         rdf:about="">
        <dc:format>image/svg+xml</dc:format>
        <dc:type
           rdf:resource="http://purl.org/dc/dcmitype/StillImage" />
        <dc:title></dc:title>
      </cc:Work>
    </rdf:RDF>
  </metadata>
  <defs
     id="defs4983">
    <style
       id="style1516">
      .cls-1, .cls-5, .cls-6 {
        fill: none;
        stroke-linecap: round;
      }

      .cls-1, .cls-5 {
        stroke: #183c87;
      }

      .cls-1 {
        stroke-width: 75px;
      }

      .cls-2, .cls-3 {
        fill: #183c87;
      }

      .cls-2, .cls-5, .cls-6 {
        fill-rule: evenodd;
      }

      .cls-4 {
        fill: #fff;
      }

      .cls-5 {
        stroke-width: 101px;
      }

      .cls-6 {
        stroke: #fff;
        stroke-width: 56px;
      }
    </style>
  </defs>
  <sodipodi:namedview
     pagecolor="#ffffff"
     bordercolor="#666666"
     borderopacity="1"
     objecttolerance="10"
     gridtolerance="10"
     guidetolerance="10"
     inkscape:pageopacity="0"
     inkscape:pageshadow="2"
     inkscape:window-width="1722"
     inkscape:window-height="908"
     id="namedview4981"
     showgrid="false"
     inkscape:zoom="0.34277344"
     inkscape:cx="-343.00894"
     inkscape:cy="591.27177"
     inkscape:window-x="104"
     inkscape:window-y="76"
     inkscape:window-maximized="0"
     inkscape:current-layer="svg4979" />
  <circle
     style="opacity:1;fill:#795548;fill-opacity:1;stroke:none;stroke-width:25.67475319;stroke-miterlimit:4;stroke-dasharray:none;stroke-opacity:1"
     id="path817"
     cx="256"
     cy="256"
     r="256" />
  <path
     style="fill:#ffffff;fill-opacity:1;stroke-width:1.50858843"
     d="m 223.22276,449.92713 c -25.23269,-3.95456 -54.98856,-15.98302 -78.5888,-31.7686 -12.77904,-8.54756 -34.41741,-28.64281 -43.45184,-40.35313 l -6.26443,-8.11985 7.95762,-40.15284 c 4.37669,-22.08405 8.29705,-40.15599 8.71191,-40.15985 0.41485,-0.005 6.16531,8.81076 12.77876,19.58808 10.11381,16.48143 12.34916,19.27044 14.06768,17.55193 1.12375,-1.12377 10.4544,-31.15919 20.73477,-66.7454 10.28039,-35.58622 19.56382,-67.57267 20.62989,-71.08101 l 1.93827,-6.37881 13.22473,16.56178 13.22473,16.56179 7.8955,-0.0264 c 7.83137,-0.0263 7.97162,0.0564 17.26864,10.18297 l 9.37315,10.2094 4.20416,-5.27533 c 11.38981,-14.29189 9.80508,-13.52805 30.27969,-14.59456 l 18.53261,-0.96535 5.44208,-8.81687 c 2.99315,-4.84932 5.90842,-8.81692 6.47838,-8.81692 0.56996,0 2.54758,3.2246 4.39472,7.16579 5.06406,10.80501 8.25774,14.47226 11.62885,13.35324 1.58249,-0.52531 18.83056,-23.68669 38.32905,-51.46973 l 35.45184,-50.51461 8.04876,8.67516 c 22.63687,24.39858 41.02719,63.59384 46.29547,98.66952 7.62116,50.74082 -3.34846,100.10436 -31.87137,143.4217 -9.29548,14.11695 -37.43421,42.25568 -51.55116,51.55117 -24.97715,16.44654 -53.81156,27.85865 -80.52774,31.87137 -17.85974,2.68248 -47.08417,2.62615 -64.63592,-0.12461 z m 97.30395,-53.77275 c 24.22283,-5.27724 45.77404,-24.47874 55.13157,-49.12064 4.5855,-12.07534 5.55975,-31.32765 2.23192,-44.10439 -5.28872,-20.30515 -18.0335,-37.03274 -36.91858,-48.45575 -34.62917,-20.94613 -83.73344,-9.45452 -105.8556,24.77277 -23.40145,36.20659 -13.18552,83.08237 23.27666,106.80489 18.4745,12.01962 38.43761,15.26567 62.13403,10.10312 z m -55.88634,-68.26477 c -9.42415,-9.42414 1.39821,-25.07698 13.03301,-18.85023 3.983,2.13165 2.12063,4.69668 -2.55756,3.52252 -4.31608,-1.08327 -9.65259,2.83538 -9.65259,7.08796 0,4.45085 4.51244,7.7967 9.23998,6.8512 5.10983,-1.02196 7.08189,1.30666 2.97017,3.50718 -4.76058,2.54779 -9.06658,1.84782 -13.03301,-2.11863 z m 21.11677,-0.28884 c -4.94618,-5.33702 -4.83315,-11.6961 0.29231,-16.44623 4.39124,-4.06966 8.0637,-4.61563 13.07905,-1.94442 7.9813,4.25085 9.31261,12.18206 3.08944,18.40522 -5.25619,5.25618 -11.58121,5.25058 -16.4608,-0.0151 z m 13.1534,-3.03071 c 3.42328,-3.09801 3.50715,-6.24463 0.26211,-9.83038 -3.098,-3.42326 -6.24464,-3.50715 -9.83036,-0.26211 -3.42328,3.098 -3.50717,6.24464 -0.26211,9.83037 3.098,3.42328 6.24463,3.50716 9.83036,0.26212 z m 10.30175,-5.04625 c 0,-9.72201 0.44002,-12.0687 2.2629,-12.0687 1.82286,0 2.26287,2.34669 2.26287,12.0687 0,9.72201 -0.44001,12.06871 -2.26287,12.06871 -1.82288,0 -2.2629,-2.3467 -2.2629,-12.06871 z m 9.05154,-0.11057 c 0,-10.7516 0.30711,-12.12018 2.61985,-11.67479 1.44092,0.27749 4.3261,3.55187 6.41149,7.27641 l 3.79166,6.77183 0.46364,-7.25974 c 0.37505,-5.87257 0.95158,-7.1658 3.01717,-6.76801 2.12731,0.4097 2.55353,2.37348 2.55353,11.76487 0,14.29454 -2.76924,15.78606 -9.24161,4.9775 l -4.33567,-7.24038 -0.45981,7.1658 c -0.32282,5.03102 -1.10932,7.16579 -2.64003,7.16579 -1.72121,0 -2.18022,-2.56421 -2.18022,-12.17931 z M 81.060324,347.12335 C 72.467822,330.82673 64.254393,306.79589 61.1184,288.77728 c -1.340008,-7.69926 -2.331782,-22.21274 -2.331782,-34.12276 0,-24.43148 2.66599,-41.54512 9.79321,-62.86513 9.705023,-29.03107 23.734038,-51.97828 45.566752,-74.53333 29.81187,-30.798182 67.07527,-50.747438 108.14235,-57.894845 17.38312,-3.0254 50.86243,-3.0254 68.24555,0 17.91724,3.11836 42.21799,11.395531 57.83891,19.700734 13.90211,7.391372 33.59849,21.027621 39.95324,27.660571 l 4.00684,4.18222 -34.08852,48.11463 c -18.74871,26.46303 -34.56579,48.27005 -35.1491,48.46005 -0.58329,0.18998 -3.83353,-4.8641 -7.22271,-11.2313 -3.38919,-6.36721 -6.7855,-11.78452 -7.54736,-12.03847 -0.76184,-0.25396 -5.07479,5.30928 -9.58435,12.36275 l -8.19917,12.82445 H 273.03268 255.5231 l -5.76856,7.56424 c -3.17271,4.16032 -6.27776,7.87894 -6.90009,8.26355 -0.62234,0.38463 -4.09879,-3.01927 -7.72547,-7.56422 -6.57719,-8.24251 -6.61547,-8.26357 -15.03689,-8.26357 h -8.44291 l -15.40906,-19.61164 c -8.47499,-10.7864 -16.26554,-19.61164 -17.31238,-19.61164 -1.15487,0 -4.32515,8.4535 -8.06208,21.49739 -23.88096,83.35757 -34.1331,118.2061 -35.07975,119.24131 -0.60066,0.65684 -6.72069,-7.99869 -13.60011,-19.2345 -6.8794,-11.23584 -13.07052,-20.42878 -13.75803,-20.42878 -1.70856,0 -3.04135,5.69596 -11.119253,47.52053 -3.846027,19.91336 -7.486724,37.45216 -8.090444,38.97508 -0.85823,2.1649 -2.637799,-0.15206 -8.157749,-10.62125 z"
     id="path1196"
     inkscape:connector-curvature="0" />
</svg>
