<?xml version="1.0" encoding="UTF-8" standalone="no"?>
<svg
   xmlns:dc="http://purl.org/dc/elements/1.1/"
   xmlns:cc="http://creativecommons.org/ns#"
   xmlns:rdf="http://www.w3.org/1999/02/22-rdf-syntax-ns#"
   xmlns:svg="http://www.w3.org/2000/svg"
   xmlns="http://www.w3.org/2000/svg"
   xmlns:sodipodi="http://sodipodi.sourceforge.net/DTD/sodipodi-0.dtd"
   xmlns:inkscape="http://www.inkscape.org/namespaces/inkscape"
   fill="#7289da"
   height="512"
   width="512"
   version="1.1"
   id="svg4979"
   sodipodi:docname="satoshi.svg"
   inkscape:version="0.92.2 2405546, 2018-03-11">
  <metadata
     id="metadata4985">
    <rdf:RDF>
      <cc:Work
         rdf:about="">
        <dc:format>image/svg+xml</dc:format>
        <dc:type
           rdf:resource="http://purl.org/dc/dcmitype/StillImage" />
        <dc:title></dc:title>
      </cc:Work>
    </rdf:RDF>
  </metadata>
  <defs
     id="defs4983" />
  <sodipodi:namedview
     pagecolor="#ffffff"
     bordercolor="#666666"
     borderopacity="1"
     objecttolerance="10"
     gridtolerance="10"
     guidetolerance="10"
     inkscape:pageopacity="0"
     inkscape:pageshadow="2"
     inkscape:window-width="1722"
     inkscape:window-height="908"
     id="namedview4981"
     showgrid="false"
     inkscape:zoom="0.65186405"
     inkscape:cx="-140.64551"
     inkscape:cy="225.70835"
     inkscape:window-x="2116"
     inkscape:window-y="58"
     inkscape:window-maximized="0"
     inkscape:current-layer="svg4979" />
  <rect
     width="512"
     height="512"
     rx="15%"
     id="rect4971"
     style="fill:#795548;fill-opacity:1" />
  <path
     style="fill:#ffffff;fill-opacity:1;stroke-width:5.32396841"
     d="M 206.00295,453.34465 C 165.5757,442.48094 137.33077,424.67542 105.80303,390.17894 69.724074,350.70288 55.140759,312.59641 54.799809,256.9067 54.475712,203.957 61.693782,178.89558 89.080824,137.88323 112.61862,102.63507 158.77131,67.63463 197.0586,55.996938 c 12.16886,-3.698662 42.48938,-6.657463 67.37893,-6.574773 39.46111,0.133105 49.82017,2.294301 80.92811,16.900441 45.36929,21.302193 80.24401,56.125434 101.82032,101.669994 15.30323,32.30301 16.90039,40.46481 16.90039,86.36408 0,46.45063 -1.44995,53.63482 -17.33855,85.90922 -46.26452,93.97652 -142.90736,139.37018 -240.74485,113.07875 z m 18.63867,-108.80909 c 1.88334,-3.04731 7.73046,-4.17366 12.99362,-2.50326 6.19428,1.96604 10.86645,-0.30447 13.24687,-6.43835 3.29506,-8.49023 4.38903,-8.15515 10.5197,3.2225 4.48474,8.32303 8.14759,10.58605 10.63082,6.56812 2.08373,-3.37158 6.01884,-4.75164 8.74468,-3.06694 2.72586,1.68453 4.9561,0.0499 4.9561,-3.63994 0,-5.21349 1.41967,-5.28337 6.38876,-0.31445 10.0407,10.04068 15.67057,7.46671 8.56266,-3.91494 -3.53908,-5.66687 -8.35094,-9.11913 -10.69305,-7.67167 -2.34211,1.44745 -4.42052,-0.50412 -4.6187,-4.33738 -0.19815,-3.83292 -2.96008,-1.57888 -6.13754,5.00986 -7.221,14.9725 -14.79801,15.49325 -14.79801,1.01655 0,-6.02923 -2.23024,-9.58381 -4.9561,-7.8991 -2.72583,1.6847 -6.60065,0.40262 -8.6107,-2.85033 -2.31403,-3.74408 -9.6125,0.60893 -19.89663,11.86946 -17.17264,18.80175 -23.63072,15.27629 -17.41116,-9.50428 2.26259,-9.01498 6.00887,-12.56624 11.16776,-10.58655 7.94252,3.04781 10.60085,-2.72238 4.2021,-9.12112 -7.34075,-7.34076 -23.05892,14.39934 -23.05892,31.89323 0,17.6245 11.00953,24.82118 18.76774,12.26826 z m 13.17607,-9.80292 c 0,-2.92818 2.39578,-6.8047 5.32397,-8.61436 2.92819,-1.80965 5.32397,-0.89509 5.32397,2.03359 0,2.92819 -2.39578,6.80471 -5.32397,8.61436 -2.92819,1.80964 -5.32397,0.89509 -5.32397,-2.03359 z m 66.94479,-73.83297 c 10.29782,-14.59266 13.34881,-16.74155 11.33829,-7.98595 -4.28442,18.65835 5.52666,14.09937 17.18585,-7.98595 10.10956,-19.14981 10.54945,-19.37992 10.77513,-5.63808 0.29449,17.93112 10.39253,24.78589 19.05705,12.93657 5.91167,-8.08478 6.89214,-7.63989 9.94171,4.51057 4.05278,16.14743 16.57455,17.59622 24.47623,2.83185 6.2759,-11.72653 0.46636,-14.30866 -9.58314,-4.25917 -4.96904,4.96909 -6.38876,1.25945 -6.38876,-16.68981 v -23.07874 l -11.07426,14.07857 c -12.60695,16.02731 -20.86955,14.0591 -20.86955,-4.97075 0,-15.37397 -4.04456,-16.4098 -14.36495,-3.67887 -6.68737,8.24932 -7.17481,6.41904 -4.2537,-15.97191 2.13377,-16.35573 1.30321,-25.28885 -2.35101,-25.28885 -3.1076,0 -5.66355,4.19263 -5.67988,9.31695 -0.04,12.62213 -9.43692,44.74878 -15.96131,54.57068 -4.69872,7.07338 -5.88789,7.07854 -10.40731,0.0499 -2.80634,-4.36799 -3.74451,-13.35219 -2.08483,-19.96489 3.10751,-12.38138 -6.13314,-17.27744 -10.13176,-5.36823 -1.76055,5.24362 -5.1009,5.12832 -15.75007,-0.54403 -10.1955,-5.43012 -16.2088,-5.75705 -24.47906,-1.33099 -16.31605,8.73147 -18.17468,7.42044 -14.32541,-10.10507 2.20711,-10.04899 1.37675,-15.97191 -2.23896,-15.97191 -3.16085,0 -5.74699,4.62038 -5.74699,10.26761 0,5.64724 -3.74643,14.01418 -8.32541,18.59313 -4.57896,4.57894 -7.00113,10.46809 -5.38259,13.08698 1.61849,2.61889 -0.62439,7.72209 -4.98452,11.34056 -8.26016,6.85544 -9.05993,5.61462 -10.01204,-15.53268 -0.78262,-17.38192 -11.49306,-19.83827 -20.97946,-4.81138 -11.41822,18.08703 -14.60065,32.58502 -9.08312,41.37972 4.2059,6.70387 6.26434,6.51904 14.95141,-1.34264 5.54072,-5.01434 11.66175,-7.52925 13.60231,-5.58867 1.94055,1.94059 8.22375,-0.72039 13.96266,-5.9146 10.1327,-9.17003 10.403,-9.01913 9.34957,5.21883 -0.5966,8.06397 1.50453,15.58675 4.66916,16.71742 3.61894,1.29273 4.87365,-3.94173 3.38154,-14.10819 -2.20388,-15.01591 5.62554,-32.0383 14.73599,-32.0383 2.1636,0 2.79648,5.94953 1.40637,13.22108 -1.39007,7.27171 -1.09342,16.95817 0.65934,21.52546 4.56588,11.89858 23.53138,0.80858 27.81679,-16.26638 4.2308,-16.85685 11.38858,-16.74538 19.15412,0.2978 4.64855,10.20256 4.62097,14.96369 -0.11477,19.69869 -7.56823,7.56836 -8.11031,14.7627 -1.11221,14.7627 2.82262,0 11.47207,-8.9842 19.221,-19.96489 z M 168.77542,248.60729 c -0.0932,-4.56463 3.34817,-12.94988 7.64731,-18.63388 6.24911,-8.26197 7.85058,-8.67008 7.98595,-2.0351 0.0932,4.56465 -3.34817,12.94989 -7.64731,18.6339 -6.24912,8.26213 -7.85058,8.67024 -7.98595,2.03508 z m 74.55489,1.64379 c 0.49663,-10.51152 14.56232,-28.90949 17.93271,-23.45608 4.27051,6.90985 -5.44554,27.44905 -12.98472,27.44905 -2.82516,0 -5.05174,-1.79684 -4.94799,-3.99297 z m -102.52867,17.00108 c 16.46801,-11.5347 15.58653,-32.82176 -1.68496,-40.69126 -17.98903,-8.19624 -14.9597,-23.23745 4.40921,-21.89215 16.06194,1.1147 18.51371,-4.29728 6.47297,-14.29019 -6.41406,-5.32314 -10.5485,-4.90904 -21.29588,2.13291 -17.77346,11.64551 -16.83995,26.87988 2.52438,41.19653 12.18683,9.01015 14.50237,13.36349 9.99605,18.79328 -3.2257,3.88666 -10.36313,7.06674 -15.86095,7.06674 -10.04237,0 -13.0581,5.81128 -6.44673,12.42265 5.21942,5.21948 8.76488,4.45183 21.88591,-4.73851 z m 251.41113,-77.20985 c 0,-2.75549 -2.39578,-5.00985 -5.32396,-5.00985 -2.92819,0 -5.32397,3.7351 -5.32397,8.30024 0,4.56496 2.39578,6.81949 5.32397,5.00968 2.92818,-1.80965 5.32396,-5.54475 5.32396,-8.30007 z"
     id="path817"
     inkscape:connector-curvature="0" />
</svg>
