<?xml version="1.0" encoding="UTF-8" standalone="no"?>
<svg
   xmlns:dc="http://purl.org/dc/elements/1.1/"
   xmlns:cc="http://creativecommons.org/ns#"
   xmlns:rdf="http://www.w3.org/1999/02/22-rdf-syntax-ns#"
   xmlns:svg="http://www.w3.org/2000/svg"
   xmlns="http://www.w3.org/2000/svg"
   xmlns:sodipodi="http://sodipodi.sourceforge.net/DTD/sodipodi-0.dtd"
   xmlns:inkscape="http://www.inkscape.org/namespaces/inkscape"
   fill="#7289da"
   height="512"
   width="512"
   version="1.1"
   id="svg4979"
   sodipodi:docname="satoshi.svg"
   inkscape:version="0.92.2 2405546, 2018-03-11">
  <metadata
     id="metadata4985">
    <rdf:RDF>
      <cc:Work
         rdf:about="">
        <dc:format>image/svg+xml</dc:format>
        <dc:type
           rdf:resource="http://purl.org/dc/dcmitype/StillImage" />
        <dc:title />
      </cc:Work>
    </rdf:RDF>
  </metadata>
  <defs
     id="defs4983" />
  <sodipodi:namedview
     pagecolor="#ffffff"
     bordercolor="#666666"
     borderopacity="1"
     objecttolerance="10"
     gridtolerance="10"
     guidetolerance="10"
     inkscape:pageopacity="0"
     inkscape:pageshadow="2"
     inkscape:window-width="1722"
     inkscape:window-height="908"
     id="namedview4981"
     showgrid="false"
     inkscape:zoom="0.92187498"
     inkscape:cx="-42.085028"
     inkscape:cy="143.35263"
     inkscape:window-x="136"
     inkscape:window-y="89"
     inkscape:window-maximized="0"
     inkscape:current-layer="svg4979" />
  <circle
     style="opacity:1;fill:#795548;fill-opacity:1;stroke:none;stroke-width:25.67475319;stroke-miterlimit:4;stroke-dasharray:none;stroke-opacity:1"
     id="path817-3"
     cx="256"
     cy="256"
     r="256" />
  <path
     id="path817"
     style="fill:#ffffff;fill-opacity:1;stroke-width:7.22639465"
     d="m 441.22675,148.00706 c 0,-3.73519 -3.25616,-6.79107 -7.23592,-6.79107 -3.97976,0 -7.23592,5.06309 -7.23592,11.25133 0,6.188 3.25616,9.24411 7.23592,6.79084 3.97976,-2.45306 7.23592,-7.51616 7.23592,-11.2511 z M 99.527894,252.66833 c 22.382066,-15.63578 21.184036,-44.49131 -2.290066,-55.15875 -24.449318,-11.11036 -20.332085,-31.49937 5.992662,-29.67575 21.83016,1.51101 25.16242,-5.82515 8.79757,-19.37098 -8.7175,-7.21575 -14.336718,-6.65442 -28.943739,2.89125 -24.156337,15.786 -22.887582,36.43684 3.430945,55.84369 16.563414,12.21364 19.710514,18.11478 13.585874,25.47509 -4.38413,5.26854 -14.084781,9.57927 -21.557,9.57927 -13.648824,0 -17.747579,7.87744 -8.761904,16.83944 7.093838,7.07523 11.912558,6.03464 29.745658,-6.42326 z m 139.349156,-23.0457 c 0.67499,-14.24881 19.79201,-39.18805 24.37278,-31.79572 5.80415,9.3666 -7.40116,37.20837 -17.64785,37.20837 -3.83974,0 -6.86594,-2.43569 -6.72493,-5.41265 z M 137.54773,227.3944 c -0.12667,-6.18755 4.55058,-17.55411 10.39364,-25.25902 8.49331,-11.19945 10.66991,-11.75267 10.8539,-2.75867 0.12667,6.18758 -4.55058,17.55414 -10.39365,25.25906 -8.49333,11.19968 -10.66991,11.75288 -10.85389,2.75863 z m 184.82325,16.66286 c 13.99602,-19.78098 18.14268,-22.69388 15.41015,-10.82529 -5.82306,25.29219 7.5114,19.11229 23.35769,-10.82531 13.74015,-25.9584 14.33801,-26.27032 14.64474,-7.64266 0.40024,24.30641 14.12473,33.59834 25.90089,17.53608 8.03469,-10.95926 9.36727,-10.35621 13.51202,6.11427 5.50823,21.88854 22.52686,23.85244 33.26622,3.83869 8.52973,-15.89582 0.63384,-19.396 -13.02467,-5.77348 -6.75354,6.73581 -8.68311,1.70723 -8.68311,-22.62376 v -31.28423 l -15.0513,19.08411 c -17.1344,21.72571 -28.36431,19.05772 -28.36431,-6.73806 0,-20.84008 -5.49705,-22.2442 -19.52374,-4.98687 -9.08896,11.18231 -9.75146,8.70128 -5.78131,-21.65061 C 360.93431,146.10924 359.80549,134 354.83894,134 c -4.22361,0 -7.69745,5.6833 -7.71966,12.62953 -0.0544,17.10985 -12.82594,60.6589 -21.6934,73.97292 -6.38613,9.58827 -8.00237,9.59527 -14.14482,0.0676 -3.81416,-5.92101 -5.08924,-18.09948 -2.83354,-27.06328 4.2235,-16.78349 -8.33569,-23.42031 -13.77032,-7.27687 -2.3928,7.10795 -6.93275,6.95166 -21.40629,-0.73746 -13.85695,-7.36076 -22.02977,-7.80393 -33.27007,-1.80422 -22.17553,11.8359 -24.70165,10.05873 -19.47001,-13.69785 2.99973,-13.62183 1.87118,-21.6506 -3.04303,-21.6506 -4.29598,0 -7.81086,6.26312 -7.81086,13.91817 0,7.65509 -5.09186,18.99683 -11.31526,25.20379 -6.22338,6.20696 -9.51541,14.18995 -7.31561,17.73997 2.19972,3.55001 -0.84863,10.46764 -6.77458,15.37263 -11.22658,9.29283 -12.31357,7.61086 -13.60761,-21.05522 -1.06368,-23.56195 -15.62048,-26.89164 -28.51368,-6.52204 -15.51878,24.51774 -19.8441,44.1704 -12.34509,56.092 5.71635,9.08739 8.51402,8.83684 20.32082,-1.82001 7.53053,-6.79715 15.84976,-10.20623 18.48723,-7.57568 2.63744,2.63055 11.17709,-0.97652 18.97698,-8.01751 13.77159,-12.43035 14.13896,-12.22582 12.70722,7.07436 -0.81085,10.93105 2.04485,21.1285 6.34597,22.66118 4.91858,1.75235 6.6239,-5.34318 4.59593,-19.12425 -2.99534,-20.35472 7.64581,-43.42931 20.02804,-43.42931 2.9406,0 3.80076,8.06485 1.91143,17.92175 -1.88927,9.85712 -1.4861,22.98754 0.89612,29.17869 6.20559,16.12904 31.98207,1.09606 37.80647,-22.04977 5.75017,-22.85019 15.47849,-22.69909 26.03282,0.40367 6.31795,13.83001 6.28046,20.28393 -0.15599,26.70243 -10.28616,10.25923 -11.02292,20.01147 -1.51162,20.01147 3.83628,0 15.59195,-12.17847 26.12372,-27.06327 z m -90.98626,100.08378 c 0,-3.96927 3.25617,-9.22406 7.23594,-11.67714 3.97978,-2.45306 7.23594,-1.21333 7.23594,2.75662 0,3.96929 -3.25616,9.22408 -7.23594,11.67714 -3.97977,2.45304 -7.23594,1.21333 -7.23594,-2.75662 z m -17.90791,13.28828 c 2.55969,-4.13077 10.50666,-5.65757 17.65994,-3.39328 8.41879,2.66506 14.76886,-0.41272 18.00414,-8.72746 4.4784,-11.50887 5.96524,-11.05466 14.29758,4.36824 6.09531,11.28223 11.07357,14.34985 14.4486,8.90336 2.83204,-4.57032 8.18035,-6.44105 11.8851,-4.15736 3.70478,2.28345 6.73595,0.0676 6.73595,-4.9341 0,-7.06711 1.9295,-7.16183 8.68312,-0.42625 13.64656,13.61058 21.29824,10.12145 11.63771,-5.30687 -4.81004,-7.68169 -11.34996,-12.36138 -14.53317,-10.39927 -3.18323,1.96207 -6.00804,-0.68337 -6.27739,-5.87951 -0.26932,-5.1957 -4.02311,-2.14024 -8.34168,6.79108 -9.81423,20.29587 -20.11233,21.00176 -20.11233,1.37798 0,-8.17288 -3.03116,-12.99127 -6.73596,-10.70758 -3.70473,2.28369 -8.97109,0.54577 -11.703,-3.86374 -3.14505,-5.07525 -13.06458,0.82543 -27.04198,16.08956 -23.33975,25.48659 -32.11708,20.70767 -23.66392,-12.88345 3.07514,-12.22021 8.1668,-17.03408 15.17836,-14.35053 10.79488,4.13143 14.40788,-3.69031 5.71118,-12.36407 -9.977,-9.95072 -31.33994,19.51892 -31.33994,43.23265 0,23.89076 14.96333,33.64618 25.50769,16.63015 z"
     inkscape:connector-curvature="0" />
</svg>
