<?xml version="1.0" encoding="utf-8"?>
<!-- Generator: Adobe Illustrator 21.1.0, SVG Export Plug-In . SVG Version: 6.00 Build 0)  -->
<svg version="1.1"
	 id="svg4979" inkscape:version="0.92.2 2405546, 2018-03-11" sodipodi:docname="poslist.svg" xmlns:cc="http://creativecommons.org/ns#" xmlns:dc="http://purl.org/dc/elements/1.1/" xmlns:inkscape="http://www.inkscape.org/namespaces/inkscape" xmlns:rdf="http://www.w3.org/1999/02/22-rdf-syntax-ns#" xmlns:sodipodi="http://sodipodi.sourceforge.net/DTD/sodipodi-0.dtd" xmlns:svg="http://www.w3.org/2000/svg"
	 xmlns="http://www.w3.org/2000/svg" xmlns:xlink="http://www.w3.org/1999/xlink" x="0px" y="0px" viewBox="0 0 512 512"
	 style="enable-background:new 0 0 512 512;" xml:space="preserve">
<style type="text/css">
	.st0{fill:#795548;}
	.st1{fill:#E8E8E8;}
	.st2{fill:#FFFFFF;}
</style>
<sodipodi:namedview  bordercolor="#666666" borderopacity="1" gridtolerance="10" guidetolerance="10" id="namedview4981" inkscape:current-layer="svg4979" inkscape:cx="-343.00894" inkscape:cy="591.27177" inkscape:pageopacity="0" inkscape:pageshadow="2" inkscape:window-height="908" inkscape:window-maximized="0" inkscape:window-width="1722" inkscape:window-x="104" inkscape:window-y="76" inkscape:zoom="0.34277344" objecttolerance="10" pagecolor="#ffffff" showgrid="false">
	</sodipodi:namedview>
<circle id="path817" class="st0" cx="256" cy="256" r="256"/>
<path id="XMLID_49_" class="st1" d="M380.8,368.4c-1.7,27.4-30.2,39.1-53.7,39.1c-49.2,0-67.1-42.5-78.8-42.5
	c-12.9,0-37.5,43-37.5,55.9c0,10.6,29.1,34.7,73.8,44.7l-6.1,3.9c-12.9,7.3-29.1,7.3-41.9,0l-114.6-66l-3.4-1.7l-35.8-20.7h-0.6
	C70,373.4,61.6,360,61.6,344.9V233.6l185.6-107.3c-27.4,20.1-36.3,50.9-36.3,72.1c0,22.4,4.5,47.5,31.9,69.3
	c0,0,27.4,21.2,63.7,38.6C331,318.6,383,333.1,380.8,368.4z"/>
<path id="XMLID_38_" class="st1" d="M383,197.9L314.3,237c-20.7-7.8-44.7-20.1-44.7-41.9c0-23.5,25.7-33.5,45.8-33.5
	C356.7,161.5,372.9,195.6,383,197.9z"/>
<path class="st2" d="M332.1,243.1c22.9,7.3,57.6,25.2,57.6,25.2c50.9,28.5,59.3,62.6,59.3,93.4c2.2-5,3.4-11.2,3.4-16.8V167.1
	c0-15.1-7.8-28.5-21.2-36.3L277.9,42.5c-12.9-7.3-29.1-7.3-41.9,0L82.3,130.8c-12.9,7.8-20.7,21.2-20.7,36.3v66.5l185.6-106.8
	c16.2-11.7,38.6-19.6,69.3-19.6c58.7,0,100.6,31.3,100.6,43c0,11.2-21.2,48.1-32.4,48.1c0,0-0.6,0-1.1,0l0,0l-68.8,39.1"/>
</svg>
