<?xml version="1.0" encoding="UTF-8" standalone="no"?>
<svg
   xmlns:dc="http://purl.org/dc/elements/1.1/"
   xmlns:cc="http://creativecommons.org/ns#"
   xmlns:rdf="http://www.w3.org/1999/02/22-rdf-syntax-ns#"
   xmlns:svg="http://www.w3.org/2000/svg"
   xmlns="http://www.w3.org/2000/svg"
   xmlns:sodipodi="http://sodipodi.sourceforge.net/DTD/sodipodi-0.dtd"
   xmlns:inkscape="http://www.inkscape.org/namespaces/inkscape"
   fill="#7289da"
   height="512"
   width="512"
   version="1.1"
   id="svg4979"
   sodipodi:docname="worldcoinindex.svg"
   inkscape:version="0.92.2 2405546, 2018-03-11">
  <metadata
     id="metadata4985">
    <rdf:RDF>
      <cc:Work
         rdf:about="">
        <dc:format>image/svg+xml</dc:format>
        <dc:type
           rdf:resource="http://purl.org/dc/dcmitype/StillImage" />
        <dc:title></dc:title>
      </cc:Work>
    </rdf:RDF>
  </metadata>
  <defs
     id="defs4983">
    <style
       id="style1516">
      .cls-1, .cls-5, .cls-6 {
        fill: none;
        stroke-linecap: round;
      }

      .cls-1, .cls-5 {
        stroke: #183c87;
      }

      .cls-1 {
        stroke-width: 75px;
      }

      .cls-2, .cls-3 {
        fill: #183c87;
      }

      .cls-2, .cls-5, .cls-6 {
        fill-rule: evenodd;
      }

      .cls-4 {
        fill: #fff;
      }

      .cls-5 {
        stroke-width: 101px;
      }

      .cls-6 {
        stroke: #fff;
        stroke-width: 56px;
      }
    </style>
  </defs>
  <sodipodi:namedview
     pagecolor="#ffffff"
     bordercolor="#666666"
     borderopacity="1"
     objecttolerance="10"
     gridtolerance="10"
     guidetolerance="10"
     inkscape:pageopacity="0"
     inkscape:pageshadow="2"
     inkscape:window-width="1722"
     inkscape:window-height="908"
     id="namedview4981"
     showgrid="false"
     inkscape:zoom="0.96950969"
     inkscape:cx="222.19845"
     inkscape:cy="169.07602"
     inkscape:window-x="104"
     inkscape:window-y="76"
     inkscape:window-maximized="0"
     inkscape:current-layer="svg4979" />
  <circle
     style="opacity:1;fill:#795548;fill-opacity:1;stroke:none;stroke-width:25.67475319;stroke-miterlimit:4;stroke-dasharray:none;stroke-opacity:1"
     id="path817"
     cx="256"
     cy="256"
     r="256" />
  <path
     style="fill:#ffffff;stroke-width:1.17137611;fill-opacity:1"
     d="m 95.120828,277.34226 c -10.34017,-4.60968 -6.542206,-24.89052 5.807952,-31.01403 5.05563,-2.50671 6.12631,-2.65255 10.29781,-1.40274 6.74677,2.02139 9.03987,7.16826 7.16855,16.08985 -1.36937,6.52849 -5.57722,13.46464 -9.41414,15.5181 -3.928,2.10221 -10.145099,2.46501 -13.860172,0.80882 z m 12.114572,-6.83884 c 3.63679,-3.99287 5.14495,-7.52433 5.34388,-12.51312 0.30473,-7.64138 -4.67222,-10.59999 -10.71329,-6.36866 -5.108867,3.57839 -8.083295,16.61656 -4.588129,20.11172 2.2564,2.2564 7.355809,1.62653 9.957539,-1.22994 z m 62.23556,6.70083 c -6.45601,-3.50608 -6.86171,-15.70931 -0.80507,-24.2151 3.112,-4.37038 10.32202,-7.96316 15.98055,-7.96316 h 4.52848 l 1.68515,-7.3211 c 1.53874,-6.68501 1.97282,-7.35421 4.9961,-7.70207 2.73182,-0.31433 3.20376,-0.007 2.69815,1.75706 -4.1791,14.58099 -9.12714,38.79805 -8.59599,42.07113 0.58358,3.59622 0.37376,3.99351 -2.10914,3.99351 -1.51645,0 -2.94343,-0.55876 -3.17106,-1.24169 -0.26705,-0.80115 -1.65232,-0.59592 -3.9046,0.57848 -4.29399,2.23901 -7.23817,2.2502 -11.30257,0.043 z m 11.92978,-5.56671 c 0.97633,-0.78483 2.8821,-6.03926 4.23507,-11.67651 l 2.4599,-10.24954 h -2.829 c -4.31377,0 -9.58856,3.20806 -12.1311,7.37797 -2.55296,4.18698 -3.0566,12.47697 -0.88969,14.6439 1.80101,1.801 6.86105,1.74805 9.15482,-0.0958 z m 32.19476,6.56776 c -6.42787,-1.4053 -9.17532,-3.33583 -11.25076,-7.90547 -2.68243,-5.90608 -2.75961,-10.14666 -0.33334,-18.31676 3.58905,-12.08565 15.11034,-19.91023 26.7287,-18.15256 6.07307,0.91877 7.96098,2.11691 7.05514,4.47751 -0.60068,1.56533 -2.04864,1.76877 -8.64982,1.21536 -7.88584,-0.66112 -7.95453,-0.64107 -12.79842,3.73509 -8.31014,7.50772 -10.50404,20.72979 -4.52066,27.24495 2.63631,2.87062 9.8701,3.59821 15.28929,1.53784 2.40898,-0.9159 2.98843,-0.71119 3.49754,1.23566 0.43224,1.65289 -0.13138,2.6085 -1.93254,3.27657 -3.764,1.39612 -10.41459,2.23565 -13.08513,1.65181 z m 163.76114,-0.39459 c -4.02734,-1.62187 -6.59587,-7.70159 -5.77717,-13.6746 1.51724,-11.06947 8.4259,-17.99788 18.80482,-18.85858 l 6.18457,-0.51288 1.65497,-7.19043 c 1.5075,-6.54976 1.94996,-7.22438 4.96591,-7.5714 2.74452,-0.31579 3.19847,-0.0152 2.65355,1.75706 -3.00534,9.77437 -8.92743,36.98852 -8.92743,41.02478 0,4.20786 -0.37533,5.03986 -2.27362,5.03986 -1.25049,0 -2.5798,-0.49541 -2.95402,-1.10092 -0.40332,-0.65258 -2.32431,-0.41405 -4.71702,0.58569 -4.55647,1.90381 -5.95151,1.97656 -9.61456,0.50142 z m 11.55386,-6.72161 c 1.87898,-2.22806 6.30755,-19.95175 5.24963,-21.00968 -1.75128,-1.75127 -9.04956,1.1841 -12.38268,4.98032 -4.28486,4.88017 -5.36949,12.78302 -2.26743,16.52078 1.84022,2.21733 7.35943,1.92881 9.40048,-0.49142 z m 23.48225,6.14199 c -8.53274,-3.7073 -8.83815,-17.33511 -0.59304,-26.46147 8.77866,-9.71692 22.60018,-8.02296 22.60018,2.76988 0,6.1939 -8.39148,11.37609 -18.44917,11.39334 -3.2636,0.006 -3.80697,0.41864 -3.80697,2.89377 0,4.05343 3.74702,5.73871 10.70663,4.81549 5.15303,-0.68358 5.69263,-0.53448 5.69263,1.57288 0,1.69239 -1.19937,2.66112 -4.39266,3.54795 -5.63896,1.56601 -7.07912,1.50087 -11.7576,-0.53184 z m 13.90661,-19.99534 c 3.55948,-3.22129 2.48218,-6.85918 -2.16379,-7.30674 -2.96809,-0.28593 -4.60342,0.41349 -7.3211,3.13119 -1.92464,1.92463 -3.49935,4.39911 -3.49935,5.49885 0,1.67954 0.85112,1.90358 5.31873,1.40001 2.9253,-0.32973 6.37478,-1.55521 7.66551,-2.72331 z M 37.303403,256.07626 V 234.328 l 3.058522,0.37064 3.058521,0.37065 -0.127083,16.98495 -0.127082,16.98496 2.963804,-4.68551 c 1.630087,-2.57703 5.450343,-9.29261 8.489466,-14.92351 4.313288,-7.99166 6.081375,-10.24053 8.058318,-10.24954 2.816375,-0.0129 3.234169,1.60067 4.580034,17.68776 0.410169,4.90268 1.139128,9.55047 1.619931,10.32842 0.522387,0.84525 3.861687,-5.45233 8.298086,-15.64939 7.010194,-16.11292 7.605827,-17.06383 10.68835,-17.06383 2.90636,0 3.152677,0.28911 2.24547,2.6356 -2.893815,7.48486 -11.331424,25.84319 -15.074416,32.79853 -3.62398,6.73419 -4.720282,7.90679 -7.392285,7.90679 -3.487514,0 -3.312757,0.52341 -5.861249,-17.55469 -0.94926,-6.73376 -1.732817,-9.37905 -2.42879,-8.19963 -0.565084,0.95761 -4.19109,7.14408 -8.057767,13.74771 -6.415686,10.95689 -7.334654,12.00661 -10.511086,12.00661 h -3.480744 z m 85.510447,20.64781 c 0,-3.64261 7.26197,-29.95152 8.48105,-30.72542 1.88879,-1.19907 14.60163,-1.6138 15.77855,-0.51475 0.13551,0.12654 -0.0314,1.29223 -0.37086,2.5904 -0.50991,1.94989 -1.55711,2.34838 -6.02226,2.2916 l -5.40504,-0.0688 -3.43851,13.76367 c -3.18767,12.75958 -3.64221,13.76367 -6.23072,13.76367 -1.53572,0 -2.79221,-0.4952 -2.79221,-1.10045 z m 27.61277,-0.73853 c -3.44352,-3.44351 -3.24994,-7.3051 1.32806,-26.49332 4.44985,-18.65112 4.6357,-19.11741 7.76534,-19.48323 2.83008,-0.3308 3.12847,-0.0559 2.54248,2.34275 -7.2482,29.66862 -8.60265,36.61122 -7.53264,38.61054 0.64073,1.1972 1.67352,2.17673 2.29511,2.17673 0.62159,0 1.13017,1.05424 1.13017,2.34275 0,2.91319 -4.79804,3.23426 -7.52852,0.50378 z m 88.88592,-1.03622 c -5.60217,-5.60216 -2.77832,-19.99713 5.24762,-26.75051 2.98211,-2.50929 4.97674,-3.17282 9.53769,-3.17282 9.68673,0 13.08978,5.65794 10.46295,17.39586 -1.10648,4.9443 -2.58306,7.70852 -5.87746,11.00293 -3.94921,3.9492 -5.01906,4.39974 -10.44768,4.39974 -4.85943,0 -6.61295,-0.56502 -8.92312,-2.8752 z m 13.70066,-3.07619 c 5.04832,-2.70179 8.88349,-17.3185 5.446,-20.75599 -2.34344,-2.34344 -8.48145,-1.66923 -11.19726,1.22995 -4.6825,4.99861 -6.74184,16.2065 -3.56207,19.38627 1.74784,1.74783 6.18421,1.81442 9.31333,0.13977 z m 16.89806,3.90148 c 0.75489,-3.39302 5.23319,-21.65026 6.46483,-26.35596 0.83551,-3.1922 1.77761,-4.39266 3.4473,-4.39266 2.93987,0 2.89814,1.24414 -0.50364,15.01561 -1.54069,6.23719 -3.13208,12.78993 -3.53644,14.56163 -0.54987,2.40928 -1.44012,3.22129 -3.53166,3.22129 -2.05611,0 -2.67571,-0.5427 -2.34039,-2.04991 z m 15.72387,0.64273 c 0,-2.54939 6.65285,-29.06365 7.50681,-29.91761 0.43052,-0.43052 4.15358,-0.99739 8.2735,-1.25972 6.8067,-0.43342 7.76531,-0.20242 10.49742,2.52969 3.65715,3.65715 3.72996,6.18491 0.56632,19.66027 -2.23921,9.53784 -2.67367,10.39455 -5.27119,10.39455 -1.55696,0 -2.82181,-0.13178 -2.81077,-0.29285 0.0106,-0.16106 1.05625,-4.24624 2.32268,-9.07816 3.96223,-15.11742 3.01949,-18.74202 -4.87464,-18.74202 -4.95348,0 -4.61019,-0.70086 -8.89299,18.15633 -1.81519,7.99226 -2.51004,9.42607 -4.72273,9.74532 -1.57409,0.22711 -2.59441,-0.24316 -2.59441,-1.1958 z m 34.02386,0.60645 c 0.0296,-0.52599 2.28943,-10.18092 5.02168,-21.45542 4.84552,-19.99476 5.04592,-20.50819 8.14569,-20.86973 1.74787,-0.20385 3.15703,0.0597 3.13147,0.58569 -0.0255,0.52598 -2.27747,10.18092 -5.00426,21.45542 -4.84543,20.03445 -5.03023,20.50748 -8.15317,20.86973 -1.75745,0.20385 -3.17108,-0.0597 -3.14141,-0.58569 z m 16.34531,-0.45122 c 0,-0.68857 1.26057,-6.3551 2.80125,-12.59229 1.54069,-6.23719 3.12154,-12.74793 3.51303,-14.46832 0.77844,-3.42096 3.81739,-4.57865 12.32723,-4.6961 5.92747,-0.0818 10.1439,2.55766 10.98115,6.87412 0.35127,1.81098 -0.4631,8.43212 -1.80973,14.71362 -2.36259,11.02059 -2.55921,11.42092 -5.60941,11.42092 h -3.16101 l 2.1525,-9.07817 c 3.70896,-15.64255 2.67611,-19.56528 -4.95584,-18.82194 l -3.82726,0.37277 -3.41375,13.76367 c -3.16643,12.7665 -3.61605,13.76367 -6.20595,13.76367 -1.53572,0 -2.79221,-0.56338 -2.79221,-1.25195 z m 99.36078,-1.96934 c 1.26285,-1.7717 3.46411,-4.27552 4.89169,-5.56403 1.42758,-1.28852 3.63689,-3.80364 4.90958,-5.58915 l 2.31397,-3.2464 -3.61177,-6.39971 c -4.37588,-7.75363 -4.45384,-8.77795 -0.66811,-8.77795 2.32847,0 3.47887,1.10162 5.5046,5.27119 1.40852,2.89915 2.89368,5.27119 3.30034,5.27119 0.40666,0 2.44286,-2.37204 4.52488,-5.27119 2.70788,-3.77067 4.59838,-5.27119 6.64114,-5.27119 1.5706,0 2.85565,0.40296 2.85565,0.89548 0,0.49251 -2.65028,4.17092 -5.88949,8.17421 l -5.8895,7.27873 2.80935,5.58946 c 4.71978,9.39042 4.9184,10.86065 1.4672,10.86065 -2.46611,0 -3.4205,-1.036 -5.58103,-6.05829 l -2.6062,-6.0583 -5.42619,6.0583 c -4.03153,4.50116 -6.25071,6.05829 -8.63419,6.05829 h -3.20801 z M 279.062,237.4942 c -1.1663,-3.03933 0.46841,-5.55137 3.34661,-5.14267 1.93597,0.27491 2.64083,1.15663 2.64083,3.30345 0,2.14681 -0.70486,3.02853 -2.64083,3.30344 -1.58403,0.22493 -2.92328,-0.36102 -3.34661,-1.46422 z"
     id="path906"
     inkscape:connector-curvature="0" />
</svg>
